%TF.GenerationSoftware,KiCad,Pcbnew,10.0.1*%
%TF.CreationDate,2026-05-18T09:28:42-07:00*%
%TF.ProjectId,MCU Datalogger,4d435520-4461-4746-916c-6f676765722e,1*%
%TF.SameCoordinates,Original*%
%TF.FileFunction,Copper,L2,Inr*%
%TF.FilePolarity,Positive*%
%FSLAX46Y46*%
G04 Gerber Fmt 4.6, Leading zero omitted, Abs format (unit mm)*
G04 Created by KiCad (PCBNEW 10.0.1) date 2026-05-18 09:28:42*
%MOMM*%
%LPD*%
G01*
G04 APERTURE LIST*
%TA.AperFunction,ComponentPad*%
%ADD10R,1.700000X1.700000*%
%TD*%
%TA.AperFunction,ComponentPad*%
%ADD11C,1.700000*%
%TD*%
%TA.AperFunction,ViaPad*%
%ADD12C,0.600000*%
%TD*%
%TA.AperFunction,ViaPad*%
%ADD13C,0.800000*%
%TD*%
G04 APERTURE END LIST*
D10*
%TO.N,GND*%
%TO.C,J3*%
X133630000Y-92500000D03*
D11*
%TO.N,/Vcc*%
X136170000Y-92500000D03*
%TO.N,/RX*%
X138710000Y-92500000D03*
%TO.N,/TX*%
X141250000Y-92500000D03*
%TD*%
D10*
%TO.N,/MISO*%
%TO.C,J4*%
X146460000Y-66750000D03*
D11*
%TO.N,/Vcc*%
X149000000Y-66750000D03*
%TO.N,/SCK*%
X146460000Y-69290000D03*
%TO.N,/MOSI*%
X149000000Y-69290000D03*
%TO.N,/RESET*%
X146460000Y-71830000D03*
%TO.N,GND*%
X149000000Y-71830000D03*
%TD*%
D10*
%TO.N,GND*%
%TO.C,J1*%
X148500000Y-77250000D03*
D11*
%TO.N,/Vcc*%
X148500000Y-79790000D03*
%TO.N,/SDA*%
X148500000Y-82330000D03*
%TO.N,/SCK*%
X148500000Y-84870000D03*
%TD*%
D10*
%TO.N,/D2*%
%TO.C,J2*%
X107210000Y-92500000D03*
D11*
%TO.N,/D3*%
X109750000Y-92500000D03*
%TO.N,/D4*%
X112290000Y-92500000D03*
%TO.N,/D5*%
X114830000Y-92500000D03*
%TO.N,/D6*%
X117370000Y-92500000D03*
%TO.N,/D7*%
X119910000Y-92500000D03*
%TO.N,/D8*%
X122450000Y-92500000D03*
%TO.N,GND*%
X124990000Y-92500000D03*
%TO.N,/Vcc*%
X127530000Y-92500000D03*
%TD*%
D10*
%TO.N,Net-(BT1-+)*%
%TO.C,BT1*%
X103000000Y-71000000D03*
D11*
%TO.N,GND*%
X103000000Y-73540000D03*
%TD*%
D12*
%TO.N,/SDA*%
X118262400Y-68783200D03*
X125222000Y-71475600D03*
D13*
%TO.N,/Vcc*%
X105714800Y-72339200D03*
D12*
%TO.N,GND*%
X107543600Y-84683600D03*
%TO.N,Net-(BT1-+)*%
X126034800Y-74269600D03*
X126034800Y-66506800D03*
%TO.N,Net-(U4-AREF)*%
X133045200Y-86004400D03*
X132211093Y-87448107D03*
%TO.N,GND*%
X121564400Y-72440800D03*
X129794000Y-73558400D03*
D13*
%TO.N,/Vcc*%
X104038400Y-65684400D03*
X136906000Y-77012800D03*
X136855200Y-71780400D03*
X116128800Y-63144400D03*
X115011200Y-69748400D03*
X113334800Y-77876400D03*
X116147200Y-86055200D03*
X106273600Y-87680800D03*
D12*
%TO.N,GND*%
X136855200Y-82194400D03*
X138790700Y-71165700D03*
X135585200Y-67462400D03*
X129082800Y-64922400D03*
X110998000Y-65735200D03*
X110185200Y-74523600D03*
X113182400Y-71882000D03*
%TO.N,/SCK*%
X124256800Y-66192400D03*
X124358400Y-68106800D03*
%TO.N,Net-(BT1-+)*%
X125697065Y-75877335D03*
X124307600Y-76301600D03*
%TO.N,Net-(U4-PB6)*%
X118405200Y-77320000D03*
X121731651Y-80297142D03*
X133045200Y-82245200D03*
X128524000Y-85496400D03*
%TO.N,Net-(U4-PB7)*%
X125323600Y-82143600D03*
X122986800Y-76454000D03*
X121462800Y-76403200D03*
X123240800Y-66090800D03*
%TO.N,/MISO*%
X139750800Y-74787200D03*
X130149600Y-78130400D03*
%TO.N,/MOSI*%
X141427200Y-74269600D03*
X127000000Y-79867200D03*
%TO.N,/SCK*%
X143967200Y-72339200D03*
%TO.N,/RESET*%
X137922000Y-74787200D03*
X123494800Y-75184000D03*
%TO.N,/SDA*%
X131080000Y-71475600D03*
X133045200Y-71475600D03*
%TD*%
%TA.AperFunction,Conductor*%
%TO.N,GND*%
G36*
X150420139Y-60540385D02*
G01*
X150465894Y-60593189D01*
X150477100Y-60644700D01*
X150477100Y-66157743D01*
X150457415Y-66224782D01*
X150404611Y-66270537D01*
X150335453Y-66280481D01*
X150271897Y-66251456D01*
X150242615Y-66214038D01*
X150155048Y-66042179D01*
X150030109Y-65870213D01*
X149879786Y-65719890D01*
X149707820Y-65594951D01*
X149518414Y-65498444D01*
X149518413Y-65498443D01*
X149518412Y-65498443D01*
X149316243Y-65432754D01*
X149316241Y-65432753D01*
X149316240Y-65432753D01*
X149154957Y-65407208D01*
X149106287Y-65399500D01*
X148893713Y-65399500D01*
X148845042Y-65407208D01*
X148683760Y-65432753D01*
X148481585Y-65498444D01*
X148292179Y-65594951D01*
X148120215Y-65719889D01*
X148006673Y-65833431D01*
X147945350Y-65866915D01*
X147875658Y-65861931D01*
X147819725Y-65820059D01*
X147802810Y-65789082D01*
X147753797Y-65657671D01*
X147753793Y-65657664D01*
X147667547Y-65542455D01*
X147667544Y-65542452D01*
X147552335Y-65456206D01*
X147552328Y-65456202D01*
X147417482Y-65405908D01*
X147417483Y-65405908D01*
X147357883Y-65399501D01*
X147357881Y-65399500D01*
X147357873Y-65399500D01*
X147357864Y-65399500D01*
X145562129Y-65399500D01*
X145562123Y-65399501D01*
X145502516Y-65405908D01*
X145367671Y-65456202D01*
X145367664Y-65456206D01*
X145252455Y-65542452D01*
X145252452Y-65542455D01*
X145166206Y-65657664D01*
X145166202Y-65657671D01*
X145115908Y-65792517D01*
X145109501Y-65852116D01*
X145109500Y-65852135D01*
X145109500Y-67647870D01*
X145109501Y-67647876D01*
X145115908Y-67707483D01*
X145166202Y-67842328D01*
X145166206Y-67842335D01*
X145252452Y-67957544D01*
X145252455Y-67957547D01*
X145367664Y-68043793D01*
X145367671Y-68043797D01*
X145499082Y-68092810D01*
X145555016Y-68134681D01*
X145579433Y-68200145D01*
X145564582Y-68268418D01*
X145543431Y-68296673D01*
X145429889Y-68410215D01*
X145304951Y-68582179D01*
X145208444Y-68771585D01*
X145142753Y-68973760D01*
X145109500Y-69183713D01*
X145109500Y-69396286D01*
X145139183Y-69583700D01*
X145142754Y-69606243D01*
X145203258Y-69792455D01*
X145208444Y-69808414D01*
X145304951Y-69997820D01*
X145429890Y-70169786D01*
X145580213Y-70320109D01*
X145752182Y-70445050D01*
X145760946Y-70449516D01*
X145811742Y-70497491D01*
X145828536Y-70565312D01*
X145805998Y-70631447D01*
X145760946Y-70670484D01*
X145752182Y-70674949D01*
X145580213Y-70799890D01*
X145429890Y-70950213D01*
X145304951Y-71122179D01*
X145208444Y-71311585D01*
X145142753Y-71513760D01*
X145109500Y-71723713D01*
X145109500Y-71936286D01*
X145134214Y-72092328D01*
X145142754Y-72146243D01*
X145207038Y-72344089D01*
X145208444Y-72348414D01*
X145304951Y-72537820D01*
X145429890Y-72709786D01*
X145580213Y-72860109D01*
X145752179Y-72985048D01*
X145752181Y-72985049D01*
X145752184Y-72985051D01*
X145941588Y-73081557D01*
X146143757Y-73147246D01*
X146353713Y-73180500D01*
X146353714Y-73180500D01*
X146566286Y-73180500D01*
X146566287Y-73180500D01*
X146776243Y-73147246D01*
X146978412Y-73081557D01*
X147167816Y-72985051D01*
X147266663Y-72913235D01*
X147339786Y-72860109D01*
X147339788Y-72860106D01*
X147339792Y-72860104D01*
X147490104Y-72709792D01*
X147490106Y-72709788D01*
X147490109Y-72709786D01*
X147557515Y-72617007D01*
X147615051Y-72537816D01*
X147619793Y-72528508D01*
X147667763Y-72477711D01*
X147735583Y-72460911D01*
X147801719Y-72483445D01*
X147840763Y-72528500D01*
X147845373Y-72537547D01*
X147884728Y-72591716D01*
X148517037Y-71959408D01*
X148534075Y-72022993D01*
X148599901Y-72137007D01*
X148692993Y-72230099D01*
X148807007Y-72295925D01*
X148870590Y-72312962D01*
X148238282Y-72945269D01*
X148238282Y-72945270D01*
X148292449Y-72984624D01*
X148481782Y-73081095D01*
X148683870Y-73146757D01*
X148893754Y-73180000D01*
X149106246Y-73180000D01*
X149316127Y-73146757D01*
X149316130Y-73146757D01*
X149518217Y-73081095D01*
X149707554Y-72984622D01*
X149761716Y-72945270D01*
X149761717Y-72945270D01*
X149129408Y-72312962D01*
X149192993Y-72295925D01*
X149307007Y-72230099D01*
X149400099Y-72137007D01*
X149465925Y-72022993D01*
X149482962Y-71959408D01*
X150115270Y-72591717D01*
X150115270Y-72591716D01*
X150154622Y-72537554D01*
X150242615Y-72364861D01*
X150290590Y-72314065D01*
X150358411Y-72297270D01*
X150424546Y-72319808D01*
X150467997Y-72374523D01*
X150477100Y-72421156D01*
X150477100Y-94396900D01*
X150457415Y-94463939D01*
X150404611Y-94509694D01*
X150353100Y-94520900D01*
X100624300Y-94520900D01*
X100557261Y-94501215D01*
X100511506Y-94448411D01*
X100500300Y-94396900D01*
X100500300Y-92397648D01*
X101199500Y-92397648D01*
X101199500Y-92602351D01*
X101231522Y-92804534D01*
X101294781Y-92999223D01*
X101358691Y-93124653D01*
X101373644Y-93153999D01*
X101387715Y-93181613D01*
X101508028Y-93347213D01*
X101652786Y-93491971D01*
X101790928Y-93592335D01*
X101818390Y-93612287D01*
X101902319Y-93655051D01*
X102000776Y-93705218D01*
X102000778Y-93705218D01*
X102000781Y-93705220D01*
X102105137Y-93739127D01*
X102195465Y-93768477D01*
X102296557Y-93784488D01*
X102397648Y-93800500D01*
X102397649Y-93800500D01*
X102602351Y-93800500D01*
X102602352Y-93800500D01*
X102804534Y-93768477D01*
X102999219Y-93705220D01*
X103181610Y-93612287D01*
X103294726Y-93530104D01*
X103347213Y-93491971D01*
X103347215Y-93491968D01*
X103347219Y-93491966D01*
X103491966Y-93347219D01*
X103491968Y-93347215D01*
X103491971Y-93347213D01*
X103593244Y-93207820D01*
X103612287Y-93181610D01*
X103705220Y-92999219D01*
X103768477Y-92804534D01*
X103800500Y-92602352D01*
X103800500Y-92397648D01*
X103786144Y-92307007D01*
X103768477Y-92195465D01*
X103737426Y-92099901D01*
X103705220Y-92000781D01*
X103705218Y-92000778D01*
X103705218Y-92000776D01*
X103612287Y-91818390D01*
X103505705Y-91671691D01*
X103505704Y-91671690D01*
X103491967Y-91652782D01*
X103441320Y-91602135D01*
X105859500Y-91602135D01*
X105859500Y-93397870D01*
X105859501Y-93397876D01*
X105865908Y-93457483D01*
X105916202Y-93592328D01*
X105916206Y-93592335D01*
X106002452Y-93707544D01*
X106002455Y-93707547D01*
X106117664Y-93793793D01*
X106117671Y-93793797D01*
X106252517Y-93844091D01*
X106252516Y-93844091D01*
X106259444Y-93844835D01*
X106312127Y-93850500D01*
X108107872Y-93850499D01*
X108167483Y-93844091D01*
X108302331Y-93793796D01*
X108417546Y-93707546D01*
X108503796Y-93592331D01*
X108552810Y-93460916D01*
X108594681Y-93404984D01*
X108660145Y-93380566D01*
X108728418Y-93395417D01*
X108756673Y-93416569D01*
X108870213Y-93530109D01*
X109042179Y-93655048D01*
X109042181Y-93655049D01*
X109042184Y-93655051D01*
X109231588Y-93751557D01*
X109433757Y-93817246D01*
X109643713Y-93850500D01*
X109643714Y-93850500D01*
X109856286Y-93850500D01*
X109856287Y-93850500D01*
X110066243Y-93817246D01*
X110268412Y-93751557D01*
X110457816Y-93655051D01*
X110544138Y-93592335D01*
X110629786Y-93530109D01*
X110629788Y-93530106D01*
X110629792Y-93530104D01*
X110780104Y-93379792D01*
X110780106Y-93379788D01*
X110780109Y-93379786D01*
X110905048Y-93207820D01*
X110905047Y-93207820D01*
X110905051Y-93207816D01*
X110909514Y-93199054D01*
X110957488Y-93148259D01*
X111025308Y-93131463D01*
X111091444Y-93153999D01*
X111130486Y-93199056D01*
X111134951Y-93207820D01*
X111259890Y-93379786D01*
X111410213Y-93530109D01*
X111582179Y-93655048D01*
X111582181Y-93655049D01*
X111582184Y-93655051D01*
X111771588Y-93751557D01*
X111973757Y-93817246D01*
X112183713Y-93850500D01*
X112183714Y-93850500D01*
X112396286Y-93850500D01*
X112396287Y-93850500D01*
X112606243Y-93817246D01*
X112808412Y-93751557D01*
X112997816Y-93655051D01*
X113084138Y-93592335D01*
X113169786Y-93530109D01*
X113169788Y-93530106D01*
X113169792Y-93530104D01*
X113320104Y-93379792D01*
X113320106Y-93379788D01*
X113320109Y-93379786D01*
X113445048Y-93207820D01*
X113445047Y-93207820D01*
X113445051Y-93207816D01*
X113449514Y-93199054D01*
X113497488Y-93148259D01*
X113565308Y-93131463D01*
X113631444Y-93153999D01*
X113670486Y-93199056D01*
X113674951Y-93207820D01*
X113799890Y-93379786D01*
X113950213Y-93530109D01*
X114122179Y-93655048D01*
X114122181Y-93655049D01*
X114122184Y-93655051D01*
X114311588Y-93751557D01*
X114513757Y-93817246D01*
X114723713Y-93850500D01*
X114723714Y-93850500D01*
X114936286Y-93850500D01*
X114936287Y-93850500D01*
X115146243Y-93817246D01*
X115348412Y-93751557D01*
X115537816Y-93655051D01*
X115624138Y-93592335D01*
X115709786Y-93530109D01*
X115709788Y-93530106D01*
X115709792Y-93530104D01*
X115860104Y-93379792D01*
X115860106Y-93379788D01*
X115860109Y-93379786D01*
X115985048Y-93207820D01*
X115985047Y-93207820D01*
X115985051Y-93207816D01*
X115989514Y-93199054D01*
X116037488Y-93148259D01*
X116105308Y-93131463D01*
X116171444Y-93153999D01*
X116210486Y-93199056D01*
X116214951Y-93207820D01*
X116339890Y-93379786D01*
X116490213Y-93530109D01*
X116662179Y-93655048D01*
X116662181Y-93655049D01*
X116662184Y-93655051D01*
X116851588Y-93751557D01*
X117053757Y-93817246D01*
X117263713Y-93850500D01*
X117263714Y-93850500D01*
X117476286Y-93850500D01*
X117476287Y-93850500D01*
X117686243Y-93817246D01*
X117888412Y-93751557D01*
X118077816Y-93655051D01*
X118164138Y-93592335D01*
X118249786Y-93530109D01*
X118249788Y-93530106D01*
X118249792Y-93530104D01*
X118400104Y-93379792D01*
X118400106Y-93379788D01*
X118400109Y-93379786D01*
X118525048Y-93207820D01*
X118525047Y-93207820D01*
X118525051Y-93207816D01*
X118529514Y-93199054D01*
X118577488Y-93148259D01*
X118645308Y-93131463D01*
X118711444Y-93153999D01*
X118750486Y-93199056D01*
X118754951Y-93207820D01*
X118879890Y-93379786D01*
X119030213Y-93530109D01*
X119202179Y-93655048D01*
X119202181Y-93655049D01*
X119202184Y-93655051D01*
X119391588Y-93751557D01*
X119593757Y-93817246D01*
X119803713Y-93850500D01*
X119803714Y-93850500D01*
X120016286Y-93850500D01*
X120016287Y-93850500D01*
X120226243Y-93817246D01*
X120428412Y-93751557D01*
X120617816Y-93655051D01*
X120704138Y-93592335D01*
X120789786Y-93530109D01*
X120789788Y-93530106D01*
X120789792Y-93530104D01*
X120940104Y-93379792D01*
X120940106Y-93379788D01*
X120940109Y-93379786D01*
X121065048Y-93207820D01*
X121065047Y-93207820D01*
X121065051Y-93207816D01*
X121069514Y-93199054D01*
X121117488Y-93148259D01*
X121185308Y-93131463D01*
X121251444Y-93153999D01*
X121290486Y-93199056D01*
X121294951Y-93207820D01*
X121419890Y-93379786D01*
X121570213Y-93530109D01*
X121742179Y-93655048D01*
X121742181Y-93655049D01*
X121742184Y-93655051D01*
X121931588Y-93751557D01*
X122133757Y-93817246D01*
X122343713Y-93850500D01*
X122343714Y-93850500D01*
X122556286Y-93850500D01*
X122556287Y-93850500D01*
X122766243Y-93817246D01*
X122968412Y-93751557D01*
X123157816Y-93655051D01*
X123244138Y-93592335D01*
X123329786Y-93530109D01*
X123329788Y-93530106D01*
X123329792Y-93530104D01*
X123480104Y-93379792D01*
X123480106Y-93379788D01*
X123480109Y-93379786D01*
X123565890Y-93261717D01*
X123605051Y-93207816D01*
X123609793Y-93198508D01*
X123657763Y-93147711D01*
X123725583Y-93130911D01*
X123791719Y-93153445D01*
X123830763Y-93198500D01*
X123835373Y-93207547D01*
X123874728Y-93261716D01*
X124507037Y-92629408D01*
X124524075Y-92692993D01*
X124589901Y-92807007D01*
X124682993Y-92900099D01*
X124797007Y-92965925D01*
X124860590Y-92982962D01*
X124228282Y-93615269D01*
X124228282Y-93615270D01*
X124282449Y-93654624D01*
X124471782Y-93751095D01*
X124673870Y-93816757D01*
X124883754Y-93850000D01*
X125096246Y-93850000D01*
X125306127Y-93816757D01*
X125306130Y-93816757D01*
X125508217Y-93751095D01*
X125697554Y-93654622D01*
X125751716Y-93615270D01*
X125751717Y-93615270D01*
X125119408Y-92982962D01*
X125182993Y-92965925D01*
X125297007Y-92900099D01*
X125390099Y-92807007D01*
X125455925Y-92692993D01*
X125472962Y-92629408D01*
X126105270Y-93261717D01*
X126105270Y-93261716D01*
X126144622Y-93207555D01*
X126149232Y-93198507D01*
X126197205Y-93147709D01*
X126265025Y-93130912D01*
X126331161Y-93153447D01*
X126370204Y-93198504D01*
X126374949Y-93207817D01*
X126499890Y-93379786D01*
X126650213Y-93530109D01*
X126822179Y-93655048D01*
X126822181Y-93655049D01*
X126822184Y-93655051D01*
X127011588Y-93751557D01*
X127213757Y-93817246D01*
X127423713Y-93850500D01*
X127423714Y-93850500D01*
X127636286Y-93850500D01*
X127636287Y-93850500D01*
X127846243Y-93817246D01*
X128048412Y-93751557D01*
X128237816Y-93655051D01*
X128324138Y-93592335D01*
X128409786Y-93530109D01*
X128409788Y-93530106D01*
X128409792Y-93530104D01*
X128560104Y-93379792D01*
X128560106Y-93379788D01*
X128560109Y-93379786D01*
X128685048Y-93207820D01*
X128685047Y-93207820D01*
X128685051Y-93207816D01*
X128781557Y-93018412D01*
X128847246Y-92816243D01*
X128880500Y-92606287D01*
X128880500Y-92393713D01*
X128847246Y-92183757D01*
X128781557Y-91981588D01*
X128685051Y-91792184D01*
X128685049Y-91792181D01*
X128685048Y-91792179D01*
X128597542Y-91671736D01*
X128560109Y-91620214D01*
X128560105Y-91620209D01*
X128542051Y-91602155D01*
X132280000Y-91602155D01*
X132280000Y-92250000D01*
X133196988Y-92250000D01*
X133164075Y-92307007D01*
X133130000Y-92434174D01*
X133130000Y-92565826D01*
X133164075Y-92692993D01*
X133196988Y-92750000D01*
X132280000Y-92750000D01*
X132280000Y-93397844D01*
X132286401Y-93457372D01*
X132286403Y-93457379D01*
X132336645Y-93592086D01*
X132336649Y-93592093D01*
X132422809Y-93707187D01*
X132422812Y-93707190D01*
X132537906Y-93793350D01*
X132537913Y-93793354D01*
X132672620Y-93843596D01*
X132672627Y-93843598D01*
X132732155Y-93849999D01*
X132732172Y-93850000D01*
X133380000Y-93850000D01*
X133380000Y-92933012D01*
X133437007Y-92965925D01*
X133564174Y-93000000D01*
X133695826Y-93000000D01*
X133822993Y-92965925D01*
X133880000Y-92933012D01*
X133880000Y-93850000D01*
X134527828Y-93850000D01*
X134527844Y-93849999D01*
X134587372Y-93843598D01*
X134587379Y-93843596D01*
X134722086Y-93793354D01*
X134722093Y-93793350D01*
X134837187Y-93707190D01*
X134837190Y-93707187D01*
X134923350Y-93592093D01*
X134923354Y-93592086D01*
X134972422Y-93460529D01*
X135014293Y-93404595D01*
X135079757Y-93380178D01*
X135148030Y-93395030D01*
X135176285Y-93416181D01*
X135290213Y-93530109D01*
X135462179Y-93655048D01*
X135462181Y-93655049D01*
X135462184Y-93655051D01*
X135651588Y-93751557D01*
X135853757Y-93817246D01*
X136063713Y-93850500D01*
X136063714Y-93850500D01*
X136276286Y-93850500D01*
X136276287Y-93850500D01*
X136486243Y-93817246D01*
X136688412Y-93751557D01*
X136877816Y-93655051D01*
X136964138Y-93592335D01*
X137049786Y-93530109D01*
X137049788Y-93530106D01*
X137049792Y-93530104D01*
X137200104Y-93379792D01*
X137200106Y-93379788D01*
X137200109Y-93379786D01*
X137325048Y-93207820D01*
X137325047Y-93207820D01*
X137325051Y-93207816D01*
X137329514Y-93199054D01*
X137377488Y-93148259D01*
X137445308Y-93131463D01*
X137511444Y-93153999D01*
X137550486Y-93199056D01*
X137554951Y-93207820D01*
X137679890Y-93379786D01*
X137830213Y-93530109D01*
X138002179Y-93655048D01*
X138002181Y-93655049D01*
X138002184Y-93655051D01*
X138191588Y-93751557D01*
X138393757Y-93817246D01*
X138603713Y-93850500D01*
X138603714Y-93850500D01*
X138816286Y-93850500D01*
X138816287Y-93850500D01*
X139026243Y-93817246D01*
X139228412Y-93751557D01*
X139417816Y-93655051D01*
X139504138Y-93592335D01*
X139589786Y-93530109D01*
X139589788Y-93530106D01*
X139589792Y-93530104D01*
X139740104Y-93379792D01*
X139740106Y-93379788D01*
X139740109Y-93379786D01*
X139865048Y-93207820D01*
X139865047Y-93207820D01*
X139865051Y-93207816D01*
X139869514Y-93199054D01*
X139917488Y-93148259D01*
X139985308Y-93131463D01*
X140051444Y-93153999D01*
X140090486Y-93199056D01*
X140094951Y-93207820D01*
X140219890Y-93379786D01*
X140370213Y-93530109D01*
X140542179Y-93655048D01*
X140542181Y-93655049D01*
X140542184Y-93655051D01*
X140731588Y-93751557D01*
X140933757Y-93817246D01*
X141143713Y-93850500D01*
X141143714Y-93850500D01*
X141356286Y-93850500D01*
X141356287Y-93850500D01*
X141566243Y-93817246D01*
X141768412Y-93751557D01*
X141957816Y-93655051D01*
X142044138Y-93592335D01*
X142129786Y-93530109D01*
X142129788Y-93530106D01*
X142129792Y-93530104D01*
X142280104Y-93379792D01*
X142280106Y-93379788D01*
X142280109Y-93379786D01*
X142405048Y-93207820D01*
X142405047Y-93207820D01*
X142405051Y-93207816D01*
X142501557Y-93018412D01*
X142567246Y-92816243D01*
X142600500Y-92606287D01*
X142600500Y-92397648D01*
X147199500Y-92397648D01*
X147199500Y-92602351D01*
X147231522Y-92804534D01*
X147294781Y-92999223D01*
X147358691Y-93124653D01*
X147373644Y-93153999D01*
X147387715Y-93181613D01*
X147508028Y-93347213D01*
X147652786Y-93491971D01*
X147790928Y-93592335D01*
X147818390Y-93612287D01*
X147902319Y-93655051D01*
X148000776Y-93705218D01*
X148000778Y-93705218D01*
X148000781Y-93705220D01*
X148105137Y-93739127D01*
X148195465Y-93768477D01*
X148296557Y-93784488D01*
X148397648Y-93800500D01*
X148397649Y-93800500D01*
X148602351Y-93800500D01*
X148602352Y-93800500D01*
X148804534Y-93768477D01*
X148999219Y-93705220D01*
X149181610Y-93612287D01*
X149294726Y-93530104D01*
X149347213Y-93491971D01*
X149347215Y-93491968D01*
X149347219Y-93491966D01*
X149491966Y-93347219D01*
X149491968Y-93347215D01*
X149491971Y-93347213D01*
X149593244Y-93207820D01*
X149612287Y-93181610D01*
X149705220Y-92999219D01*
X149768477Y-92804534D01*
X149800500Y-92602352D01*
X149800500Y-92397648D01*
X149786144Y-92307007D01*
X149768477Y-92195465D01*
X149737426Y-92099901D01*
X149705220Y-92000781D01*
X149705218Y-92000778D01*
X149705218Y-92000776D01*
X149638118Y-91869087D01*
X149612287Y-91818390D01*
X149593438Y-91792446D01*
X149491971Y-91652786D01*
X149347213Y-91508028D01*
X149181613Y-91387715D01*
X149181612Y-91387714D01*
X149181610Y-91387713D01*
X149098527Y-91345380D01*
X148999223Y-91294781D01*
X148804534Y-91231522D01*
X148629995Y-91203878D01*
X148602352Y-91199500D01*
X148397648Y-91199500D01*
X148373329Y-91203351D01*
X148195465Y-91231522D01*
X148000776Y-91294781D01*
X147818386Y-91387715D01*
X147652786Y-91508028D01*
X147508028Y-91652786D01*
X147387715Y-91818386D01*
X147294781Y-92000776D01*
X147231522Y-92195465D01*
X147199500Y-92397648D01*
X142600500Y-92397648D01*
X142600500Y-92393713D01*
X142567246Y-92183757D01*
X142501557Y-91981588D01*
X142405051Y-91792184D01*
X142405049Y-91792181D01*
X142405048Y-91792179D01*
X142280109Y-91620213D01*
X142129786Y-91469890D01*
X141957820Y-91344951D01*
X141768414Y-91248444D01*
X141768413Y-91248443D01*
X141768412Y-91248443D01*
X141566243Y-91182754D01*
X141566241Y-91182753D01*
X141566240Y-91182753D01*
X141404957Y-91157208D01*
X141356287Y-91149500D01*
X141143713Y-91149500D01*
X141095042Y-91157208D01*
X140933760Y-91182753D01*
X140731585Y-91248444D01*
X140542179Y-91344951D01*
X140370213Y-91469890D01*
X140219890Y-91620213D01*
X140094949Y-91792182D01*
X140090484Y-91800946D01*
X140042509Y-91851742D01*
X139974688Y-91868536D01*
X139908553Y-91845998D01*
X139869516Y-91800946D01*
X139865050Y-91792182D01*
X139740109Y-91620213D01*
X139589786Y-91469890D01*
X139417820Y-91344951D01*
X139228414Y-91248444D01*
X139228413Y-91248443D01*
X139228412Y-91248443D01*
X139026243Y-91182754D01*
X139026241Y-91182753D01*
X139026240Y-91182753D01*
X138864957Y-91157208D01*
X138816287Y-91149500D01*
X138603713Y-91149500D01*
X138555042Y-91157208D01*
X138393760Y-91182753D01*
X138191585Y-91248444D01*
X138002179Y-91344951D01*
X137830213Y-91469890D01*
X137679890Y-91620213D01*
X137554949Y-91792182D01*
X137550484Y-91800946D01*
X137502509Y-91851742D01*
X137434688Y-91868536D01*
X137368553Y-91845998D01*
X137329516Y-91800946D01*
X137325050Y-91792182D01*
X137200109Y-91620213D01*
X137049786Y-91469890D01*
X136877820Y-91344951D01*
X136688414Y-91248444D01*
X136688413Y-91248443D01*
X136688412Y-91248443D01*
X136486243Y-91182754D01*
X136486241Y-91182753D01*
X136486240Y-91182753D01*
X136324957Y-91157208D01*
X136276287Y-91149500D01*
X136063713Y-91149500D01*
X136015042Y-91157208D01*
X135853760Y-91182753D01*
X135651585Y-91248444D01*
X135462179Y-91344951D01*
X135290215Y-91469889D01*
X135176285Y-91583819D01*
X135114962Y-91617303D01*
X135045270Y-91612319D01*
X134989337Y-91570447D01*
X134972422Y-91539470D01*
X134923354Y-91407913D01*
X134923350Y-91407906D01*
X134837190Y-91292812D01*
X134837187Y-91292809D01*
X134722093Y-91206649D01*
X134722086Y-91206645D01*
X134587379Y-91156403D01*
X134587372Y-91156401D01*
X134527844Y-91150000D01*
X133880000Y-91150000D01*
X133880000Y-92066988D01*
X133822993Y-92034075D01*
X133695826Y-92000000D01*
X133564174Y-92000000D01*
X133437007Y-92034075D01*
X133380000Y-92066988D01*
X133380000Y-91150000D01*
X132732155Y-91150000D01*
X132672627Y-91156401D01*
X132672620Y-91156403D01*
X132537913Y-91206645D01*
X132537906Y-91206649D01*
X132422812Y-91292809D01*
X132422809Y-91292812D01*
X132336649Y-91407906D01*
X132336645Y-91407913D01*
X132286403Y-91542620D01*
X132286401Y-91542627D01*
X132280000Y-91602155D01*
X128542051Y-91602155D01*
X128409786Y-91469890D01*
X128237820Y-91344951D01*
X128048414Y-91248444D01*
X128048413Y-91248443D01*
X128048412Y-91248443D01*
X127846243Y-91182754D01*
X127846241Y-91182753D01*
X127846240Y-91182753D01*
X127684957Y-91157208D01*
X127636287Y-91149500D01*
X127423713Y-91149500D01*
X127375042Y-91157208D01*
X127213760Y-91182753D01*
X127011585Y-91248444D01*
X126822179Y-91344951D01*
X126650213Y-91469890D01*
X126499890Y-91620213D01*
X126374949Y-91792182D01*
X126370202Y-91801499D01*
X126322227Y-91852293D01*
X126254405Y-91869087D01*
X126188271Y-91846548D01*
X126149234Y-91801495D01*
X126144626Y-91792452D01*
X126105270Y-91738282D01*
X126105269Y-91738282D01*
X125472962Y-92370590D01*
X125455925Y-92307007D01*
X125390099Y-92192993D01*
X125297007Y-92099901D01*
X125182993Y-92034075D01*
X125119409Y-92017037D01*
X125751716Y-91384728D01*
X125697550Y-91345375D01*
X125508217Y-91248904D01*
X125306129Y-91183242D01*
X125096246Y-91150000D01*
X124883754Y-91150000D01*
X124673872Y-91183242D01*
X124673869Y-91183242D01*
X124471782Y-91248904D01*
X124282439Y-91345380D01*
X124228282Y-91384727D01*
X124228282Y-91384728D01*
X124860591Y-92017037D01*
X124797007Y-92034075D01*
X124682993Y-92099901D01*
X124589901Y-92192993D01*
X124524075Y-92307007D01*
X124507037Y-92370591D01*
X123874728Y-91738282D01*
X123874727Y-91738282D01*
X123835380Y-91792440D01*
X123835376Y-91792446D01*
X123830760Y-91801505D01*
X123782781Y-91852297D01*
X123714959Y-91869087D01*
X123648826Y-91846543D01*
X123609794Y-91801493D01*
X123605051Y-91792184D01*
X123605049Y-91792181D01*
X123605048Y-91792179D01*
X123480109Y-91620213D01*
X123329786Y-91469890D01*
X123157820Y-91344951D01*
X122968414Y-91248444D01*
X122968413Y-91248443D01*
X122968412Y-91248443D01*
X122766243Y-91182754D01*
X122766241Y-91182753D01*
X122766240Y-91182753D01*
X122604957Y-91157208D01*
X122556287Y-91149500D01*
X122343713Y-91149500D01*
X122295042Y-91157208D01*
X122133760Y-91182753D01*
X121931585Y-91248444D01*
X121742179Y-91344951D01*
X121570213Y-91469890D01*
X121419890Y-91620213D01*
X121294949Y-91792182D01*
X121290484Y-91800946D01*
X121242509Y-91851742D01*
X121174688Y-91868536D01*
X121108553Y-91845998D01*
X121069516Y-91800946D01*
X121065050Y-91792182D01*
X120940109Y-91620213D01*
X120789786Y-91469890D01*
X120617820Y-91344951D01*
X120428414Y-91248444D01*
X120428413Y-91248443D01*
X120428412Y-91248443D01*
X120226243Y-91182754D01*
X120226241Y-91182753D01*
X120226240Y-91182753D01*
X120064957Y-91157208D01*
X120016287Y-91149500D01*
X119803713Y-91149500D01*
X119755042Y-91157208D01*
X119593760Y-91182753D01*
X119391585Y-91248444D01*
X119202179Y-91344951D01*
X119030213Y-91469890D01*
X118879890Y-91620213D01*
X118754949Y-91792182D01*
X118750484Y-91800946D01*
X118702509Y-91851742D01*
X118634688Y-91868536D01*
X118568553Y-91845998D01*
X118529516Y-91800946D01*
X118525050Y-91792182D01*
X118400109Y-91620213D01*
X118249786Y-91469890D01*
X118077820Y-91344951D01*
X117888414Y-91248444D01*
X117888413Y-91248443D01*
X117888412Y-91248443D01*
X117686243Y-91182754D01*
X117686241Y-91182753D01*
X117686240Y-91182753D01*
X117524957Y-91157208D01*
X117476287Y-91149500D01*
X117263713Y-91149500D01*
X117215042Y-91157208D01*
X117053760Y-91182753D01*
X116851585Y-91248444D01*
X116662179Y-91344951D01*
X116490213Y-91469890D01*
X116339890Y-91620213D01*
X116214949Y-91792182D01*
X116210484Y-91800946D01*
X116162509Y-91851742D01*
X116094688Y-91868536D01*
X116028553Y-91845998D01*
X115989516Y-91800946D01*
X115985050Y-91792182D01*
X115860109Y-91620213D01*
X115709786Y-91469890D01*
X115537820Y-91344951D01*
X115348414Y-91248444D01*
X115348413Y-91248443D01*
X115348412Y-91248443D01*
X115146243Y-91182754D01*
X115146241Y-91182753D01*
X115146240Y-91182753D01*
X114984957Y-91157208D01*
X114936287Y-91149500D01*
X114723713Y-91149500D01*
X114675042Y-91157208D01*
X114513760Y-91182753D01*
X114311585Y-91248444D01*
X114122179Y-91344951D01*
X113950213Y-91469890D01*
X113799890Y-91620213D01*
X113674949Y-91792182D01*
X113670484Y-91800946D01*
X113622509Y-91851742D01*
X113554688Y-91868536D01*
X113488553Y-91845998D01*
X113449516Y-91800946D01*
X113445050Y-91792182D01*
X113320109Y-91620213D01*
X113169786Y-91469890D01*
X112997820Y-91344951D01*
X112808414Y-91248444D01*
X112808413Y-91248443D01*
X112808412Y-91248443D01*
X112606243Y-91182754D01*
X112606241Y-91182753D01*
X112606240Y-91182753D01*
X112444957Y-91157208D01*
X112396287Y-91149500D01*
X112183713Y-91149500D01*
X112135042Y-91157208D01*
X111973760Y-91182753D01*
X111771585Y-91248444D01*
X111582179Y-91344951D01*
X111410213Y-91469890D01*
X111259890Y-91620213D01*
X111134949Y-91792182D01*
X111130484Y-91800946D01*
X111082509Y-91851742D01*
X111014688Y-91868536D01*
X110948553Y-91845998D01*
X110909516Y-91800946D01*
X110905050Y-91792182D01*
X110780109Y-91620213D01*
X110629786Y-91469890D01*
X110457820Y-91344951D01*
X110268414Y-91248444D01*
X110268413Y-91248443D01*
X110268412Y-91248443D01*
X110066243Y-91182754D01*
X110066241Y-91182753D01*
X110066240Y-91182753D01*
X109904957Y-91157208D01*
X109856287Y-91149500D01*
X109643713Y-91149500D01*
X109595042Y-91157208D01*
X109433760Y-91182753D01*
X109231585Y-91248444D01*
X109042179Y-91344951D01*
X108870215Y-91469889D01*
X108756673Y-91583431D01*
X108695350Y-91616915D01*
X108625658Y-91611931D01*
X108569725Y-91570059D01*
X108552810Y-91539082D01*
X108503797Y-91407671D01*
X108503793Y-91407664D01*
X108417547Y-91292455D01*
X108417544Y-91292452D01*
X108302335Y-91206206D01*
X108302328Y-91206202D01*
X108167482Y-91155908D01*
X108167483Y-91155908D01*
X108107883Y-91149501D01*
X108107881Y-91149500D01*
X108107873Y-91149500D01*
X108107864Y-91149500D01*
X106312129Y-91149500D01*
X106312123Y-91149501D01*
X106252516Y-91155908D01*
X106117671Y-91206202D01*
X106117664Y-91206206D01*
X106002455Y-91292452D01*
X106002452Y-91292455D01*
X105916206Y-91407664D01*
X105916202Y-91407671D01*
X105865908Y-91542517D01*
X105859501Y-91602116D01*
X105859500Y-91602135D01*
X103441320Y-91602135D01*
X103347213Y-91508028D01*
X103181613Y-91387715D01*
X103181612Y-91387714D01*
X103181610Y-91387713D01*
X103098527Y-91345380D01*
X102999223Y-91294781D01*
X102804534Y-91231522D01*
X102629995Y-91203878D01*
X102602352Y-91199500D01*
X102397648Y-91199500D01*
X102373329Y-91203351D01*
X102195465Y-91231522D01*
X102000776Y-91294781D01*
X101818386Y-91387715D01*
X101652786Y-91508028D01*
X101508028Y-91652786D01*
X101387715Y-91818386D01*
X101294781Y-92000776D01*
X101231522Y-92195465D01*
X101199500Y-92397648D01*
X100500300Y-92397648D01*
X100500300Y-87592104D01*
X105373100Y-87592104D01*
X105373100Y-87769495D01*
X105407703Y-87943458D01*
X105407706Y-87943467D01*
X105475583Y-88107340D01*
X105475590Y-88107353D01*
X105574135Y-88254834D01*
X105574138Y-88254838D01*
X105699561Y-88380261D01*
X105699565Y-88380264D01*
X105847046Y-88478809D01*
X105847059Y-88478816D01*
X105969963Y-88529723D01*
X106010934Y-88546694D01*
X106010936Y-88546694D01*
X106010941Y-88546696D01*
X106184904Y-88581299D01*
X106184907Y-88581300D01*
X106184909Y-88581300D01*
X106362293Y-88581300D01*
X106362294Y-88581299D01*
X106420282Y-88569764D01*
X106536258Y-88546696D01*
X106536261Y-88546694D01*
X106536266Y-88546694D01*
X106700147Y-88478813D01*
X106847635Y-88380264D01*
X106973064Y-88254835D01*
X107071613Y-88107347D01*
X107139494Y-87943466D01*
X107174100Y-87769491D01*
X107174100Y-87592109D01*
X107174100Y-87592106D01*
X107174099Y-87592104D01*
X107139496Y-87418141D01*
X107139494Y-87418138D01*
X107139494Y-87418134D01*
X107119250Y-87369260D01*
X131410593Y-87369260D01*
X131410593Y-87526953D01*
X131441354Y-87681596D01*
X131441357Y-87681608D01*
X131501695Y-87827279D01*
X131501702Y-87827292D01*
X131589303Y-87958395D01*
X131589306Y-87958399D01*
X131700800Y-88069893D01*
X131700804Y-88069896D01*
X131831907Y-88157497D01*
X131831920Y-88157504D01*
X131977591Y-88217842D01*
X131977596Y-88217844D01*
X132132246Y-88248606D01*
X132132249Y-88248607D01*
X132132251Y-88248607D01*
X132289937Y-88248607D01*
X132289938Y-88248606D01*
X132444590Y-88217844D01*
X132590272Y-88157501D01*
X132721382Y-88069896D01*
X132832882Y-87958396D01*
X132920487Y-87827286D01*
X132980830Y-87681604D01*
X133011593Y-87526949D01*
X133011593Y-87369265D01*
X133011593Y-87369262D01*
X133011592Y-87369260D01*
X132980830Y-87214610D01*
X132980828Y-87214605D01*
X132920490Y-87068934D01*
X132920483Y-87068921D01*
X132872955Y-86997791D01*
X132852077Y-86931114D01*
X132870561Y-86863734D01*
X132922540Y-86817043D01*
X132976057Y-86804900D01*
X133124044Y-86804900D01*
X133124045Y-86804899D01*
X133278697Y-86774137D01*
X133424379Y-86713794D01*
X133555489Y-86626189D01*
X133666989Y-86514689D01*
X133754594Y-86383579D01*
X133814937Y-86237897D01*
X133845700Y-86083242D01*
X133845700Y-85925558D01*
X133845700Y-85925555D01*
X133845699Y-85925553D01*
X133819241Y-85792541D01*
X133814937Y-85770903D01*
X133797949Y-85729889D01*
X133754597Y-85625227D01*
X133754590Y-85625214D01*
X133666989Y-85494111D01*
X133666986Y-85494107D01*
X133555492Y-85382613D01*
X133555488Y-85382610D01*
X133424385Y-85295009D01*
X133424372Y-85295002D01*
X133278701Y-85234664D01*
X133278689Y-85234661D01*
X133124045Y-85203900D01*
X133124042Y-85203900D01*
X132966358Y-85203900D01*
X132966355Y-85203900D01*
X132811710Y-85234661D01*
X132811698Y-85234664D01*
X132666027Y-85295002D01*
X132666014Y-85295009D01*
X132534911Y-85382610D01*
X132534907Y-85382613D01*
X132423413Y-85494107D01*
X132423410Y-85494111D01*
X132335809Y-85625214D01*
X132335802Y-85625227D01*
X132275464Y-85770898D01*
X132275461Y-85770910D01*
X132244700Y-85925553D01*
X132244700Y-86083246D01*
X132275461Y-86237889D01*
X132275464Y-86237901D01*
X132335802Y-86383572D01*
X132335809Y-86383585D01*
X132383338Y-86454716D01*
X132404216Y-86521393D01*
X132385732Y-86588773D01*
X132333753Y-86635464D01*
X132280236Y-86647607D01*
X132132248Y-86647607D01*
X131977603Y-86678368D01*
X131977591Y-86678371D01*
X131831920Y-86738709D01*
X131831907Y-86738716D01*
X131700804Y-86826317D01*
X131700800Y-86826320D01*
X131589306Y-86937814D01*
X131589303Y-86937818D01*
X131501702Y-87068921D01*
X131501695Y-87068934D01*
X131441357Y-87214605D01*
X131441354Y-87214617D01*
X131410593Y-87369260D01*
X107119250Y-87369260D01*
X107117070Y-87363997D01*
X107071616Y-87254259D01*
X107071609Y-87254246D01*
X106973064Y-87106765D01*
X106973061Y-87106761D01*
X106847638Y-86981338D01*
X106847634Y-86981335D01*
X106700153Y-86882790D01*
X106700140Y-86882783D01*
X106536267Y-86814906D01*
X106536258Y-86814903D01*
X106362294Y-86780300D01*
X106362291Y-86780300D01*
X106184909Y-86780300D01*
X106184906Y-86780300D01*
X106010941Y-86814903D01*
X106010932Y-86814906D01*
X105847059Y-86882783D01*
X105847046Y-86882790D01*
X105699565Y-86981335D01*
X105699561Y-86981338D01*
X105574138Y-87106761D01*
X105574135Y-87106765D01*
X105475590Y-87254246D01*
X105475583Y-87254259D01*
X105407706Y-87418132D01*
X105407703Y-87418141D01*
X105373100Y-87592104D01*
X100500300Y-87592104D01*
X100500300Y-85966504D01*
X115246700Y-85966504D01*
X115246700Y-86143895D01*
X115281303Y-86317858D01*
X115281306Y-86317867D01*
X115349183Y-86481740D01*
X115349190Y-86481753D01*
X115447735Y-86629234D01*
X115447738Y-86629238D01*
X115573161Y-86754661D01*
X115573165Y-86754664D01*
X115720646Y-86853209D01*
X115720659Y-86853216D01*
X115843563Y-86904123D01*
X115884534Y-86921094D01*
X115884536Y-86921094D01*
X115884541Y-86921096D01*
X116058504Y-86955699D01*
X116058507Y-86955700D01*
X116058509Y-86955700D01*
X116235893Y-86955700D01*
X116235894Y-86955699D01*
X116293882Y-86944164D01*
X116409858Y-86921096D01*
X116409861Y-86921094D01*
X116409866Y-86921094D01*
X116573747Y-86853213D01*
X116721235Y-86754664D01*
X116846664Y-86629235D01*
X116945213Y-86481747D01*
X117013094Y-86317866D01*
X117017265Y-86296900D01*
X117047699Y-86143895D01*
X117047700Y-86143893D01*
X117047700Y-85966506D01*
X117047699Y-85966504D01*
X117013096Y-85792541D01*
X117013093Y-85792532D01*
X116945216Y-85628659D01*
X116945214Y-85628655D01*
X116945213Y-85628653D01*
X116846664Y-85481165D01*
X116846662Y-85481162D01*
X116783053Y-85417553D01*
X127723500Y-85417553D01*
X127723500Y-85575246D01*
X127754261Y-85729889D01*
X127754264Y-85729901D01*
X127814602Y-85875572D01*
X127814609Y-85875585D01*
X127902210Y-86006688D01*
X127902213Y-86006692D01*
X128013707Y-86118186D01*
X128013711Y-86118189D01*
X128144814Y-86205790D01*
X128144827Y-86205797D01*
X128290498Y-86266135D01*
X128290503Y-86266137D01*
X128445153Y-86296899D01*
X128445156Y-86296900D01*
X128445158Y-86296900D01*
X128602844Y-86296900D01*
X128602845Y-86296899D01*
X128757497Y-86266137D01*
X128903179Y-86205794D01*
X129034289Y-86118189D01*
X129145789Y-86006689D01*
X129233394Y-85875579D01*
X129293737Y-85729897D01*
X129324500Y-85575242D01*
X129324500Y-85417558D01*
X129324500Y-85417555D01*
X129324499Y-85417553D01*
X129317549Y-85382613D01*
X129293737Y-85262903D01*
X129282039Y-85234661D01*
X129233397Y-85117227D01*
X129233390Y-85117214D01*
X129145789Y-84986111D01*
X129145786Y-84986107D01*
X129034292Y-84874613D01*
X129034288Y-84874610D01*
X128903185Y-84787009D01*
X128903172Y-84787002D01*
X128757501Y-84726664D01*
X128757489Y-84726661D01*
X128602845Y-84695900D01*
X128602842Y-84695900D01*
X128445158Y-84695900D01*
X128445155Y-84695900D01*
X128290510Y-84726661D01*
X128290498Y-84726664D01*
X128144827Y-84787002D01*
X128144814Y-84787009D01*
X128013711Y-84874610D01*
X128013707Y-84874613D01*
X127902213Y-84986107D01*
X127902210Y-84986111D01*
X127814609Y-85117214D01*
X127814602Y-85117227D01*
X127754264Y-85262898D01*
X127754261Y-85262910D01*
X127723500Y-85417553D01*
X116783053Y-85417553D01*
X116721238Y-85355738D01*
X116721234Y-85355735D01*
X116573753Y-85257190D01*
X116573740Y-85257183D01*
X116409867Y-85189306D01*
X116409858Y-85189303D01*
X116235894Y-85154700D01*
X116235891Y-85154700D01*
X116058509Y-85154700D01*
X116058506Y-85154700D01*
X115884541Y-85189303D01*
X115884532Y-85189306D01*
X115720659Y-85257183D01*
X115720646Y-85257190D01*
X115573165Y-85355735D01*
X115573161Y-85355738D01*
X115447738Y-85481161D01*
X115447735Y-85481165D01*
X115349190Y-85628646D01*
X115349183Y-85628659D01*
X115281306Y-85792532D01*
X115281303Y-85792541D01*
X115246700Y-85966504D01*
X100500300Y-85966504D01*
X100500300Y-82064753D01*
X124523100Y-82064753D01*
X124523100Y-82222446D01*
X124553861Y-82377089D01*
X124553864Y-82377101D01*
X124614202Y-82522772D01*
X124614209Y-82522785D01*
X124701810Y-82653888D01*
X124701813Y-82653892D01*
X124813307Y-82765386D01*
X124813311Y-82765389D01*
X124944414Y-82852990D01*
X124944427Y-82852997D01*
X125090098Y-82913335D01*
X125090103Y-82913337D01*
X125244753Y-82944099D01*
X125244756Y-82944100D01*
X125244758Y-82944100D01*
X125402444Y-82944100D01*
X125402445Y-82944099D01*
X125557097Y-82913337D01*
X125702779Y-82852994D01*
X125833889Y-82765389D01*
X125945389Y-82653889D01*
X126032994Y-82522779D01*
X126093337Y-82377097D01*
X126124100Y-82222442D01*
X126124100Y-82166353D01*
X132244700Y-82166353D01*
X132244700Y-82324046D01*
X132275461Y-82478689D01*
X132275464Y-82478701D01*
X132335802Y-82624372D01*
X132335809Y-82624385D01*
X132423410Y-82755488D01*
X132423413Y-82755492D01*
X132534907Y-82866986D01*
X132534911Y-82866989D01*
X132666014Y-82954590D01*
X132666027Y-82954597D01*
X132811698Y-83014935D01*
X132811703Y-83014937D01*
X132926723Y-83037816D01*
X132966353Y-83045699D01*
X132966356Y-83045700D01*
X132966358Y-83045700D01*
X133124044Y-83045700D01*
X133124045Y-83045699D01*
X133278697Y-83014937D01*
X133424379Y-82954594D01*
X133555489Y-82866989D01*
X133666989Y-82755489D01*
X133754594Y-82624379D01*
X133814937Y-82478697D01*
X133845700Y-82324042D01*
X133845700Y-82166358D01*
X133845700Y-82166355D01*
X133845699Y-82166353D01*
X133815346Y-82013760D01*
X133814937Y-82011703D01*
X133814935Y-82011698D01*
X133754597Y-81866027D01*
X133754590Y-81866014D01*
X133666989Y-81734911D01*
X133666986Y-81734907D01*
X133555492Y-81623413D01*
X133555488Y-81623410D01*
X133424385Y-81535809D01*
X133424372Y-81535802D01*
X133278701Y-81475464D01*
X133278689Y-81475461D01*
X133124045Y-81444700D01*
X133124042Y-81444700D01*
X132966358Y-81444700D01*
X132966355Y-81444700D01*
X132811710Y-81475461D01*
X132811698Y-81475464D01*
X132666027Y-81535802D01*
X132666014Y-81535809D01*
X132534911Y-81623410D01*
X132534907Y-81623413D01*
X132423413Y-81734907D01*
X132423410Y-81734911D01*
X132335809Y-81866014D01*
X132335802Y-81866027D01*
X132275464Y-82011698D01*
X132275461Y-82011710D01*
X132244700Y-82166353D01*
X126124100Y-82166353D01*
X126124100Y-82064758D01*
X126124100Y-82064755D01*
X126124099Y-82064753D01*
X126113548Y-82011710D01*
X126093337Y-81910103D01*
X126052530Y-81811585D01*
X126032997Y-81764427D01*
X126032990Y-81764414D01*
X125945389Y-81633311D01*
X125945386Y-81633307D01*
X125833892Y-81521813D01*
X125833888Y-81521810D01*
X125702785Y-81434209D01*
X125702772Y-81434202D01*
X125557101Y-81373864D01*
X125557089Y-81373861D01*
X125402445Y-81343100D01*
X125402442Y-81343100D01*
X125244758Y-81343100D01*
X125244755Y-81343100D01*
X125090110Y-81373861D01*
X125090098Y-81373864D01*
X124944427Y-81434202D01*
X124944414Y-81434209D01*
X124813311Y-81521810D01*
X124813307Y-81521813D01*
X124701813Y-81633307D01*
X124701810Y-81633311D01*
X124614209Y-81764414D01*
X124614202Y-81764427D01*
X124553864Y-81910098D01*
X124553861Y-81910110D01*
X124523100Y-82064753D01*
X100500300Y-82064753D01*
X100500300Y-80218295D01*
X120931151Y-80218295D01*
X120931151Y-80375988D01*
X120961912Y-80530631D01*
X120961915Y-80530643D01*
X121022253Y-80676314D01*
X121022260Y-80676327D01*
X121109861Y-80807430D01*
X121109864Y-80807434D01*
X121221358Y-80918928D01*
X121221362Y-80918931D01*
X121352465Y-81006532D01*
X121352478Y-81006539D01*
X121481546Y-81060000D01*
X121498154Y-81066879D01*
X121652804Y-81097641D01*
X121652807Y-81097642D01*
X121652809Y-81097642D01*
X121810495Y-81097642D01*
X121810496Y-81097641D01*
X121965148Y-81066879D01*
X122110830Y-81006536D01*
X122241940Y-80918931D01*
X122353440Y-80807431D01*
X122441045Y-80676321D01*
X122501388Y-80530639D01*
X122532151Y-80375984D01*
X122532151Y-80218300D01*
X122532151Y-80218297D01*
X122532150Y-80218295D01*
X122509861Y-80106243D01*
X122501388Y-80063645D01*
X122501386Y-80063640D01*
X122441048Y-79917969D01*
X122441041Y-79917956D01*
X122396407Y-79851157D01*
X122354442Y-79788353D01*
X126199500Y-79788353D01*
X126199500Y-79946046D01*
X126230261Y-80100689D01*
X126230264Y-80100701D01*
X126290602Y-80246372D01*
X126290609Y-80246385D01*
X126378210Y-80377488D01*
X126378213Y-80377492D01*
X126489707Y-80488986D01*
X126489711Y-80488989D01*
X126620814Y-80576590D01*
X126620827Y-80576597D01*
X126766498Y-80636935D01*
X126766503Y-80636937D01*
X126921153Y-80667699D01*
X126921156Y-80667700D01*
X126921158Y-80667700D01*
X127078844Y-80667700D01*
X127078845Y-80667699D01*
X127233497Y-80636937D01*
X127379179Y-80576594D01*
X127510289Y-80488989D01*
X127621789Y-80377489D01*
X127709394Y-80246379D01*
X127769737Y-80100697D01*
X127800500Y-79946042D01*
X127800500Y-79788358D01*
X127800500Y-79788355D01*
X127783528Y-79703033D01*
X127783528Y-79703032D01*
X127779685Y-79683713D01*
X147149500Y-79683713D01*
X147149500Y-79896287D01*
X147157381Y-79946044D01*
X147182753Y-80106239D01*
X147248444Y-80308414D01*
X147344951Y-80497820D01*
X147469890Y-80669786D01*
X147620213Y-80820109D01*
X147792182Y-80945050D01*
X147800946Y-80949516D01*
X147851742Y-80997491D01*
X147868536Y-81065312D01*
X147845998Y-81131447D01*
X147800946Y-81170484D01*
X147792182Y-81174949D01*
X147620213Y-81299890D01*
X147469890Y-81450213D01*
X147344951Y-81622179D01*
X147248444Y-81811585D01*
X147182753Y-82013760D01*
X147174676Y-82064758D01*
X147149500Y-82223713D01*
X147149500Y-82436287D01*
X147182754Y-82646243D01*
X147218251Y-82755492D01*
X147248444Y-82848414D01*
X147344951Y-83037820D01*
X147469890Y-83209786D01*
X147620213Y-83360109D01*
X147792182Y-83485050D01*
X147800946Y-83489516D01*
X147851742Y-83537491D01*
X147868536Y-83605312D01*
X147845998Y-83671447D01*
X147800946Y-83710484D01*
X147792182Y-83714949D01*
X147620213Y-83839890D01*
X147469890Y-83990213D01*
X147344951Y-84162179D01*
X147248444Y-84351585D01*
X147182753Y-84553760D01*
X147155368Y-84726663D01*
X147149500Y-84763713D01*
X147149500Y-84976287D01*
X147182754Y-85186243D01*
X147218094Y-85295009D01*
X147248444Y-85388414D01*
X147344951Y-85577820D01*
X147469890Y-85749786D01*
X147620213Y-85900109D01*
X147792179Y-86025048D01*
X147792181Y-86025049D01*
X147792184Y-86025051D01*
X147981588Y-86121557D01*
X148183757Y-86187246D01*
X148393713Y-86220500D01*
X148393714Y-86220500D01*
X148606286Y-86220500D01*
X148606287Y-86220500D01*
X148816243Y-86187246D01*
X149018412Y-86121557D01*
X149207816Y-86025051D01*
X149288400Y-85966504D01*
X149379786Y-85900109D01*
X149379788Y-85900106D01*
X149379792Y-85900104D01*
X149530104Y-85749792D01*
X149530106Y-85749788D01*
X149530109Y-85749786D01*
X149655048Y-85577820D01*
X149655047Y-85577820D01*
X149655051Y-85577816D01*
X149751557Y-85388412D01*
X149817246Y-85186243D01*
X149850500Y-84976287D01*
X149850500Y-84763713D01*
X149817246Y-84553757D01*
X149751557Y-84351588D01*
X149655051Y-84162184D01*
X149655049Y-84162181D01*
X149655048Y-84162179D01*
X149530109Y-83990213D01*
X149379786Y-83839890D01*
X149207820Y-83714951D01*
X149207115Y-83714591D01*
X149199054Y-83710485D01*
X149148259Y-83662512D01*
X149131463Y-83594692D01*
X149153999Y-83528556D01*
X149199054Y-83489515D01*
X149207816Y-83485051D01*
X149229789Y-83469086D01*
X149379786Y-83360109D01*
X149379788Y-83360106D01*
X149379792Y-83360104D01*
X149530104Y-83209792D01*
X149530106Y-83209788D01*
X149530109Y-83209786D01*
X149655048Y-83037820D01*
X149655047Y-83037820D01*
X149655051Y-83037816D01*
X149751557Y-82848412D01*
X149817246Y-82646243D01*
X149850500Y-82436287D01*
X149850500Y-82223713D01*
X149817246Y-82013757D01*
X149751557Y-81811588D01*
X149655051Y-81622184D01*
X149655049Y-81622181D01*
X149655048Y-81622179D01*
X149530109Y-81450213D01*
X149379786Y-81299890D01*
X149207820Y-81174951D01*
X149207115Y-81174591D01*
X149199054Y-81170485D01*
X149148259Y-81122512D01*
X149131463Y-81054692D01*
X149153999Y-80988556D01*
X149199054Y-80949515D01*
X149207816Y-80945051D01*
X149243767Y-80918931D01*
X149379786Y-80820109D01*
X149379788Y-80820106D01*
X149379792Y-80820104D01*
X149530104Y-80669792D01*
X149530106Y-80669788D01*
X149530109Y-80669786D01*
X149655048Y-80497820D01*
X149655047Y-80497820D01*
X149655051Y-80497816D01*
X149751557Y-80308412D01*
X149817246Y-80106243D01*
X149850500Y-79896287D01*
X149850500Y-79683713D01*
X149817246Y-79473757D01*
X149751557Y-79271588D01*
X149655051Y-79082184D01*
X149655049Y-79082181D01*
X149655048Y-79082179D01*
X149530109Y-78910213D01*
X149416181Y-78796285D01*
X149382696Y-78734962D01*
X149387680Y-78665270D01*
X149429552Y-78609337D01*
X149460529Y-78592422D01*
X149592086Y-78543354D01*
X149592093Y-78543350D01*
X149707187Y-78457190D01*
X149707190Y-78457187D01*
X149793350Y-78342093D01*
X149793354Y-78342086D01*
X149843596Y-78207379D01*
X149843598Y-78207372D01*
X149849999Y-78147844D01*
X149850000Y-78147827D01*
X149850000Y-77500000D01*
X148933012Y-77500000D01*
X148965925Y-77442993D01*
X149000000Y-77315826D01*
X149000000Y-77184174D01*
X148965925Y-77057007D01*
X148933012Y-77000000D01*
X149850000Y-77000000D01*
X149850000Y-76352172D01*
X149849999Y-76352155D01*
X149843598Y-76292627D01*
X149843596Y-76292620D01*
X149793354Y-76157913D01*
X149793350Y-76157906D01*
X149707190Y-76042812D01*
X149707187Y-76042809D01*
X149592093Y-75956649D01*
X149592086Y-75956645D01*
X149457379Y-75906403D01*
X149457372Y-75906401D01*
X149397844Y-75900000D01*
X148750000Y-75900000D01*
X148750000Y-76816988D01*
X148692993Y-76784075D01*
X148565826Y-76750000D01*
X148434174Y-76750000D01*
X148307007Y-76784075D01*
X148250000Y-76816988D01*
X148250000Y-75900000D01*
X147602155Y-75900000D01*
X147542627Y-75906401D01*
X147542620Y-75906403D01*
X147407913Y-75956645D01*
X147407906Y-75956649D01*
X147292812Y-76042809D01*
X147292809Y-76042812D01*
X147206649Y-76157906D01*
X147206645Y-76157913D01*
X147156403Y-76292620D01*
X147156401Y-76292627D01*
X147150000Y-76352155D01*
X147150000Y-77000000D01*
X148066988Y-77000000D01*
X148034075Y-77057007D01*
X148000000Y-77184174D01*
X148000000Y-77315826D01*
X148034075Y-77442993D01*
X148066988Y-77500000D01*
X147150000Y-77500000D01*
X147150000Y-78147844D01*
X147156401Y-78207372D01*
X147156403Y-78207379D01*
X147206645Y-78342086D01*
X147206649Y-78342093D01*
X147292809Y-78457187D01*
X147292812Y-78457190D01*
X147407906Y-78543350D01*
X147407913Y-78543354D01*
X147539470Y-78592422D01*
X147595404Y-78634293D01*
X147619821Y-78699758D01*
X147604969Y-78768031D01*
X147583819Y-78796285D01*
X147469889Y-78910215D01*
X147344951Y-79082179D01*
X147248444Y-79271585D01*
X147182753Y-79473760D01*
X147164700Y-79587744D01*
X147149500Y-79683713D01*
X127779685Y-79683713D01*
X127769738Y-79633710D01*
X127769737Y-79633703D01*
X127750702Y-79587748D01*
X127709397Y-79488027D01*
X127709390Y-79488014D01*
X127621789Y-79356911D01*
X127621786Y-79356907D01*
X127510292Y-79245413D01*
X127510288Y-79245410D01*
X127379185Y-79157809D01*
X127379172Y-79157802D01*
X127233501Y-79097464D01*
X127233489Y-79097461D01*
X127078845Y-79066700D01*
X127078842Y-79066700D01*
X126921158Y-79066700D01*
X126921155Y-79066700D01*
X126766510Y-79097461D01*
X126766498Y-79097464D01*
X126620827Y-79157802D01*
X126620814Y-79157809D01*
X126489711Y-79245410D01*
X126489707Y-79245413D01*
X126378213Y-79356907D01*
X126378210Y-79356911D01*
X126290609Y-79488014D01*
X126290602Y-79488027D01*
X126230264Y-79633698D01*
X126230261Y-79633710D01*
X126199500Y-79788353D01*
X122354442Y-79788353D01*
X122353440Y-79786853D01*
X122353437Y-79786849D01*
X122241943Y-79675355D01*
X122241939Y-79675352D01*
X122110836Y-79587751D01*
X122110823Y-79587744D01*
X121965152Y-79527406D01*
X121965140Y-79527403D01*
X121810496Y-79496642D01*
X121810493Y-79496642D01*
X121652809Y-79496642D01*
X121652806Y-79496642D01*
X121498161Y-79527403D01*
X121498149Y-79527406D01*
X121352478Y-79587744D01*
X121352465Y-79587751D01*
X121221362Y-79675352D01*
X121221358Y-79675355D01*
X121109864Y-79786849D01*
X121109861Y-79786853D01*
X121022260Y-79917956D01*
X121022253Y-79917969D01*
X120961915Y-80063640D01*
X120961912Y-80063652D01*
X120931151Y-80218295D01*
X100500300Y-80218295D01*
X100500300Y-77787704D01*
X112434300Y-77787704D01*
X112434300Y-77965095D01*
X112468903Y-78139058D01*
X112468906Y-78139067D01*
X112536783Y-78302940D01*
X112536790Y-78302953D01*
X112635335Y-78450434D01*
X112635338Y-78450438D01*
X112760761Y-78575861D01*
X112760765Y-78575864D01*
X112908246Y-78674409D01*
X112908259Y-78674416D01*
X113031163Y-78725323D01*
X113072134Y-78742294D01*
X113072136Y-78742294D01*
X113072141Y-78742296D01*
X113246104Y-78776899D01*
X113246107Y-78776900D01*
X113246109Y-78776900D01*
X113423493Y-78776900D01*
X113423494Y-78776899D01*
X113481482Y-78765364D01*
X113597458Y-78742296D01*
X113597461Y-78742294D01*
X113597466Y-78742294D01*
X113761347Y-78674413D01*
X113908835Y-78575864D01*
X114034264Y-78450435D01*
X114132813Y-78302947D01*
X114200694Y-78139066D01*
X114204388Y-78120499D01*
X114235299Y-77965095D01*
X114235300Y-77965093D01*
X114235300Y-77787706D01*
X114235299Y-77787704D01*
X114200696Y-77613741D01*
X114200693Y-77613732D01*
X114132816Y-77449859D01*
X114132809Y-77449846D01*
X114035328Y-77303957D01*
X114035327Y-77303956D01*
X114034262Y-77302362D01*
X113973053Y-77241153D01*
X117604700Y-77241153D01*
X117604700Y-77398846D01*
X117635461Y-77553489D01*
X117635464Y-77553501D01*
X117695802Y-77699172D01*
X117695809Y-77699185D01*
X117783410Y-77830288D01*
X117783413Y-77830292D01*
X117894907Y-77941786D01*
X117894911Y-77941789D01*
X118026014Y-78029390D01*
X118026027Y-78029397D01*
X118171698Y-78089735D01*
X118171703Y-78089737D01*
X118326353Y-78120499D01*
X118326356Y-78120500D01*
X118326358Y-78120500D01*
X118484044Y-78120500D01*
X118484045Y-78120499D01*
X118638697Y-78089737D01*
X118730882Y-78051553D01*
X129349100Y-78051553D01*
X129349100Y-78209246D01*
X129379861Y-78363889D01*
X129379864Y-78363901D01*
X129440202Y-78509572D01*
X129440209Y-78509585D01*
X129527810Y-78640688D01*
X129527813Y-78640692D01*
X129639307Y-78752186D01*
X129639311Y-78752189D01*
X129770414Y-78839790D01*
X129770427Y-78839797D01*
X129916098Y-78900135D01*
X129916103Y-78900137D01*
X130070753Y-78930899D01*
X130070756Y-78930900D01*
X130070758Y-78930900D01*
X130228444Y-78930900D01*
X130228445Y-78930899D01*
X130383097Y-78900137D01*
X130528779Y-78839794D01*
X130659889Y-78752189D01*
X130771389Y-78640689D01*
X130858994Y-78509579D01*
X130919337Y-78363897D01*
X130950100Y-78209242D01*
X130950100Y-78051558D01*
X130950100Y-78051555D01*
X130950099Y-78051553D01*
X130932901Y-77965093D01*
X130919337Y-77896903D01*
X130919335Y-77896898D01*
X130858997Y-77751227D01*
X130858990Y-77751214D01*
X130771389Y-77620111D01*
X130771386Y-77620107D01*
X130659892Y-77508613D01*
X130659888Y-77508610D01*
X130528785Y-77421009D01*
X130528772Y-77421002D01*
X130383101Y-77360664D01*
X130383089Y-77360661D01*
X130228445Y-77329900D01*
X130228442Y-77329900D01*
X130070758Y-77329900D01*
X130070755Y-77329900D01*
X129916110Y-77360661D01*
X129916098Y-77360664D01*
X129770427Y-77421002D01*
X129770414Y-77421009D01*
X129639311Y-77508610D01*
X129639307Y-77508613D01*
X129527813Y-77620107D01*
X129527810Y-77620111D01*
X129440209Y-77751214D01*
X129440202Y-77751227D01*
X129379864Y-77896898D01*
X129379861Y-77896910D01*
X129349100Y-78051553D01*
X118730882Y-78051553D01*
X118784379Y-78029394D01*
X118784385Y-78029390D01*
X118914629Y-77942364D01*
X118914932Y-77942160D01*
X118915489Y-77941789D01*
X119026989Y-77830289D01*
X119114594Y-77699179D01*
X119174937Y-77553497D01*
X119205700Y-77398842D01*
X119205700Y-77241158D01*
X119205700Y-77241155D01*
X119205699Y-77241153D01*
X119192130Y-77172937D01*
X119174937Y-77086503D01*
X119170498Y-77075786D01*
X119114597Y-76940827D01*
X119114590Y-76940814D01*
X119026989Y-76809711D01*
X119026986Y-76809707D01*
X118915492Y-76698213D01*
X118915488Y-76698210D01*
X118784385Y-76610609D01*
X118784372Y-76610602D01*
X118638701Y-76550264D01*
X118638689Y-76550261D01*
X118484045Y-76519500D01*
X118484042Y-76519500D01*
X118326358Y-76519500D01*
X118326355Y-76519500D01*
X118171710Y-76550261D01*
X118171698Y-76550264D01*
X118026027Y-76610602D01*
X118026014Y-76610609D01*
X117894911Y-76698210D01*
X117894907Y-76698213D01*
X117783413Y-76809707D01*
X117783410Y-76809711D01*
X117695809Y-76940814D01*
X117695802Y-76940827D01*
X117635464Y-77086498D01*
X117635461Y-77086510D01*
X117604700Y-77241153D01*
X113973053Y-77241153D01*
X113908838Y-77176938D01*
X113908834Y-77176935D01*
X113761353Y-77078390D01*
X113761340Y-77078383D01*
X113597467Y-77010506D01*
X113597458Y-77010503D01*
X113423494Y-76975900D01*
X113423491Y-76975900D01*
X113246109Y-76975900D01*
X113246106Y-76975900D01*
X113072141Y-77010503D01*
X113072132Y-77010506D01*
X112908259Y-77078383D01*
X112908246Y-77078390D01*
X112760765Y-77176935D01*
X112760761Y-77176938D01*
X112635338Y-77302361D01*
X112635335Y-77302365D01*
X112536790Y-77449846D01*
X112536783Y-77449859D01*
X112468906Y-77613732D01*
X112468903Y-77613741D01*
X112434300Y-77787704D01*
X100500300Y-77787704D01*
X100500300Y-76324353D01*
X120662300Y-76324353D01*
X120662300Y-76482046D01*
X120693061Y-76636689D01*
X120693064Y-76636701D01*
X120753402Y-76782372D01*
X120753409Y-76782385D01*
X120841010Y-76913488D01*
X120841013Y-76913492D01*
X120952507Y-77024986D01*
X120952511Y-77024989D01*
X121083614Y-77112590D01*
X121083627Y-77112597D01*
X121206254Y-77163390D01*
X121229303Y-77172937D01*
X121383953Y-77203699D01*
X121383956Y-77203700D01*
X121383958Y-77203700D01*
X121541644Y-77203700D01*
X121541645Y-77203699D01*
X121696297Y-77172937D01*
X121841979Y-77112594D01*
X121973089Y-77024989D01*
X122084589Y-76913489D01*
X122104725Y-76883352D01*
X122158338Y-76838547D01*
X122227662Y-76829840D01*
X122290690Y-76859994D01*
X122310930Y-76883352D01*
X122365010Y-76964288D01*
X122365013Y-76964292D01*
X122476507Y-77075786D01*
X122476511Y-77075789D01*
X122607614Y-77163390D01*
X122607627Y-77163397D01*
X122704929Y-77203700D01*
X122753303Y-77223737D01*
X122907953Y-77254499D01*
X122907956Y-77254500D01*
X122907958Y-77254500D01*
X123065644Y-77254500D01*
X123065645Y-77254499D01*
X123220297Y-77223737D01*
X123365979Y-77163394D01*
X123497089Y-77075789D01*
X123608589Y-76964289D01*
X123617064Y-76951605D01*
X123670673Y-76906798D01*
X123739997Y-76898088D01*
X123791394Y-76921278D01*
X123792246Y-76920005D01*
X123928414Y-77010990D01*
X123928427Y-77010997D01*
X124039507Y-77057007D01*
X124074103Y-77071337D01*
X124228753Y-77102099D01*
X124228756Y-77102100D01*
X124228758Y-77102100D01*
X124386444Y-77102100D01*
X124386445Y-77102099D01*
X124541097Y-77071337D01*
X124686779Y-77010994D01*
X124816819Y-76924104D01*
X136005500Y-76924104D01*
X136005500Y-77101495D01*
X136040103Y-77275458D01*
X136040106Y-77275467D01*
X136107983Y-77439340D01*
X136107990Y-77439353D01*
X136206535Y-77586834D01*
X136206538Y-77586838D01*
X136331961Y-77712261D01*
X136331965Y-77712264D01*
X136479446Y-77810809D01*
X136479459Y-77810816D01*
X136602363Y-77861723D01*
X136643334Y-77878694D01*
X136643336Y-77878694D01*
X136643341Y-77878696D01*
X136817304Y-77913299D01*
X136817307Y-77913300D01*
X136817309Y-77913300D01*
X136994693Y-77913300D01*
X136994694Y-77913299D01*
X137077149Y-77896898D01*
X137168658Y-77878696D01*
X137168661Y-77878694D01*
X137168666Y-77878694D01*
X137332547Y-77810813D01*
X137480035Y-77712264D01*
X137605464Y-77586835D01*
X137704013Y-77439347D01*
X137771894Y-77275466D01*
X137776065Y-77254500D01*
X137806499Y-77101495D01*
X137806500Y-77101493D01*
X137806500Y-76924106D01*
X137806499Y-76924104D01*
X137771896Y-76750141D01*
X137771893Y-76750132D01*
X137704016Y-76586259D01*
X137704009Y-76586246D01*
X137605464Y-76438765D01*
X137605461Y-76438761D01*
X137480038Y-76313338D01*
X137480034Y-76313335D01*
X137332553Y-76214790D01*
X137332540Y-76214783D01*
X137168667Y-76146906D01*
X137168658Y-76146903D01*
X136994694Y-76112300D01*
X136994691Y-76112300D01*
X136817309Y-76112300D01*
X136817306Y-76112300D01*
X136643341Y-76146903D01*
X136643332Y-76146906D01*
X136479459Y-76214783D01*
X136479446Y-76214790D01*
X136331965Y-76313335D01*
X136331961Y-76313338D01*
X136206538Y-76438761D01*
X136206535Y-76438765D01*
X136107990Y-76586246D01*
X136107983Y-76586259D01*
X136040106Y-76750132D01*
X136040103Y-76750141D01*
X136005500Y-76924104D01*
X124816819Y-76924104D01*
X124817889Y-76923389D01*
X124857926Y-76883352D01*
X124910943Y-76830336D01*
X124929386Y-76811892D01*
X124929389Y-76811889D01*
X125016994Y-76680779D01*
X125054910Y-76589240D01*
X125098749Y-76534839D01*
X125165043Y-76512773D01*
X125232742Y-76530051D01*
X125238360Y-76533591D01*
X125317886Y-76586729D01*
X125317888Y-76586730D01*
X125317892Y-76586732D01*
X125438501Y-76636689D01*
X125463568Y-76647072D01*
X125618218Y-76677834D01*
X125618221Y-76677835D01*
X125618223Y-76677835D01*
X125775909Y-76677835D01*
X125775910Y-76677834D01*
X125930562Y-76647072D01*
X126076244Y-76586729D01*
X126207354Y-76499124D01*
X126318854Y-76387624D01*
X126406459Y-76256514D01*
X126466802Y-76110832D01*
X126497565Y-75956177D01*
X126497565Y-75798493D01*
X126497565Y-75798490D01*
X126497564Y-75798488D01*
X126476741Y-75693806D01*
X126466802Y-75643838D01*
X126445417Y-75592209D01*
X126406462Y-75498162D01*
X126406455Y-75498149D01*
X126318854Y-75367046D01*
X126318851Y-75367042D01*
X126203047Y-75251238D01*
X126204522Y-75249762D01*
X126170526Y-75199874D01*
X126168642Y-75130030D01*
X126204818Y-75070254D01*
X126264328Y-75040126D01*
X126268297Y-75039337D01*
X126413979Y-74978994D01*
X126545089Y-74891389D01*
X126656589Y-74779889D01*
X126704388Y-74708353D01*
X137121500Y-74708353D01*
X137121500Y-74866046D01*
X137152261Y-75020689D01*
X137152264Y-75020701D01*
X137212602Y-75166372D01*
X137212609Y-75166385D01*
X137300210Y-75297488D01*
X137300213Y-75297492D01*
X137411707Y-75408986D01*
X137411711Y-75408989D01*
X137542814Y-75496590D01*
X137542827Y-75496597D01*
X137649110Y-75540620D01*
X137688503Y-75556937D01*
X137843153Y-75587699D01*
X137843156Y-75587700D01*
X137843158Y-75587700D01*
X138000844Y-75587700D01*
X138000845Y-75587699D01*
X138155497Y-75556937D01*
X138268166Y-75510267D01*
X138301172Y-75496597D01*
X138301172Y-75496596D01*
X138301179Y-75496594D01*
X138432289Y-75408989D01*
X138543789Y-75297489D01*
X138631394Y-75166379D01*
X138691737Y-75020697D01*
X138714783Y-74904840D01*
X138747168Y-74842929D01*
X138807884Y-74808355D01*
X138877653Y-74812094D01*
X138934325Y-74852961D01*
X138958017Y-74904840D01*
X138981061Y-75020689D01*
X138981064Y-75020701D01*
X139041402Y-75166372D01*
X139041409Y-75166385D01*
X139129010Y-75297488D01*
X139129013Y-75297492D01*
X139240507Y-75408986D01*
X139240511Y-75408989D01*
X139371614Y-75496590D01*
X139371627Y-75496597D01*
X139477910Y-75540620D01*
X139517303Y-75556937D01*
X139671953Y-75587699D01*
X139671956Y-75587700D01*
X139671958Y-75587700D01*
X139829644Y-75587700D01*
X139829645Y-75587699D01*
X139984297Y-75556937D01*
X140096966Y-75510267D01*
X140129972Y-75496597D01*
X140129972Y-75496596D01*
X140129979Y-75496594D01*
X140261089Y-75408989D01*
X140372589Y-75297489D01*
X140460194Y-75166379D01*
X140520537Y-75020697D01*
X140551300Y-74866042D01*
X140551300Y-74808358D01*
X140570985Y-74741319D01*
X140623789Y-74695564D01*
X140692947Y-74685620D01*
X140756503Y-74714645D01*
X140778401Y-74739465D01*
X140793662Y-74762305D01*
X140805412Y-74779891D01*
X140916907Y-74891386D01*
X140916911Y-74891389D01*
X141048014Y-74978990D01*
X141048027Y-74978997D01*
X141148711Y-75020701D01*
X141193703Y-75039337D01*
X141348353Y-75070099D01*
X141348356Y-75070100D01*
X141348358Y-75070100D01*
X141506044Y-75070100D01*
X141506045Y-75070099D01*
X141660697Y-75039337D01*
X141806379Y-74978994D01*
X141937489Y-74891389D01*
X142048989Y-74779889D01*
X142136594Y-74648779D01*
X142196937Y-74503097D01*
X142227700Y-74348442D01*
X142227700Y-74190758D01*
X142227700Y-74190755D01*
X142227699Y-74190753D01*
X142196937Y-74036103D01*
X142176474Y-73986700D01*
X142136597Y-73890427D01*
X142136590Y-73890414D01*
X142048989Y-73759311D01*
X142048986Y-73759307D01*
X141937492Y-73647813D01*
X141937488Y-73647810D01*
X141806385Y-73560209D01*
X141806372Y-73560202D01*
X141660701Y-73499864D01*
X141660689Y-73499861D01*
X141506045Y-73469100D01*
X141506042Y-73469100D01*
X141348358Y-73469100D01*
X141348355Y-73469100D01*
X141193710Y-73499861D01*
X141193698Y-73499864D01*
X141048027Y-73560202D01*
X141048014Y-73560209D01*
X140916911Y-73647810D01*
X140916907Y-73647813D01*
X140805413Y-73759307D01*
X140805410Y-73759311D01*
X140717809Y-73890414D01*
X140717802Y-73890427D01*
X140657464Y-74036098D01*
X140657461Y-74036110D01*
X140626700Y-74190753D01*
X140626700Y-74248441D01*
X140607015Y-74315480D01*
X140554211Y-74361235D01*
X140485053Y-74371179D01*
X140421497Y-74342154D01*
X140399598Y-74317332D01*
X140372589Y-74276911D01*
X140372586Y-74276907D01*
X140261092Y-74165413D01*
X140261088Y-74165410D01*
X140129985Y-74077809D01*
X140129972Y-74077802D01*
X139984301Y-74017464D01*
X139984289Y-74017461D01*
X139829645Y-73986700D01*
X139829642Y-73986700D01*
X139671958Y-73986700D01*
X139671955Y-73986700D01*
X139517310Y-74017461D01*
X139517298Y-74017464D01*
X139371627Y-74077802D01*
X139371614Y-74077809D01*
X139240511Y-74165410D01*
X139240507Y-74165413D01*
X139129013Y-74276907D01*
X139129010Y-74276911D01*
X139041409Y-74408014D01*
X139041402Y-74408027D01*
X138981064Y-74553698D01*
X138981061Y-74553710D01*
X138958017Y-74669559D01*
X138925632Y-74731470D01*
X138864916Y-74766045D01*
X138795147Y-74762305D01*
X138738475Y-74721438D01*
X138714783Y-74669559D01*
X138700387Y-74597191D01*
X138691737Y-74553703D01*
X138670777Y-74503101D01*
X138631397Y-74408027D01*
X138631390Y-74408014D01*
X138543789Y-74276911D01*
X138543786Y-74276907D01*
X138432292Y-74165413D01*
X138432288Y-74165410D01*
X138301185Y-74077809D01*
X138301172Y-74077802D01*
X138155501Y-74017464D01*
X138155489Y-74017461D01*
X138000845Y-73986700D01*
X138000842Y-73986700D01*
X137843158Y-73986700D01*
X137843155Y-73986700D01*
X137688510Y-74017461D01*
X137688498Y-74017464D01*
X137542827Y-74077802D01*
X137542814Y-74077809D01*
X137411711Y-74165410D01*
X137411707Y-74165413D01*
X137300213Y-74276907D01*
X137300210Y-74276911D01*
X137212609Y-74408014D01*
X137212602Y-74408027D01*
X137152264Y-74553698D01*
X137152261Y-74553710D01*
X137121500Y-74708353D01*
X126704388Y-74708353D01*
X126744194Y-74648779D01*
X126804537Y-74503097D01*
X126835300Y-74348442D01*
X126835300Y-74190758D01*
X126835300Y-74190755D01*
X126835299Y-74190753D01*
X126804537Y-74036103D01*
X126784074Y-73986700D01*
X126744197Y-73890427D01*
X126744190Y-73890414D01*
X126656589Y-73759311D01*
X126656586Y-73759307D01*
X126545092Y-73647813D01*
X126545088Y-73647810D01*
X126413985Y-73560209D01*
X126413972Y-73560202D01*
X126268301Y-73499864D01*
X126268289Y-73499861D01*
X126113645Y-73469100D01*
X126113642Y-73469100D01*
X125955958Y-73469100D01*
X125955955Y-73469100D01*
X125801310Y-73499861D01*
X125801298Y-73499864D01*
X125655627Y-73560202D01*
X125655614Y-73560209D01*
X125524511Y-73647810D01*
X125524507Y-73647813D01*
X125413013Y-73759307D01*
X125413010Y-73759311D01*
X125325409Y-73890414D01*
X125325402Y-73890427D01*
X125265064Y-74036098D01*
X125265061Y-74036110D01*
X125234300Y-74190753D01*
X125234300Y-74348446D01*
X125265061Y-74503089D01*
X125265064Y-74503101D01*
X125325402Y-74648772D01*
X125325409Y-74648785D01*
X125413010Y-74779888D01*
X125413013Y-74779892D01*
X125528818Y-74895697D01*
X125527341Y-74897173D01*
X125561336Y-74947054D01*
X125563223Y-75016899D01*
X125527050Y-75076676D01*
X125467549Y-75106805D01*
X125463577Y-75107595D01*
X125463563Y-75107599D01*
X125317892Y-75167937D01*
X125317879Y-75167944D01*
X125186776Y-75255545D01*
X125186772Y-75255548D01*
X125075278Y-75367042D01*
X125075275Y-75367046D01*
X124987674Y-75498149D01*
X124987669Y-75498158D01*
X124949755Y-75589693D01*
X124905914Y-75644096D01*
X124839620Y-75666161D01*
X124771921Y-75648882D01*
X124766303Y-75645342D01*
X124686785Y-75592209D01*
X124686772Y-75592202D01*
X124541101Y-75531864D01*
X124541089Y-75531861D01*
X124380468Y-75499911D01*
X124380708Y-75498701D01*
X124321927Y-75474959D01*
X124281573Y-75417921D01*
X124277260Y-75353533D01*
X124295300Y-75262842D01*
X124295300Y-75105158D01*
X124295300Y-75105155D01*
X124295299Y-75105153D01*
X124289666Y-75076835D01*
X124264537Y-74950503D01*
X124241836Y-74895697D01*
X124204197Y-74804827D01*
X124204190Y-74804814D01*
X124116589Y-74673711D01*
X124116586Y-74673707D01*
X124005092Y-74562213D01*
X124005088Y-74562210D01*
X123873985Y-74474609D01*
X123873972Y-74474602D01*
X123728301Y-74414264D01*
X123728289Y-74414261D01*
X123573645Y-74383500D01*
X123573642Y-74383500D01*
X123415958Y-74383500D01*
X123415955Y-74383500D01*
X123261310Y-74414261D01*
X123261298Y-74414264D01*
X123115627Y-74474602D01*
X123115614Y-74474609D01*
X122984511Y-74562210D01*
X122984507Y-74562213D01*
X122873013Y-74673707D01*
X122873010Y-74673711D01*
X122785409Y-74804814D01*
X122785402Y-74804827D01*
X122725064Y-74950498D01*
X122725061Y-74950510D01*
X122694300Y-75105153D01*
X122694300Y-75262846D01*
X122725061Y-75417489D01*
X122725064Y-75417501D01*
X122776061Y-75540620D01*
X122783530Y-75610089D01*
X122752254Y-75672568D01*
X122708952Y-75702633D01*
X122607627Y-75744602D01*
X122607614Y-75744609D01*
X122476511Y-75832210D01*
X122476507Y-75832213D01*
X122365013Y-75943707D01*
X122365009Y-75943712D01*
X122344871Y-75973850D01*
X122291258Y-76018653D01*
X122221933Y-76027359D01*
X122158906Y-75997202D01*
X122138669Y-75973847D01*
X122084589Y-75892911D01*
X122084586Y-75892907D01*
X121973092Y-75781413D01*
X121973088Y-75781410D01*
X121841985Y-75693809D01*
X121841972Y-75693802D01*
X121696301Y-75633464D01*
X121696289Y-75633461D01*
X121541645Y-75602700D01*
X121541642Y-75602700D01*
X121383958Y-75602700D01*
X121383955Y-75602700D01*
X121229310Y-75633461D01*
X121229298Y-75633464D01*
X121083627Y-75693802D01*
X121083614Y-75693809D01*
X120952511Y-75781410D01*
X120952507Y-75781413D01*
X120841013Y-75892907D01*
X120841010Y-75892911D01*
X120753409Y-76024014D01*
X120753402Y-76024027D01*
X120693064Y-76169698D01*
X120693061Y-76169710D01*
X120662300Y-76324353D01*
X100500300Y-76324353D01*
X100500300Y-70102135D01*
X101649500Y-70102135D01*
X101649500Y-71897870D01*
X101649501Y-71897876D01*
X101655908Y-71957483D01*
X101706202Y-72092328D01*
X101706206Y-72092335D01*
X101792452Y-72207544D01*
X101792455Y-72207547D01*
X101907664Y-72293793D01*
X101907671Y-72293797D01*
X101913377Y-72295925D01*
X102042517Y-72344091D01*
X102102127Y-72350500D01*
X102112685Y-72350499D01*
X102179723Y-72370179D01*
X102200372Y-72386818D01*
X102870591Y-73057037D01*
X102807007Y-73074075D01*
X102692993Y-73139901D01*
X102599901Y-73232993D01*
X102534075Y-73347007D01*
X102517037Y-73410591D01*
X101884728Y-72778282D01*
X101884727Y-72778282D01*
X101845380Y-72832439D01*
X101748904Y-73021782D01*
X101683242Y-73223869D01*
X101683242Y-73223872D01*
X101650000Y-73433753D01*
X101650000Y-73646246D01*
X101683242Y-73856127D01*
X101683242Y-73856130D01*
X101748904Y-74058217D01*
X101845375Y-74247550D01*
X101884728Y-74301716D01*
X102517037Y-73669408D01*
X102534075Y-73732993D01*
X102599901Y-73847007D01*
X102692993Y-73940099D01*
X102807007Y-74005925D01*
X102870590Y-74022962D01*
X102238282Y-74655269D01*
X102238282Y-74655270D01*
X102292449Y-74694624D01*
X102481782Y-74791095D01*
X102683870Y-74856757D01*
X102893754Y-74890000D01*
X103106246Y-74890000D01*
X103316127Y-74856757D01*
X103316130Y-74856757D01*
X103518217Y-74791095D01*
X103707554Y-74694622D01*
X103761716Y-74655270D01*
X103761717Y-74655270D01*
X103129408Y-74022962D01*
X103192993Y-74005925D01*
X103307007Y-73940099D01*
X103400099Y-73847007D01*
X103465925Y-73732993D01*
X103482962Y-73669409D01*
X104115270Y-74301717D01*
X104115270Y-74301716D01*
X104154622Y-74247554D01*
X104251095Y-74058217D01*
X104316757Y-73856130D01*
X104316757Y-73856127D01*
X104350000Y-73646246D01*
X104350000Y-73433753D01*
X104316757Y-73223872D01*
X104316757Y-73223869D01*
X104251095Y-73021782D01*
X104154624Y-72832449D01*
X104115270Y-72778282D01*
X104115269Y-72778282D01*
X103482962Y-73410590D01*
X103465925Y-73347007D01*
X103400099Y-73232993D01*
X103307007Y-73139901D01*
X103192993Y-73074075D01*
X103129409Y-73057037D01*
X103799627Y-72386818D01*
X103860950Y-72353333D01*
X103887307Y-72350499D01*
X103897872Y-72350499D01*
X103957483Y-72344091D01*
X104092331Y-72293796D01*
X104150162Y-72250504D01*
X104814300Y-72250504D01*
X104814300Y-72427895D01*
X104848903Y-72601858D01*
X104848906Y-72601867D01*
X104916783Y-72765740D01*
X104916790Y-72765753D01*
X105015335Y-72913234D01*
X105015338Y-72913238D01*
X105140761Y-73038661D01*
X105140765Y-73038664D01*
X105288246Y-73137209D01*
X105288259Y-73137216D01*
X105391551Y-73180000D01*
X105452134Y-73205094D01*
X105452136Y-73205094D01*
X105452141Y-73205096D01*
X105626104Y-73239699D01*
X105626107Y-73239700D01*
X105626109Y-73239700D01*
X105803493Y-73239700D01*
X105803494Y-73239699D01*
X105861482Y-73228164D01*
X105977458Y-73205096D01*
X105977461Y-73205094D01*
X105977466Y-73205094D01*
X106117335Y-73147158D01*
X106141340Y-73137216D01*
X106141340Y-73137215D01*
X106141347Y-73137213D01*
X106288835Y-73038664D01*
X106414264Y-72913235D01*
X106512813Y-72765747D01*
X106580694Y-72601866D01*
X106586496Y-72572701D01*
X106615299Y-72427895D01*
X106615300Y-72427893D01*
X106615300Y-72250506D01*
X106615299Y-72250504D01*
X106580696Y-72076541D01*
X106580693Y-72076532D01*
X106512816Y-71912659D01*
X106512809Y-71912646D01*
X106414264Y-71765165D01*
X106414261Y-71765161D01*
X106288838Y-71639738D01*
X106288834Y-71639735D01*
X106141353Y-71541190D01*
X106141341Y-71541183D01*
X106054531Y-71505227D01*
X105977467Y-71473306D01*
X105977458Y-71473303D01*
X105803494Y-71438700D01*
X105803491Y-71438700D01*
X105626109Y-71438700D01*
X105626106Y-71438700D01*
X105452141Y-71473303D01*
X105452132Y-71473306D01*
X105288259Y-71541183D01*
X105288246Y-71541190D01*
X105140765Y-71639735D01*
X105140761Y-71639738D01*
X105015338Y-71765161D01*
X105015335Y-71765165D01*
X104916790Y-71912646D01*
X104916783Y-71912659D01*
X104848906Y-72076532D01*
X104848903Y-72076541D01*
X104814300Y-72250504D01*
X104150162Y-72250504D01*
X104207546Y-72207546D01*
X104293796Y-72092331D01*
X104344091Y-71957483D01*
X104350500Y-71897873D01*
X104350500Y-71396753D01*
X124421500Y-71396753D01*
X124421500Y-71554446D01*
X124452261Y-71709089D01*
X124452264Y-71709101D01*
X124512602Y-71854772D01*
X124512609Y-71854785D01*
X124600210Y-71985888D01*
X124600213Y-71985892D01*
X124711707Y-72097386D01*
X124711711Y-72097389D01*
X124842814Y-72184990D01*
X124842827Y-72184997D01*
X124988498Y-72245335D01*
X124988503Y-72245337D01*
X125143153Y-72276099D01*
X125143156Y-72276100D01*
X125143158Y-72276100D01*
X125300844Y-72276100D01*
X125300845Y-72276099D01*
X125455497Y-72245337D01*
X125601179Y-72184994D01*
X125732289Y-72097389D01*
X125843789Y-71985889D01*
X125931394Y-71854779D01*
X125991737Y-71709097D01*
X126022500Y-71554442D01*
X126022500Y-71396758D01*
X126022500Y-71396755D01*
X126022499Y-71396753D01*
X130279500Y-71396753D01*
X130279500Y-71554446D01*
X130310261Y-71709089D01*
X130310264Y-71709101D01*
X130370602Y-71854772D01*
X130370609Y-71854785D01*
X130458210Y-71985888D01*
X130458213Y-71985892D01*
X130569707Y-72097386D01*
X130569711Y-72097389D01*
X130700814Y-72184990D01*
X130700827Y-72184997D01*
X130846498Y-72245335D01*
X130846503Y-72245337D01*
X131001153Y-72276099D01*
X131001156Y-72276100D01*
X131001158Y-72276100D01*
X131158844Y-72276100D01*
X131158845Y-72276099D01*
X131313497Y-72245337D01*
X131459179Y-72184994D01*
X131590289Y-72097389D01*
X131701789Y-71985889D01*
X131789394Y-71854779D01*
X131849737Y-71709097D01*
X131880500Y-71554442D01*
X131880500Y-71396758D01*
X131880500Y-71396755D01*
X131880499Y-71396753D01*
X132244700Y-71396753D01*
X132244700Y-71554446D01*
X132275461Y-71709089D01*
X132275464Y-71709101D01*
X132335802Y-71854772D01*
X132335809Y-71854785D01*
X132423410Y-71985888D01*
X132423413Y-71985892D01*
X132534907Y-72097386D01*
X132534911Y-72097389D01*
X132666014Y-72184990D01*
X132666027Y-72184997D01*
X132811698Y-72245335D01*
X132811703Y-72245337D01*
X132966353Y-72276099D01*
X132966356Y-72276100D01*
X132966358Y-72276100D01*
X133124044Y-72276100D01*
X133124045Y-72276099D01*
X133278697Y-72245337D01*
X133424379Y-72184994D01*
X133555489Y-72097389D01*
X133666989Y-71985889D01*
X133754594Y-71854779D01*
X133814937Y-71709097D01*
X133818397Y-71691704D01*
X135954700Y-71691704D01*
X135954700Y-71869095D01*
X135989303Y-72043058D01*
X135989306Y-72043067D01*
X136057183Y-72206940D01*
X136057190Y-72206953D01*
X136155735Y-72354434D01*
X136155738Y-72354438D01*
X136281161Y-72479861D01*
X136281165Y-72479864D01*
X136428646Y-72578409D01*
X136428659Y-72578416D01*
X136551563Y-72629323D01*
X136592534Y-72646294D01*
X136592536Y-72646294D01*
X136592541Y-72646296D01*
X136766504Y-72680899D01*
X136766507Y-72680900D01*
X136766509Y-72680900D01*
X136943893Y-72680900D01*
X136943894Y-72680899D01*
X137001882Y-72669364D01*
X137117858Y-72646296D01*
X137117861Y-72646294D01*
X137117866Y-72646294D01*
X137281747Y-72578413D01*
X137429235Y-72479864D01*
X137554664Y-72354435D01*
X137617528Y-72260353D01*
X143166700Y-72260353D01*
X143166700Y-72418046D01*
X143197461Y-72572689D01*
X143197464Y-72572701D01*
X143257802Y-72718372D01*
X143257809Y-72718385D01*
X143345410Y-72849488D01*
X143345413Y-72849492D01*
X143456907Y-72960986D01*
X143456911Y-72960989D01*
X143588014Y-73048590D01*
X143588027Y-73048597D01*
X143667601Y-73081557D01*
X143733703Y-73108937D01*
X143875835Y-73137209D01*
X143888353Y-73139699D01*
X143888356Y-73139700D01*
X143888358Y-73139700D01*
X144046044Y-73139700D01*
X144046045Y-73139699D01*
X144200697Y-73108937D01*
X144346379Y-73048594D01*
X144477489Y-72960989D01*
X144588989Y-72849489D01*
X144676594Y-72718379D01*
X144736937Y-72572697D01*
X144767700Y-72418042D01*
X144767700Y-72260358D01*
X144767700Y-72260355D01*
X144767699Y-72260353D01*
X144757195Y-72207546D01*
X144736937Y-72105703D01*
X144687309Y-71985889D01*
X144676597Y-71960027D01*
X144676590Y-71960014D01*
X144588989Y-71828911D01*
X144588986Y-71828907D01*
X144477492Y-71717413D01*
X144477488Y-71717410D01*
X144346385Y-71629809D01*
X144346372Y-71629802D01*
X144200701Y-71569464D01*
X144200689Y-71569461D01*
X144046045Y-71538700D01*
X144046042Y-71538700D01*
X143888358Y-71538700D01*
X143888355Y-71538700D01*
X143733710Y-71569461D01*
X143733698Y-71569464D01*
X143588027Y-71629802D01*
X143588014Y-71629809D01*
X143456911Y-71717410D01*
X143456907Y-71717413D01*
X143345413Y-71828907D01*
X143345410Y-71828911D01*
X143257809Y-71960014D01*
X143257802Y-71960027D01*
X143197464Y-72105698D01*
X143197461Y-72105710D01*
X143166700Y-72260353D01*
X137617528Y-72260353D01*
X137653213Y-72206947D01*
X137721094Y-72043066D01*
X137732468Y-71985888D01*
X137755699Y-71869095D01*
X137755700Y-71869093D01*
X137755700Y-71691706D01*
X137755699Y-71691704D01*
X137721096Y-71517741D01*
X137721093Y-71517732D01*
X137653216Y-71353859D01*
X137653209Y-71353846D01*
X137554664Y-71206365D01*
X137554661Y-71206361D01*
X137429238Y-71080938D01*
X137429234Y-71080935D01*
X137281753Y-70982390D01*
X137281740Y-70982383D01*
X137117867Y-70914506D01*
X137117858Y-70914503D01*
X136943894Y-70879900D01*
X136943891Y-70879900D01*
X136766509Y-70879900D01*
X136766506Y-70879900D01*
X136592541Y-70914503D01*
X136592532Y-70914506D01*
X136428659Y-70982383D01*
X136428646Y-70982390D01*
X136281165Y-71080935D01*
X136281161Y-71080938D01*
X136155738Y-71206361D01*
X136155735Y-71206365D01*
X136057190Y-71353846D01*
X136057183Y-71353859D01*
X135989306Y-71517732D01*
X135989303Y-71517741D01*
X135954700Y-71691704D01*
X133818397Y-71691704D01*
X133828734Y-71639738D01*
X133842712Y-71569463D01*
X133845700Y-71554442D01*
X133845700Y-71396758D01*
X133845700Y-71396755D01*
X133845699Y-71396753D01*
X133837167Y-71353859D01*
X133814937Y-71242103D01*
X133800132Y-71206361D01*
X133754597Y-71096427D01*
X133754590Y-71096414D01*
X133666989Y-70965311D01*
X133666986Y-70965307D01*
X133555492Y-70853813D01*
X133555488Y-70853810D01*
X133424385Y-70766209D01*
X133424372Y-70766202D01*
X133278701Y-70705864D01*
X133278689Y-70705861D01*
X133124045Y-70675100D01*
X133124042Y-70675100D01*
X132966358Y-70675100D01*
X132966355Y-70675100D01*
X132811710Y-70705861D01*
X132811698Y-70705864D01*
X132666027Y-70766202D01*
X132666014Y-70766209D01*
X132534911Y-70853810D01*
X132534907Y-70853813D01*
X132423413Y-70965307D01*
X132423410Y-70965311D01*
X132335809Y-71096414D01*
X132335802Y-71096427D01*
X132275464Y-71242098D01*
X132275461Y-71242110D01*
X132244700Y-71396753D01*
X131880499Y-71396753D01*
X131871967Y-71353859D01*
X131849737Y-71242103D01*
X131834932Y-71206361D01*
X131789397Y-71096427D01*
X131789390Y-71096414D01*
X131701789Y-70965311D01*
X131701786Y-70965307D01*
X131590292Y-70853813D01*
X131590288Y-70853810D01*
X131459185Y-70766209D01*
X131459172Y-70766202D01*
X131313501Y-70705864D01*
X131313489Y-70705861D01*
X131158845Y-70675100D01*
X131158842Y-70675100D01*
X131001158Y-70675100D01*
X131001155Y-70675100D01*
X130846510Y-70705861D01*
X130846498Y-70705864D01*
X130700827Y-70766202D01*
X130700814Y-70766209D01*
X130569711Y-70853810D01*
X130569707Y-70853813D01*
X130458213Y-70965307D01*
X130458210Y-70965311D01*
X130370609Y-71096414D01*
X130370602Y-71096427D01*
X130310264Y-71242098D01*
X130310261Y-71242110D01*
X130279500Y-71396753D01*
X126022499Y-71396753D01*
X126013967Y-71353859D01*
X125991737Y-71242103D01*
X125976932Y-71206361D01*
X125931397Y-71096427D01*
X125931390Y-71096414D01*
X125843789Y-70965311D01*
X125843786Y-70965307D01*
X125732292Y-70853813D01*
X125732288Y-70853810D01*
X125601185Y-70766209D01*
X125601172Y-70766202D01*
X125455501Y-70705864D01*
X125455489Y-70705861D01*
X125300845Y-70675100D01*
X125300842Y-70675100D01*
X125143158Y-70675100D01*
X125143155Y-70675100D01*
X124988510Y-70705861D01*
X124988498Y-70705864D01*
X124842827Y-70766202D01*
X124842814Y-70766209D01*
X124711711Y-70853810D01*
X124711707Y-70853813D01*
X124600213Y-70965307D01*
X124600210Y-70965311D01*
X124512609Y-71096414D01*
X124512602Y-71096427D01*
X124452264Y-71242098D01*
X124452261Y-71242110D01*
X124421500Y-71396753D01*
X104350500Y-71396753D01*
X104350499Y-70102128D01*
X104344091Y-70042517D01*
X104324151Y-69989056D01*
X104293797Y-69907671D01*
X104293793Y-69907664D01*
X104207547Y-69792455D01*
X104207544Y-69792452D01*
X104154705Y-69752896D01*
X104154687Y-69752884D01*
X104092330Y-69706203D01*
X104092328Y-69706202D01*
X103967660Y-69659704D01*
X114110700Y-69659704D01*
X114110700Y-69837095D01*
X114145303Y-70011058D01*
X114145306Y-70011067D01*
X114213183Y-70174940D01*
X114213190Y-70174953D01*
X114311735Y-70322434D01*
X114311738Y-70322438D01*
X114437161Y-70447861D01*
X114437165Y-70447864D01*
X114584646Y-70546409D01*
X114584659Y-70546416D01*
X114661981Y-70578443D01*
X114748534Y-70614294D01*
X114748536Y-70614294D01*
X114748541Y-70614296D01*
X114922504Y-70648899D01*
X114922507Y-70648900D01*
X114922509Y-70648900D01*
X115099893Y-70648900D01*
X115099894Y-70648899D01*
X115157882Y-70637364D01*
X115273858Y-70614296D01*
X115273861Y-70614294D01*
X115273866Y-70614294D01*
X115437747Y-70546413D01*
X115585235Y-70447864D01*
X115710664Y-70322435D01*
X115809213Y-70174947D01*
X115877094Y-70011066D01*
X115911700Y-69837091D01*
X115911700Y-69659709D01*
X115911700Y-69659706D01*
X115911699Y-69659704D01*
X115877096Y-69485741D01*
X115877093Y-69485732D01*
X115809216Y-69321859D01*
X115809209Y-69321846D01*
X115710664Y-69174365D01*
X115710661Y-69174361D01*
X115585238Y-69048938D01*
X115585234Y-69048935D01*
X115437753Y-68950390D01*
X115437740Y-68950383D01*
X115273867Y-68882506D01*
X115273858Y-68882503D01*
X115099894Y-68847900D01*
X115099891Y-68847900D01*
X114922509Y-68847900D01*
X114922506Y-68847900D01*
X114748541Y-68882503D01*
X114748532Y-68882506D01*
X114584659Y-68950383D01*
X114584646Y-68950390D01*
X114437165Y-69048935D01*
X114437161Y-69048938D01*
X114311738Y-69174361D01*
X114311735Y-69174365D01*
X114213190Y-69321846D01*
X114213183Y-69321859D01*
X114145306Y-69485732D01*
X114145303Y-69485741D01*
X114110700Y-69659704D01*
X103967660Y-69659704D01*
X103957482Y-69655908D01*
X103957483Y-69655908D01*
X103897883Y-69649501D01*
X103897881Y-69649500D01*
X103897873Y-69649500D01*
X103897864Y-69649500D01*
X102102129Y-69649500D01*
X102102123Y-69649501D01*
X102042516Y-69655908D01*
X101907671Y-69706202D01*
X101907664Y-69706206D01*
X101792455Y-69792452D01*
X101792452Y-69792455D01*
X101706206Y-69907664D01*
X101706202Y-69907671D01*
X101655908Y-70042517D01*
X101649501Y-70102116D01*
X101649501Y-70102123D01*
X101649500Y-70102135D01*
X100500300Y-70102135D01*
X100500300Y-68704353D01*
X117461900Y-68704353D01*
X117461900Y-68862046D01*
X117492661Y-69016689D01*
X117492664Y-69016701D01*
X117553002Y-69162372D01*
X117553009Y-69162385D01*
X117640610Y-69293488D01*
X117640613Y-69293492D01*
X117752107Y-69404986D01*
X117752111Y-69404989D01*
X117883214Y-69492590D01*
X117883227Y-69492597D01*
X118028898Y-69552935D01*
X118028903Y-69552937D01*
X118183553Y-69583699D01*
X118183556Y-69583700D01*
X118183558Y-69583700D01*
X118341244Y-69583700D01*
X118341245Y-69583699D01*
X118495897Y-69552937D01*
X118641579Y-69492594D01*
X118772689Y-69404989D01*
X118884189Y-69293489D01*
X118971794Y-69162379D01*
X119032137Y-69016697D01*
X119062900Y-68862042D01*
X119062900Y-68704358D01*
X119062900Y-68704355D01*
X119062899Y-68704353D01*
X119049302Y-68635998D01*
X119032137Y-68549703D01*
X119032135Y-68549698D01*
X118971797Y-68404027D01*
X118971790Y-68404014D01*
X118884189Y-68272911D01*
X118884186Y-68272907D01*
X118772692Y-68161413D01*
X118772688Y-68161410D01*
X118718149Y-68124968D01*
X118641585Y-68073809D01*
X118641572Y-68073802D01*
X118530881Y-68027953D01*
X123557900Y-68027953D01*
X123557900Y-68185646D01*
X123588661Y-68340289D01*
X123588664Y-68340301D01*
X123649002Y-68485972D01*
X123649009Y-68485985D01*
X123736610Y-68617088D01*
X123736613Y-68617092D01*
X123848107Y-68728586D01*
X123848111Y-68728589D01*
X123979214Y-68816190D01*
X123979227Y-68816197D01*
X124089918Y-68862046D01*
X124124903Y-68876537D01*
X124279553Y-68907299D01*
X124279556Y-68907300D01*
X124279558Y-68907300D01*
X124437244Y-68907300D01*
X124437245Y-68907299D01*
X124591897Y-68876537D01*
X124737579Y-68816194D01*
X124868689Y-68728589D01*
X124980189Y-68617089D01*
X125067794Y-68485979D01*
X125128137Y-68340297D01*
X125158900Y-68185642D01*
X125158900Y-68027958D01*
X125158900Y-68027955D01*
X125158899Y-68027953D01*
X125153648Y-68001557D01*
X125128137Y-67873303D01*
X125089533Y-67780104D01*
X125067797Y-67727627D01*
X125067790Y-67727614D01*
X124980189Y-67596511D01*
X124980186Y-67596507D01*
X124868692Y-67485013D01*
X124868688Y-67485010D01*
X124737585Y-67397409D01*
X124737572Y-67397402D01*
X124591901Y-67337064D01*
X124591889Y-67337061D01*
X124437245Y-67306300D01*
X124437242Y-67306300D01*
X124279558Y-67306300D01*
X124279555Y-67306300D01*
X124124910Y-67337061D01*
X124124898Y-67337064D01*
X123979227Y-67397402D01*
X123979214Y-67397409D01*
X123848111Y-67485010D01*
X123848107Y-67485013D01*
X123736613Y-67596507D01*
X123736610Y-67596511D01*
X123649009Y-67727614D01*
X123649002Y-67727627D01*
X123588664Y-67873298D01*
X123588661Y-67873310D01*
X123557900Y-68027953D01*
X118530881Y-68027953D01*
X118495901Y-68013464D01*
X118495889Y-68013461D01*
X118341245Y-67982700D01*
X118341242Y-67982700D01*
X118183558Y-67982700D01*
X118183555Y-67982700D01*
X118028910Y-68013461D01*
X118028898Y-68013464D01*
X117883227Y-68073802D01*
X117883214Y-68073809D01*
X117752111Y-68161410D01*
X117752107Y-68161413D01*
X117640613Y-68272907D01*
X117640610Y-68272911D01*
X117553009Y-68404014D01*
X117553002Y-68404027D01*
X117492664Y-68549698D01*
X117492661Y-68549710D01*
X117461900Y-68704353D01*
X100500300Y-68704353D01*
X100500300Y-65595704D01*
X103137900Y-65595704D01*
X103137900Y-65773095D01*
X103172503Y-65947058D01*
X103172506Y-65947067D01*
X103240383Y-66110940D01*
X103240390Y-66110953D01*
X103338935Y-66258434D01*
X103338938Y-66258438D01*
X103464361Y-66383861D01*
X103464365Y-66383864D01*
X103611846Y-66482409D01*
X103611859Y-66482416D01*
X103734763Y-66533323D01*
X103775734Y-66550294D01*
X103775736Y-66550294D01*
X103775741Y-66550296D01*
X103949704Y-66584899D01*
X103949707Y-66584900D01*
X103949709Y-66584900D01*
X104127093Y-66584900D01*
X104127094Y-66584899D01*
X104194095Y-66571572D01*
X104301058Y-66550296D01*
X104301061Y-66550294D01*
X104301066Y-66550294D01*
X104464947Y-66482413D01*
X104612435Y-66383864D01*
X104737864Y-66258435D01*
X104836413Y-66110947D01*
X104877417Y-66011953D01*
X122440300Y-66011953D01*
X122440300Y-66169646D01*
X122471061Y-66324289D01*
X122471064Y-66324301D01*
X122531402Y-66469972D01*
X122531409Y-66469985D01*
X122619010Y-66601088D01*
X122619013Y-66601092D01*
X122730507Y-66712586D01*
X122730511Y-66712589D01*
X122861614Y-66800190D01*
X122861627Y-66800197D01*
X123007298Y-66860535D01*
X123007303Y-66860537D01*
X123135173Y-66885972D01*
X123161953Y-66891299D01*
X123161956Y-66891300D01*
X123161958Y-66891300D01*
X123319644Y-66891300D01*
X123319645Y-66891299D01*
X123474297Y-66860537D01*
X123619979Y-66800194D01*
X123619980Y-66800192D01*
X123624070Y-66798499D01*
X123693540Y-66791030D01*
X123740239Y-66812610D01*
X123741446Y-66810805D01*
X123877614Y-66901790D01*
X123877627Y-66901797D01*
X124023298Y-66962135D01*
X124023303Y-66962137D01*
X124177953Y-66992899D01*
X124177956Y-66992900D01*
X124177958Y-66992900D01*
X124335644Y-66992900D01*
X124335645Y-66992899D01*
X124490297Y-66962137D01*
X124635979Y-66901794D01*
X124767089Y-66814189D01*
X124878589Y-66702689D01*
X124966194Y-66571579D01*
X124975010Y-66550296D01*
X124995739Y-66500251D01*
X125039579Y-66445847D01*
X125105873Y-66423782D01*
X125173573Y-66441061D01*
X125221184Y-66492198D01*
X125234300Y-66547703D01*
X125234300Y-66585646D01*
X125265061Y-66740289D01*
X125265064Y-66740301D01*
X125325402Y-66885972D01*
X125325409Y-66885985D01*
X125413010Y-67017088D01*
X125413013Y-67017092D01*
X125524507Y-67128586D01*
X125524511Y-67128589D01*
X125655614Y-67216190D01*
X125655627Y-67216197D01*
X125781687Y-67268412D01*
X125801303Y-67276537D01*
X125950931Y-67306300D01*
X125955953Y-67307299D01*
X125955956Y-67307300D01*
X125955958Y-67307300D01*
X126113644Y-67307300D01*
X126113645Y-67307299D01*
X126268297Y-67276537D01*
X126413979Y-67216194D01*
X126545089Y-67128589D01*
X126656589Y-67017089D01*
X126744194Y-66885979D01*
X126804537Y-66740297D01*
X126835300Y-66585642D01*
X126835300Y-66427958D01*
X126835300Y-66427955D01*
X126835299Y-66427953D01*
X126826529Y-66383864D01*
X126804537Y-66273303D01*
X126798378Y-66258434D01*
X126744197Y-66127627D01*
X126744190Y-66127614D01*
X126656589Y-65996511D01*
X126656586Y-65996507D01*
X126545092Y-65885013D01*
X126545088Y-65885010D01*
X126413985Y-65797409D01*
X126413972Y-65797402D01*
X126268301Y-65737064D01*
X126268289Y-65737061D01*
X126113645Y-65706300D01*
X126113642Y-65706300D01*
X125955958Y-65706300D01*
X125955955Y-65706300D01*
X125801310Y-65737061D01*
X125801298Y-65737064D01*
X125655627Y-65797402D01*
X125655614Y-65797409D01*
X125524511Y-65885010D01*
X125524507Y-65885013D01*
X125413013Y-65996507D01*
X125413010Y-65996511D01*
X125325409Y-66127614D01*
X125325402Y-66127627D01*
X125295861Y-66198948D01*
X125252020Y-66253352D01*
X125185726Y-66275417D01*
X125118027Y-66258138D01*
X125070416Y-66207001D01*
X125057300Y-66151496D01*
X125057300Y-66113555D01*
X125057299Y-66113553D01*
X125037089Y-66011953D01*
X125026537Y-65958903D01*
X125026535Y-65958898D01*
X124966197Y-65813227D01*
X124966190Y-65813214D01*
X124878589Y-65682111D01*
X124878586Y-65682107D01*
X124767092Y-65570613D01*
X124767088Y-65570610D01*
X124635985Y-65483009D01*
X124635972Y-65483002D01*
X124490301Y-65422664D01*
X124490289Y-65422661D01*
X124335645Y-65391900D01*
X124335642Y-65391900D01*
X124177958Y-65391900D01*
X124177955Y-65391900D01*
X124023310Y-65422661D01*
X124023298Y-65422664D01*
X123873528Y-65484700D01*
X123804058Y-65492169D01*
X123757359Y-65470591D01*
X123756154Y-65472395D01*
X123619985Y-65381409D01*
X123619972Y-65381402D01*
X123474301Y-65321064D01*
X123474289Y-65321061D01*
X123319645Y-65290300D01*
X123319642Y-65290300D01*
X123161958Y-65290300D01*
X123161955Y-65290300D01*
X123007310Y-65321061D01*
X123007298Y-65321064D01*
X122861627Y-65381402D01*
X122861614Y-65381409D01*
X122730511Y-65469010D01*
X122730507Y-65469013D01*
X122619013Y-65580507D01*
X122619010Y-65580511D01*
X122531409Y-65711614D01*
X122531402Y-65711627D01*
X122471064Y-65857298D01*
X122471061Y-65857310D01*
X122440300Y-66011953D01*
X104877417Y-66011953D01*
X104904294Y-65947066D01*
X104923179Y-65852128D01*
X104938899Y-65773095D01*
X104938900Y-65773093D01*
X104938900Y-65595706D01*
X104938899Y-65595704D01*
X104904296Y-65421741D01*
X104904293Y-65421732D01*
X104836416Y-65257859D01*
X104836409Y-65257846D01*
X104737864Y-65110365D01*
X104737861Y-65110361D01*
X104612438Y-64984938D01*
X104612434Y-64984935D01*
X104464953Y-64886390D01*
X104464940Y-64886383D01*
X104301067Y-64818506D01*
X104301058Y-64818503D01*
X104127094Y-64783900D01*
X104127091Y-64783900D01*
X103949709Y-64783900D01*
X103949706Y-64783900D01*
X103775741Y-64818503D01*
X103775732Y-64818506D01*
X103611859Y-64886383D01*
X103611846Y-64886390D01*
X103464365Y-64984935D01*
X103464361Y-64984938D01*
X103338938Y-65110361D01*
X103338935Y-65110365D01*
X103240390Y-65257846D01*
X103240383Y-65257859D01*
X103172506Y-65421732D01*
X103172503Y-65421741D01*
X103137900Y-65595704D01*
X100500300Y-65595704D01*
X100500300Y-62397648D01*
X101199500Y-62397648D01*
X101199500Y-62602351D01*
X101231522Y-62804534D01*
X101294781Y-62999223D01*
X101387715Y-63181613D01*
X101508028Y-63347213D01*
X101652786Y-63491971D01*
X101761498Y-63570953D01*
X101818390Y-63612287D01*
X101934607Y-63671503D01*
X102000776Y-63705218D01*
X102000778Y-63705218D01*
X102000781Y-63705220D01*
X102105137Y-63739127D01*
X102195465Y-63768477D01*
X102296557Y-63784488D01*
X102397648Y-63800500D01*
X102397649Y-63800500D01*
X102602351Y-63800500D01*
X102602352Y-63800500D01*
X102804534Y-63768477D01*
X102999219Y-63705220D01*
X103181610Y-63612287D01*
X103274590Y-63544732D01*
X103347213Y-63491971D01*
X103347215Y-63491968D01*
X103347219Y-63491966D01*
X103491966Y-63347219D01*
X103491968Y-63347215D01*
X103491971Y-63347213D01*
X103574881Y-63233095D01*
X103612287Y-63181610D01*
X103676439Y-63055704D01*
X115228300Y-63055704D01*
X115228300Y-63233095D01*
X115262903Y-63407058D01*
X115262906Y-63407067D01*
X115330783Y-63570940D01*
X115330790Y-63570953D01*
X115429335Y-63718434D01*
X115429338Y-63718438D01*
X115554761Y-63843861D01*
X115554765Y-63843864D01*
X115702246Y-63942409D01*
X115702259Y-63942416D01*
X115825163Y-63993323D01*
X115866134Y-64010294D01*
X115866136Y-64010294D01*
X115866141Y-64010296D01*
X116040104Y-64044899D01*
X116040107Y-64044900D01*
X116040109Y-64044900D01*
X116217493Y-64044900D01*
X116217494Y-64044899D01*
X116275482Y-64033364D01*
X116391458Y-64010296D01*
X116391461Y-64010294D01*
X116391466Y-64010294D01*
X116555347Y-63942413D01*
X116702835Y-63843864D01*
X116828264Y-63718435D01*
X116926813Y-63570947D01*
X116994694Y-63407066D01*
X117006599Y-63347219D01*
X117029299Y-63233095D01*
X117029300Y-63233093D01*
X117029300Y-63055706D01*
X117029299Y-63055704D01*
X116994696Y-62881741D01*
X116994693Y-62881732D01*
X116926816Y-62717859D01*
X116926809Y-62717846D01*
X116828264Y-62570365D01*
X116828261Y-62570361D01*
X116702838Y-62444938D01*
X116702834Y-62444935D01*
X116632065Y-62397648D01*
X147199500Y-62397648D01*
X147199500Y-62602351D01*
X147231522Y-62804534D01*
X147294781Y-62999223D01*
X147387715Y-63181613D01*
X147508028Y-63347213D01*
X147652786Y-63491971D01*
X147761498Y-63570953D01*
X147818390Y-63612287D01*
X147934607Y-63671503D01*
X148000776Y-63705218D01*
X148000778Y-63705218D01*
X148000781Y-63705220D01*
X148105137Y-63739127D01*
X148195465Y-63768477D01*
X148296557Y-63784488D01*
X148397648Y-63800500D01*
X148397649Y-63800500D01*
X148602351Y-63800500D01*
X148602352Y-63800500D01*
X148804534Y-63768477D01*
X148999219Y-63705220D01*
X149181610Y-63612287D01*
X149274590Y-63544732D01*
X149347213Y-63491971D01*
X149347215Y-63491968D01*
X149347219Y-63491966D01*
X149491966Y-63347219D01*
X149491968Y-63347215D01*
X149491971Y-63347213D01*
X149574881Y-63233095D01*
X149612287Y-63181610D01*
X149705220Y-62999219D01*
X149768477Y-62804534D01*
X149800500Y-62602352D01*
X149800500Y-62397648D01*
X149792380Y-62346383D01*
X149768477Y-62195465D01*
X149705218Y-62000776D01*
X149671503Y-61934607D01*
X149612287Y-61818390D01*
X149604556Y-61807749D01*
X149491971Y-61652786D01*
X149347213Y-61508028D01*
X149181613Y-61387715D01*
X149181612Y-61387714D01*
X149181610Y-61387713D01*
X149124653Y-61358691D01*
X148999223Y-61294781D01*
X148804534Y-61231522D01*
X148629995Y-61203878D01*
X148602352Y-61199500D01*
X148397648Y-61199500D01*
X148373329Y-61203351D01*
X148195465Y-61231522D01*
X148000776Y-61294781D01*
X147818386Y-61387715D01*
X147652786Y-61508028D01*
X147508028Y-61652786D01*
X147387715Y-61818386D01*
X147294781Y-62000776D01*
X147231522Y-62195465D01*
X147199500Y-62397648D01*
X116632065Y-62397648D01*
X116555353Y-62346390D01*
X116555340Y-62346383D01*
X116391467Y-62278506D01*
X116391458Y-62278503D01*
X116217494Y-62243900D01*
X116217491Y-62243900D01*
X116040109Y-62243900D01*
X116040106Y-62243900D01*
X115866141Y-62278503D01*
X115866132Y-62278506D01*
X115702259Y-62346383D01*
X115702246Y-62346390D01*
X115554765Y-62444935D01*
X115554761Y-62444938D01*
X115429338Y-62570361D01*
X115429335Y-62570365D01*
X115330790Y-62717846D01*
X115330783Y-62717859D01*
X115262906Y-62881732D01*
X115262903Y-62881741D01*
X115228300Y-63055704D01*
X103676439Y-63055704D01*
X103705220Y-62999219D01*
X103768477Y-62804534D01*
X103800500Y-62602352D01*
X103800500Y-62397648D01*
X103792380Y-62346383D01*
X103768477Y-62195465D01*
X103705218Y-62000776D01*
X103671503Y-61934607D01*
X103612287Y-61818390D01*
X103604556Y-61807749D01*
X103491971Y-61652786D01*
X103347213Y-61508028D01*
X103181613Y-61387715D01*
X103181612Y-61387714D01*
X103181610Y-61387713D01*
X103124653Y-61358691D01*
X102999223Y-61294781D01*
X102804534Y-61231522D01*
X102629995Y-61203878D01*
X102602352Y-61199500D01*
X102397648Y-61199500D01*
X102373329Y-61203351D01*
X102195465Y-61231522D01*
X102000776Y-61294781D01*
X101818386Y-61387715D01*
X101652786Y-61508028D01*
X101508028Y-61652786D01*
X101387715Y-61818386D01*
X101294781Y-62000776D01*
X101231522Y-62195465D01*
X101199500Y-62397648D01*
X100500300Y-62397648D01*
X100500300Y-60644700D01*
X100519985Y-60577661D01*
X100572789Y-60531906D01*
X100624300Y-60520700D01*
X150353100Y-60520700D01*
X150420139Y-60540385D01*
G37*
%TD.AperFunction*%
%TA.AperFunction,Conductor*%
G36*
X147801444Y-69943999D02*
G01*
X147840486Y-69989056D01*
X147844951Y-69997820D01*
X147969890Y-70169786D01*
X148120213Y-70320109D01*
X148292179Y-70445048D01*
X148292181Y-70445049D01*
X148292184Y-70445051D01*
X148301493Y-70449794D01*
X148352290Y-70497766D01*
X148369087Y-70565587D01*
X148346552Y-70631722D01*
X148301505Y-70670760D01*
X148292446Y-70675376D01*
X148292440Y-70675380D01*
X148238282Y-70714727D01*
X148238282Y-70714728D01*
X148870591Y-71347037D01*
X148807007Y-71364075D01*
X148692993Y-71429901D01*
X148599901Y-71522993D01*
X148534075Y-71637007D01*
X148517037Y-71700591D01*
X147884728Y-71068282D01*
X147884727Y-71068282D01*
X147845380Y-71122440D01*
X147845376Y-71122446D01*
X147840760Y-71131505D01*
X147792781Y-71182297D01*
X147724959Y-71199087D01*
X147658826Y-71176543D01*
X147619794Y-71131493D01*
X147615051Y-71122184D01*
X147615049Y-71122181D01*
X147615048Y-71122179D01*
X147490109Y-70950213D01*
X147339786Y-70799890D01*
X147167820Y-70674951D01*
X147159600Y-70670763D01*
X147159054Y-70670485D01*
X147108259Y-70622512D01*
X147091463Y-70554692D01*
X147113999Y-70488556D01*
X147159054Y-70449515D01*
X147167816Y-70445051D01*
X147336584Y-70322435D01*
X147339786Y-70320109D01*
X147339788Y-70320106D01*
X147339792Y-70320104D01*
X147490104Y-70169792D01*
X147490106Y-70169788D01*
X147490109Y-70169786D01*
X147615048Y-69997820D01*
X147615047Y-69997820D01*
X147615051Y-69997816D01*
X147619514Y-69989054D01*
X147667488Y-69938259D01*
X147735308Y-69921463D01*
X147801444Y-69943999D01*
G37*
%TD.AperFunction*%
%TA.AperFunction,Conductor*%
G36*
X150424545Y-69780907D02*
G01*
X150467997Y-69835622D01*
X150477100Y-69882256D01*
X150477100Y-71238843D01*
X150457415Y-71305882D01*
X150404611Y-71351637D01*
X150335453Y-71361581D01*
X150271897Y-71332556D01*
X150242615Y-71295138D01*
X150154624Y-71122450D01*
X150115270Y-71068282D01*
X150115269Y-71068282D01*
X149482962Y-71700590D01*
X149465925Y-71637007D01*
X149400099Y-71522993D01*
X149307007Y-71429901D01*
X149192993Y-71364075D01*
X149129409Y-71347037D01*
X149761716Y-70714728D01*
X149707547Y-70675373D01*
X149707547Y-70675372D01*
X149698500Y-70670763D01*
X149647706Y-70622788D01*
X149630912Y-70554966D01*
X149653451Y-70488832D01*
X149698508Y-70449793D01*
X149707816Y-70445051D01*
X149876584Y-70322435D01*
X149879786Y-70320109D01*
X149879788Y-70320106D01*
X149879792Y-70320104D01*
X150030104Y-70169792D01*
X150030106Y-70169788D01*
X150030109Y-70169786D01*
X150155048Y-69997820D01*
X150155047Y-69997820D01*
X150155051Y-69997816D01*
X150242615Y-69825960D01*
X150290589Y-69775165D01*
X150358410Y-69758370D01*
X150424545Y-69780907D01*
G37*
%TD.AperFunction*%
%TD*%
%TA.AperFunction,Conductor*%
%TO.N,/Vcc*%
G36*
X106324484Y-87288182D02*
G01*
X106376836Y-87298595D01*
X106400091Y-87305648D01*
X106449425Y-87326083D01*
X106470856Y-87337539D01*
X106515248Y-87367201D01*
X106534038Y-87382622D01*
X106571775Y-87420359D01*
X106587196Y-87439149D01*
X106616858Y-87483541D01*
X106628314Y-87504975D01*
X106628316Y-87504978D01*
X106648747Y-87554301D01*
X106655803Y-87577560D01*
X106655804Y-87577566D01*
X106666217Y-87629912D01*
X106668600Y-87654104D01*
X106668600Y-87707488D01*
X106666217Y-87731681D01*
X106655801Y-87784041D01*
X106648745Y-87807300D01*
X106628317Y-87856618D01*
X106616858Y-87878057D01*
X106587199Y-87922445D01*
X106571778Y-87941235D01*
X106534035Y-87978978D01*
X106515245Y-87994399D01*
X106470857Y-88024058D01*
X106449420Y-88035516D01*
X106449418Y-88035517D01*
X106400100Y-88055945D01*
X106376840Y-88063001D01*
X106324478Y-88073417D01*
X106300286Y-88075800D01*
X106246907Y-88075800D01*
X106222716Y-88073417D01*
X106204563Y-88069806D01*
X106170364Y-88063003D01*
X106147107Y-88055948D01*
X106097776Y-88035516D01*
X106076339Y-88024058D01*
X106031946Y-87994395D01*
X106013162Y-87978978D01*
X105975422Y-87941238D01*
X105960001Y-87922448D01*
X105930342Y-87878060D01*
X105918883Y-87856622D01*
X105898451Y-87807295D01*
X105891394Y-87784031D01*
X105880982Y-87731682D01*
X105880982Y-87731681D01*
X105878600Y-87707493D01*
X105878600Y-87654104D01*
X105880982Y-87629915D01*
X105891394Y-87577566D01*
X105898451Y-87554302D01*
X105898452Y-87554301D01*
X105906141Y-87535735D01*
X105918883Y-87504975D01*
X105930342Y-87483537D01*
X105960001Y-87439149D01*
X105975417Y-87420364D01*
X106013164Y-87382617D01*
X106031949Y-87367201D01*
X106076337Y-87337542D01*
X106097776Y-87326083D01*
X106147104Y-87305651D01*
X106170362Y-87298594D01*
X106222714Y-87288181D01*
X106246904Y-87285800D01*
X106300294Y-87285800D01*
X106324484Y-87288182D01*
G37*
%TD.AperFunction*%
%TA.AperFunction,Conductor*%
G36*
X116198084Y-85662582D02*
G01*
X116250436Y-85672995D01*
X116273691Y-85680048D01*
X116323025Y-85700483D01*
X116344456Y-85711939D01*
X116388848Y-85741601D01*
X116407638Y-85757022D01*
X116445376Y-85794760D01*
X116460797Y-85813550D01*
X116490457Y-85857939D01*
X116501917Y-85879380D01*
X116522348Y-85928708D01*
X116529403Y-85951964D01*
X116539817Y-86004312D01*
X116542200Y-86028506D01*
X116542200Y-86081892D01*
X116539817Y-86106082D01*
X116539817Y-86106085D01*
X116529403Y-86158436D01*
X116522347Y-86181695D01*
X116501917Y-86231018D01*
X116490458Y-86252457D01*
X116460799Y-86296845D01*
X116445378Y-86315635D01*
X116407635Y-86353378D01*
X116388845Y-86368799D01*
X116344457Y-86398458D01*
X116323020Y-86409916D01*
X116323018Y-86409917D01*
X116273700Y-86430345D01*
X116250440Y-86437401D01*
X116198078Y-86447817D01*
X116173886Y-86450200D01*
X116120507Y-86450200D01*
X116096316Y-86447817D01*
X116078163Y-86444206D01*
X116043964Y-86437403D01*
X116020707Y-86430348D01*
X115971376Y-86409916D01*
X115949939Y-86398458D01*
X115905546Y-86368795D01*
X115886762Y-86353378D01*
X115849022Y-86315638D01*
X115833601Y-86296848D01*
X115803942Y-86252460D01*
X115792483Y-86231022D01*
X115772051Y-86181695D01*
X115764994Y-86158431D01*
X115754582Y-86106082D01*
X115752200Y-86081893D01*
X115752200Y-86028504D01*
X115754582Y-86004315D01*
X115764994Y-85951966D01*
X115772051Y-85928702D01*
X115792483Y-85879375D01*
X115803942Y-85857937D01*
X115825729Y-85825329D01*
X115833601Y-85813547D01*
X115849017Y-85794764D01*
X115886764Y-85757017D01*
X115905549Y-85741601D01*
X115949937Y-85711942D01*
X115971376Y-85700483D01*
X116020704Y-85680051D01*
X116043962Y-85672994D01*
X116096314Y-85662581D01*
X116120504Y-85660200D01*
X116173894Y-85660200D01*
X116198084Y-85662582D01*
G37*
%TD.AperFunction*%
%TA.AperFunction,Conductor*%
G36*
X113385684Y-77483782D02*
G01*
X113438036Y-77494195D01*
X113461291Y-77501248D01*
X113510625Y-77521683D01*
X113532056Y-77533139D01*
X113576448Y-77562801D01*
X113595238Y-77578222D01*
X113632978Y-77615962D01*
X113648399Y-77634752D01*
X113678054Y-77679134D01*
X113689513Y-77700573D01*
X113709948Y-77749908D01*
X113717004Y-77773167D01*
X113727417Y-77825513D01*
X113729800Y-77849706D01*
X113729800Y-77903094D01*
X113727417Y-77927282D01*
X113727417Y-77927285D01*
X113717005Y-77979630D01*
X113709949Y-78002892D01*
X113689516Y-78052221D01*
X113678057Y-78073659D01*
X113648399Y-78118045D01*
X113632978Y-78136835D01*
X113595235Y-78174578D01*
X113576445Y-78189999D01*
X113532057Y-78219658D01*
X113510620Y-78231116D01*
X113510618Y-78231117D01*
X113461300Y-78251545D01*
X113438040Y-78258601D01*
X113385678Y-78269017D01*
X113361486Y-78271400D01*
X113308107Y-78271400D01*
X113283916Y-78269017D01*
X113265763Y-78265406D01*
X113231564Y-78258603D01*
X113208307Y-78251548D01*
X113158976Y-78231116D01*
X113137539Y-78219658D01*
X113093146Y-78189995D01*
X113074362Y-78174578D01*
X113036622Y-78136838D01*
X113021201Y-78118048D01*
X112991542Y-78073660D01*
X112980083Y-78052222D01*
X112959651Y-78002895D01*
X112952594Y-77979631D01*
X112942182Y-77927282D01*
X112939800Y-77903093D01*
X112939800Y-77849704D01*
X112942182Y-77825515D01*
X112952594Y-77773166D01*
X112959651Y-77749902D01*
X112980083Y-77700575D01*
X112991542Y-77679137D01*
X113021201Y-77634749D01*
X113036620Y-77615962D01*
X113074364Y-77578217D01*
X113093149Y-77562801D01*
X113137537Y-77533142D01*
X113158976Y-77521683D01*
X113208304Y-77501251D01*
X113231562Y-77494194D01*
X113283914Y-77483781D01*
X113308104Y-77481400D01*
X113361494Y-77481400D01*
X113385684Y-77483782D01*
G37*
%TD.AperFunction*%
%TA.AperFunction,Conductor*%
G36*
X136956884Y-76620182D02*
G01*
X137009236Y-76630595D01*
X137032491Y-76637648D01*
X137081825Y-76658083D01*
X137103256Y-76669539D01*
X137147648Y-76699201D01*
X137166438Y-76714622D01*
X137204175Y-76752359D01*
X137219596Y-76771149D01*
X137249255Y-76815537D01*
X137260714Y-76836975D01*
X137281148Y-76886307D01*
X137288204Y-76909567D01*
X137298617Y-76961913D01*
X137301000Y-76986106D01*
X137301000Y-77039492D01*
X137298617Y-77063682D01*
X137298617Y-77063685D01*
X137288203Y-77116036D01*
X137281147Y-77139295D01*
X137260717Y-77188618D01*
X137249258Y-77210057D01*
X137219599Y-77254445D01*
X137204178Y-77273235D01*
X137166435Y-77310978D01*
X137147645Y-77326399D01*
X137103259Y-77356057D01*
X137081822Y-77367516D01*
X137032496Y-77387948D01*
X137009237Y-77395003D01*
X137009234Y-77395003D01*
X136978532Y-77401111D01*
X136956884Y-77405417D01*
X136932693Y-77407800D01*
X136879307Y-77407800D01*
X136855116Y-77405417D01*
X136833468Y-77401111D01*
X136802764Y-77395003D01*
X136779507Y-77387948D01*
X136730176Y-77367516D01*
X136708737Y-77356057D01*
X136664346Y-77326395D01*
X136645562Y-77310978D01*
X136607822Y-77273238D01*
X136592401Y-77254448D01*
X136562742Y-77210060D01*
X136551283Y-77188622D01*
X136530851Y-77139295D01*
X136523794Y-77116031D01*
X136513382Y-77063682D01*
X136511000Y-77039493D01*
X136511000Y-76986104D01*
X136513382Y-76961915D01*
X136523794Y-76909566D01*
X136530851Y-76886302D01*
X136551283Y-76836975D01*
X136562742Y-76815537D01*
X136592401Y-76771149D01*
X136607817Y-76752364D01*
X136645564Y-76714617D01*
X136664349Y-76699201D01*
X136708737Y-76669542D01*
X136730176Y-76658083D01*
X136779504Y-76637651D01*
X136802762Y-76630594D01*
X136855114Y-76620181D01*
X136879304Y-76617800D01*
X136932694Y-76617800D01*
X136956884Y-76620182D01*
G37*
%TD.AperFunction*%
%TA.AperFunction,Conductor*%
G36*
X105765683Y-71946582D02*
G01*
X105779829Y-71949395D01*
X105818035Y-71956994D01*
X105841295Y-71964051D01*
X105861084Y-71972248D01*
X105861093Y-71972252D01*
X105890623Y-71984482D01*
X105912057Y-71995939D01*
X105951131Y-72022048D01*
X105956449Y-72025601D01*
X105975238Y-72041022D01*
X106012975Y-72078759D01*
X106028396Y-72097549D01*
X106058055Y-72141937D01*
X106069514Y-72163375D01*
X106089948Y-72212707D01*
X106097004Y-72235967D01*
X106107417Y-72288313D01*
X106109800Y-72312506D01*
X106109800Y-72365894D01*
X106107417Y-72390082D01*
X106107417Y-72390085D01*
X106097005Y-72442431D01*
X106089948Y-72465695D01*
X106069515Y-72515022D01*
X106058058Y-72536457D01*
X106028400Y-72580844D01*
X106012978Y-72599635D01*
X105975236Y-72637377D01*
X105956446Y-72652798D01*
X105912064Y-72682453D01*
X105890626Y-72693912D01*
X105841297Y-72714345D01*
X105818039Y-72721401D01*
X105786363Y-72727702D01*
X105765674Y-72731817D01*
X105741487Y-72734200D01*
X105688106Y-72734200D01*
X105663916Y-72731817D01*
X105643713Y-72727798D01*
X105611567Y-72721404D01*
X105588311Y-72714349D01*
X105538982Y-72693918D01*
X105517539Y-72682457D01*
X105473148Y-72652795D01*
X105454359Y-72637375D01*
X105416622Y-72599638D01*
X105401201Y-72580848D01*
X105371542Y-72536460D01*
X105360083Y-72515022D01*
X105339651Y-72465695D01*
X105332594Y-72442431D01*
X105322182Y-72390082D01*
X105319800Y-72365893D01*
X105319800Y-72312504D01*
X105322182Y-72288315D01*
X105332594Y-72235966D01*
X105339651Y-72212702D01*
X105360083Y-72163375D01*
X105371542Y-72141937D01*
X105401201Y-72097549D01*
X105416617Y-72078764D01*
X105454364Y-72041017D01*
X105473149Y-72025601D01*
X105478467Y-72022048D01*
X105484929Y-72017729D01*
X105517537Y-71995942D01*
X105538976Y-71984483D01*
X105588304Y-71964051D01*
X105611562Y-71956994D01*
X105663914Y-71946581D01*
X105688104Y-71944200D01*
X105741494Y-71944200D01*
X105765683Y-71946582D01*
G37*
%TD.AperFunction*%
%TA.AperFunction,Conductor*%
G36*
X136906084Y-71387782D02*
G01*
X136958436Y-71398195D01*
X136981691Y-71405248D01*
X137031025Y-71425683D01*
X137052456Y-71437139D01*
X137096848Y-71466801D01*
X137115638Y-71482222D01*
X137153375Y-71519959D01*
X137168796Y-71538749D01*
X137198455Y-71583137D01*
X137209914Y-71604575D01*
X137230348Y-71653907D01*
X137237404Y-71677167D01*
X137247817Y-71729513D01*
X137250200Y-71753706D01*
X137250200Y-71807094D01*
X137247817Y-71831282D01*
X137247817Y-71831287D01*
X137237404Y-71883633D01*
X137230348Y-71906893D01*
X137209914Y-71956225D01*
X137198484Y-71977619D01*
X137197251Y-71979466D01*
X137197221Y-71979511D01*
X137193899Y-71984483D01*
X137168798Y-72022047D01*
X137153379Y-72040834D01*
X137115635Y-72078578D01*
X137096845Y-72093999D01*
X137052457Y-72123658D01*
X137031020Y-72135116D01*
X137031018Y-72135117D01*
X136981700Y-72155545D01*
X136958440Y-72162601D01*
X136906078Y-72173017D01*
X136881886Y-72175400D01*
X136828507Y-72175400D01*
X136804316Y-72173017D01*
X136786163Y-72169406D01*
X136751964Y-72162603D01*
X136728707Y-72155548D01*
X136679376Y-72135116D01*
X136657939Y-72123658D01*
X136613546Y-72093995D01*
X136594762Y-72078578D01*
X136557022Y-72040838D01*
X136541601Y-72022048D01*
X136511942Y-71977660D01*
X136500483Y-71956222D01*
X136480051Y-71906895D01*
X136472994Y-71883631D01*
X136462582Y-71831282D01*
X136460200Y-71807093D01*
X136460200Y-71753704D01*
X136462582Y-71729515D01*
X136472994Y-71677166D01*
X136480051Y-71653902D01*
X136500483Y-71604575D01*
X136511942Y-71583137D01*
X136541601Y-71538749D01*
X136557017Y-71519964D01*
X136594764Y-71482217D01*
X136613549Y-71466801D01*
X136657937Y-71437142D01*
X136679376Y-71425683D01*
X136728704Y-71405251D01*
X136751962Y-71398194D01*
X136804314Y-71387781D01*
X136828504Y-71385400D01*
X136881894Y-71385400D01*
X136906084Y-71387782D01*
G37*
%TD.AperFunction*%
%TA.AperFunction,Conductor*%
G36*
X115062084Y-69355782D02*
G01*
X115114436Y-69366195D01*
X115137691Y-69373248D01*
X115187025Y-69393683D01*
X115208456Y-69405139D01*
X115252848Y-69434801D01*
X115271638Y-69450222D01*
X115309375Y-69487959D01*
X115324796Y-69506749D01*
X115354455Y-69551137D01*
X115365914Y-69572575D01*
X115386348Y-69621907D01*
X115393404Y-69645167D01*
X115403817Y-69697513D01*
X115406200Y-69721706D01*
X115406200Y-69775088D01*
X115403817Y-69799281D01*
X115393401Y-69851641D01*
X115386345Y-69874900D01*
X115365917Y-69924218D01*
X115354458Y-69945657D01*
X115324799Y-69990045D01*
X115309378Y-70008835D01*
X115271635Y-70046578D01*
X115252845Y-70061999D01*
X115208457Y-70091658D01*
X115187020Y-70103116D01*
X115187018Y-70103117D01*
X115137700Y-70123545D01*
X115114440Y-70130601D01*
X115062078Y-70141017D01*
X115037886Y-70143400D01*
X114984507Y-70143400D01*
X114960315Y-70141017D01*
X114907966Y-70130604D01*
X114884708Y-70123549D01*
X114853396Y-70110580D01*
X114853388Y-70110576D01*
X114853388Y-70110577D01*
X114835376Y-70103116D01*
X114813939Y-70091657D01*
X114769551Y-70061998D01*
X114750761Y-70046577D01*
X114713022Y-70008838D01*
X114713020Y-70008835D01*
X114697601Y-69990048D01*
X114667942Y-69945660D01*
X114656483Y-69924222D01*
X114636051Y-69874895D01*
X114628994Y-69851631D01*
X114618582Y-69799282D01*
X114616200Y-69775093D01*
X114616200Y-69721704D01*
X114618582Y-69697515D01*
X114628994Y-69645166D01*
X114636051Y-69621902D01*
X114656483Y-69572575D01*
X114667942Y-69551137D01*
X114697601Y-69506749D01*
X114713017Y-69487964D01*
X114750764Y-69450217D01*
X114769549Y-69434801D01*
X114813937Y-69405142D01*
X114835376Y-69393683D01*
X114884704Y-69373251D01*
X114907962Y-69366194D01*
X114960314Y-69355781D01*
X114984504Y-69353400D01*
X115037894Y-69353400D01*
X115062084Y-69355782D01*
G37*
%TD.AperFunction*%
%TA.AperFunction,Conductor*%
G36*
X104089284Y-65291782D02*
G01*
X104141636Y-65302195D01*
X104164891Y-65309248D01*
X104214225Y-65329683D01*
X104235656Y-65341139D01*
X104280048Y-65370801D01*
X104298838Y-65386222D01*
X104336575Y-65423959D01*
X104351996Y-65442749D01*
X104381655Y-65487137D01*
X104393114Y-65508575D01*
X104413548Y-65557907D01*
X104420604Y-65581167D01*
X104431017Y-65633513D01*
X104433400Y-65657706D01*
X104433400Y-65711088D01*
X104431018Y-65735277D01*
X104427391Y-65753513D01*
X104420605Y-65787632D01*
X104413553Y-65810883D01*
X104411242Y-65816464D01*
X104411236Y-65816480D01*
X104393116Y-65860222D01*
X104381658Y-65881657D01*
X104351999Y-65926045D01*
X104336578Y-65944835D01*
X104298835Y-65982578D01*
X104280045Y-65997999D01*
X104235659Y-66027657D01*
X104214222Y-66039116D01*
X104164896Y-66059548D01*
X104141633Y-66066604D01*
X104095479Y-66075784D01*
X104095478Y-66075785D01*
X104089282Y-66077017D01*
X104065093Y-66079400D01*
X104011707Y-66079400D01*
X103987516Y-66077017D01*
X103969363Y-66073406D01*
X103935164Y-66066603D01*
X103911907Y-66059548D01*
X103862576Y-66039116D01*
X103841137Y-66027657D01*
X103796746Y-65997995D01*
X103777962Y-65982578D01*
X103740222Y-65944838D01*
X103724801Y-65926048D01*
X103695142Y-65881660D01*
X103683683Y-65860222D01*
X103663251Y-65810895D01*
X103656194Y-65787631D01*
X103645782Y-65735282D01*
X103645782Y-65735277D01*
X103643400Y-65711093D01*
X103643400Y-65657704D01*
X103645782Y-65633515D01*
X103656194Y-65581166D01*
X103663251Y-65557902D01*
X103683683Y-65508575D01*
X103695142Y-65487137D01*
X103724801Y-65442749D01*
X103740217Y-65423964D01*
X103777964Y-65386217D01*
X103796749Y-65370801D01*
X103841137Y-65341142D01*
X103862576Y-65329683D01*
X103911904Y-65309251D01*
X103935162Y-65302194D01*
X103987514Y-65291781D01*
X104011704Y-65289400D01*
X104065094Y-65289400D01*
X104089284Y-65291782D01*
G37*
%TD.AperFunction*%
%TA.AperFunction,Conductor*%
G36*
X116179684Y-62751782D02*
G01*
X116232036Y-62762195D01*
X116255294Y-62769250D01*
X116304626Y-62789683D01*
X116326062Y-62801142D01*
X116351224Y-62817956D01*
X116351223Y-62817956D01*
X116370445Y-62830799D01*
X116389237Y-62846221D01*
X116426975Y-62883959D01*
X116442396Y-62902749D01*
X116472055Y-62947137D01*
X116483514Y-62968575D01*
X116503948Y-63017907D01*
X116511004Y-63041167D01*
X116521417Y-63093513D01*
X116523800Y-63117706D01*
X116523800Y-63171086D01*
X116521417Y-63195278D01*
X116511002Y-63247636D01*
X116503947Y-63270895D01*
X116483518Y-63320217D01*
X116472058Y-63341657D01*
X116442399Y-63386045D01*
X116426978Y-63404835D01*
X116389235Y-63442578D01*
X116370445Y-63457999D01*
X116326057Y-63487658D01*
X116304618Y-63499117D01*
X116255300Y-63519545D01*
X116232040Y-63526601D01*
X116179678Y-63537017D01*
X116155486Y-63539400D01*
X116102107Y-63539400D01*
X116077916Y-63537017D01*
X116059763Y-63533406D01*
X116025564Y-63526603D01*
X116002307Y-63519548D01*
X115952976Y-63499116D01*
X115931539Y-63487658D01*
X115887146Y-63457995D01*
X115868362Y-63442578D01*
X115830622Y-63404838D01*
X115830620Y-63404835D01*
X115815201Y-63386048D01*
X115785542Y-63341660D01*
X115774083Y-63320222D01*
X115753651Y-63270895D01*
X115746594Y-63247631D01*
X115736182Y-63195282D01*
X115733800Y-63171093D01*
X115733800Y-63117704D01*
X115736182Y-63093515D01*
X115746594Y-63041166D01*
X115753651Y-63017902D01*
X115774083Y-62968575D01*
X115785542Y-62947137D01*
X115815201Y-62902749D01*
X115830617Y-62883964D01*
X115868364Y-62846217D01*
X115887149Y-62830801D01*
X115931537Y-62801142D01*
X115952976Y-62789683D01*
X116002304Y-62769251D01*
X116025562Y-62762194D01*
X116077914Y-62751781D01*
X116102104Y-62749400D01*
X116155494Y-62749400D01*
X116179684Y-62751782D01*
G37*
%TD.AperFunction*%
%TD*%
M02*
