%TF.GenerationSoftware,KiCad,Pcbnew,10.0.1*%
%TF.CreationDate,2026-05-18T09:28:42-07:00*%
%TF.ProjectId,MCU Datalogger,4d435520-4461-4746-916c-6f676765722e,1*%
%TF.SameCoordinates,Original*%
%TF.FileFunction,Copper,L3,Inr*%
%TF.FilePolarity,Positive*%
%FSLAX46Y46*%
G04 Gerber Fmt 4.6, Leading zero omitted, Abs format (unit mm)*
G04 Created by KiCad (PCBNEW 10.0.1) date 2026-05-18 09:28:42*
%MOMM*%
%LPD*%
G01*
G04 APERTURE LIST*
%TA.AperFunction,ComponentPad*%
%ADD10R,1.700000X1.700000*%
%TD*%
%TA.AperFunction,ComponentPad*%
%ADD11C,1.700000*%
%TD*%
%TA.AperFunction,ViaPad*%
%ADD12C,0.600000*%
%TD*%
%TA.AperFunction,ViaPad*%
%ADD13C,0.800000*%
%TD*%
G04 APERTURE END LIST*
D10*
%TO.N,GND*%
%TO.C,J3*%
X133630000Y-92500000D03*
D11*
%TO.N,/Vcc*%
X136170000Y-92500000D03*
%TO.N,/RX*%
X138710000Y-92500000D03*
%TO.N,/TX*%
X141250000Y-92500000D03*
%TD*%
D10*
%TO.N,/MISO*%
%TO.C,J4*%
X146460000Y-66750000D03*
D11*
%TO.N,/Vcc*%
X149000000Y-66750000D03*
%TO.N,/SCK*%
X146460000Y-69290000D03*
%TO.N,/MOSI*%
X149000000Y-69290000D03*
%TO.N,/RESET*%
X146460000Y-71830000D03*
%TO.N,GND*%
X149000000Y-71830000D03*
%TD*%
D10*
%TO.N,GND*%
%TO.C,J1*%
X148500000Y-77250000D03*
D11*
%TO.N,/Vcc*%
X148500000Y-79790000D03*
%TO.N,/SDA*%
X148500000Y-82330000D03*
%TO.N,/SCK*%
X148500000Y-84870000D03*
%TD*%
D10*
%TO.N,/D2*%
%TO.C,J2*%
X107210000Y-92500000D03*
D11*
%TO.N,/D3*%
X109750000Y-92500000D03*
%TO.N,/D4*%
X112290000Y-92500000D03*
%TO.N,/D5*%
X114830000Y-92500000D03*
%TO.N,/D6*%
X117370000Y-92500000D03*
%TO.N,/D7*%
X119910000Y-92500000D03*
%TO.N,/D8*%
X122450000Y-92500000D03*
%TO.N,GND*%
X124990000Y-92500000D03*
%TO.N,/Vcc*%
X127530000Y-92500000D03*
%TD*%
D10*
%TO.N,Net-(BT1-+)*%
%TO.C,BT1*%
X103000000Y-71000000D03*
D11*
%TO.N,GND*%
X103000000Y-73540000D03*
%TD*%
D12*
%TO.N,/SDA*%
X118262400Y-68783200D03*
X125222000Y-71475600D03*
D13*
%TO.N,/Vcc*%
X105714800Y-72339200D03*
D12*
%TO.N,GND*%
X107543600Y-84683600D03*
%TO.N,Net-(BT1-+)*%
X126034800Y-74269600D03*
X126034800Y-66506800D03*
%TO.N,Net-(U4-AREF)*%
X133045200Y-86004400D03*
X132211093Y-87448107D03*
%TO.N,GND*%
X121564400Y-72440800D03*
X129794000Y-73558400D03*
D13*
%TO.N,/Vcc*%
X104038400Y-65684400D03*
X136906000Y-77012800D03*
X136855200Y-71780400D03*
X116128800Y-63144400D03*
X115011200Y-69748400D03*
X113334800Y-77876400D03*
X116147200Y-86055200D03*
X106273600Y-87680800D03*
D12*
%TO.N,GND*%
X136855200Y-82194400D03*
X138790700Y-71165700D03*
X135585200Y-67462400D03*
X129082800Y-64922400D03*
X110998000Y-65735200D03*
X110185200Y-74523600D03*
X113182400Y-71882000D03*
%TO.N,/SCK*%
X124256800Y-66192400D03*
X124358400Y-68106800D03*
%TO.N,Net-(BT1-+)*%
X125697065Y-75877335D03*
X124307600Y-76301600D03*
%TO.N,Net-(U4-PB6)*%
X118405200Y-77320000D03*
X121731651Y-80297142D03*
X133045200Y-82245200D03*
X128524000Y-85496400D03*
%TO.N,Net-(U4-PB7)*%
X125323600Y-82143600D03*
X122986800Y-76454000D03*
X121462800Y-76403200D03*
X123240800Y-66090800D03*
%TO.N,/MISO*%
X139750800Y-74787200D03*
X130149600Y-78130400D03*
%TO.N,/MOSI*%
X141427200Y-74269600D03*
X127000000Y-79867200D03*
%TO.N,/SCK*%
X143967200Y-72339200D03*
%TO.N,/RESET*%
X137922000Y-74787200D03*
X123494800Y-75184000D03*
%TO.N,/SDA*%
X131080000Y-71475600D03*
X133045200Y-71475600D03*
%TD*%
%TA.AperFunction,Conductor*%
%TO.N,/Vcc*%
G36*
X150420139Y-60540385D02*
G01*
X150465894Y-60593189D01*
X150477100Y-60644700D01*
X150477100Y-66158843D01*
X150457415Y-66225882D01*
X150404611Y-66271637D01*
X150335453Y-66281581D01*
X150271897Y-66252556D01*
X150242615Y-66215138D01*
X150154624Y-66042450D01*
X150115270Y-65988282D01*
X150115269Y-65988282D01*
X149482962Y-66620590D01*
X149465925Y-66557007D01*
X149400099Y-66442993D01*
X149307007Y-66349901D01*
X149192993Y-66284075D01*
X149129409Y-66267037D01*
X149761716Y-65634728D01*
X149707550Y-65595375D01*
X149518217Y-65498904D01*
X149316129Y-65433242D01*
X149106246Y-65400000D01*
X148893754Y-65400000D01*
X148683872Y-65433242D01*
X148683869Y-65433242D01*
X148481782Y-65498904D01*
X148292439Y-65595380D01*
X148238282Y-65634727D01*
X148238282Y-65634728D01*
X148870591Y-66267037D01*
X148807007Y-66284075D01*
X148692993Y-66349901D01*
X148599901Y-66442993D01*
X148534075Y-66557007D01*
X148517037Y-66620591D01*
X147846818Y-65950372D01*
X147813333Y-65889049D01*
X147813330Y-65889036D01*
X147810499Y-65876015D01*
X147810499Y-65852128D01*
X147804091Y-65792517D01*
X147766651Y-65692135D01*
X147753798Y-65657673D01*
X147753793Y-65657664D01*
X147667547Y-65542455D01*
X147667544Y-65542452D01*
X147552335Y-65456206D01*
X147552328Y-65456202D01*
X147417482Y-65405908D01*
X147417483Y-65405908D01*
X147357883Y-65399501D01*
X147357881Y-65399500D01*
X147357873Y-65399500D01*
X147357864Y-65399500D01*
X145562129Y-65399500D01*
X145562123Y-65399501D01*
X145502516Y-65405908D01*
X145367671Y-65456202D01*
X145367664Y-65456206D01*
X145252455Y-65542452D01*
X145252452Y-65542455D01*
X145166206Y-65657664D01*
X145166202Y-65657671D01*
X145115908Y-65792517D01*
X145109501Y-65852116D01*
X145109500Y-65852135D01*
X145109500Y-67647870D01*
X145109501Y-67647876D01*
X145115908Y-67707483D01*
X145166202Y-67842328D01*
X145166206Y-67842335D01*
X145252452Y-67957544D01*
X145252455Y-67957547D01*
X145367664Y-68043793D01*
X145367671Y-68043797D01*
X145499082Y-68092810D01*
X145555016Y-68134681D01*
X145579433Y-68200145D01*
X145564582Y-68268418D01*
X145543431Y-68296673D01*
X145429889Y-68410215D01*
X145304951Y-68582179D01*
X145208444Y-68771585D01*
X145142753Y-68973760D01*
X145109500Y-69183713D01*
X145109500Y-69396286D01*
X145139183Y-69583700D01*
X145142754Y-69606243D01*
X145203258Y-69792455D01*
X145208444Y-69808414D01*
X145304951Y-69997820D01*
X145429890Y-70169786D01*
X145580213Y-70320109D01*
X145752182Y-70445050D01*
X145760946Y-70449516D01*
X145811742Y-70497491D01*
X145828536Y-70565312D01*
X145805998Y-70631447D01*
X145760946Y-70670484D01*
X145752182Y-70674949D01*
X145580213Y-70799890D01*
X145429890Y-70950213D01*
X145304951Y-71122179D01*
X145208444Y-71311585D01*
X145142753Y-71513760D01*
X145124373Y-71629809D01*
X145109500Y-71723713D01*
X145109500Y-71936287D01*
X145113390Y-71960846D01*
X145134214Y-72092328D01*
X145142754Y-72146243D01*
X145197640Y-72315165D01*
X145208444Y-72348414D01*
X145304951Y-72537820D01*
X145429890Y-72709786D01*
X145580213Y-72860109D01*
X145752179Y-72985048D01*
X145752181Y-72985049D01*
X145752184Y-72985051D01*
X145941588Y-73081557D01*
X146143757Y-73147246D01*
X146353713Y-73180500D01*
X146353714Y-73180500D01*
X146566286Y-73180500D01*
X146566287Y-73180500D01*
X146776243Y-73147246D01*
X146978412Y-73081557D01*
X147167816Y-72985051D01*
X147214561Y-72951089D01*
X147339786Y-72860109D01*
X147339788Y-72860106D01*
X147339792Y-72860104D01*
X147490104Y-72709792D01*
X147490106Y-72709788D01*
X147490109Y-72709786D01*
X147615048Y-72537820D01*
X147615047Y-72537820D01*
X147615051Y-72537816D01*
X147619514Y-72529054D01*
X147667488Y-72478259D01*
X147735308Y-72461463D01*
X147801444Y-72483999D01*
X147840486Y-72529056D01*
X147844951Y-72537820D01*
X147969890Y-72709786D01*
X148120213Y-72860109D01*
X148292179Y-72985048D01*
X148292181Y-72985049D01*
X148292184Y-72985051D01*
X148481588Y-73081557D01*
X148683757Y-73147246D01*
X148893713Y-73180500D01*
X148893714Y-73180500D01*
X149106286Y-73180500D01*
X149106287Y-73180500D01*
X149316243Y-73147246D01*
X149518412Y-73081557D01*
X149707816Y-72985051D01*
X149754561Y-72951089D01*
X149879786Y-72860109D01*
X149879788Y-72860106D01*
X149879792Y-72860104D01*
X150030104Y-72709792D01*
X150030106Y-72709788D01*
X150030109Y-72709786D01*
X150155048Y-72537820D01*
X150155047Y-72537820D01*
X150155051Y-72537816D01*
X150242615Y-72365960D01*
X150290589Y-72315165D01*
X150358410Y-72298370D01*
X150424545Y-72320907D01*
X150467997Y-72375622D01*
X150477100Y-72422256D01*
X150477100Y-94396900D01*
X150457415Y-94463939D01*
X150404611Y-94509694D01*
X150353100Y-94520900D01*
X100624300Y-94520900D01*
X100557261Y-94501215D01*
X100511506Y-94448411D01*
X100500300Y-94396900D01*
X100500300Y-92397648D01*
X101199500Y-92397648D01*
X101199500Y-92602351D01*
X101231522Y-92804534D01*
X101294781Y-92999223D01*
X101358691Y-93124653D01*
X101373644Y-93153999D01*
X101387715Y-93181613D01*
X101508028Y-93347213D01*
X101652786Y-93491971D01*
X101790928Y-93592335D01*
X101818390Y-93612287D01*
X101902319Y-93655051D01*
X102000776Y-93705218D01*
X102000778Y-93705218D01*
X102000781Y-93705220D01*
X102105137Y-93739127D01*
X102195465Y-93768477D01*
X102296557Y-93784488D01*
X102397648Y-93800500D01*
X102397649Y-93800500D01*
X102602351Y-93800500D01*
X102602352Y-93800500D01*
X102804534Y-93768477D01*
X102999219Y-93705220D01*
X103181610Y-93612287D01*
X103294726Y-93530104D01*
X103347213Y-93491971D01*
X103347215Y-93491968D01*
X103347219Y-93491966D01*
X103491966Y-93347219D01*
X103491968Y-93347215D01*
X103491971Y-93347213D01*
X103593244Y-93207820D01*
X103612287Y-93181610D01*
X103705220Y-92999219D01*
X103768477Y-92804534D01*
X103800500Y-92602352D01*
X103800500Y-92397648D01*
X103768477Y-92195466D01*
X103767673Y-92192993D01*
X103737426Y-92099901D01*
X103705220Y-92000781D01*
X103705218Y-92000778D01*
X103705218Y-92000776D01*
X103612287Y-91818390D01*
X103505705Y-91671691D01*
X103505704Y-91671690D01*
X103491967Y-91652782D01*
X103441320Y-91602135D01*
X105859500Y-91602135D01*
X105859500Y-93397870D01*
X105859501Y-93397876D01*
X105865908Y-93457483D01*
X105916202Y-93592328D01*
X105916206Y-93592335D01*
X106002452Y-93707544D01*
X106002455Y-93707547D01*
X106117664Y-93793793D01*
X106117671Y-93793797D01*
X106252517Y-93844091D01*
X106252516Y-93844091D01*
X106259444Y-93844835D01*
X106312127Y-93850500D01*
X108107872Y-93850499D01*
X108167483Y-93844091D01*
X108302331Y-93793796D01*
X108417546Y-93707546D01*
X108503796Y-93592331D01*
X108552810Y-93460916D01*
X108594681Y-93404984D01*
X108660145Y-93380566D01*
X108728418Y-93395417D01*
X108756673Y-93416569D01*
X108870213Y-93530109D01*
X109042179Y-93655048D01*
X109042181Y-93655049D01*
X109042184Y-93655051D01*
X109231588Y-93751557D01*
X109433757Y-93817246D01*
X109643713Y-93850500D01*
X109643714Y-93850500D01*
X109856286Y-93850500D01*
X109856287Y-93850500D01*
X110066243Y-93817246D01*
X110268412Y-93751557D01*
X110457816Y-93655051D01*
X110544138Y-93592335D01*
X110629786Y-93530109D01*
X110629788Y-93530106D01*
X110629792Y-93530104D01*
X110780104Y-93379792D01*
X110780106Y-93379788D01*
X110780109Y-93379786D01*
X110905048Y-93207820D01*
X110905047Y-93207820D01*
X110905051Y-93207816D01*
X110909514Y-93199054D01*
X110957488Y-93148259D01*
X111025308Y-93131463D01*
X111091444Y-93153999D01*
X111130486Y-93199056D01*
X111134951Y-93207820D01*
X111259890Y-93379786D01*
X111410213Y-93530109D01*
X111582179Y-93655048D01*
X111582181Y-93655049D01*
X111582184Y-93655051D01*
X111771588Y-93751557D01*
X111973757Y-93817246D01*
X112183713Y-93850500D01*
X112183714Y-93850500D01*
X112396286Y-93850500D01*
X112396287Y-93850500D01*
X112606243Y-93817246D01*
X112808412Y-93751557D01*
X112997816Y-93655051D01*
X113084138Y-93592335D01*
X113169786Y-93530109D01*
X113169788Y-93530106D01*
X113169792Y-93530104D01*
X113320104Y-93379792D01*
X113320106Y-93379788D01*
X113320109Y-93379786D01*
X113445048Y-93207820D01*
X113445047Y-93207820D01*
X113445051Y-93207816D01*
X113449514Y-93199054D01*
X113497488Y-93148259D01*
X113565308Y-93131463D01*
X113631444Y-93153999D01*
X113670486Y-93199056D01*
X113674951Y-93207820D01*
X113799890Y-93379786D01*
X113950213Y-93530109D01*
X114122179Y-93655048D01*
X114122181Y-93655049D01*
X114122184Y-93655051D01*
X114311588Y-93751557D01*
X114513757Y-93817246D01*
X114723713Y-93850500D01*
X114723714Y-93850500D01*
X114936286Y-93850500D01*
X114936287Y-93850500D01*
X115146243Y-93817246D01*
X115348412Y-93751557D01*
X115537816Y-93655051D01*
X115624138Y-93592335D01*
X115709786Y-93530109D01*
X115709788Y-93530106D01*
X115709792Y-93530104D01*
X115860104Y-93379792D01*
X115860106Y-93379788D01*
X115860109Y-93379786D01*
X115985048Y-93207820D01*
X115985047Y-93207820D01*
X115985051Y-93207816D01*
X115989514Y-93199054D01*
X116037488Y-93148259D01*
X116105308Y-93131463D01*
X116171444Y-93153999D01*
X116210486Y-93199056D01*
X116214951Y-93207820D01*
X116339890Y-93379786D01*
X116490213Y-93530109D01*
X116662179Y-93655048D01*
X116662181Y-93655049D01*
X116662184Y-93655051D01*
X116851588Y-93751557D01*
X117053757Y-93817246D01*
X117263713Y-93850500D01*
X117263714Y-93850500D01*
X117476286Y-93850500D01*
X117476287Y-93850500D01*
X117686243Y-93817246D01*
X117888412Y-93751557D01*
X118077816Y-93655051D01*
X118164138Y-93592335D01*
X118249786Y-93530109D01*
X118249788Y-93530106D01*
X118249792Y-93530104D01*
X118400104Y-93379792D01*
X118400106Y-93379788D01*
X118400109Y-93379786D01*
X118525048Y-93207820D01*
X118525047Y-93207820D01*
X118525051Y-93207816D01*
X118529514Y-93199054D01*
X118577488Y-93148259D01*
X118645308Y-93131463D01*
X118711444Y-93153999D01*
X118750486Y-93199056D01*
X118754951Y-93207820D01*
X118879890Y-93379786D01*
X119030213Y-93530109D01*
X119202179Y-93655048D01*
X119202181Y-93655049D01*
X119202184Y-93655051D01*
X119391588Y-93751557D01*
X119593757Y-93817246D01*
X119803713Y-93850500D01*
X119803714Y-93850500D01*
X120016286Y-93850500D01*
X120016287Y-93850500D01*
X120226243Y-93817246D01*
X120428412Y-93751557D01*
X120617816Y-93655051D01*
X120704138Y-93592335D01*
X120789786Y-93530109D01*
X120789788Y-93530106D01*
X120789792Y-93530104D01*
X120940104Y-93379792D01*
X120940106Y-93379788D01*
X120940109Y-93379786D01*
X121065048Y-93207820D01*
X121065047Y-93207820D01*
X121065051Y-93207816D01*
X121069514Y-93199054D01*
X121117488Y-93148259D01*
X121185308Y-93131463D01*
X121251444Y-93153999D01*
X121290486Y-93199056D01*
X121294951Y-93207820D01*
X121419890Y-93379786D01*
X121570213Y-93530109D01*
X121742179Y-93655048D01*
X121742181Y-93655049D01*
X121742184Y-93655051D01*
X121931588Y-93751557D01*
X122133757Y-93817246D01*
X122343713Y-93850500D01*
X122343714Y-93850500D01*
X122556286Y-93850500D01*
X122556287Y-93850500D01*
X122766243Y-93817246D01*
X122968412Y-93751557D01*
X123157816Y-93655051D01*
X123244138Y-93592335D01*
X123329786Y-93530109D01*
X123329788Y-93530106D01*
X123329792Y-93530104D01*
X123480104Y-93379792D01*
X123480106Y-93379788D01*
X123480109Y-93379786D01*
X123605048Y-93207820D01*
X123605047Y-93207820D01*
X123605051Y-93207816D01*
X123609514Y-93199054D01*
X123657488Y-93148259D01*
X123725308Y-93131463D01*
X123791444Y-93153999D01*
X123830486Y-93199056D01*
X123834951Y-93207820D01*
X123959890Y-93379786D01*
X124110213Y-93530109D01*
X124282179Y-93655048D01*
X124282181Y-93655049D01*
X124282184Y-93655051D01*
X124471588Y-93751557D01*
X124673757Y-93817246D01*
X124883713Y-93850500D01*
X124883714Y-93850500D01*
X125096286Y-93850500D01*
X125096287Y-93850500D01*
X125306243Y-93817246D01*
X125508412Y-93751557D01*
X125697816Y-93655051D01*
X125784138Y-93592335D01*
X125869786Y-93530109D01*
X125869788Y-93530106D01*
X125869792Y-93530104D01*
X126020104Y-93379792D01*
X126020106Y-93379788D01*
X126020109Y-93379786D01*
X126105890Y-93261717D01*
X126145051Y-93207816D01*
X126149793Y-93198508D01*
X126197763Y-93147711D01*
X126265583Y-93130911D01*
X126331719Y-93153445D01*
X126370763Y-93198500D01*
X126375373Y-93207547D01*
X126414728Y-93261716D01*
X127047037Y-92629408D01*
X127064075Y-92692993D01*
X127129901Y-92807007D01*
X127222993Y-92900099D01*
X127337007Y-92965925D01*
X127400590Y-92982962D01*
X126768282Y-93615269D01*
X126768282Y-93615270D01*
X126822449Y-93654624D01*
X127011782Y-93751095D01*
X127213870Y-93816757D01*
X127423754Y-93850000D01*
X127636246Y-93850000D01*
X127846127Y-93816757D01*
X127846130Y-93816757D01*
X128048217Y-93751095D01*
X128237554Y-93654622D01*
X128291716Y-93615270D01*
X128291717Y-93615270D01*
X127659408Y-92982962D01*
X127722993Y-92965925D01*
X127837007Y-92900099D01*
X127930099Y-92807007D01*
X127995925Y-92692993D01*
X128012962Y-92629408D01*
X128645270Y-93261717D01*
X128645270Y-93261716D01*
X128684622Y-93207554D01*
X128781095Y-93018217D01*
X128846757Y-92816130D01*
X128846757Y-92816127D01*
X128880000Y-92606246D01*
X128880000Y-92393753D01*
X128846757Y-92183872D01*
X128846757Y-92183869D01*
X128781095Y-91981782D01*
X128684624Y-91792449D01*
X128645270Y-91738282D01*
X128645269Y-91738282D01*
X128012962Y-92370590D01*
X127995925Y-92307007D01*
X127930099Y-92192993D01*
X127837007Y-92099901D01*
X127722993Y-92034075D01*
X127659409Y-92017037D01*
X128074310Y-91602135D01*
X132279500Y-91602135D01*
X132279500Y-93397870D01*
X132279501Y-93397876D01*
X132285908Y-93457483D01*
X132336202Y-93592328D01*
X132336206Y-93592335D01*
X132422452Y-93707544D01*
X132422455Y-93707547D01*
X132537664Y-93793793D01*
X132537671Y-93793797D01*
X132672517Y-93844091D01*
X132672516Y-93844091D01*
X132679444Y-93844835D01*
X132732127Y-93850500D01*
X134527872Y-93850499D01*
X134587483Y-93844091D01*
X134722331Y-93793796D01*
X134837546Y-93707546D01*
X134923796Y-93592331D01*
X134974091Y-93457483D01*
X134980500Y-93397873D01*
X134980499Y-93373979D01*
X134983330Y-93360963D01*
X134993940Y-93341525D01*
X135000179Y-93320275D01*
X135016803Y-93299643D01*
X135016808Y-93299636D01*
X135016811Y-93299634D01*
X135016818Y-93299626D01*
X135687037Y-92629408D01*
X135704075Y-92692993D01*
X135769901Y-92807007D01*
X135862993Y-92900099D01*
X135977007Y-92965925D01*
X136040590Y-92982962D01*
X135408282Y-93615269D01*
X135408282Y-93615270D01*
X135462449Y-93654624D01*
X135651782Y-93751095D01*
X135853870Y-93816757D01*
X136063754Y-93850000D01*
X136276246Y-93850000D01*
X136486127Y-93816757D01*
X136486130Y-93816757D01*
X136688217Y-93751095D01*
X136877554Y-93654622D01*
X136931716Y-93615270D01*
X136931717Y-93615270D01*
X136299408Y-92982962D01*
X136362993Y-92965925D01*
X136477007Y-92900099D01*
X136570099Y-92807007D01*
X136635925Y-92692993D01*
X136652962Y-92629408D01*
X137285270Y-93261717D01*
X137285270Y-93261716D01*
X137324622Y-93207555D01*
X137329232Y-93198507D01*
X137377205Y-93147709D01*
X137445025Y-93130912D01*
X137511161Y-93153447D01*
X137550204Y-93198504D01*
X137554949Y-93207817D01*
X137679890Y-93379786D01*
X137830213Y-93530109D01*
X138002179Y-93655048D01*
X138002181Y-93655049D01*
X138002184Y-93655051D01*
X138191588Y-93751557D01*
X138393757Y-93817246D01*
X138603713Y-93850500D01*
X138603714Y-93850500D01*
X138816286Y-93850500D01*
X138816287Y-93850500D01*
X139026243Y-93817246D01*
X139228412Y-93751557D01*
X139417816Y-93655051D01*
X139504138Y-93592335D01*
X139589786Y-93530109D01*
X139589788Y-93530106D01*
X139589792Y-93530104D01*
X139740104Y-93379792D01*
X139740106Y-93379788D01*
X139740109Y-93379786D01*
X139865048Y-93207820D01*
X139865047Y-93207820D01*
X139865051Y-93207816D01*
X139869514Y-93199054D01*
X139917488Y-93148259D01*
X139985308Y-93131463D01*
X140051444Y-93153999D01*
X140090486Y-93199056D01*
X140094951Y-93207820D01*
X140219890Y-93379786D01*
X140370213Y-93530109D01*
X140542179Y-93655048D01*
X140542181Y-93655049D01*
X140542184Y-93655051D01*
X140731588Y-93751557D01*
X140933757Y-93817246D01*
X141143713Y-93850500D01*
X141143714Y-93850500D01*
X141356286Y-93850500D01*
X141356287Y-93850500D01*
X141566243Y-93817246D01*
X141768412Y-93751557D01*
X141957816Y-93655051D01*
X142044138Y-93592335D01*
X142129786Y-93530109D01*
X142129788Y-93530106D01*
X142129792Y-93530104D01*
X142280104Y-93379792D01*
X142280106Y-93379788D01*
X142280109Y-93379786D01*
X142405048Y-93207820D01*
X142405047Y-93207820D01*
X142405051Y-93207816D01*
X142501557Y-93018412D01*
X142567246Y-92816243D01*
X142600500Y-92606287D01*
X142600500Y-92397648D01*
X147199500Y-92397648D01*
X147199500Y-92602351D01*
X147231522Y-92804534D01*
X147294781Y-92999223D01*
X147358691Y-93124653D01*
X147373644Y-93153999D01*
X147387715Y-93181613D01*
X147508028Y-93347213D01*
X147652786Y-93491971D01*
X147790928Y-93592335D01*
X147818390Y-93612287D01*
X147902319Y-93655051D01*
X148000776Y-93705218D01*
X148000778Y-93705218D01*
X148000781Y-93705220D01*
X148105137Y-93739127D01*
X148195465Y-93768477D01*
X148296557Y-93784488D01*
X148397648Y-93800500D01*
X148397649Y-93800500D01*
X148602351Y-93800500D01*
X148602352Y-93800500D01*
X148804534Y-93768477D01*
X148999219Y-93705220D01*
X149181610Y-93612287D01*
X149294726Y-93530104D01*
X149347213Y-93491971D01*
X149347215Y-93491968D01*
X149347219Y-93491966D01*
X149491966Y-93347219D01*
X149491968Y-93347215D01*
X149491971Y-93347213D01*
X149593244Y-93207820D01*
X149612287Y-93181610D01*
X149705220Y-92999219D01*
X149768477Y-92804534D01*
X149800500Y-92602352D01*
X149800500Y-92397648D01*
X149768477Y-92195466D01*
X149767673Y-92192993D01*
X149737426Y-92099901D01*
X149705220Y-92000781D01*
X149705218Y-92000778D01*
X149705218Y-92000776D01*
X149638118Y-91869087D01*
X149612287Y-91818390D01*
X149593438Y-91792446D01*
X149491971Y-91652786D01*
X149347213Y-91508028D01*
X149181613Y-91387715D01*
X149181612Y-91387714D01*
X149181610Y-91387713D01*
X149098527Y-91345380D01*
X148999223Y-91294781D01*
X148804534Y-91231522D01*
X148629995Y-91203878D01*
X148602352Y-91199500D01*
X148397648Y-91199500D01*
X148373329Y-91203351D01*
X148195465Y-91231522D01*
X148000776Y-91294781D01*
X147818386Y-91387715D01*
X147652786Y-91508028D01*
X147508028Y-91652786D01*
X147387715Y-91818386D01*
X147294781Y-92000776D01*
X147231522Y-92195465D01*
X147199500Y-92397648D01*
X142600500Y-92397648D01*
X142600500Y-92393713D01*
X142567246Y-92183757D01*
X142501557Y-91981588D01*
X142405051Y-91792184D01*
X142405049Y-91792181D01*
X142405048Y-91792179D01*
X142280109Y-91620213D01*
X142129786Y-91469890D01*
X141957820Y-91344951D01*
X141768414Y-91248444D01*
X141768413Y-91248443D01*
X141768412Y-91248443D01*
X141566243Y-91182754D01*
X141566241Y-91182753D01*
X141566240Y-91182753D01*
X141404957Y-91157208D01*
X141356287Y-91149500D01*
X141143713Y-91149500D01*
X141095042Y-91157208D01*
X140933760Y-91182753D01*
X140731585Y-91248444D01*
X140542179Y-91344951D01*
X140370213Y-91469890D01*
X140219890Y-91620213D01*
X140094949Y-91792182D01*
X140090484Y-91800946D01*
X140042509Y-91851742D01*
X139974688Y-91868536D01*
X139908553Y-91845998D01*
X139869516Y-91800946D01*
X139865050Y-91792182D01*
X139740109Y-91620213D01*
X139589786Y-91469890D01*
X139417820Y-91344951D01*
X139228414Y-91248444D01*
X139228413Y-91248443D01*
X139228412Y-91248443D01*
X139026243Y-91182754D01*
X139026241Y-91182753D01*
X139026240Y-91182753D01*
X138864957Y-91157208D01*
X138816287Y-91149500D01*
X138603713Y-91149500D01*
X138555042Y-91157208D01*
X138393760Y-91182753D01*
X138191585Y-91248444D01*
X138002179Y-91344951D01*
X137830213Y-91469890D01*
X137679890Y-91620213D01*
X137554949Y-91792182D01*
X137550202Y-91801499D01*
X137502227Y-91852293D01*
X137434405Y-91869087D01*
X137368271Y-91846548D01*
X137329234Y-91801495D01*
X137324626Y-91792452D01*
X137285270Y-91738282D01*
X137285269Y-91738282D01*
X136652962Y-92370590D01*
X136635925Y-92307007D01*
X136570099Y-92192993D01*
X136477007Y-92099901D01*
X136362993Y-92034075D01*
X136299409Y-92017037D01*
X136931716Y-91384728D01*
X136877550Y-91345375D01*
X136688217Y-91248904D01*
X136486129Y-91183242D01*
X136276246Y-91150000D01*
X136063754Y-91150000D01*
X135853872Y-91183242D01*
X135853869Y-91183242D01*
X135651782Y-91248904D01*
X135462439Y-91345380D01*
X135408282Y-91384727D01*
X135408282Y-91384728D01*
X136040591Y-92017037D01*
X135977007Y-92034075D01*
X135862993Y-92099901D01*
X135769901Y-92192993D01*
X135704075Y-92307007D01*
X135687037Y-92370591D01*
X135016818Y-91700372D01*
X134983333Y-91639049D01*
X134983330Y-91639036D01*
X134980499Y-91626015D01*
X134980499Y-91602128D01*
X134974091Y-91542517D01*
X134945926Y-91467002D01*
X134923798Y-91407673D01*
X134923793Y-91407664D01*
X134837547Y-91292455D01*
X134837544Y-91292452D01*
X134722335Y-91206206D01*
X134722328Y-91206202D01*
X134587482Y-91155908D01*
X134587483Y-91155908D01*
X134527883Y-91149501D01*
X134527881Y-91149500D01*
X134527873Y-91149500D01*
X134527864Y-91149500D01*
X132732129Y-91149500D01*
X132732123Y-91149501D01*
X132672516Y-91155908D01*
X132537671Y-91206202D01*
X132537664Y-91206206D01*
X132422455Y-91292452D01*
X132422452Y-91292455D01*
X132336206Y-91407664D01*
X132336202Y-91407671D01*
X132285908Y-91542517D01*
X132279501Y-91602116D01*
X132279500Y-91602135D01*
X128074310Y-91602135D01*
X128165320Y-91511125D01*
X128291716Y-91384728D01*
X128237550Y-91345375D01*
X128048217Y-91248904D01*
X127846129Y-91183242D01*
X127636246Y-91150000D01*
X127423754Y-91150000D01*
X127213872Y-91183242D01*
X127213869Y-91183242D01*
X127011782Y-91248904D01*
X126822439Y-91345380D01*
X126768282Y-91384727D01*
X126768282Y-91384728D01*
X127400591Y-92017037D01*
X127337007Y-92034075D01*
X127222993Y-92099901D01*
X127129901Y-92192993D01*
X127064075Y-92307007D01*
X127047037Y-92370591D01*
X126414728Y-91738282D01*
X126414727Y-91738282D01*
X126375380Y-91792440D01*
X126375376Y-91792446D01*
X126370760Y-91801505D01*
X126322781Y-91852297D01*
X126254959Y-91869087D01*
X126188826Y-91846543D01*
X126149794Y-91801493D01*
X126145051Y-91792184D01*
X126145049Y-91792181D01*
X126145048Y-91792179D01*
X126020109Y-91620213D01*
X125869786Y-91469890D01*
X125697820Y-91344951D01*
X125508414Y-91248444D01*
X125508413Y-91248443D01*
X125508412Y-91248443D01*
X125306243Y-91182754D01*
X125306241Y-91182753D01*
X125306240Y-91182753D01*
X125144957Y-91157208D01*
X125096287Y-91149500D01*
X124883713Y-91149500D01*
X124835042Y-91157208D01*
X124673760Y-91182753D01*
X124471585Y-91248444D01*
X124282179Y-91344951D01*
X124110213Y-91469890D01*
X123959890Y-91620213D01*
X123834949Y-91792182D01*
X123830484Y-91800946D01*
X123782509Y-91851742D01*
X123714688Y-91868536D01*
X123648553Y-91845998D01*
X123609516Y-91800946D01*
X123605050Y-91792182D01*
X123480109Y-91620213D01*
X123329786Y-91469890D01*
X123157820Y-91344951D01*
X122968414Y-91248444D01*
X122968413Y-91248443D01*
X122968412Y-91248443D01*
X122766243Y-91182754D01*
X122766241Y-91182753D01*
X122766240Y-91182753D01*
X122604957Y-91157208D01*
X122556287Y-91149500D01*
X122343713Y-91149500D01*
X122295042Y-91157208D01*
X122133760Y-91182753D01*
X121931585Y-91248444D01*
X121742179Y-91344951D01*
X121570213Y-91469890D01*
X121419890Y-91620213D01*
X121294949Y-91792182D01*
X121290484Y-91800946D01*
X121242509Y-91851742D01*
X121174688Y-91868536D01*
X121108553Y-91845998D01*
X121069516Y-91800946D01*
X121065050Y-91792182D01*
X120940109Y-91620213D01*
X120789786Y-91469890D01*
X120617820Y-91344951D01*
X120428414Y-91248444D01*
X120428413Y-91248443D01*
X120428412Y-91248443D01*
X120226243Y-91182754D01*
X120226241Y-91182753D01*
X120226240Y-91182753D01*
X120064957Y-91157208D01*
X120016287Y-91149500D01*
X119803713Y-91149500D01*
X119755042Y-91157208D01*
X119593760Y-91182753D01*
X119391585Y-91248444D01*
X119202179Y-91344951D01*
X119030213Y-91469890D01*
X118879890Y-91620213D01*
X118754949Y-91792182D01*
X118750484Y-91800946D01*
X118702509Y-91851742D01*
X118634688Y-91868536D01*
X118568553Y-91845998D01*
X118529516Y-91800946D01*
X118525050Y-91792182D01*
X118400109Y-91620213D01*
X118249786Y-91469890D01*
X118077820Y-91344951D01*
X117888414Y-91248444D01*
X117888413Y-91248443D01*
X117888412Y-91248443D01*
X117686243Y-91182754D01*
X117686241Y-91182753D01*
X117686240Y-91182753D01*
X117524957Y-91157208D01*
X117476287Y-91149500D01*
X117263713Y-91149500D01*
X117215042Y-91157208D01*
X117053760Y-91182753D01*
X116851585Y-91248444D01*
X116662179Y-91344951D01*
X116490213Y-91469890D01*
X116339890Y-91620213D01*
X116214949Y-91792182D01*
X116210484Y-91800946D01*
X116162509Y-91851742D01*
X116094688Y-91868536D01*
X116028553Y-91845998D01*
X115989516Y-91800946D01*
X115985050Y-91792182D01*
X115860109Y-91620213D01*
X115709786Y-91469890D01*
X115537820Y-91344951D01*
X115348414Y-91248444D01*
X115348413Y-91248443D01*
X115348412Y-91248443D01*
X115146243Y-91182754D01*
X115146241Y-91182753D01*
X115146240Y-91182753D01*
X114984957Y-91157208D01*
X114936287Y-91149500D01*
X114723713Y-91149500D01*
X114675042Y-91157208D01*
X114513760Y-91182753D01*
X114311585Y-91248444D01*
X114122179Y-91344951D01*
X113950213Y-91469890D01*
X113799890Y-91620213D01*
X113674949Y-91792182D01*
X113670484Y-91800946D01*
X113622509Y-91851742D01*
X113554688Y-91868536D01*
X113488553Y-91845998D01*
X113449516Y-91800946D01*
X113445050Y-91792182D01*
X113320109Y-91620213D01*
X113169786Y-91469890D01*
X112997820Y-91344951D01*
X112808414Y-91248444D01*
X112808413Y-91248443D01*
X112808412Y-91248443D01*
X112606243Y-91182754D01*
X112606241Y-91182753D01*
X112606240Y-91182753D01*
X112444957Y-91157208D01*
X112396287Y-91149500D01*
X112183713Y-91149500D01*
X112135042Y-91157208D01*
X111973760Y-91182753D01*
X111771585Y-91248444D01*
X111582179Y-91344951D01*
X111410213Y-91469890D01*
X111259890Y-91620213D01*
X111134949Y-91792182D01*
X111130484Y-91800946D01*
X111082509Y-91851742D01*
X111014688Y-91868536D01*
X110948553Y-91845998D01*
X110909516Y-91800946D01*
X110905050Y-91792182D01*
X110780109Y-91620213D01*
X110629786Y-91469890D01*
X110457820Y-91344951D01*
X110268414Y-91248444D01*
X110268413Y-91248443D01*
X110268412Y-91248443D01*
X110066243Y-91182754D01*
X110066241Y-91182753D01*
X110066240Y-91182753D01*
X109904957Y-91157208D01*
X109856287Y-91149500D01*
X109643713Y-91149500D01*
X109595042Y-91157208D01*
X109433760Y-91182753D01*
X109231585Y-91248444D01*
X109042179Y-91344951D01*
X108870215Y-91469889D01*
X108756673Y-91583431D01*
X108695350Y-91616915D01*
X108625658Y-91611931D01*
X108569725Y-91570059D01*
X108552810Y-91539082D01*
X108503797Y-91407671D01*
X108503793Y-91407664D01*
X108417547Y-91292455D01*
X108417544Y-91292452D01*
X108302335Y-91206206D01*
X108302328Y-91206202D01*
X108167482Y-91155908D01*
X108167483Y-91155908D01*
X108107883Y-91149501D01*
X108107881Y-91149500D01*
X108107873Y-91149500D01*
X108107864Y-91149500D01*
X106312129Y-91149500D01*
X106312123Y-91149501D01*
X106252516Y-91155908D01*
X106117671Y-91206202D01*
X106117664Y-91206206D01*
X106002455Y-91292452D01*
X106002452Y-91292455D01*
X105916206Y-91407664D01*
X105916202Y-91407671D01*
X105865908Y-91542517D01*
X105859501Y-91602116D01*
X105859500Y-91602135D01*
X103441320Y-91602135D01*
X103347213Y-91508028D01*
X103181613Y-91387715D01*
X103181612Y-91387714D01*
X103181610Y-91387713D01*
X103098527Y-91345380D01*
X102999223Y-91294781D01*
X102804534Y-91231522D01*
X102629995Y-91203878D01*
X102602352Y-91199500D01*
X102397648Y-91199500D01*
X102373329Y-91203351D01*
X102195465Y-91231522D01*
X102000776Y-91294781D01*
X101818386Y-91387715D01*
X101652786Y-91508028D01*
X101508028Y-91652786D01*
X101387715Y-91818386D01*
X101294781Y-92000776D01*
X101231522Y-92195465D01*
X101199500Y-92397648D01*
X100500300Y-92397648D01*
X100500300Y-87369260D01*
X131410593Y-87369260D01*
X131410593Y-87526953D01*
X131441354Y-87681596D01*
X131441357Y-87681608D01*
X131501695Y-87827279D01*
X131501702Y-87827292D01*
X131589303Y-87958395D01*
X131589306Y-87958399D01*
X131700800Y-88069893D01*
X131700804Y-88069896D01*
X131831907Y-88157497D01*
X131831920Y-88157504D01*
X131977591Y-88217842D01*
X131977596Y-88217844D01*
X132132246Y-88248606D01*
X132132249Y-88248607D01*
X132132251Y-88248607D01*
X132289937Y-88248607D01*
X132289938Y-88248606D01*
X132444590Y-88217844D01*
X132590272Y-88157501D01*
X132721382Y-88069896D01*
X132832882Y-87958396D01*
X132920487Y-87827286D01*
X132980830Y-87681604D01*
X133011593Y-87526949D01*
X133011593Y-87369265D01*
X133011593Y-87369262D01*
X133011592Y-87369260D01*
X132980831Y-87214617D01*
X132980830Y-87214610D01*
X132980828Y-87214605D01*
X132920490Y-87068934D01*
X132920483Y-87068921D01*
X132872955Y-86997791D01*
X132852077Y-86931114D01*
X132870561Y-86863734D01*
X132922540Y-86817043D01*
X132976057Y-86804900D01*
X133124044Y-86804900D01*
X133124045Y-86804899D01*
X133278697Y-86774137D01*
X133424379Y-86713794D01*
X133555489Y-86626189D01*
X133666989Y-86514689D01*
X133754594Y-86383579D01*
X133814937Y-86237897D01*
X133845700Y-86083242D01*
X133845700Y-85925558D01*
X133845700Y-85925555D01*
X133845699Y-85925553D01*
X133814938Y-85770910D01*
X133814937Y-85770903D01*
X133797949Y-85729889D01*
X133754597Y-85625227D01*
X133754590Y-85625214D01*
X133666989Y-85494111D01*
X133666986Y-85494107D01*
X133555492Y-85382613D01*
X133555488Y-85382610D01*
X133424385Y-85295009D01*
X133424372Y-85295002D01*
X133278701Y-85234664D01*
X133278689Y-85234661D01*
X133124045Y-85203900D01*
X133124042Y-85203900D01*
X132966358Y-85203900D01*
X132966355Y-85203900D01*
X132811710Y-85234661D01*
X132811698Y-85234664D01*
X132666027Y-85295002D01*
X132666014Y-85295009D01*
X132534911Y-85382610D01*
X132534907Y-85382613D01*
X132423413Y-85494107D01*
X132423410Y-85494111D01*
X132335809Y-85625214D01*
X132335802Y-85625227D01*
X132275464Y-85770898D01*
X132275461Y-85770910D01*
X132244700Y-85925553D01*
X132244700Y-86083246D01*
X132275461Y-86237889D01*
X132275464Y-86237901D01*
X132335802Y-86383572D01*
X132335809Y-86383585D01*
X132383338Y-86454716D01*
X132404216Y-86521393D01*
X132385732Y-86588773D01*
X132333753Y-86635464D01*
X132280236Y-86647607D01*
X132132248Y-86647607D01*
X131977603Y-86678368D01*
X131977591Y-86678371D01*
X131831920Y-86738709D01*
X131831907Y-86738716D01*
X131700804Y-86826317D01*
X131700800Y-86826320D01*
X131589306Y-86937814D01*
X131589303Y-86937818D01*
X131501702Y-87068921D01*
X131501695Y-87068934D01*
X131441357Y-87214605D01*
X131441354Y-87214617D01*
X131410593Y-87369260D01*
X100500300Y-87369260D01*
X100500300Y-84604753D01*
X106743100Y-84604753D01*
X106743100Y-84762446D01*
X106773861Y-84917089D01*
X106773864Y-84917101D01*
X106834202Y-85062772D01*
X106834209Y-85062785D01*
X106921810Y-85193888D01*
X106921813Y-85193892D01*
X107033307Y-85305386D01*
X107033311Y-85305389D01*
X107164414Y-85392990D01*
X107164427Y-85392997D01*
X107310098Y-85453335D01*
X107310103Y-85453337D01*
X107464753Y-85484099D01*
X107464756Y-85484100D01*
X107464758Y-85484100D01*
X107622444Y-85484100D01*
X107622445Y-85484099D01*
X107777097Y-85453337D01*
X107863488Y-85417553D01*
X127723500Y-85417553D01*
X127723500Y-85575246D01*
X127754261Y-85729889D01*
X127754264Y-85729901D01*
X127814602Y-85875572D01*
X127814609Y-85875585D01*
X127902210Y-86006688D01*
X127902213Y-86006692D01*
X128013707Y-86118186D01*
X128013711Y-86118189D01*
X128144814Y-86205790D01*
X128144827Y-86205797D01*
X128290498Y-86266135D01*
X128290503Y-86266137D01*
X128445153Y-86296899D01*
X128445156Y-86296900D01*
X128445158Y-86296900D01*
X128602844Y-86296900D01*
X128602845Y-86296899D01*
X128757497Y-86266137D01*
X128903179Y-86205794D01*
X129034289Y-86118189D01*
X129145789Y-86006689D01*
X129233394Y-85875579D01*
X129293737Y-85729897D01*
X129324500Y-85575242D01*
X129324500Y-85417558D01*
X129324500Y-85417555D01*
X129324499Y-85417553D01*
X129317549Y-85382613D01*
X129293737Y-85262903D01*
X129282039Y-85234661D01*
X129233397Y-85117227D01*
X129233390Y-85117214D01*
X129145789Y-84986111D01*
X129145786Y-84986107D01*
X129034292Y-84874613D01*
X129034288Y-84874610D01*
X128903185Y-84787009D01*
X128903172Y-84787002D01*
X128757501Y-84726664D01*
X128757489Y-84726661D01*
X128602845Y-84695900D01*
X128602842Y-84695900D01*
X128445158Y-84695900D01*
X128445155Y-84695900D01*
X128290510Y-84726661D01*
X128290498Y-84726664D01*
X128144827Y-84787002D01*
X128144814Y-84787009D01*
X128013711Y-84874610D01*
X128013707Y-84874613D01*
X127902213Y-84986107D01*
X127902210Y-84986111D01*
X127814609Y-85117214D01*
X127814602Y-85117227D01*
X127754264Y-85262898D01*
X127754261Y-85262910D01*
X127723500Y-85417553D01*
X107863488Y-85417553D01*
X107922779Y-85392994D01*
X108053889Y-85305389D01*
X108165389Y-85193889D01*
X108252994Y-85062779D01*
X108313337Y-84917097D01*
X108344100Y-84762442D01*
X108344100Y-84604758D01*
X108344100Y-84604755D01*
X108344099Y-84604753D01*
X108313338Y-84450110D01*
X108313337Y-84450103D01*
X108272530Y-84351585D01*
X108252997Y-84304427D01*
X108252990Y-84304414D01*
X108165389Y-84173311D01*
X108165386Y-84173307D01*
X108053892Y-84061813D01*
X108053888Y-84061810D01*
X107922785Y-83974209D01*
X107922772Y-83974202D01*
X107777101Y-83913864D01*
X107777089Y-83913861D01*
X107622445Y-83883100D01*
X107622442Y-83883100D01*
X107464758Y-83883100D01*
X107464755Y-83883100D01*
X107310110Y-83913861D01*
X107310098Y-83913864D01*
X107164427Y-83974202D01*
X107164414Y-83974209D01*
X107033311Y-84061810D01*
X107033307Y-84061813D01*
X106921813Y-84173307D01*
X106921810Y-84173311D01*
X106834209Y-84304414D01*
X106834202Y-84304427D01*
X106773864Y-84450098D01*
X106773861Y-84450110D01*
X106743100Y-84604753D01*
X100500300Y-84604753D01*
X100500300Y-82064753D01*
X124523100Y-82064753D01*
X124523100Y-82222446D01*
X124553861Y-82377089D01*
X124553864Y-82377101D01*
X124614202Y-82522772D01*
X124614209Y-82522785D01*
X124701810Y-82653888D01*
X124701813Y-82653892D01*
X124813307Y-82765386D01*
X124813311Y-82765389D01*
X124944414Y-82852990D01*
X124944427Y-82852997D01*
X125067054Y-82903790D01*
X125090103Y-82913337D01*
X125244753Y-82944099D01*
X125244756Y-82944100D01*
X125244758Y-82944100D01*
X125402444Y-82944100D01*
X125402445Y-82944099D01*
X125557097Y-82913337D01*
X125702779Y-82852994D01*
X125833889Y-82765389D01*
X125945389Y-82653889D01*
X126032994Y-82522779D01*
X126093337Y-82377097D01*
X126124100Y-82222442D01*
X126124100Y-82166353D01*
X132244700Y-82166353D01*
X132244700Y-82324046D01*
X132275461Y-82478689D01*
X132275464Y-82478701D01*
X132335802Y-82624372D01*
X132335809Y-82624385D01*
X132423410Y-82755488D01*
X132423413Y-82755492D01*
X132534907Y-82866986D01*
X132534911Y-82866989D01*
X132666014Y-82954590D01*
X132666027Y-82954597D01*
X132763329Y-82994900D01*
X132811703Y-83014937D01*
X132926723Y-83037816D01*
X132966353Y-83045699D01*
X132966356Y-83045700D01*
X132966358Y-83045700D01*
X133124044Y-83045700D01*
X133124045Y-83045699D01*
X133278697Y-83014937D01*
X133424379Y-82954594D01*
X133555489Y-82866989D01*
X133666989Y-82755489D01*
X133754594Y-82624379D01*
X133814937Y-82478697D01*
X133845700Y-82324042D01*
X133845700Y-82166358D01*
X133845700Y-82166355D01*
X133845699Y-82166353D01*
X133839196Y-82133657D01*
X133835595Y-82115553D01*
X136054700Y-82115553D01*
X136054700Y-82273246D01*
X136085461Y-82427889D01*
X136085464Y-82427901D01*
X136145802Y-82573572D01*
X136145809Y-82573585D01*
X136233410Y-82704688D01*
X136233413Y-82704692D01*
X136344907Y-82816186D01*
X136344911Y-82816189D01*
X136476014Y-82903790D01*
X136476027Y-82903797D01*
X136573329Y-82944100D01*
X136621703Y-82964137D01*
X136776353Y-82994899D01*
X136776356Y-82994900D01*
X136776358Y-82994900D01*
X136934044Y-82994900D01*
X136934045Y-82994899D01*
X137088697Y-82964137D01*
X137234379Y-82903794D01*
X137365489Y-82816189D01*
X137476989Y-82704689D01*
X137564594Y-82573579D01*
X137624937Y-82427897D01*
X137655700Y-82273242D01*
X137655700Y-82115558D01*
X137655700Y-82115555D01*
X137655699Y-82115553D01*
X137645595Y-82064758D01*
X137624937Y-81960903D01*
X137603893Y-81910098D01*
X137564597Y-81815227D01*
X137564590Y-81815214D01*
X137476989Y-81684111D01*
X137476986Y-81684107D01*
X137365492Y-81572613D01*
X137365488Y-81572610D01*
X137234385Y-81485009D01*
X137234372Y-81485002D01*
X137088701Y-81424664D01*
X137088689Y-81424661D01*
X136934045Y-81393900D01*
X136934042Y-81393900D01*
X136776358Y-81393900D01*
X136776355Y-81393900D01*
X136621710Y-81424661D01*
X136621698Y-81424664D01*
X136476027Y-81485002D01*
X136476014Y-81485009D01*
X136344911Y-81572610D01*
X136344907Y-81572613D01*
X136233413Y-81684107D01*
X136233410Y-81684111D01*
X136145809Y-81815214D01*
X136145802Y-81815227D01*
X136085464Y-81960898D01*
X136085461Y-81960910D01*
X136054700Y-82115553D01*
X133835595Y-82115553D01*
X133814938Y-82011708D01*
X133814937Y-82011707D01*
X133814937Y-82011703D01*
X133793893Y-81960898D01*
X133754597Y-81866027D01*
X133754590Y-81866014D01*
X133666989Y-81734911D01*
X133666986Y-81734907D01*
X133555492Y-81623413D01*
X133555488Y-81623410D01*
X133424385Y-81535809D01*
X133424372Y-81535802D01*
X133278701Y-81475464D01*
X133278689Y-81475461D01*
X133124045Y-81444700D01*
X133124042Y-81444700D01*
X132966358Y-81444700D01*
X132966355Y-81444700D01*
X132811710Y-81475461D01*
X132811698Y-81475464D01*
X132666027Y-81535802D01*
X132666014Y-81535809D01*
X132534911Y-81623410D01*
X132534907Y-81623413D01*
X132423413Y-81734907D01*
X132423410Y-81734911D01*
X132335809Y-81866014D01*
X132335802Y-81866027D01*
X132275464Y-82011698D01*
X132275461Y-82011710D01*
X132244700Y-82166353D01*
X126124100Y-82166353D01*
X126124100Y-82064758D01*
X126124100Y-82064755D01*
X126124099Y-82064753D01*
X126113548Y-82011710D01*
X126093337Y-81910103D01*
X126075075Y-81866014D01*
X126032997Y-81764427D01*
X126032990Y-81764414D01*
X125945389Y-81633311D01*
X125945386Y-81633307D01*
X125833892Y-81521813D01*
X125833888Y-81521810D01*
X125702785Y-81434209D01*
X125702772Y-81434202D01*
X125557101Y-81373864D01*
X125557089Y-81373861D01*
X125402445Y-81343100D01*
X125402442Y-81343100D01*
X125244758Y-81343100D01*
X125244755Y-81343100D01*
X125090110Y-81373861D01*
X125090098Y-81373864D01*
X124944427Y-81434202D01*
X124944414Y-81434209D01*
X124813311Y-81521810D01*
X124813307Y-81521813D01*
X124701813Y-81633307D01*
X124701810Y-81633311D01*
X124614209Y-81764414D01*
X124614202Y-81764427D01*
X124553864Y-81910098D01*
X124553861Y-81910110D01*
X124523100Y-82064753D01*
X100500300Y-82064753D01*
X100500300Y-80218295D01*
X120931151Y-80218295D01*
X120931151Y-80375988D01*
X120961912Y-80530631D01*
X120961915Y-80530643D01*
X121022253Y-80676314D01*
X121022260Y-80676327D01*
X121109861Y-80807430D01*
X121109864Y-80807434D01*
X121221358Y-80918928D01*
X121221362Y-80918931D01*
X121352465Y-81006532D01*
X121352478Y-81006539D01*
X121498149Y-81066877D01*
X121498154Y-81066879D01*
X121652804Y-81097641D01*
X121652807Y-81097642D01*
X121652809Y-81097642D01*
X121810495Y-81097642D01*
X121810496Y-81097641D01*
X121965148Y-81066879D01*
X122110830Y-81006536D01*
X122241940Y-80918931D01*
X122353440Y-80807431D01*
X122441045Y-80676321D01*
X122501388Y-80530639D01*
X122532151Y-80375984D01*
X122532151Y-80218300D01*
X122532151Y-80218297D01*
X122532150Y-80218295D01*
X122508758Y-80100697D01*
X122501388Y-80063645D01*
X122467981Y-79982993D01*
X122441048Y-79917969D01*
X122441041Y-79917956D01*
X122396407Y-79851157D01*
X122354442Y-79788353D01*
X126199500Y-79788353D01*
X126199500Y-79946046D01*
X126230261Y-80100689D01*
X126230264Y-80100701D01*
X126290602Y-80246372D01*
X126290609Y-80246385D01*
X126378210Y-80377488D01*
X126378213Y-80377492D01*
X126489707Y-80488986D01*
X126489711Y-80488989D01*
X126620814Y-80576590D01*
X126620827Y-80576597D01*
X126766498Y-80636935D01*
X126766503Y-80636937D01*
X126921153Y-80667699D01*
X126921156Y-80667700D01*
X126921158Y-80667700D01*
X127078844Y-80667700D01*
X127078845Y-80667699D01*
X127233497Y-80636937D01*
X127379179Y-80576594D01*
X127510289Y-80488989D01*
X127621789Y-80377489D01*
X127709394Y-80246379D01*
X127769737Y-80100697D01*
X127800500Y-79946042D01*
X127800500Y-79788358D01*
X127800500Y-79788355D01*
X127783536Y-79703073D01*
X127783536Y-79703072D01*
X127769738Y-79633710D01*
X127769737Y-79633703D01*
X127750702Y-79587748D01*
X127709397Y-79488027D01*
X127709390Y-79488014D01*
X127621789Y-79356911D01*
X127621786Y-79356907D01*
X127510292Y-79245413D01*
X127510288Y-79245410D01*
X127379185Y-79157809D01*
X127379172Y-79157802D01*
X127233501Y-79097464D01*
X127233489Y-79097461D01*
X127078845Y-79066700D01*
X127078842Y-79066700D01*
X126921158Y-79066700D01*
X126921155Y-79066700D01*
X126766510Y-79097461D01*
X126766498Y-79097464D01*
X126620827Y-79157802D01*
X126620814Y-79157809D01*
X126489711Y-79245410D01*
X126489707Y-79245413D01*
X126378213Y-79356907D01*
X126378210Y-79356911D01*
X126290609Y-79488014D01*
X126290602Y-79488027D01*
X126230264Y-79633698D01*
X126230261Y-79633710D01*
X126199500Y-79788353D01*
X122354442Y-79788353D01*
X122353440Y-79786853D01*
X122353437Y-79786849D01*
X122241943Y-79675355D01*
X122241939Y-79675352D01*
X122110836Y-79587751D01*
X122110823Y-79587744D01*
X121965152Y-79527406D01*
X121965140Y-79527403D01*
X121810496Y-79496642D01*
X121810493Y-79496642D01*
X121652809Y-79496642D01*
X121652806Y-79496642D01*
X121498161Y-79527403D01*
X121498149Y-79527406D01*
X121352478Y-79587744D01*
X121352465Y-79587751D01*
X121221362Y-79675352D01*
X121221358Y-79675355D01*
X121109864Y-79786849D01*
X121109861Y-79786853D01*
X121022260Y-79917956D01*
X121022253Y-79917969D01*
X120961915Y-80063640D01*
X120961912Y-80063652D01*
X120931151Y-80218295D01*
X100500300Y-80218295D01*
X100500300Y-77241153D01*
X117604700Y-77241153D01*
X117604700Y-77398846D01*
X117635461Y-77553489D01*
X117635464Y-77553501D01*
X117695802Y-77699172D01*
X117695809Y-77699185D01*
X117783410Y-77830288D01*
X117783413Y-77830292D01*
X117894907Y-77941786D01*
X117894911Y-77941789D01*
X118026014Y-78029390D01*
X118026027Y-78029397D01*
X118171698Y-78089735D01*
X118171703Y-78089737D01*
X118326353Y-78120499D01*
X118326356Y-78120500D01*
X118326358Y-78120500D01*
X118484044Y-78120500D01*
X118484045Y-78120499D01*
X118638697Y-78089737D01*
X118730882Y-78051553D01*
X129349100Y-78051553D01*
X129349100Y-78209246D01*
X129379861Y-78363889D01*
X129379864Y-78363901D01*
X129440202Y-78509572D01*
X129440209Y-78509585D01*
X129527810Y-78640688D01*
X129527813Y-78640692D01*
X129639307Y-78752186D01*
X129639311Y-78752189D01*
X129770414Y-78839790D01*
X129770427Y-78839797D01*
X129916098Y-78900135D01*
X129916103Y-78900137D01*
X130070753Y-78930899D01*
X130070756Y-78930900D01*
X130070758Y-78930900D01*
X130228444Y-78930900D01*
X130228445Y-78930899D01*
X130383097Y-78900137D01*
X130528779Y-78839794D01*
X130659889Y-78752189D01*
X130771389Y-78640689D01*
X130858994Y-78509579D01*
X130919337Y-78363897D01*
X130950100Y-78209242D01*
X130950100Y-78051558D01*
X130950100Y-78051555D01*
X130950099Y-78051553D01*
X130919338Y-77896910D01*
X130919337Y-77896903D01*
X130891745Y-77830289D01*
X130858997Y-77751227D01*
X130858990Y-77751214D01*
X130771389Y-77620111D01*
X130771386Y-77620107D01*
X130659892Y-77508613D01*
X130659888Y-77508610D01*
X130528785Y-77421009D01*
X130528772Y-77421002D01*
X130383101Y-77360664D01*
X130383089Y-77360661D01*
X130228445Y-77329900D01*
X130228442Y-77329900D01*
X130070758Y-77329900D01*
X130070755Y-77329900D01*
X129916110Y-77360661D01*
X129916098Y-77360664D01*
X129770427Y-77421002D01*
X129770414Y-77421009D01*
X129639311Y-77508610D01*
X129639307Y-77508613D01*
X129527813Y-77620107D01*
X129527810Y-77620111D01*
X129440209Y-77751214D01*
X129440202Y-77751227D01*
X129379864Y-77896898D01*
X129379861Y-77896910D01*
X129349100Y-78051553D01*
X118730882Y-78051553D01*
X118784379Y-78029394D01*
X118784385Y-78029390D01*
X118914629Y-77942364D01*
X118914932Y-77942160D01*
X118915489Y-77941789D01*
X119026989Y-77830289D01*
X119114594Y-77699179D01*
X119174937Y-77553497D01*
X119205700Y-77398842D01*
X119205700Y-77241158D01*
X119205700Y-77241155D01*
X119205699Y-77241153D01*
X119192130Y-77172937D01*
X119174937Y-77086503D01*
X119170498Y-77075786D01*
X119114597Y-76940827D01*
X119114590Y-76940814D01*
X119026989Y-76809711D01*
X119026986Y-76809707D01*
X118915492Y-76698213D01*
X118915488Y-76698210D01*
X118784385Y-76610609D01*
X118784372Y-76610602D01*
X118638701Y-76550264D01*
X118638689Y-76550261D01*
X118484045Y-76519500D01*
X118484042Y-76519500D01*
X118326358Y-76519500D01*
X118326355Y-76519500D01*
X118171710Y-76550261D01*
X118171698Y-76550264D01*
X118026027Y-76610602D01*
X118026014Y-76610609D01*
X117894911Y-76698210D01*
X117894907Y-76698213D01*
X117783413Y-76809707D01*
X117783410Y-76809711D01*
X117695809Y-76940814D01*
X117695802Y-76940827D01*
X117635464Y-77086498D01*
X117635461Y-77086510D01*
X117604700Y-77241153D01*
X100500300Y-77241153D01*
X100500300Y-76324353D01*
X120662300Y-76324353D01*
X120662300Y-76482046D01*
X120693061Y-76636689D01*
X120693064Y-76636701D01*
X120753402Y-76782372D01*
X120753409Y-76782385D01*
X120841010Y-76913488D01*
X120841013Y-76913492D01*
X120952507Y-77024986D01*
X120952511Y-77024989D01*
X121083614Y-77112590D01*
X121083627Y-77112597D01*
X121206254Y-77163390D01*
X121229303Y-77172937D01*
X121383953Y-77203699D01*
X121383956Y-77203700D01*
X121383958Y-77203700D01*
X121541644Y-77203700D01*
X121541645Y-77203699D01*
X121696297Y-77172937D01*
X121841979Y-77112594D01*
X121973089Y-77024989D01*
X122084589Y-76913489D01*
X122104725Y-76883352D01*
X122158338Y-76838547D01*
X122227662Y-76829840D01*
X122290690Y-76859994D01*
X122310930Y-76883352D01*
X122365010Y-76964288D01*
X122365013Y-76964292D01*
X122476507Y-77075786D01*
X122476511Y-77075789D01*
X122607614Y-77163390D01*
X122607627Y-77163397D01*
X122704929Y-77203700D01*
X122753303Y-77223737D01*
X122907953Y-77254499D01*
X122907956Y-77254500D01*
X122907958Y-77254500D01*
X123065644Y-77254500D01*
X123065645Y-77254499D01*
X123220297Y-77223737D01*
X123365979Y-77163394D01*
X123497089Y-77075789D01*
X123608589Y-76964289D01*
X123617064Y-76951605D01*
X123670673Y-76906798D01*
X123739997Y-76898088D01*
X123791394Y-76921278D01*
X123792246Y-76920005D01*
X123928414Y-77010990D01*
X123928427Y-77010997D01*
X124074098Y-77071335D01*
X124074103Y-77071337D01*
X124228753Y-77102099D01*
X124228756Y-77102100D01*
X124228758Y-77102100D01*
X124386444Y-77102100D01*
X124386445Y-77102099D01*
X124541097Y-77071337D01*
X124686779Y-77010994D01*
X124817889Y-76923389D01*
X124929389Y-76811889D01*
X125016994Y-76680779D01*
X125054910Y-76589240D01*
X125098749Y-76534839D01*
X125165043Y-76512773D01*
X125232742Y-76530051D01*
X125238360Y-76533591D01*
X125317886Y-76586729D01*
X125317888Y-76586730D01*
X125317892Y-76586732D01*
X125438501Y-76636689D01*
X125463568Y-76647072D01*
X125618218Y-76677834D01*
X125618221Y-76677835D01*
X125618223Y-76677835D01*
X125775909Y-76677835D01*
X125775910Y-76677834D01*
X125930562Y-76647072D01*
X126076244Y-76586729D01*
X126207354Y-76499124D01*
X126318854Y-76387624D01*
X126342567Y-76352135D01*
X147149500Y-76352135D01*
X147149500Y-78147870D01*
X147149501Y-78147876D01*
X147155908Y-78207483D01*
X147206202Y-78342328D01*
X147206206Y-78342335D01*
X147292452Y-78457544D01*
X147292455Y-78457547D01*
X147407664Y-78543793D01*
X147407671Y-78543797D01*
X147452618Y-78560561D01*
X147542517Y-78594091D01*
X147602127Y-78600500D01*
X147612685Y-78600499D01*
X147679723Y-78620179D01*
X147700372Y-78636818D01*
X148370591Y-79307037D01*
X148307007Y-79324075D01*
X148192993Y-79389901D01*
X148099901Y-79482993D01*
X148034075Y-79597007D01*
X148017037Y-79660591D01*
X147384728Y-79028282D01*
X147384727Y-79028282D01*
X147345380Y-79082439D01*
X147248904Y-79271782D01*
X147183242Y-79473869D01*
X147183242Y-79473872D01*
X147150000Y-79683753D01*
X147150000Y-79896246D01*
X147183242Y-80106127D01*
X147183242Y-80106130D01*
X147248904Y-80308217D01*
X147345375Y-80497550D01*
X147384728Y-80551716D01*
X148017036Y-79919407D01*
X148034075Y-79982993D01*
X148099901Y-80097007D01*
X148192993Y-80190099D01*
X148307007Y-80255925D01*
X148370590Y-80272962D01*
X147738282Y-80905269D01*
X147738282Y-80905270D01*
X147792452Y-80944626D01*
X147792451Y-80944626D01*
X147801495Y-80949234D01*
X147852292Y-80997208D01*
X147869087Y-81065029D01*
X147846550Y-81131164D01*
X147801499Y-81170202D01*
X147792182Y-81174949D01*
X147620213Y-81299890D01*
X147469890Y-81450213D01*
X147344951Y-81622179D01*
X147248444Y-81811585D01*
X147182753Y-82013760D01*
X147158585Y-82166353D01*
X147149500Y-82223713D01*
X147149500Y-82436287D01*
X147182754Y-82646243D01*
X147218251Y-82755492D01*
X147248444Y-82848414D01*
X147344951Y-83037820D01*
X147469890Y-83209786D01*
X147620213Y-83360109D01*
X147792182Y-83485050D01*
X147800946Y-83489516D01*
X147851742Y-83537491D01*
X147868536Y-83605312D01*
X147845998Y-83671447D01*
X147800946Y-83710484D01*
X147792182Y-83714949D01*
X147620213Y-83839890D01*
X147469890Y-83990213D01*
X147344951Y-84162179D01*
X147248444Y-84351585D01*
X147182753Y-84553760D01*
X147155368Y-84726663D01*
X147149500Y-84763713D01*
X147149500Y-84976287D01*
X147182754Y-85186243D01*
X147222433Y-85308363D01*
X147248444Y-85388414D01*
X147344951Y-85577820D01*
X147469890Y-85749786D01*
X147620213Y-85900109D01*
X147792179Y-86025048D01*
X147792181Y-86025049D01*
X147792184Y-86025051D01*
X147981588Y-86121557D01*
X148183757Y-86187246D01*
X148393713Y-86220500D01*
X148393714Y-86220500D01*
X148606286Y-86220500D01*
X148606287Y-86220500D01*
X148816243Y-86187246D01*
X149018412Y-86121557D01*
X149207816Y-86025051D01*
X149233091Y-86006688D01*
X149379786Y-85900109D01*
X149379788Y-85900106D01*
X149379792Y-85900104D01*
X149530104Y-85749792D01*
X149530106Y-85749788D01*
X149530109Y-85749786D01*
X149655048Y-85577820D01*
X149655047Y-85577820D01*
X149655051Y-85577816D01*
X149751557Y-85388412D01*
X149817246Y-85186243D01*
X149850500Y-84976287D01*
X149850500Y-84763713D01*
X149817246Y-84553757D01*
X149751557Y-84351588D01*
X149655051Y-84162184D01*
X149655049Y-84162181D01*
X149655048Y-84162179D01*
X149530109Y-83990213D01*
X149379786Y-83839890D01*
X149207820Y-83714951D01*
X149207115Y-83714591D01*
X149199054Y-83710485D01*
X149148259Y-83662512D01*
X149131463Y-83594692D01*
X149153999Y-83528556D01*
X149199054Y-83489515D01*
X149207816Y-83485051D01*
X149229789Y-83469086D01*
X149379786Y-83360109D01*
X149379788Y-83360106D01*
X149379792Y-83360104D01*
X149530104Y-83209792D01*
X149530106Y-83209788D01*
X149530109Y-83209786D01*
X149655048Y-83037820D01*
X149655047Y-83037820D01*
X149655051Y-83037816D01*
X149751557Y-82848412D01*
X149817246Y-82646243D01*
X149850500Y-82436287D01*
X149850500Y-82223713D01*
X149817246Y-82013757D01*
X149751557Y-81811588D01*
X149655051Y-81622184D01*
X149655049Y-81622181D01*
X149655048Y-81622179D01*
X149530109Y-81450213D01*
X149379786Y-81299890D01*
X149207817Y-81174949D01*
X149198504Y-81170204D01*
X149147707Y-81122230D01*
X149130912Y-81054409D01*
X149153449Y-80988274D01*
X149198507Y-80949232D01*
X149207555Y-80944622D01*
X149261716Y-80905270D01*
X149261717Y-80905270D01*
X148629408Y-80272962D01*
X148692993Y-80255925D01*
X148807007Y-80190099D01*
X148900099Y-80097007D01*
X148965925Y-79982993D01*
X148982962Y-79919408D01*
X149615270Y-80551717D01*
X149615270Y-80551716D01*
X149654622Y-80497554D01*
X149751095Y-80308217D01*
X149816757Y-80106130D01*
X149816757Y-80106127D01*
X149850000Y-79896246D01*
X149850000Y-79683753D01*
X149816757Y-79473872D01*
X149816757Y-79473869D01*
X149751095Y-79271782D01*
X149654624Y-79082449D01*
X149615270Y-79028282D01*
X149615269Y-79028282D01*
X148982962Y-79660590D01*
X148965925Y-79597007D01*
X148900099Y-79482993D01*
X148807007Y-79389901D01*
X148692993Y-79324075D01*
X148629409Y-79307037D01*
X149299627Y-78636818D01*
X149360950Y-78603333D01*
X149387307Y-78600499D01*
X149397872Y-78600499D01*
X149457483Y-78594091D01*
X149592331Y-78543796D01*
X149707546Y-78457546D01*
X149793796Y-78342331D01*
X149844091Y-78207483D01*
X149850500Y-78147873D01*
X149850499Y-76352128D01*
X149844091Y-76292517D01*
X149830664Y-76256518D01*
X149793797Y-76157671D01*
X149793793Y-76157664D01*
X149707547Y-76042455D01*
X149707544Y-76042452D01*
X149592335Y-75956206D01*
X149592328Y-75956202D01*
X149457482Y-75905908D01*
X149457483Y-75905908D01*
X149397883Y-75899501D01*
X149397881Y-75899500D01*
X149397873Y-75899500D01*
X149397864Y-75899500D01*
X147602129Y-75899500D01*
X147602123Y-75899501D01*
X147542516Y-75905908D01*
X147407671Y-75956202D01*
X147407664Y-75956206D01*
X147292455Y-76042452D01*
X147292452Y-76042455D01*
X147206206Y-76157664D01*
X147206202Y-76157671D01*
X147155908Y-76292517D01*
X147149501Y-76352116D01*
X147149501Y-76352123D01*
X147149500Y-76352135D01*
X126342567Y-76352135D01*
X126361127Y-76324358D01*
X126390824Y-76279915D01*
X126406456Y-76256518D01*
X126406459Y-76256514D01*
X126466802Y-76110832D01*
X126497565Y-75956177D01*
X126497565Y-75798493D01*
X126497565Y-75798490D01*
X126497564Y-75798488D01*
X126476741Y-75693806D01*
X126466802Y-75643838D01*
X126445417Y-75592209D01*
X126406462Y-75498162D01*
X126406455Y-75498149D01*
X126318854Y-75367046D01*
X126318851Y-75367042D01*
X126203047Y-75251238D01*
X126204522Y-75249762D01*
X126170526Y-75199874D01*
X126168642Y-75130030D01*
X126204818Y-75070254D01*
X126264328Y-75040126D01*
X126268297Y-75039337D01*
X126413979Y-74978994D01*
X126545089Y-74891389D01*
X126656589Y-74779889D01*
X126704388Y-74708353D01*
X137121500Y-74708353D01*
X137121500Y-74866046D01*
X137152261Y-75020689D01*
X137152264Y-75020701D01*
X137212602Y-75166372D01*
X137212609Y-75166385D01*
X137300210Y-75297488D01*
X137300213Y-75297492D01*
X137411707Y-75408986D01*
X137411711Y-75408989D01*
X137542814Y-75496590D01*
X137542827Y-75496597D01*
X137649110Y-75540620D01*
X137688503Y-75556937D01*
X137843153Y-75587699D01*
X137843156Y-75587700D01*
X137843158Y-75587700D01*
X138000844Y-75587700D01*
X138000845Y-75587699D01*
X138155497Y-75556937D01*
X138268166Y-75510267D01*
X138301172Y-75496597D01*
X138301172Y-75496596D01*
X138301179Y-75496594D01*
X138432289Y-75408989D01*
X138543789Y-75297489D01*
X138631394Y-75166379D01*
X138691737Y-75020697D01*
X138714783Y-74904840D01*
X138747168Y-74842929D01*
X138807884Y-74808355D01*
X138877653Y-74812094D01*
X138934325Y-74852961D01*
X138958017Y-74904840D01*
X138981061Y-75020689D01*
X138981064Y-75020701D01*
X139041402Y-75166372D01*
X139041409Y-75166385D01*
X139129010Y-75297488D01*
X139129013Y-75297492D01*
X139240507Y-75408986D01*
X139240511Y-75408989D01*
X139371614Y-75496590D01*
X139371627Y-75496597D01*
X139477910Y-75540620D01*
X139517303Y-75556937D01*
X139671953Y-75587699D01*
X139671956Y-75587700D01*
X139671958Y-75587700D01*
X139829644Y-75587700D01*
X139829645Y-75587699D01*
X139984297Y-75556937D01*
X140096966Y-75510267D01*
X140129972Y-75496597D01*
X140129972Y-75496596D01*
X140129979Y-75496594D01*
X140261089Y-75408989D01*
X140372589Y-75297489D01*
X140460194Y-75166379D01*
X140520537Y-75020697D01*
X140551300Y-74866042D01*
X140551300Y-74808358D01*
X140570985Y-74741319D01*
X140623789Y-74695564D01*
X140692947Y-74685620D01*
X140756503Y-74714645D01*
X140778401Y-74739465D01*
X140790177Y-74757089D01*
X140805412Y-74779891D01*
X140916907Y-74891386D01*
X140916911Y-74891389D01*
X141048014Y-74978990D01*
X141048027Y-74978997D01*
X141193698Y-75039335D01*
X141193703Y-75039337D01*
X141348353Y-75070099D01*
X141348356Y-75070100D01*
X141348358Y-75070100D01*
X141506044Y-75070100D01*
X141506045Y-75070099D01*
X141660697Y-75039337D01*
X141806379Y-74978994D01*
X141937489Y-74891389D01*
X142048989Y-74779889D01*
X142136594Y-74648779D01*
X142196937Y-74503097D01*
X142227700Y-74348442D01*
X142227700Y-74190758D01*
X142227700Y-74190755D01*
X142227699Y-74190753D01*
X142225597Y-74180186D01*
X142196937Y-74036103D01*
X142156130Y-73937585D01*
X142136597Y-73890427D01*
X142136590Y-73890414D01*
X142048989Y-73759311D01*
X142048986Y-73759307D01*
X141937492Y-73647813D01*
X141937488Y-73647810D01*
X141806385Y-73560209D01*
X141806372Y-73560202D01*
X141660701Y-73499864D01*
X141660689Y-73499861D01*
X141506045Y-73469100D01*
X141506042Y-73469100D01*
X141348358Y-73469100D01*
X141348355Y-73469100D01*
X141193710Y-73499861D01*
X141193698Y-73499864D01*
X141048027Y-73560202D01*
X141048014Y-73560209D01*
X140916911Y-73647810D01*
X140916907Y-73647813D01*
X140805413Y-73759307D01*
X140805410Y-73759311D01*
X140717809Y-73890414D01*
X140717802Y-73890427D01*
X140657464Y-74036098D01*
X140657461Y-74036110D01*
X140626700Y-74190753D01*
X140626700Y-74248441D01*
X140607015Y-74315480D01*
X140554211Y-74361235D01*
X140485053Y-74371179D01*
X140421497Y-74342154D01*
X140399598Y-74317332D01*
X140372589Y-74276911D01*
X140372586Y-74276907D01*
X140261092Y-74165413D01*
X140261088Y-74165410D01*
X140129985Y-74077809D01*
X140129972Y-74077802D01*
X139984301Y-74017464D01*
X139984289Y-74017461D01*
X139829645Y-73986700D01*
X139829642Y-73986700D01*
X139671958Y-73986700D01*
X139671955Y-73986700D01*
X139517310Y-74017461D01*
X139517298Y-74017464D01*
X139371627Y-74077802D01*
X139371614Y-74077809D01*
X139240511Y-74165410D01*
X139240507Y-74165413D01*
X139129013Y-74276907D01*
X139129010Y-74276911D01*
X139041409Y-74408014D01*
X139041402Y-74408027D01*
X138981064Y-74553698D01*
X138981061Y-74553710D01*
X138958017Y-74669559D01*
X138925632Y-74731470D01*
X138864916Y-74766045D01*
X138795147Y-74762305D01*
X138738475Y-74721438D01*
X138714783Y-74669559D01*
X138694999Y-74570104D01*
X138691737Y-74553703D01*
X138670777Y-74503101D01*
X138631397Y-74408027D01*
X138631390Y-74408014D01*
X138543789Y-74276911D01*
X138543786Y-74276907D01*
X138432292Y-74165413D01*
X138432288Y-74165410D01*
X138301185Y-74077809D01*
X138301172Y-74077802D01*
X138155501Y-74017464D01*
X138155489Y-74017461D01*
X138000845Y-73986700D01*
X138000842Y-73986700D01*
X137843158Y-73986700D01*
X137843155Y-73986700D01*
X137688510Y-74017461D01*
X137688498Y-74017464D01*
X137542827Y-74077802D01*
X137542814Y-74077809D01*
X137411711Y-74165410D01*
X137411707Y-74165413D01*
X137300213Y-74276907D01*
X137300210Y-74276911D01*
X137212609Y-74408014D01*
X137212602Y-74408027D01*
X137152264Y-74553698D01*
X137152261Y-74553710D01*
X137121500Y-74708353D01*
X126704388Y-74708353D01*
X126744194Y-74648779D01*
X126804537Y-74503097D01*
X126835300Y-74348442D01*
X126835300Y-74190758D01*
X126835300Y-74190755D01*
X126835299Y-74190753D01*
X126833197Y-74180186D01*
X126804537Y-74036103D01*
X126763730Y-73937585D01*
X126744197Y-73890427D01*
X126744190Y-73890414D01*
X126656589Y-73759311D01*
X126656586Y-73759307D01*
X126545092Y-73647813D01*
X126545088Y-73647810D01*
X126438467Y-73576568D01*
X126413984Y-73560209D01*
X126413972Y-73560202D01*
X126268301Y-73499864D01*
X126268289Y-73499861D01*
X126166195Y-73479553D01*
X128993500Y-73479553D01*
X128993500Y-73637246D01*
X129024261Y-73791889D01*
X129024264Y-73791901D01*
X129084602Y-73937572D01*
X129084609Y-73937585D01*
X129172210Y-74068688D01*
X129172213Y-74068692D01*
X129283707Y-74180186D01*
X129283711Y-74180189D01*
X129414814Y-74267790D01*
X129414827Y-74267797D01*
X129529946Y-74315480D01*
X129560503Y-74328137D01*
X129662603Y-74348446D01*
X129715153Y-74358899D01*
X129715156Y-74358900D01*
X129715158Y-74358900D01*
X129872844Y-74358900D01*
X129872845Y-74358899D01*
X130027497Y-74328137D01*
X130140166Y-74281467D01*
X130173172Y-74267797D01*
X130173172Y-74267796D01*
X130173179Y-74267794D01*
X130304289Y-74180189D01*
X130415789Y-74068689D01*
X130503394Y-73937579D01*
X130563737Y-73791897D01*
X130594500Y-73637242D01*
X130594500Y-73479558D01*
X130594500Y-73479555D01*
X130594499Y-73479553D01*
X130563738Y-73324910D01*
X130563737Y-73324903D01*
X130529108Y-73241300D01*
X130503397Y-73179227D01*
X130503390Y-73179214D01*
X130415789Y-73048111D01*
X130415786Y-73048107D01*
X130304292Y-72936613D01*
X130304288Y-72936610D01*
X130173185Y-72849009D01*
X130173172Y-72849002D01*
X130027501Y-72788664D01*
X130027489Y-72788661D01*
X129872845Y-72757900D01*
X129872842Y-72757900D01*
X129715158Y-72757900D01*
X129715155Y-72757900D01*
X129560510Y-72788661D01*
X129560498Y-72788664D01*
X129414827Y-72849002D01*
X129414814Y-72849009D01*
X129283711Y-72936610D01*
X129283707Y-72936613D01*
X129172213Y-73048107D01*
X129172210Y-73048111D01*
X129084609Y-73179214D01*
X129084602Y-73179227D01*
X129024264Y-73324898D01*
X129024261Y-73324910D01*
X128993500Y-73479553D01*
X126166195Y-73479553D01*
X126113645Y-73469100D01*
X126113642Y-73469100D01*
X125955958Y-73469100D01*
X125955955Y-73469100D01*
X125801310Y-73499861D01*
X125801298Y-73499864D01*
X125655627Y-73560202D01*
X125655614Y-73560209D01*
X125524511Y-73647810D01*
X125524507Y-73647813D01*
X125413013Y-73759307D01*
X125413010Y-73759311D01*
X125325409Y-73890414D01*
X125325402Y-73890427D01*
X125265064Y-74036098D01*
X125265061Y-74036110D01*
X125234300Y-74190753D01*
X125234300Y-74348446D01*
X125265061Y-74503089D01*
X125265064Y-74503101D01*
X125325402Y-74648772D01*
X125325409Y-74648785D01*
X125413010Y-74779888D01*
X125413013Y-74779892D01*
X125528818Y-74895697D01*
X125527341Y-74897173D01*
X125561336Y-74947054D01*
X125563223Y-75016899D01*
X125527050Y-75076676D01*
X125467549Y-75106805D01*
X125463577Y-75107595D01*
X125463563Y-75107599D01*
X125317892Y-75167937D01*
X125317879Y-75167944D01*
X125186776Y-75255545D01*
X125186772Y-75255548D01*
X125075278Y-75367042D01*
X125075275Y-75367046D01*
X124987674Y-75498149D01*
X124987669Y-75498158D01*
X124949755Y-75589693D01*
X124905914Y-75644096D01*
X124839620Y-75666161D01*
X124771921Y-75648882D01*
X124766303Y-75645342D01*
X124686785Y-75592209D01*
X124686772Y-75592202D01*
X124541101Y-75531864D01*
X124541089Y-75531861D01*
X124380468Y-75499911D01*
X124380708Y-75498701D01*
X124321927Y-75474959D01*
X124281573Y-75417921D01*
X124277260Y-75353533D01*
X124295300Y-75262842D01*
X124295300Y-75105158D01*
X124295300Y-75105155D01*
X124295299Y-75105153D01*
X124289666Y-75076835D01*
X124264537Y-74950503D01*
X124244769Y-74902779D01*
X124204197Y-74804827D01*
X124204190Y-74804814D01*
X124116589Y-74673711D01*
X124116586Y-74673707D01*
X124005092Y-74562213D01*
X124005088Y-74562210D01*
X123873985Y-74474609D01*
X123873972Y-74474602D01*
X123728301Y-74414264D01*
X123728289Y-74414261D01*
X123573645Y-74383500D01*
X123573642Y-74383500D01*
X123415958Y-74383500D01*
X123415955Y-74383500D01*
X123261310Y-74414261D01*
X123261298Y-74414264D01*
X123115627Y-74474602D01*
X123115614Y-74474609D01*
X122984511Y-74562210D01*
X122984507Y-74562213D01*
X122873013Y-74673707D01*
X122873010Y-74673711D01*
X122785409Y-74804814D01*
X122785402Y-74804827D01*
X122725064Y-74950498D01*
X122725061Y-74950510D01*
X122694300Y-75105153D01*
X122694300Y-75262846D01*
X122725061Y-75417489D01*
X122725064Y-75417501D01*
X122776061Y-75540620D01*
X122783530Y-75610089D01*
X122752254Y-75672568D01*
X122708952Y-75702633D01*
X122607627Y-75744602D01*
X122607614Y-75744609D01*
X122476511Y-75832210D01*
X122476507Y-75832213D01*
X122365013Y-75943707D01*
X122365009Y-75943712D01*
X122344871Y-75973850D01*
X122291258Y-76018653D01*
X122221933Y-76027359D01*
X122158906Y-75997202D01*
X122138669Y-75973847D01*
X122084589Y-75892911D01*
X122084586Y-75892907D01*
X121973092Y-75781413D01*
X121973088Y-75781410D01*
X121841985Y-75693809D01*
X121841972Y-75693802D01*
X121696301Y-75633464D01*
X121696289Y-75633461D01*
X121541645Y-75602700D01*
X121541642Y-75602700D01*
X121383958Y-75602700D01*
X121383955Y-75602700D01*
X121229310Y-75633461D01*
X121229298Y-75633464D01*
X121083627Y-75693802D01*
X121083614Y-75693809D01*
X120952511Y-75781410D01*
X120952507Y-75781413D01*
X120841013Y-75892907D01*
X120841010Y-75892911D01*
X120753409Y-76024014D01*
X120753402Y-76024027D01*
X120693064Y-76169698D01*
X120693061Y-76169710D01*
X120662300Y-76324353D01*
X100500300Y-76324353D01*
X100500300Y-70102135D01*
X101649500Y-70102135D01*
X101649500Y-71897870D01*
X101649501Y-71897876D01*
X101655908Y-71957483D01*
X101706202Y-72092328D01*
X101706206Y-72092335D01*
X101792452Y-72207544D01*
X101792455Y-72207547D01*
X101907664Y-72293793D01*
X101907671Y-72293797D01*
X102039082Y-72342810D01*
X102095016Y-72384681D01*
X102119433Y-72450145D01*
X102104582Y-72518418D01*
X102083431Y-72546673D01*
X101969889Y-72660215D01*
X101844951Y-72832179D01*
X101748444Y-73021585D01*
X101682753Y-73223760D01*
X101666734Y-73324903D01*
X101649500Y-73433713D01*
X101649500Y-73646287D01*
X101649742Y-73647813D01*
X101672562Y-73791897D01*
X101682754Y-73856243D01*
X101741194Y-74036103D01*
X101748444Y-74058414D01*
X101844951Y-74247820D01*
X101969890Y-74419786D01*
X102120213Y-74570109D01*
X102292179Y-74695048D01*
X102292181Y-74695049D01*
X102292184Y-74695051D01*
X102481588Y-74791557D01*
X102683757Y-74857246D01*
X102893713Y-74890500D01*
X102893714Y-74890500D01*
X103106286Y-74890500D01*
X103106287Y-74890500D01*
X103316243Y-74857246D01*
X103518412Y-74791557D01*
X103707816Y-74695051D01*
X103771496Y-74648785D01*
X103879786Y-74570109D01*
X103879788Y-74570106D01*
X103879792Y-74570104D01*
X104005143Y-74444753D01*
X109384700Y-74444753D01*
X109384700Y-74602446D01*
X109415461Y-74757089D01*
X109415464Y-74757101D01*
X109475802Y-74902772D01*
X109475809Y-74902785D01*
X109563410Y-75033888D01*
X109563413Y-75033892D01*
X109674907Y-75145386D01*
X109674911Y-75145389D01*
X109806014Y-75232990D01*
X109806027Y-75232997D01*
X109951698Y-75293335D01*
X109951703Y-75293337D01*
X110106353Y-75324099D01*
X110106356Y-75324100D01*
X110106358Y-75324100D01*
X110264044Y-75324100D01*
X110264045Y-75324099D01*
X110418697Y-75293337D01*
X110564379Y-75232994D01*
X110695489Y-75145389D01*
X110806989Y-75033889D01*
X110894594Y-74902779D01*
X110897528Y-74895697D01*
X110919384Y-74842929D01*
X110954937Y-74757097D01*
X110985700Y-74602442D01*
X110985700Y-74444758D01*
X110985700Y-74444755D01*
X110985699Y-74444753D01*
X110980734Y-74419792D01*
X110954937Y-74290103D01*
X110945698Y-74267797D01*
X110894597Y-74144427D01*
X110894590Y-74144414D01*
X110806989Y-74013311D01*
X110806986Y-74013307D01*
X110695492Y-73901813D01*
X110695488Y-73901810D01*
X110564385Y-73814209D01*
X110564372Y-73814202D01*
X110418701Y-73753864D01*
X110418689Y-73753861D01*
X110264045Y-73723100D01*
X110264042Y-73723100D01*
X110106358Y-73723100D01*
X110106355Y-73723100D01*
X109951710Y-73753861D01*
X109951698Y-73753864D01*
X109806027Y-73814202D01*
X109806014Y-73814209D01*
X109674911Y-73901810D01*
X109674907Y-73901813D01*
X109563413Y-74013307D01*
X109563410Y-74013311D01*
X109475809Y-74144414D01*
X109475802Y-74144427D01*
X109415464Y-74290098D01*
X109415461Y-74290110D01*
X109384700Y-74444753D01*
X104005143Y-74444753D01*
X104030104Y-74419792D01*
X104034121Y-74414263D01*
X104069346Y-74365781D01*
X104155048Y-74247820D01*
X104155047Y-74247820D01*
X104155051Y-74247816D01*
X104251557Y-74058412D01*
X104317246Y-73856243D01*
X104350500Y-73646287D01*
X104350500Y-73433713D01*
X104317246Y-73223757D01*
X104251557Y-73021588D01*
X104155051Y-72832184D01*
X104155049Y-72832181D01*
X104155048Y-72832179D01*
X104030109Y-72660213D01*
X103916569Y-72546673D01*
X103883084Y-72485350D01*
X103888068Y-72415658D01*
X103929940Y-72359725D01*
X103960915Y-72342810D01*
X104092331Y-72293796D01*
X104207546Y-72207546D01*
X104293796Y-72092331D01*
X104344091Y-71957483D01*
X104350500Y-71897873D01*
X104350500Y-71803153D01*
X112381900Y-71803153D01*
X112381900Y-71960846D01*
X112412661Y-72115489D01*
X112412664Y-72115501D01*
X112473002Y-72261172D01*
X112473009Y-72261185D01*
X112560610Y-72392288D01*
X112560613Y-72392292D01*
X112672107Y-72503786D01*
X112672111Y-72503789D01*
X112803214Y-72591390D01*
X112803227Y-72591397D01*
X112948898Y-72651735D01*
X112948903Y-72651737D01*
X113103553Y-72682499D01*
X113103556Y-72682500D01*
X113103558Y-72682500D01*
X113261244Y-72682500D01*
X113261245Y-72682499D01*
X113415897Y-72651737D01*
X113561579Y-72591394D01*
X113692689Y-72503789D01*
X113804189Y-72392289D01*
X113824459Y-72361953D01*
X120763900Y-72361953D01*
X120763900Y-72519646D01*
X120794661Y-72674289D01*
X120794664Y-72674301D01*
X120855002Y-72819972D01*
X120855009Y-72819985D01*
X120942610Y-72951088D01*
X120942613Y-72951092D01*
X121054107Y-73062586D01*
X121054111Y-73062589D01*
X121185214Y-73150190D01*
X121185227Y-73150197D01*
X121330898Y-73210535D01*
X121330903Y-73210537D01*
X121485553Y-73241299D01*
X121485556Y-73241300D01*
X121485558Y-73241300D01*
X121643244Y-73241300D01*
X121643245Y-73241299D01*
X121797897Y-73210537D01*
X121943579Y-73150194D01*
X122074689Y-73062589D01*
X122186189Y-72951089D01*
X122273794Y-72819979D01*
X122334137Y-72674297D01*
X122364900Y-72519642D01*
X122364900Y-72361958D01*
X122364900Y-72361955D01*
X122364899Y-72361953D01*
X122362206Y-72348414D01*
X122334137Y-72207303D01*
X122324898Y-72184997D01*
X122273797Y-72061627D01*
X122273790Y-72061614D01*
X122186189Y-71930511D01*
X122186186Y-71930507D01*
X122074692Y-71819013D01*
X122074688Y-71819010D01*
X121943585Y-71731409D01*
X121943572Y-71731402D01*
X121797901Y-71671064D01*
X121797889Y-71671061D01*
X121643245Y-71640300D01*
X121643242Y-71640300D01*
X121485558Y-71640300D01*
X121485555Y-71640300D01*
X121330910Y-71671061D01*
X121330898Y-71671064D01*
X121185227Y-71731402D01*
X121185214Y-71731409D01*
X121054111Y-71819010D01*
X121054107Y-71819013D01*
X120942613Y-71930507D01*
X120942610Y-71930511D01*
X120855009Y-72061614D01*
X120855002Y-72061627D01*
X120794664Y-72207298D01*
X120794661Y-72207310D01*
X120763900Y-72361953D01*
X113824459Y-72361953D01*
X113866944Y-72298370D01*
X113874558Y-72286975D01*
X113881825Y-72276099D01*
X113891794Y-72261179D01*
X113952137Y-72115497D01*
X113982900Y-71960842D01*
X113982900Y-71803158D01*
X113982900Y-71803155D01*
X113982899Y-71803153D01*
X113968628Y-71731409D01*
X113952137Y-71648503D01*
X113944391Y-71629802D01*
X113891797Y-71502827D01*
X113891793Y-71502820D01*
X113891789Y-71502814D01*
X113848414Y-71437898D01*
X113820922Y-71396753D01*
X124421500Y-71396753D01*
X124421500Y-71554446D01*
X124452261Y-71709089D01*
X124452264Y-71709101D01*
X124512602Y-71854772D01*
X124512609Y-71854785D01*
X124600210Y-71985888D01*
X124600213Y-71985892D01*
X124711707Y-72097386D01*
X124711711Y-72097389D01*
X124842814Y-72184990D01*
X124842827Y-72184997D01*
X124988498Y-72245335D01*
X124988503Y-72245337D01*
X125143153Y-72276099D01*
X125143156Y-72276100D01*
X125143158Y-72276100D01*
X125300844Y-72276100D01*
X125300845Y-72276099D01*
X125455497Y-72245337D01*
X125601179Y-72184994D01*
X125732289Y-72097389D01*
X125843789Y-71985889D01*
X125931394Y-71854779D01*
X125991737Y-71709097D01*
X126022500Y-71554442D01*
X126022500Y-71396758D01*
X126022500Y-71396755D01*
X126022499Y-71396753D01*
X130279500Y-71396753D01*
X130279500Y-71554446D01*
X130310261Y-71709089D01*
X130310264Y-71709101D01*
X130370602Y-71854772D01*
X130370609Y-71854785D01*
X130458210Y-71985888D01*
X130458213Y-71985892D01*
X130569707Y-72097386D01*
X130569711Y-72097389D01*
X130700814Y-72184990D01*
X130700827Y-72184997D01*
X130846498Y-72245335D01*
X130846503Y-72245337D01*
X131001153Y-72276099D01*
X131001156Y-72276100D01*
X131001158Y-72276100D01*
X131158844Y-72276100D01*
X131158845Y-72276099D01*
X131313497Y-72245337D01*
X131459179Y-72184994D01*
X131590289Y-72097389D01*
X131701789Y-71985889D01*
X131789394Y-71854779D01*
X131849737Y-71709097D01*
X131880500Y-71554442D01*
X131880500Y-71396758D01*
X131880500Y-71396755D01*
X131880499Y-71396753D01*
X132244700Y-71396753D01*
X132244700Y-71554446D01*
X132275461Y-71709089D01*
X132275464Y-71709101D01*
X132335802Y-71854772D01*
X132335809Y-71854785D01*
X132423410Y-71985888D01*
X132423413Y-71985892D01*
X132534907Y-72097386D01*
X132534911Y-72097389D01*
X132666014Y-72184990D01*
X132666027Y-72184997D01*
X132811698Y-72245335D01*
X132811703Y-72245337D01*
X132966353Y-72276099D01*
X132966356Y-72276100D01*
X132966358Y-72276100D01*
X133124044Y-72276100D01*
X133124045Y-72276099D01*
X133203206Y-72260353D01*
X143166700Y-72260353D01*
X143166700Y-72418046D01*
X143197461Y-72572689D01*
X143197464Y-72572701D01*
X143257802Y-72718372D01*
X143257809Y-72718385D01*
X143345410Y-72849488D01*
X143345413Y-72849492D01*
X143456907Y-72960986D01*
X143456911Y-72960989D01*
X143588014Y-73048590D01*
X143588027Y-73048597D01*
X143667601Y-73081557D01*
X143733703Y-73108937D01*
X143888353Y-73139699D01*
X143888356Y-73139700D01*
X143888358Y-73139700D01*
X144046044Y-73139700D01*
X144046045Y-73139699D01*
X144200697Y-73108937D01*
X144346379Y-73048594D01*
X144477489Y-72960989D01*
X144588989Y-72849489D01*
X144676594Y-72718379D01*
X144736937Y-72572697D01*
X144767700Y-72418042D01*
X144767700Y-72260358D01*
X144767700Y-72260355D01*
X144767699Y-72260353D01*
X144757195Y-72207546D01*
X144736937Y-72105703D01*
X144687309Y-71985889D01*
X144676597Y-71960027D01*
X144676590Y-71960014D01*
X144588989Y-71828911D01*
X144588986Y-71828907D01*
X144477492Y-71717413D01*
X144477488Y-71717410D01*
X144346385Y-71629809D01*
X144346372Y-71629802D01*
X144200701Y-71569464D01*
X144200689Y-71569461D01*
X144046045Y-71538700D01*
X144046042Y-71538700D01*
X143888358Y-71538700D01*
X143888355Y-71538700D01*
X143733710Y-71569461D01*
X143733698Y-71569464D01*
X143588027Y-71629802D01*
X143588014Y-71629809D01*
X143456911Y-71717410D01*
X143456907Y-71717413D01*
X143345413Y-71828907D01*
X143345410Y-71828911D01*
X143257809Y-71960014D01*
X143257802Y-71960027D01*
X143197464Y-72105698D01*
X143197461Y-72105710D01*
X143166700Y-72260353D01*
X133203206Y-72260353D01*
X133278697Y-72245337D01*
X133424379Y-72184994D01*
X133424385Y-72184990D01*
X133475010Y-72151164D01*
X133512774Y-72125929D01*
X133555489Y-72097389D01*
X133666989Y-71985889D01*
X133754594Y-71854779D01*
X133814937Y-71709097D01*
X133845700Y-71554442D01*
X133845700Y-71396758D01*
X133845700Y-71396755D01*
X133845699Y-71396753D01*
X133836506Y-71350537D01*
X133814937Y-71242103D01*
X133767765Y-71128218D01*
X133754597Y-71096426D01*
X133754590Y-71096414D01*
X133748201Y-71086853D01*
X137990200Y-71086853D01*
X137990200Y-71244546D01*
X138020961Y-71399189D01*
X138020964Y-71399201D01*
X138081302Y-71544872D01*
X138081309Y-71544885D01*
X138168910Y-71675988D01*
X138168913Y-71675992D01*
X138280407Y-71787486D01*
X138280411Y-71787489D01*
X138411514Y-71875090D01*
X138411527Y-71875097D01*
X138545301Y-71930507D01*
X138557203Y-71935437D01*
X138684922Y-71960842D01*
X138711853Y-71966199D01*
X138711856Y-71966200D01*
X138711858Y-71966200D01*
X138869544Y-71966200D01*
X138869545Y-71966199D01*
X139024197Y-71935437D01*
X139169879Y-71875094D01*
X139300989Y-71787489D01*
X139412489Y-71675989D01*
X139500094Y-71544879D01*
X139560437Y-71399197D01*
X139591200Y-71244542D01*
X139591200Y-71086858D01*
X139591200Y-71086855D01*
X139591199Y-71086853D01*
X139590134Y-71081500D01*
X139560437Y-70932203D01*
X139527967Y-70853813D01*
X139500097Y-70786527D01*
X139500090Y-70786514D01*
X139412489Y-70655411D01*
X139412486Y-70655407D01*
X139300992Y-70543913D01*
X139300988Y-70543910D01*
X139169885Y-70456309D01*
X139169872Y-70456302D01*
X139024201Y-70395964D01*
X139024189Y-70395961D01*
X138869545Y-70365200D01*
X138869542Y-70365200D01*
X138711858Y-70365200D01*
X138711855Y-70365200D01*
X138557210Y-70395961D01*
X138557198Y-70395964D01*
X138411527Y-70456302D01*
X138411514Y-70456309D01*
X138280411Y-70543910D01*
X138280407Y-70543913D01*
X138168913Y-70655407D01*
X138168910Y-70655411D01*
X138081309Y-70786514D01*
X138081302Y-70786527D01*
X138020964Y-70932198D01*
X138020961Y-70932210D01*
X137990200Y-71086853D01*
X133748201Y-71086853D01*
X133666989Y-70965311D01*
X133666986Y-70965307D01*
X133555492Y-70853813D01*
X133555488Y-70853810D01*
X133424385Y-70766209D01*
X133424372Y-70766202D01*
X133278701Y-70705864D01*
X133278689Y-70705861D01*
X133124045Y-70675100D01*
X133124042Y-70675100D01*
X132966358Y-70675100D01*
X132966355Y-70675100D01*
X132811710Y-70705861D01*
X132811698Y-70705864D01*
X132666027Y-70766202D01*
X132666014Y-70766209D01*
X132534911Y-70853810D01*
X132534907Y-70853813D01*
X132423413Y-70965307D01*
X132423410Y-70965311D01*
X132335809Y-71096414D01*
X132335802Y-71096427D01*
X132275464Y-71242098D01*
X132275461Y-71242110D01*
X132244700Y-71396753D01*
X131880499Y-71396753D01*
X131871306Y-71350537D01*
X131849737Y-71242103D01*
X131802565Y-71128218D01*
X131789397Y-71096427D01*
X131789390Y-71096414D01*
X131701789Y-70965311D01*
X131701786Y-70965307D01*
X131590292Y-70853813D01*
X131590288Y-70853810D01*
X131459185Y-70766209D01*
X131459172Y-70766202D01*
X131313501Y-70705864D01*
X131313489Y-70705861D01*
X131158845Y-70675100D01*
X131158842Y-70675100D01*
X131001158Y-70675100D01*
X131001155Y-70675100D01*
X130846510Y-70705861D01*
X130846498Y-70705864D01*
X130700827Y-70766202D01*
X130700814Y-70766209D01*
X130569711Y-70853810D01*
X130569707Y-70853813D01*
X130458213Y-70965307D01*
X130458210Y-70965311D01*
X130370609Y-71096414D01*
X130370602Y-71096427D01*
X130310264Y-71242098D01*
X130310261Y-71242110D01*
X130279500Y-71396753D01*
X126022499Y-71396753D01*
X126013306Y-71350537D01*
X125991737Y-71242103D01*
X125944565Y-71128218D01*
X125931397Y-71096427D01*
X125931390Y-71096414D01*
X125843789Y-70965311D01*
X125843786Y-70965307D01*
X125732292Y-70853813D01*
X125732288Y-70853810D01*
X125601185Y-70766209D01*
X125601172Y-70766202D01*
X125455501Y-70705864D01*
X125455489Y-70705861D01*
X125300845Y-70675100D01*
X125300842Y-70675100D01*
X125143158Y-70675100D01*
X125143155Y-70675100D01*
X124988510Y-70705861D01*
X124988498Y-70705864D01*
X124842827Y-70766202D01*
X124842814Y-70766209D01*
X124711711Y-70853810D01*
X124711707Y-70853813D01*
X124600213Y-70965307D01*
X124600210Y-70965311D01*
X124512609Y-71096414D01*
X124512602Y-71096427D01*
X124452264Y-71242098D01*
X124452261Y-71242110D01*
X124421500Y-71396753D01*
X113820922Y-71396753D01*
X113804189Y-71371710D01*
X113692692Y-71260213D01*
X113692688Y-71260210D01*
X113561585Y-71172609D01*
X113561572Y-71172602D01*
X113415901Y-71112264D01*
X113415889Y-71112261D01*
X113261245Y-71081500D01*
X113261242Y-71081500D01*
X113103558Y-71081500D01*
X113103555Y-71081500D01*
X112948910Y-71112261D01*
X112948898Y-71112264D01*
X112803227Y-71172602D01*
X112803214Y-71172609D01*
X112672111Y-71260210D01*
X112672107Y-71260213D01*
X112560613Y-71371707D01*
X112560610Y-71371711D01*
X112473009Y-71502814D01*
X112473002Y-71502827D01*
X112412664Y-71648498D01*
X112412661Y-71648510D01*
X112381900Y-71803153D01*
X104350500Y-71803153D01*
X104350499Y-70965311D01*
X104350499Y-70102129D01*
X104350498Y-70102123D01*
X104350497Y-70102116D01*
X104344091Y-70042517D01*
X104324151Y-69989056D01*
X104293797Y-69907671D01*
X104293793Y-69907664D01*
X104207547Y-69792455D01*
X104207544Y-69792452D01*
X104092335Y-69706206D01*
X104092328Y-69706202D01*
X103957482Y-69655908D01*
X103957483Y-69655908D01*
X103897883Y-69649501D01*
X103897881Y-69649500D01*
X103897873Y-69649500D01*
X103897864Y-69649500D01*
X102102129Y-69649500D01*
X102102123Y-69649501D01*
X102042516Y-69655908D01*
X101907671Y-69706202D01*
X101907664Y-69706206D01*
X101792455Y-69792452D01*
X101792452Y-69792455D01*
X101706206Y-69907664D01*
X101706202Y-69907671D01*
X101655908Y-70042517D01*
X101649501Y-70102116D01*
X101649501Y-70102123D01*
X101649500Y-70102135D01*
X100500300Y-70102135D01*
X100500300Y-68704353D01*
X117461900Y-68704353D01*
X117461900Y-68862046D01*
X117492661Y-69016689D01*
X117492664Y-69016701D01*
X117553002Y-69162372D01*
X117553009Y-69162385D01*
X117640610Y-69293488D01*
X117640613Y-69293492D01*
X117752107Y-69404986D01*
X117752111Y-69404989D01*
X117883214Y-69492590D01*
X117883227Y-69492597D01*
X118028898Y-69552935D01*
X118028903Y-69552937D01*
X118183553Y-69583699D01*
X118183556Y-69583700D01*
X118183558Y-69583700D01*
X118341244Y-69583700D01*
X118341245Y-69583699D01*
X118495897Y-69552937D01*
X118641579Y-69492594D01*
X118772689Y-69404989D01*
X118884189Y-69293489D01*
X118971794Y-69162379D01*
X119032137Y-69016697D01*
X119062900Y-68862042D01*
X119062900Y-68704358D01*
X119062900Y-68704355D01*
X119062899Y-68704353D01*
X119049302Y-68635998D01*
X119032137Y-68549703D01*
X119032135Y-68549698D01*
X118971797Y-68404027D01*
X118971790Y-68404014D01*
X118884189Y-68272911D01*
X118884186Y-68272907D01*
X118772692Y-68161413D01*
X118772688Y-68161410D01*
X118718149Y-68124968D01*
X118641585Y-68073809D01*
X118641572Y-68073802D01*
X118530881Y-68027953D01*
X123557900Y-68027953D01*
X123557900Y-68185646D01*
X123588661Y-68340289D01*
X123588664Y-68340301D01*
X123649002Y-68485972D01*
X123649009Y-68485985D01*
X123736610Y-68617088D01*
X123736613Y-68617092D01*
X123848107Y-68728586D01*
X123848111Y-68728589D01*
X123979214Y-68816190D01*
X123979227Y-68816197D01*
X124089918Y-68862046D01*
X124124903Y-68876537D01*
X124279553Y-68907299D01*
X124279556Y-68907300D01*
X124279558Y-68907300D01*
X124437244Y-68907300D01*
X124437245Y-68907299D01*
X124591897Y-68876537D01*
X124737579Y-68816194D01*
X124868689Y-68728589D01*
X124980189Y-68617089D01*
X125067794Y-68485979D01*
X125128137Y-68340297D01*
X125158900Y-68185642D01*
X125158900Y-68027958D01*
X125158900Y-68027955D01*
X125158899Y-68027953D01*
X125156016Y-68013461D01*
X125128137Y-67873303D01*
X125114994Y-67841572D01*
X125067797Y-67727627D01*
X125067790Y-67727614D01*
X124980189Y-67596511D01*
X124980186Y-67596507D01*
X124868692Y-67485013D01*
X124868688Y-67485010D01*
X124737585Y-67397409D01*
X124737572Y-67397402D01*
X124704137Y-67383553D01*
X134784700Y-67383553D01*
X134784700Y-67541246D01*
X134815461Y-67695889D01*
X134815464Y-67695901D01*
X134875802Y-67841572D01*
X134875809Y-67841585D01*
X134963410Y-67972688D01*
X134963413Y-67972692D01*
X135074907Y-68084186D01*
X135074911Y-68084189D01*
X135206014Y-68171790D01*
X135206027Y-68171797D01*
X135351698Y-68232135D01*
X135351703Y-68232137D01*
X135491226Y-68259890D01*
X135506353Y-68262899D01*
X135506356Y-68262900D01*
X135506358Y-68262900D01*
X135664044Y-68262900D01*
X135664045Y-68262899D01*
X135818697Y-68232137D01*
X135964379Y-68171794D01*
X136095489Y-68084189D01*
X136206989Y-67972689D01*
X136294594Y-67841579D01*
X136354937Y-67695897D01*
X136385700Y-67541242D01*
X136385700Y-67383558D01*
X136385700Y-67383555D01*
X136385699Y-67383553D01*
X136376452Y-67337064D01*
X136354937Y-67228903D01*
X136354935Y-67228898D01*
X136294597Y-67083227D01*
X136294590Y-67083214D01*
X136206989Y-66952111D01*
X136206986Y-66952107D01*
X136095492Y-66840613D01*
X136095488Y-66840610D01*
X135964385Y-66753009D01*
X135964372Y-66753002D01*
X135818701Y-66692664D01*
X135818689Y-66692661D01*
X135664045Y-66661900D01*
X135664042Y-66661900D01*
X135506358Y-66661900D01*
X135506355Y-66661900D01*
X135351710Y-66692661D01*
X135351698Y-66692664D01*
X135206027Y-66753002D01*
X135206014Y-66753009D01*
X135074911Y-66840610D01*
X135074907Y-66840613D01*
X134963413Y-66952107D01*
X134963410Y-66952111D01*
X134875809Y-67083214D01*
X134875802Y-67083227D01*
X134815464Y-67228898D01*
X134815461Y-67228910D01*
X134784700Y-67383553D01*
X124704137Y-67383553D01*
X124591901Y-67337064D01*
X124591889Y-67337061D01*
X124437245Y-67306300D01*
X124437242Y-67306300D01*
X124279558Y-67306300D01*
X124279555Y-67306300D01*
X124124910Y-67337061D01*
X124124898Y-67337064D01*
X123979227Y-67397402D01*
X123979214Y-67397409D01*
X123848111Y-67485010D01*
X123848107Y-67485013D01*
X123736613Y-67596507D01*
X123736610Y-67596511D01*
X123649009Y-67727614D01*
X123649002Y-67727627D01*
X123588664Y-67873298D01*
X123588661Y-67873310D01*
X123557900Y-68027953D01*
X118530881Y-68027953D01*
X118495901Y-68013464D01*
X118495889Y-68013461D01*
X118341245Y-67982700D01*
X118341242Y-67982700D01*
X118183558Y-67982700D01*
X118183555Y-67982700D01*
X118028910Y-68013461D01*
X118028898Y-68013464D01*
X117883227Y-68073802D01*
X117883214Y-68073809D01*
X117752111Y-68161410D01*
X117752107Y-68161413D01*
X117640613Y-68272907D01*
X117640610Y-68272911D01*
X117553009Y-68404014D01*
X117553002Y-68404027D01*
X117492664Y-68549698D01*
X117492661Y-68549710D01*
X117461900Y-68704353D01*
X100500300Y-68704353D01*
X100500300Y-65656353D01*
X110197500Y-65656353D01*
X110197500Y-65814046D01*
X110228261Y-65968689D01*
X110228264Y-65968701D01*
X110288602Y-66114372D01*
X110288609Y-66114385D01*
X110376210Y-66245488D01*
X110376213Y-66245492D01*
X110487707Y-66356986D01*
X110487711Y-66356989D01*
X110618814Y-66444590D01*
X110618827Y-66444597D01*
X110733748Y-66492198D01*
X110764503Y-66504937D01*
X110919153Y-66535699D01*
X110919156Y-66535700D01*
X110919158Y-66535700D01*
X111076844Y-66535700D01*
X111076845Y-66535699D01*
X111231497Y-66504937D01*
X111377179Y-66444594D01*
X111508289Y-66356989D01*
X111619789Y-66245489D01*
X111707394Y-66114379D01*
X111749820Y-66011953D01*
X122440300Y-66011953D01*
X122440300Y-66169646D01*
X122471061Y-66324289D01*
X122471064Y-66324301D01*
X122531402Y-66469972D01*
X122531409Y-66469985D01*
X122619010Y-66601088D01*
X122619013Y-66601092D01*
X122730507Y-66712586D01*
X122730511Y-66712589D01*
X122861614Y-66800190D01*
X122861627Y-66800197D01*
X123007298Y-66860535D01*
X123007303Y-66860537D01*
X123135173Y-66885972D01*
X123161953Y-66891299D01*
X123161956Y-66891300D01*
X123161958Y-66891300D01*
X123319644Y-66891300D01*
X123319645Y-66891299D01*
X123474297Y-66860537D01*
X123619979Y-66800194D01*
X123619980Y-66800192D01*
X123624070Y-66798499D01*
X123693540Y-66791030D01*
X123740239Y-66812610D01*
X123741446Y-66810805D01*
X123877614Y-66901790D01*
X123877627Y-66901797D01*
X123999088Y-66952107D01*
X124023303Y-66962137D01*
X124177953Y-66992899D01*
X124177956Y-66992900D01*
X124177958Y-66992900D01*
X124335644Y-66992900D01*
X124335645Y-66992899D01*
X124490297Y-66962137D01*
X124635979Y-66901794D01*
X124767089Y-66814189D01*
X124878589Y-66702689D01*
X124966194Y-66571579D01*
X124976084Y-66547703D01*
X124995739Y-66500251D01*
X125039579Y-66445847D01*
X125105873Y-66423782D01*
X125173573Y-66441061D01*
X125221184Y-66492198D01*
X125234300Y-66547703D01*
X125234300Y-66585646D01*
X125265061Y-66740289D01*
X125265064Y-66740301D01*
X125325402Y-66885972D01*
X125325409Y-66885985D01*
X125413010Y-67017088D01*
X125413013Y-67017092D01*
X125524507Y-67128586D01*
X125524511Y-67128589D01*
X125655614Y-67216190D01*
X125655627Y-67216197D01*
X125768392Y-67262905D01*
X125801303Y-67276537D01*
X125950931Y-67306300D01*
X125955953Y-67307299D01*
X125955956Y-67307300D01*
X125955958Y-67307300D01*
X126113644Y-67307300D01*
X126113645Y-67307299D01*
X126268297Y-67276537D01*
X126281809Y-67270939D01*
X126301209Y-67262905D01*
X126413972Y-67216197D01*
X126413972Y-67216196D01*
X126413979Y-67216194D01*
X126545089Y-67128589D01*
X126656589Y-67017089D01*
X126744194Y-66885979D01*
X126804537Y-66740297D01*
X126835300Y-66585642D01*
X126835300Y-66427958D01*
X126835300Y-66427955D01*
X126835299Y-66427953D01*
X126814679Y-66324289D01*
X126804537Y-66273303D01*
X126803683Y-66271242D01*
X126744197Y-66127627D01*
X126744190Y-66127614D01*
X126656589Y-65996511D01*
X126656586Y-65996507D01*
X126545092Y-65885013D01*
X126545088Y-65885010D01*
X126413985Y-65797409D01*
X126413972Y-65797402D01*
X126268301Y-65737064D01*
X126268289Y-65737061D01*
X126113645Y-65706300D01*
X126113642Y-65706300D01*
X125955958Y-65706300D01*
X125955955Y-65706300D01*
X125801310Y-65737061D01*
X125801298Y-65737064D01*
X125655627Y-65797402D01*
X125655614Y-65797409D01*
X125524511Y-65885010D01*
X125524507Y-65885013D01*
X125413013Y-65996507D01*
X125413010Y-65996511D01*
X125325409Y-66127614D01*
X125325402Y-66127627D01*
X125295861Y-66198948D01*
X125252020Y-66253352D01*
X125185726Y-66275417D01*
X125118027Y-66258138D01*
X125070416Y-66207001D01*
X125057300Y-66151496D01*
X125057300Y-66113555D01*
X125057299Y-66113553D01*
X125026537Y-65958903D01*
X124997603Y-65889049D01*
X124966197Y-65813227D01*
X124966190Y-65813214D01*
X124878589Y-65682111D01*
X124878586Y-65682107D01*
X124767092Y-65570613D01*
X124767088Y-65570610D01*
X124635985Y-65483009D01*
X124635972Y-65483002D01*
X124490301Y-65422664D01*
X124490289Y-65422661D01*
X124335645Y-65391900D01*
X124335642Y-65391900D01*
X124177958Y-65391900D01*
X124177955Y-65391900D01*
X124023310Y-65422661D01*
X124023298Y-65422664D01*
X123873528Y-65484700D01*
X123804058Y-65492169D01*
X123757359Y-65470591D01*
X123756154Y-65472395D01*
X123619985Y-65381409D01*
X123619972Y-65381402D01*
X123474301Y-65321064D01*
X123474289Y-65321061D01*
X123319645Y-65290300D01*
X123319642Y-65290300D01*
X123161958Y-65290300D01*
X123161955Y-65290300D01*
X123007310Y-65321061D01*
X123007298Y-65321064D01*
X122861627Y-65381402D01*
X122861614Y-65381409D01*
X122730511Y-65469010D01*
X122730507Y-65469013D01*
X122619013Y-65580507D01*
X122619010Y-65580511D01*
X122531409Y-65711614D01*
X122531402Y-65711627D01*
X122471064Y-65857298D01*
X122471061Y-65857310D01*
X122440300Y-66011953D01*
X111749820Y-66011953D01*
X111767737Y-65968697D01*
X111798500Y-65814042D01*
X111798500Y-65656358D01*
X111798500Y-65656355D01*
X111798499Y-65656353D01*
X111793613Y-65631790D01*
X111767737Y-65501703D01*
X111754850Y-65470591D01*
X111707397Y-65356027D01*
X111707390Y-65356014D01*
X111619789Y-65224911D01*
X111619786Y-65224907D01*
X111508292Y-65113413D01*
X111508288Y-65113410D01*
X111377185Y-65025809D01*
X111377172Y-65025802D01*
X111231501Y-64965464D01*
X111231491Y-64965461D01*
X111199425Y-64959083D01*
X111199424Y-64959082D01*
X111076845Y-64934700D01*
X111076842Y-64934700D01*
X110919158Y-64934700D01*
X110919155Y-64934700D01*
X110764510Y-64965461D01*
X110764498Y-64965464D01*
X110618827Y-65025802D01*
X110618814Y-65025809D01*
X110487711Y-65113410D01*
X110487707Y-65113413D01*
X110376213Y-65224907D01*
X110376210Y-65224911D01*
X110288609Y-65356014D01*
X110288602Y-65356027D01*
X110228264Y-65501698D01*
X110228261Y-65501710D01*
X110197500Y-65656353D01*
X100500300Y-65656353D01*
X100500300Y-64843553D01*
X128282300Y-64843553D01*
X128282300Y-65001246D01*
X128313061Y-65155889D01*
X128313064Y-65155901D01*
X128373402Y-65301572D01*
X128373409Y-65301585D01*
X128461010Y-65432688D01*
X128461013Y-65432692D01*
X128572507Y-65544186D01*
X128572511Y-65544189D01*
X128703614Y-65631790D01*
X128703627Y-65631797D01*
X128825088Y-65682107D01*
X128849303Y-65692137D01*
X128974307Y-65717002D01*
X129003953Y-65722899D01*
X129003956Y-65722900D01*
X129003958Y-65722900D01*
X129161644Y-65722900D01*
X129161645Y-65722899D01*
X129316297Y-65692137D01*
X129461979Y-65631794D01*
X129593089Y-65544189D01*
X129704589Y-65432689D01*
X129792194Y-65301579D01*
X129852537Y-65155897D01*
X129883300Y-65001242D01*
X129883300Y-64843558D01*
X129883300Y-64843555D01*
X129883299Y-64843553D01*
X129852538Y-64688910D01*
X129852537Y-64688903D01*
X129852535Y-64688898D01*
X129792197Y-64543227D01*
X129792190Y-64543214D01*
X129704589Y-64412111D01*
X129704586Y-64412107D01*
X129593092Y-64300613D01*
X129593088Y-64300610D01*
X129461985Y-64213009D01*
X129461972Y-64213002D01*
X129316301Y-64152664D01*
X129316289Y-64152661D01*
X129161645Y-64121900D01*
X129161642Y-64121900D01*
X129003958Y-64121900D01*
X129003955Y-64121900D01*
X128849310Y-64152661D01*
X128849298Y-64152664D01*
X128703627Y-64213002D01*
X128703614Y-64213009D01*
X128572511Y-64300610D01*
X128572507Y-64300613D01*
X128461013Y-64412107D01*
X128461010Y-64412111D01*
X128373409Y-64543214D01*
X128373402Y-64543227D01*
X128313064Y-64688898D01*
X128313061Y-64688910D01*
X128282300Y-64843553D01*
X100500300Y-64843553D01*
X100500300Y-62397648D01*
X101199500Y-62397648D01*
X101199500Y-62602351D01*
X101231522Y-62804534D01*
X101294781Y-62999223D01*
X101387715Y-63181613D01*
X101508028Y-63347213D01*
X101652786Y-63491971D01*
X101807749Y-63604556D01*
X101818390Y-63612287D01*
X101934607Y-63671503D01*
X102000776Y-63705218D01*
X102000778Y-63705218D01*
X102000781Y-63705220D01*
X102105137Y-63739127D01*
X102195465Y-63768477D01*
X102296557Y-63784488D01*
X102397648Y-63800500D01*
X102397649Y-63800500D01*
X102602351Y-63800500D01*
X102602352Y-63800500D01*
X102804534Y-63768477D01*
X102999219Y-63705220D01*
X103181610Y-63612287D01*
X103274590Y-63544732D01*
X103347213Y-63491971D01*
X103347215Y-63491968D01*
X103347219Y-63491966D01*
X103491966Y-63347219D01*
X103491968Y-63347215D01*
X103491971Y-63347213D01*
X103544732Y-63274590D01*
X103612287Y-63181610D01*
X103705220Y-62999219D01*
X103768477Y-62804534D01*
X103800500Y-62602352D01*
X103800500Y-62397648D01*
X147199500Y-62397648D01*
X147199500Y-62602351D01*
X147231522Y-62804534D01*
X147294781Y-62999223D01*
X147387715Y-63181613D01*
X147508028Y-63347213D01*
X147652786Y-63491971D01*
X147807749Y-63604556D01*
X147818390Y-63612287D01*
X147934607Y-63671503D01*
X148000776Y-63705218D01*
X148000778Y-63705218D01*
X148000781Y-63705220D01*
X148105137Y-63739127D01*
X148195465Y-63768477D01*
X148296557Y-63784488D01*
X148397648Y-63800500D01*
X148397649Y-63800500D01*
X148602351Y-63800500D01*
X148602352Y-63800500D01*
X148804534Y-63768477D01*
X148999219Y-63705220D01*
X149181610Y-63612287D01*
X149274590Y-63544732D01*
X149347213Y-63491971D01*
X149347215Y-63491968D01*
X149347219Y-63491966D01*
X149491966Y-63347219D01*
X149491968Y-63347215D01*
X149491971Y-63347213D01*
X149544732Y-63274590D01*
X149612287Y-63181610D01*
X149705220Y-62999219D01*
X149768477Y-62804534D01*
X149800500Y-62602352D01*
X149800500Y-62397648D01*
X149768477Y-62195466D01*
X149705220Y-62000781D01*
X149705218Y-62000778D01*
X149705218Y-62000776D01*
X149671503Y-61934607D01*
X149612287Y-61818390D01*
X149604556Y-61807749D01*
X149491971Y-61652786D01*
X149347213Y-61508028D01*
X149181613Y-61387715D01*
X149181612Y-61387714D01*
X149181610Y-61387713D01*
X149124653Y-61358691D01*
X148999223Y-61294781D01*
X148804534Y-61231522D01*
X148629995Y-61203878D01*
X148602352Y-61199500D01*
X148397648Y-61199500D01*
X148373329Y-61203351D01*
X148195465Y-61231522D01*
X148000776Y-61294781D01*
X147818386Y-61387715D01*
X147652786Y-61508028D01*
X147508028Y-61652786D01*
X147387715Y-61818386D01*
X147294781Y-62000776D01*
X147231522Y-62195465D01*
X147199500Y-62397648D01*
X103800500Y-62397648D01*
X103768477Y-62195466D01*
X103705220Y-62000781D01*
X103705218Y-62000778D01*
X103705218Y-62000776D01*
X103671503Y-61934607D01*
X103612287Y-61818390D01*
X103604556Y-61807749D01*
X103491971Y-61652786D01*
X103347213Y-61508028D01*
X103181613Y-61387715D01*
X103181612Y-61387714D01*
X103181610Y-61387713D01*
X103124653Y-61358691D01*
X102999223Y-61294781D01*
X102804534Y-61231522D01*
X102629995Y-61203878D01*
X102602352Y-61199500D01*
X102397648Y-61199500D01*
X102373329Y-61203351D01*
X102195465Y-61231522D01*
X102000776Y-61294781D01*
X101818386Y-61387715D01*
X101652786Y-61508028D01*
X101508028Y-61652786D01*
X101387715Y-61818386D01*
X101294781Y-62000776D01*
X101231522Y-62195465D01*
X101199500Y-62397648D01*
X100500300Y-62397648D01*
X100500300Y-60644700D01*
X100519985Y-60577661D01*
X100572789Y-60531906D01*
X100624300Y-60520700D01*
X150353100Y-60520700D01*
X150420139Y-60540385D01*
G37*
%TD.AperFunction*%
%TA.AperFunction,Conductor*%
G36*
X150115270Y-67511717D02*
G01*
X150115270Y-67511716D01*
X150154622Y-67457554D01*
X150242615Y-67284861D01*
X150290590Y-67234065D01*
X150358411Y-67217270D01*
X150424546Y-67239808D01*
X150467997Y-67294523D01*
X150477100Y-67341156D01*
X150477100Y-68697743D01*
X150457415Y-68764782D01*
X150404611Y-68810537D01*
X150335453Y-68820481D01*
X150271897Y-68791456D01*
X150242615Y-68754038D01*
X150185397Y-68641742D01*
X150155051Y-68582184D01*
X150155049Y-68582181D01*
X150155048Y-68582179D01*
X150030109Y-68410213D01*
X149879786Y-68259890D01*
X149707817Y-68134949D01*
X149698504Y-68130204D01*
X149647707Y-68082230D01*
X149630912Y-68014409D01*
X149653449Y-67948274D01*
X149698507Y-67909232D01*
X149707555Y-67904622D01*
X149761716Y-67865270D01*
X149761717Y-67865270D01*
X149129408Y-67232962D01*
X149192993Y-67215925D01*
X149307007Y-67150099D01*
X149400099Y-67057007D01*
X149465925Y-66942993D01*
X149482962Y-66879408D01*
X150115270Y-67511717D01*
G37*
%TD.AperFunction*%
%TA.AperFunction,Conductor*%
G36*
X148534075Y-66942993D02*
G01*
X148599901Y-67057007D01*
X148692993Y-67150099D01*
X148807007Y-67215925D01*
X148870590Y-67232962D01*
X148238282Y-67865269D01*
X148238282Y-67865270D01*
X148292452Y-67904626D01*
X148292451Y-67904626D01*
X148301495Y-67909234D01*
X148352292Y-67957208D01*
X148369087Y-68025029D01*
X148346550Y-68091164D01*
X148301499Y-68130202D01*
X148292182Y-68134949D01*
X148120213Y-68259890D01*
X147969890Y-68410213D01*
X147844949Y-68582182D01*
X147840484Y-68590946D01*
X147792509Y-68641742D01*
X147724688Y-68658536D01*
X147658553Y-68635998D01*
X147619516Y-68590946D01*
X147615050Y-68582182D01*
X147490109Y-68410213D01*
X147376569Y-68296673D01*
X147343084Y-68235350D01*
X147348068Y-68165658D01*
X147389940Y-68109725D01*
X147420915Y-68092810D01*
X147552331Y-68043796D01*
X147667546Y-67957546D01*
X147753796Y-67842331D01*
X147804091Y-67707483D01*
X147810500Y-67647873D01*
X147810499Y-67637312D01*
X147830179Y-67570275D01*
X147846818Y-67549626D01*
X148517037Y-66879408D01*
X148534075Y-66942993D01*
G37*
%TD.AperFunction*%
%TD*%
M02*
