%TF.GenerationSoftware,KiCad,Pcbnew,10.0.1*%
%TF.CreationDate,2026-05-18T09:29:04-07:00*%
%TF.ProjectId,MCU Datalogger,4d435520-4461-4746-916c-6f676765722e,1*%
%TF.SameCoordinates,Original*%
%TF.FileFunction,Plated,1,4,PTH,Drill*%
%TF.FilePolarity,Positive*%
%FSLAX46Y46*%
G04 Gerber Fmt 4.6, Leading zero omitted, Abs format (unit mm)*
G04 Created by KiCad (PCBNEW 10.0.1) date 2026-05-18 09:29:04*
%MOMM*%
%LPD*%
G01*
G04 APERTURE LIST*
%TA.AperFunction,ViaDrill*%
%ADD10C,0.300000*%
%TD*%
%TA.AperFunction,ViaDrill*%
%ADD11C,0.400000*%
%TD*%
%TA.AperFunction,ComponentDrill*%
%ADD12C,1.000000*%
%TD*%
G04 APERTURE END LIST*
D10*
X107543600Y-84683600D03*
X110185200Y-74523600D03*
X110998000Y-65735200D03*
X113182400Y-71882000D03*
X118262400Y-68783200D03*
X118405200Y-77320000D03*
X121462800Y-76403200D03*
X121564400Y-72440800D03*
X121731651Y-80297142D03*
X122986800Y-76454000D03*
X123240800Y-66090800D03*
X123494800Y-75184000D03*
X124256800Y-66192400D03*
X124307600Y-76301600D03*
X124358400Y-68106800D03*
X125222000Y-71475600D03*
X125323600Y-82143600D03*
X125697065Y-75877335D03*
X126034800Y-66506800D03*
X126034800Y-74269600D03*
X127000000Y-79867200D03*
X128524000Y-85496400D03*
X129082800Y-64922400D03*
X129794000Y-73558400D03*
X130149600Y-78130400D03*
X131080000Y-71475600D03*
X132211093Y-87448107D03*
X133045200Y-71475600D03*
X133045200Y-82245200D03*
X133045200Y-86004400D03*
X135585200Y-67462400D03*
X136855200Y-82194400D03*
X137922000Y-74787200D03*
X138790700Y-71165700D03*
X139750800Y-74787200D03*
X141427200Y-74269600D03*
X143967200Y-72339200D03*
D11*
X104038400Y-65684400D03*
X105714800Y-72339200D03*
X106273600Y-87680800D03*
X113334800Y-77876400D03*
X115011200Y-69748400D03*
X116128800Y-63144400D03*
X116147200Y-86055200D03*
X136855200Y-71780400D03*
X136906000Y-77012800D03*
D12*
%TO.C,BT1*%
X103000000Y-71000000D03*
X103000000Y-73540000D03*
%TO.C,J2*%
X107210000Y-92500000D03*
X109750000Y-92500000D03*
X112290000Y-92500000D03*
X114830000Y-92500000D03*
X117370000Y-92500000D03*
X119910000Y-92500000D03*
X122450000Y-92500000D03*
X124990000Y-92500000D03*
X127530000Y-92500000D03*
%TO.C,J3*%
X133630000Y-92500000D03*
X136170000Y-92500000D03*
X138710000Y-92500000D03*
X141250000Y-92500000D03*
%TO.C,J4*%
X146460000Y-66750000D03*
X146460000Y-69290000D03*
X146460000Y-71830000D03*
%TO.C,J1*%
X148500000Y-77250000D03*
X148500000Y-79790000D03*
X148500000Y-82330000D03*
X148500000Y-84870000D03*
%TO.C,J4*%
X149000000Y-66750000D03*
X149000000Y-69290000D03*
X149000000Y-71830000D03*
M02*
