%TF.GenerationSoftware,KiCad,Pcbnew,10.0.1*%
%TF.CreationDate,2026-05-18T09:28:43-07:00*%
%TF.ProjectId,MCU Datalogger,4d435520-4461-4746-916c-6f676765722e,1*%
%TF.SameCoordinates,Original*%
%TF.FileFunction,Legend,Top*%
%TF.FilePolarity,Positive*%
%FSLAX46Y46*%
G04 Gerber Fmt 4.6, Leading zero omitted, Abs format (unit mm)*
G04 Created by KiCad (PCBNEW 10.0.1) date 2026-05-18 09:28:43*
%MOMM*%
%LPD*%
G01*
G04 APERTURE LIST*
%ADD10C,0.200000*%
%ADD11C,0.100000*%
%ADD12C,0.150000*%
%ADD13C,0.120000*%
%ADD14C,0.127000*%
G04 APERTURE END LIST*
D10*
X139293600Y-81254600D02*
X144068800Y-81254600D01*
X144068800Y-88671400D01*
X139293600Y-88671400D01*
X139293600Y-81254600D01*
D11*
X140228250Y-86134212D02*
X139528250Y-86134212D01*
X140161583Y-85400879D02*
X140194917Y-85434212D01*
X140194917Y-85434212D02*
X140228250Y-85534212D01*
X140228250Y-85534212D02*
X140228250Y-85600879D01*
X140228250Y-85600879D02*
X140194917Y-85700879D01*
X140194917Y-85700879D02*
X140128250Y-85767546D01*
X140128250Y-85767546D02*
X140061583Y-85800879D01*
X140061583Y-85800879D02*
X139928250Y-85834212D01*
X139928250Y-85834212D02*
X139828250Y-85834212D01*
X139828250Y-85834212D02*
X139694917Y-85800879D01*
X139694917Y-85800879D02*
X139628250Y-85767546D01*
X139628250Y-85767546D02*
X139561583Y-85700879D01*
X139561583Y-85700879D02*
X139528250Y-85600879D01*
X139528250Y-85600879D02*
X139528250Y-85534212D01*
X139528250Y-85534212D02*
X139561583Y-85434212D01*
X139561583Y-85434212D02*
X139594917Y-85400879D01*
X140194917Y-85134212D02*
X140228250Y-85034212D01*
X140228250Y-85034212D02*
X140228250Y-84867546D01*
X140228250Y-84867546D02*
X140194917Y-84800879D01*
X140194917Y-84800879D02*
X140161583Y-84767546D01*
X140161583Y-84767546D02*
X140094917Y-84734212D01*
X140094917Y-84734212D02*
X140028250Y-84734212D01*
X140028250Y-84734212D02*
X139961583Y-84767546D01*
X139961583Y-84767546D02*
X139928250Y-84800879D01*
X139928250Y-84800879D02*
X139894917Y-84867546D01*
X139894917Y-84867546D02*
X139861583Y-85000879D01*
X139861583Y-85000879D02*
X139828250Y-85067546D01*
X139828250Y-85067546D02*
X139794917Y-85100879D01*
X139794917Y-85100879D02*
X139728250Y-85134212D01*
X139728250Y-85134212D02*
X139661583Y-85134212D01*
X139661583Y-85134212D02*
X139594917Y-85100879D01*
X139594917Y-85100879D02*
X139561583Y-85067546D01*
X139561583Y-85067546D02*
X139528250Y-85000879D01*
X139528250Y-85000879D02*
X139528250Y-84834212D01*
X139528250Y-84834212D02*
X139561583Y-84734212D01*
X140228250Y-84434212D02*
X139528250Y-84434212D01*
X139528250Y-84434212D02*
X139528250Y-84167545D01*
X139528250Y-84167545D02*
X139561583Y-84100879D01*
X139561583Y-84100879D02*
X139594917Y-84067545D01*
X139594917Y-84067545D02*
X139661583Y-84034212D01*
X139661583Y-84034212D02*
X139761583Y-84034212D01*
X139761583Y-84034212D02*
X139828250Y-84067545D01*
X139828250Y-84067545D02*
X139861583Y-84100879D01*
X139861583Y-84100879D02*
X139894917Y-84167545D01*
X139894917Y-84167545D02*
X139894917Y-84434212D01*
X141355211Y-88267544D02*
X140655211Y-88267544D01*
X140655211Y-88267544D02*
X141155211Y-88034211D01*
X141155211Y-88034211D02*
X140655211Y-87800877D01*
X140655211Y-87800877D02*
X141355211Y-87800877D01*
X141355211Y-87467544D02*
X140655211Y-87467544D01*
X141321878Y-87167544D02*
X141355211Y-87067544D01*
X141355211Y-87067544D02*
X141355211Y-86900878D01*
X141355211Y-86900878D02*
X141321878Y-86834211D01*
X141321878Y-86834211D02*
X141288544Y-86800878D01*
X141288544Y-86800878D02*
X141221878Y-86767544D01*
X141221878Y-86767544D02*
X141155211Y-86767544D01*
X141155211Y-86767544D02*
X141088544Y-86800878D01*
X141088544Y-86800878D02*
X141055211Y-86834211D01*
X141055211Y-86834211D02*
X141021878Y-86900878D01*
X141021878Y-86900878D02*
X140988544Y-87034211D01*
X140988544Y-87034211D02*
X140955211Y-87100878D01*
X140955211Y-87100878D02*
X140921878Y-87134211D01*
X140921878Y-87134211D02*
X140855211Y-87167544D01*
X140855211Y-87167544D02*
X140788544Y-87167544D01*
X140788544Y-87167544D02*
X140721878Y-87134211D01*
X140721878Y-87134211D02*
X140688544Y-87100878D01*
X140688544Y-87100878D02*
X140655211Y-87034211D01*
X140655211Y-87034211D02*
X140655211Y-86867544D01*
X140655211Y-86867544D02*
X140688544Y-86767544D01*
X140655211Y-86334211D02*
X140655211Y-86200877D01*
X140655211Y-86200877D02*
X140688544Y-86134211D01*
X140688544Y-86134211D02*
X140755211Y-86067544D01*
X140755211Y-86067544D02*
X140888544Y-86034211D01*
X140888544Y-86034211D02*
X141121878Y-86034211D01*
X141121878Y-86034211D02*
X141255211Y-86067544D01*
X141255211Y-86067544D02*
X141321878Y-86134211D01*
X141321878Y-86134211D02*
X141355211Y-86200877D01*
X141355211Y-86200877D02*
X141355211Y-86334211D01*
X141355211Y-86334211D02*
X141321878Y-86400877D01*
X141321878Y-86400877D02*
X141255211Y-86467544D01*
X141255211Y-86467544D02*
X141121878Y-86500877D01*
X141121878Y-86500877D02*
X140888544Y-86500877D01*
X140888544Y-86500877D02*
X140755211Y-86467544D01*
X140755211Y-86467544D02*
X140688544Y-86400877D01*
X140688544Y-86400877D02*
X140655211Y-86334211D01*
X141588544Y-85034211D02*
X140588544Y-85034211D01*
X140655211Y-84100878D02*
X141355211Y-83867545D01*
X141355211Y-83867545D02*
X140655211Y-83634211D01*
X141288544Y-83000878D02*
X141321878Y-83034211D01*
X141321878Y-83034211D02*
X141355211Y-83134211D01*
X141355211Y-83134211D02*
X141355211Y-83200878D01*
X141355211Y-83200878D02*
X141321878Y-83300878D01*
X141321878Y-83300878D02*
X141255211Y-83367545D01*
X141255211Y-83367545D02*
X141188544Y-83400878D01*
X141188544Y-83400878D02*
X141055211Y-83434211D01*
X141055211Y-83434211D02*
X140955211Y-83434211D01*
X140955211Y-83434211D02*
X140821878Y-83400878D01*
X140821878Y-83400878D02*
X140755211Y-83367545D01*
X140755211Y-83367545D02*
X140688544Y-83300878D01*
X140688544Y-83300878D02*
X140655211Y-83200878D01*
X140655211Y-83200878D02*
X140655211Y-83134211D01*
X140655211Y-83134211D02*
X140688544Y-83034211D01*
X140688544Y-83034211D02*
X140721878Y-83000878D01*
X141288544Y-82300878D02*
X141321878Y-82334211D01*
X141321878Y-82334211D02*
X141355211Y-82434211D01*
X141355211Y-82434211D02*
X141355211Y-82500878D01*
X141355211Y-82500878D02*
X141321878Y-82600878D01*
X141321878Y-82600878D02*
X141255211Y-82667545D01*
X141255211Y-82667545D02*
X141188544Y-82700878D01*
X141188544Y-82700878D02*
X141055211Y-82734211D01*
X141055211Y-82734211D02*
X140955211Y-82734211D01*
X140955211Y-82734211D02*
X140821878Y-82700878D01*
X140821878Y-82700878D02*
X140755211Y-82667545D01*
X140755211Y-82667545D02*
X140688544Y-82600878D01*
X140688544Y-82600878D02*
X140655211Y-82500878D01*
X140655211Y-82500878D02*
X140655211Y-82434211D01*
X140655211Y-82434211D02*
X140688544Y-82334211D01*
X140688544Y-82334211D02*
X140721878Y-82300878D01*
X142448839Y-88300877D02*
X142482172Y-88200877D01*
X142482172Y-88200877D02*
X142482172Y-88034211D01*
X142482172Y-88034211D02*
X142448839Y-87967544D01*
X142448839Y-87967544D02*
X142415505Y-87934211D01*
X142415505Y-87934211D02*
X142348839Y-87900877D01*
X142348839Y-87900877D02*
X142282172Y-87900877D01*
X142282172Y-87900877D02*
X142215505Y-87934211D01*
X142215505Y-87934211D02*
X142182172Y-87967544D01*
X142182172Y-87967544D02*
X142148839Y-88034211D01*
X142148839Y-88034211D02*
X142115505Y-88167544D01*
X142115505Y-88167544D02*
X142082172Y-88234211D01*
X142082172Y-88234211D02*
X142048839Y-88267544D01*
X142048839Y-88267544D02*
X141982172Y-88300877D01*
X141982172Y-88300877D02*
X141915505Y-88300877D01*
X141915505Y-88300877D02*
X141848839Y-88267544D01*
X141848839Y-88267544D02*
X141815505Y-88234211D01*
X141815505Y-88234211D02*
X141782172Y-88167544D01*
X141782172Y-88167544D02*
X141782172Y-88000877D01*
X141782172Y-88000877D02*
X141815505Y-87900877D01*
X142415505Y-87200877D02*
X142448839Y-87234210D01*
X142448839Y-87234210D02*
X142482172Y-87334210D01*
X142482172Y-87334210D02*
X142482172Y-87400877D01*
X142482172Y-87400877D02*
X142448839Y-87500877D01*
X142448839Y-87500877D02*
X142382172Y-87567544D01*
X142382172Y-87567544D02*
X142315505Y-87600877D01*
X142315505Y-87600877D02*
X142182172Y-87634210D01*
X142182172Y-87634210D02*
X142082172Y-87634210D01*
X142082172Y-87634210D02*
X141948839Y-87600877D01*
X141948839Y-87600877D02*
X141882172Y-87567544D01*
X141882172Y-87567544D02*
X141815505Y-87500877D01*
X141815505Y-87500877D02*
X141782172Y-87400877D01*
X141782172Y-87400877D02*
X141782172Y-87334210D01*
X141782172Y-87334210D02*
X141815505Y-87234210D01*
X141815505Y-87234210D02*
X141848839Y-87200877D01*
X142482172Y-86900877D02*
X141782172Y-86900877D01*
X142482172Y-86500877D02*
X142082172Y-86800877D01*
X141782172Y-86500877D02*
X142182172Y-86900877D01*
X142715505Y-84967544D02*
X141715505Y-84967544D01*
X142482172Y-83934211D02*
X141782172Y-83934211D01*
X141782172Y-83934211D02*
X142282172Y-83700878D01*
X142282172Y-83700878D02*
X141782172Y-83467544D01*
X141782172Y-83467544D02*
X142482172Y-83467544D01*
X141782172Y-83000878D02*
X141782172Y-82867544D01*
X141782172Y-82867544D02*
X141815505Y-82800878D01*
X141815505Y-82800878D02*
X141882172Y-82734211D01*
X141882172Y-82734211D02*
X142015505Y-82700878D01*
X142015505Y-82700878D02*
X142248839Y-82700878D01*
X142248839Y-82700878D02*
X142382172Y-82734211D01*
X142382172Y-82734211D02*
X142448839Y-82800878D01*
X142448839Y-82800878D02*
X142482172Y-82867544D01*
X142482172Y-82867544D02*
X142482172Y-83000878D01*
X142482172Y-83000878D02*
X142448839Y-83067544D01*
X142448839Y-83067544D02*
X142382172Y-83134211D01*
X142382172Y-83134211D02*
X142248839Y-83167544D01*
X142248839Y-83167544D02*
X142015505Y-83167544D01*
X142015505Y-83167544D02*
X141882172Y-83134211D01*
X141882172Y-83134211D02*
X141815505Y-83067544D01*
X141815505Y-83067544D02*
X141782172Y-83000878D01*
X142448839Y-82434211D02*
X142482172Y-82334211D01*
X142482172Y-82334211D02*
X142482172Y-82167545D01*
X142482172Y-82167545D02*
X142448839Y-82100878D01*
X142448839Y-82100878D02*
X142415505Y-82067545D01*
X142415505Y-82067545D02*
X142348839Y-82034211D01*
X142348839Y-82034211D02*
X142282172Y-82034211D01*
X142282172Y-82034211D02*
X142215505Y-82067545D01*
X142215505Y-82067545D02*
X142182172Y-82100878D01*
X142182172Y-82100878D02*
X142148839Y-82167545D01*
X142148839Y-82167545D02*
X142115505Y-82300878D01*
X142115505Y-82300878D02*
X142082172Y-82367545D01*
X142082172Y-82367545D02*
X142048839Y-82400878D01*
X142048839Y-82400878D02*
X141982172Y-82434211D01*
X141982172Y-82434211D02*
X141915505Y-82434211D01*
X141915505Y-82434211D02*
X141848839Y-82400878D01*
X141848839Y-82400878D02*
X141815505Y-82367545D01*
X141815505Y-82367545D02*
X141782172Y-82300878D01*
X141782172Y-82300878D02*
X141782172Y-82134211D01*
X141782172Y-82134211D02*
X141815505Y-82034211D01*
X142482172Y-81734211D02*
X141782172Y-81734211D01*
X143609133Y-87867544D02*
X143275800Y-88100877D01*
X143609133Y-88267544D02*
X142909133Y-88267544D01*
X142909133Y-88267544D02*
X142909133Y-88000877D01*
X142909133Y-88000877D02*
X142942466Y-87934211D01*
X142942466Y-87934211D02*
X142975800Y-87900877D01*
X142975800Y-87900877D02*
X143042466Y-87867544D01*
X143042466Y-87867544D02*
X143142466Y-87867544D01*
X143142466Y-87867544D02*
X143209133Y-87900877D01*
X143209133Y-87900877D02*
X143242466Y-87934211D01*
X143242466Y-87934211D02*
X143275800Y-88000877D01*
X143275800Y-88000877D02*
X143275800Y-88267544D01*
X143242466Y-87567544D02*
X143242466Y-87334211D01*
X143609133Y-87234211D02*
X143609133Y-87567544D01*
X143609133Y-87567544D02*
X142909133Y-87567544D01*
X142909133Y-87567544D02*
X142909133Y-87234211D01*
X143575800Y-86967544D02*
X143609133Y-86867544D01*
X143609133Y-86867544D02*
X143609133Y-86700878D01*
X143609133Y-86700878D02*
X143575800Y-86634211D01*
X143575800Y-86634211D02*
X143542466Y-86600878D01*
X143542466Y-86600878D02*
X143475800Y-86567544D01*
X143475800Y-86567544D02*
X143409133Y-86567544D01*
X143409133Y-86567544D02*
X143342466Y-86600878D01*
X143342466Y-86600878D02*
X143309133Y-86634211D01*
X143309133Y-86634211D02*
X143275800Y-86700878D01*
X143275800Y-86700878D02*
X143242466Y-86834211D01*
X143242466Y-86834211D02*
X143209133Y-86900878D01*
X143209133Y-86900878D02*
X143175800Y-86934211D01*
X143175800Y-86934211D02*
X143109133Y-86967544D01*
X143109133Y-86967544D02*
X143042466Y-86967544D01*
X143042466Y-86967544D02*
X142975800Y-86934211D01*
X142975800Y-86934211D02*
X142942466Y-86900878D01*
X142942466Y-86900878D02*
X142909133Y-86834211D01*
X142909133Y-86834211D02*
X142909133Y-86667544D01*
X142909133Y-86667544D02*
X142942466Y-86567544D01*
X143242466Y-86267544D02*
X143242466Y-86034211D01*
X143609133Y-85934211D02*
X143609133Y-86267544D01*
X143609133Y-86267544D02*
X142909133Y-86267544D01*
X142909133Y-86267544D02*
X142909133Y-85934211D01*
X142909133Y-85734211D02*
X142909133Y-85334211D01*
X143609133Y-85534211D02*
X142909133Y-85534211D01*
X143842466Y-84934211D02*
X142842466Y-84934211D01*
X142942466Y-83534211D02*
X142909133Y-83600878D01*
X142909133Y-83600878D02*
X142909133Y-83700878D01*
X142909133Y-83700878D02*
X142942466Y-83800878D01*
X142942466Y-83800878D02*
X143009133Y-83867545D01*
X143009133Y-83867545D02*
X143075800Y-83900878D01*
X143075800Y-83900878D02*
X143209133Y-83934211D01*
X143209133Y-83934211D02*
X143309133Y-83934211D01*
X143309133Y-83934211D02*
X143442466Y-83900878D01*
X143442466Y-83900878D02*
X143509133Y-83867545D01*
X143509133Y-83867545D02*
X143575800Y-83800878D01*
X143575800Y-83800878D02*
X143609133Y-83700878D01*
X143609133Y-83700878D02*
X143609133Y-83634211D01*
X143609133Y-83634211D02*
X143575800Y-83534211D01*
X143575800Y-83534211D02*
X143542466Y-83500878D01*
X143542466Y-83500878D02*
X143309133Y-83500878D01*
X143309133Y-83500878D02*
X143309133Y-83634211D01*
X143609133Y-83200878D02*
X142909133Y-83200878D01*
X142909133Y-83200878D02*
X143609133Y-82800878D01*
X143609133Y-82800878D02*
X142909133Y-82800878D01*
X143609133Y-82467545D02*
X142909133Y-82467545D01*
X142909133Y-82467545D02*
X142909133Y-82300878D01*
X142909133Y-82300878D02*
X142942466Y-82200878D01*
X142942466Y-82200878D02*
X143009133Y-82134212D01*
X143009133Y-82134212D02*
X143075800Y-82100878D01*
X143075800Y-82100878D02*
X143209133Y-82067545D01*
X143209133Y-82067545D02*
X143309133Y-82067545D01*
X143309133Y-82067545D02*
X143442466Y-82100878D01*
X143442466Y-82100878D02*
X143509133Y-82134212D01*
X143509133Y-82134212D02*
X143575800Y-82200878D01*
X143575800Y-82200878D02*
X143609133Y-82300878D01*
X143609133Y-82300878D02*
X143609133Y-82467545D01*
D12*
X107508207Y-90494295D02*
X107051064Y-90494295D01*
X107279636Y-90494295D02*
X107279636Y-89694295D01*
X107279636Y-89694295D02*
X107203445Y-89808580D01*
X107203445Y-89808580D02*
X107127255Y-89884771D01*
X107127255Y-89884771D02*
X107051064Y-89922866D01*
X109651064Y-89770485D02*
X109689160Y-89732390D01*
X109689160Y-89732390D02*
X109765350Y-89694295D01*
X109765350Y-89694295D02*
X109955826Y-89694295D01*
X109955826Y-89694295D02*
X110032017Y-89732390D01*
X110032017Y-89732390D02*
X110070112Y-89770485D01*
X110070112Y-89770485D02*
X110108207Y-89846676D01*
X110108207Y-89846676D02*
X110108207Y-89922866D01*
X110108207Y-89922866D02*
X110070112Y-90037152D01*
X110070112Y-90037152D02*
X109612969Y-90494295D01*
X109612969Y-90494295D02*
X110108207Y-90494295D01*
X112112969Y-89694295D02*
X112608207Y-89694295D01*
X112608207Y-89694295D02*
X112341541Y-89999057D01*
X112341541Y-89999057D02*
X112455826Y-89999057D01*
X112455826Y-89999057D02*
X112532017Y-90037152D01*
X112532017Y-90037152D02*
X112570112Y-90075247D01*
X112570112Y-90075247D02*
X112608207Y-90151438D01*
X112608207Y-90151438D02*
X112608207Y-90341914D01*
X112608207Y-90341914D02*
X112570112Y-90418104D01*
X112570112Y-90418104D02*
X112532017Y-90456200D01*
X112532017Y-90456200D02*
X112455826Y-90494295D01*
X112455826Y-90494295D02*
X112227255Y-90494295D01*
X112227255Y-90494295D02*
X112151064Y-90456200D01*
X112151064Y-90456200D02*
X112112969Y-90418104D01*
X115232017Y-89960961D02*
X115232017Y-90494295D01*
X115041541Y-89656200D02*
X114851064Y-90227628D01*
X114851064Y-90227628D02*
X115346303Y-90227628D01*
X117870112Y-89694295D02*
X117489160Y-89694295D01*
X117489160Y-89694295D02*
X117451064Y-90075247D01*
X117451064Y-90075247D02*
X117489160Y-90037152D01*
X117489160Y-90037152D02*
X117565350Y-89999057D01*
X117565350Y-89999057D02*
X117755826Y-89999057D01*
X117755826Y-89999057D02*
X117832017Y-90037152D01*
X117832017Y-90037152D02*
X117870112Y-90075247D01*
X117870112Y-90075247D02*
X117908207Y-90151438D01*
X117908207Y-90151438D02*
X117908207Y-90341914D01*
X117908207Y-90341914D02*
X117870112Y-90418104D01*
X117870112Y-90418104D02*
X117832017Y-90456200D01*
X117832017Y-90456200D02*
X117755826Y-90494295D01*
X117755826Y-90494295D02*
X117565350Y-90494295D01*
X117565350Y-90494295D02*
X117489160Y-90456200D01*
X117489160Y-90456200D02*
X117451064Y-90418104D01*
X120232017Y-89694295D02*
X120079636Y-89694295D01*
X120079636Y-89694295D02*
X120003445Y-89732390D01*
X120003445Y-89732390D02*
X119965350Y-89770485D01*
X119965350Y-89770485D02*
X119889160Y-89884771D01*
X119889160Y-89884771D02*
X119851064Y-90037152D01*
X119851064Y-90037152D02*
X119851064Y-90341914D01*
X119851064Y-90341914D02*
X119889160Y-90418104D01*
X119889160Y-90418104D02*
X119927255Y-90456200D01*
X119927255Y-90456200D02*
X120003445Y-90494295D01*
X120003445Y-90494295D02*
X120155826Y-90494295D01*
X120155826Y-90494295D02*
X120232017Y-90456200D01*
X120232017Y-90456200D02*
X120270112Y-90418104D01*
X120270112Y-90418104D02*
X120308207Y-90341914D01*
X120308207Y-90341914D02*
X120308207Y-90151438D01*
X120308207Y-90151438D02*
X120270112Y-90075247D01*
X120270112Y-90075247D02*
X120232017Y-90037152D01*
X120232017Y-90037152D02*
X120155826Y-89999057D01*
X120155826Y-89999057D02*
X120003445Y-89999057D01*
X120003445Y-89999057D02*
X119927255Y-90037152D01*
X119927255Y-90037152D02*
X119889160Y-90075247D01*
X119889160Y-90075247D02*
X119851064Y-90151438D01*
X122312969Y-89694295D02*
X122846303Y-89694295D01*
X122846303Y-89694295D02*
X122503445Y-90494295D01*
X124408207Y-89732390D02*
X124332017Y-89694295D01*
X124332017Y-89694295D02*
X124217731Y-89694295D01*
X124217731Y-89694295D02*
X124103445Y-89732390D01*
X124103445Y-89732390D02*
X124027255Y-89808580D01*
X124027255Y-89808580D02*
X123989160Y-89884771D01*
X123989160Y-89884771D02*
X123951064Y-90037152D01*
X123951064Y-90037152D02*
X123951064Y-90151438D01*
X123951064Y-90151438D02*
X123989160Y-90303819D01*
X123989160Y-90303819D02*
X124027255Y-90380009D01*
X124027255Y-90380009D02*
X124103445Y-90456200D01*
X124103445Y-90456200D02*
X124217731Y-90494295D01*
X124217731Y-90494295D02*
X124293922Y-90494295D01*
X124293922Y-90494295D02*
X124408207Y-90456200D01*
X124408207Y-90456200D02*
X124446303Y-90418104D01*
X124446303Y-90418104D02*
X124446303Y-90151438D01*
X124446303Y-90151438D02*
X124293922Y-90151438D01*
X124789160Y-90494295D02*
X124789160Y-89694295D01*
X124789160Y-89694295D02*
X125246303Y-90494295D01*
X125246303Y-90494295D02*
X125246303Y-89694295D01*
X125627255Y-90494295D02*
X125627255Y-89694295D01*
X125627255Y-89694295D02*
X125817731Y-89694295D01*
X125817731Y-89694295D02*
X125932017Y-89732390D01*
X125932017Y-89732390D02*
X126008207Y-89808580D01*
X126008207Y-89808580D02*
X126046302Y-89884771D01*
X126046302Y-89884771D02*
X126084398Y-90037152D01*
X126084398Y-90037152D02*
X126084398Y-90151438D01*
X126084398Y-90151438D02*
X126046302Y-90303819D01*
X126046302Y-90303819D02*
X126008207Y-90380009D01*
X126008207Y-90380009D02*
X125932017Y-90456200D01*
X125932017Y-90456200D02*
X125817731Y-90494295D01*
X125817731Y-90494295D02*
X125627255Y-90494295D01*
X126974874Y-89694295D02*
X127241541Y-90494295D01*
X127241541Y-90494295D02*
X127508207Y-89694295D01*
X128232017Y-90418104D02*
X128193921Y-90456200D01*
X128193921Y-90456200D02*
X128079636Y-90494295D01*
X128079636Y-90494295D02*
X128003445Y-90494295D01*
X128003445Y-90494295D02*
X127889159Y-90456200D01*
X127889159Y-90456200D02*
X127812969Y-90380009D01*
X127812969Y-90380009D02*
X127774874Y-90303819D01*
X127774874Y-90303819D02*
X127736778Y-90151438D01*
X127736778Y-90151438D02*
X127736778Y-90037152D01*
X127736778Y-90037152D02*
X127774874Y-89884771D01*
X127774874Y-89884771D02*
X127812969Y-89808580D01*
X127812969Y-89808580D02*
X127889159Y-89732390D01*
X127889159Y-89732390D02*
X128003445Y-89694295D01*
X128003445Y-89694295D02*
X128079636Y-89694295D01*
X128079636Y-89694295D02*
X128193921Y-89732390D01*
X128193921Y-89732390D02*
X128232017Y-89770485D01*
X129032017Y-90418104D02*
X128993921Y-90456200D01*
X128993921Y-90456200D02*
X128879636Y-90494295D01*
X128879636Y-90494295D02*
X128803445Y-90494295D01*
X128803445Y-90494295D02*
X128689159Y-90456200D01*
X128689159Y-90456200D02*
X128612969Y-90380009D01*
X128612969Y-90380009D02*
X128574874Y-90303819D01*
X128574874Y-90303819D02*
X128536778Y-90151438D01*
X128536778Y-90151438D02*
X128536778Y-90037152D01*
X128536778Y-90037152D02*
X128574874Y-89884771D01*
X128574874Y-89884771D02*
X128612969Y-89808580D01*
X128612969Y-89808580D02*
X128689159Y-89732390D01*
X128689159Y-89732390D02*
X128803445Y-89694295D01*
X128803445Y-89694295D02*
X128879636Y-89694295D01*
X128879636Y-89694295D02*
X128993921Y-89732390D01*
X128993921Y-89732390D02*
X129032017Y-89770485D01*
X132908207Y-89732390D02*
X132832017Y-89694295D01*
X132832017Y-89694295D02*
X132717731Y-89694295D01*
X132717731Y-89694295D02*
X132603445Y-89732390D01*
X132603445Y-89732390D02*
X132527255Y-89808580D01*
X132527255Y-89808580D02*
X132489160Y-89884771D01*
X132489160Y-89884771D02*
X132451064Y-90037152D01*
X132451064Y-90037152D02*
X132451064Y-90151438D01*
X132451064Y-90151438D02*
X132489160Y-90303819D01*
X132489160Y-90303819D02*
X132527255Y-90380009D01*
X132527255Y-90380009D02*
X132603445Y-90456200D01*
X132603445Y-90456200D02*
X132717731Y-90494295D01*
X132717731Y-90494295D02*
X132793922Y-90494295D01*
X132793922Y-90494295D02*
X132908207Y-90456200D01*
X132908207Y-90456200D02*
X132946303Y-90418104D01*
X132946303Y-90418104D02*
X132946303Y-90151438D01*
X132946303Y-90151438D02*
X132793922Y-90151438D01*
X133289160Y-90494295D02*
X133289160Y-89694295D01*
X133289160Y-89694295D02*
X133746303Y-90494295D01*
X133746303Y-90494295D02*
X133746303Y-89694295D01*
X134127255Y-90494295D02*
X134127255Y-89694295D01*
X134127255Y-89694295D02*
X134317731Y-89694295D01*
X134317731Y-89694295D02*
X134432017Y-89732390D01*
X134432017Y-89732390D02*
X134508207Y-89808580D01*
X134508207Y-89808580D02*
X134546302Y-89884771D01*
X134546302Y-89884771D02*
X134584398Y-90037152D01*
X134584398Y-90037152D02*
X134584398Y-90151438D01*
X134584398Y-90151438D02*
X134546302Y-90303819D01*
X134546302Y-90303819D02*
X134508207Y-90380009D01*
X134508207Y-90380009D02*
X134432017Y-90456200D01*
X134432017Y-90456200D02*
X134317731Y-90494295D01*
X134317731Y-90494295D02*
X134127255Y-90494295D01*
X135174874Y-89694295D02*
X135441541Y-90494295D01*
X135441541Y-90494295D02*
X135708207Y-89694295D01*
X136432017Y-90418104D02*
X136393921Y-90456200D01*
X136393921Y-90456200D02*
X136279636Y-90494295D01*
X136279636Y-90494295D02*
X136203445Y-90494295D01*
X136203445Y-90494295D02*
X136089159Y-90456200D01*
X136089159Y-90456200D02*
X136012969Y-90380009D01*
X136012969Y-90380009D02*
X135974874Y-90303819D01*
X135974874Y-90303819D02*
X135936778Y-90151438D01*
X135936778Y-90151438D02*
X135936778Y-90037152D01*
X135936778Y-90037152D02*
X135974874Y-89884771D01*
X135974874Y-89884771D02*
X136012969Y-89808580D01*
X136012969Y-89808580D02*
X136089159Y-89732390D01*
X136089159Y-89732390D02*
X136203445Y-89694295D01*
X136203445Y-89694295D02*
X136279636Y-89694295D01*
X136279636Y-89694295D02*
X136393921Y-89732390D01*
X136393921Y-89732390D02*
X136432017Y-89770485D01*
X137232017Y-90418104D02*
X137193921Y-90456200D01*
X137193921Y-90456200D02*
X137079636Y-90494295D01*
X137079636Y-90494295D02*
X137003445Y-90494295D01*
X137003445Y-90494295D02*
X136889159Y-90456200D01*
X136889159Y-90456200D02*
X136812969Y-90380009D01*
X136812969Y-90380009D02*
X136774874Y-90303819D01*
X136774874Y-90303819D02*
X136736778Y-90151438D01*
X136736778Y-90151438D02*
X136736778Y-90037152D01*
X136736778Y-90037152D02*
X136774874Y-89884771D01*
X136774874Y-89884771D02*
X136812969Y-89808580D01*
X136812969Y-89808580D02*
X136889159Y-89732390D01*
X136889159Y-89732390D02*
X137003445Y-89694295D01*
X137003445Y-89694295D02*
X137079636Y-89694295D01*
X137079636Y-89694295D02*
X137193921Y-89732390D01*
X137193921Y-89732390D02*
X137232017Y-89770485D01*
X138646303Y-90494295D02*
X138379636Y-90113342D01*
X138189160Y-90494295D02*
X138189160Y-89694295D01*
X138189160Y-89694295D02*
X138493922Y-89694295D01*
X138493922Y-89694295D02*
X138570112Y-89732390D01*
X138570112Y-89732390D02*
X138608207Y-89770485D01*
X138608207Y-89770485D02*
X138646303Y-89846676D01*
X138646303Y-89846676D02*
X138646303Y-89960961D01*
X138646303Y-89960961D02*
X138608207Y-90037152D01*
X138608207Y-90037152D02*
X138570112Y-90075247D01*
X138570112Y-90075247D02*
X138493922Y-90113342D01*
X138493922Y-90113342D02*
X138189160Y-90113342D01*
X138912969Y-90494295D02*
X139332017Y-89960961D01*
X138912969Y-89960961D02*
X139332017Y-90494295D01*
X140574874Y-89694295D02*
X141032017Y-89694295D01*
X140803445Y-90494295D02*
X140803445Y-89694295D01*
X141222493Y-89694295D02*
X141755827Y-90494295D01*
X141755827Y-89694295D02*
X141222493Y-90494295D01*
X143051064Y-90556200D02*
X143165350Y-90594295D01*
X143165350Y-90594295D02*
X143355826Y-90594295D01*
X143355826Y-90594295D02*
X143432017Y-90556200D01*
X143432017Y-90556200D02*
X143470112Y-90518104D01*
X143470112Y-90518104D02*
X143508207Y-90441914D01*
X143508207Y-90441914D02*
X143508207Y-90365723D01*
X143508207Y-90365723D02*
X143470112Y-90289533D01*
X143470112Y-90289533D02*
X143432017Y-90251438D01*
X143432017Y-90251438D02*
X143355826Y-90213342D01*
X143355826Y-90213342D02*
X143203445Y-90175247D01*
X143203445Y-90175247D02*
X143127255Y-90137152D01*
X143127255Y-90137152D02*
X143089160Y-90099057D01*
X143089160Y-90099057D02*
X143051064Y-90022866D01*
X143051064Y-90022866D02*
X143051064Y-89946676D01*
X143051064Y-89946676D02*
X143089160Y-89870485D01*
X143089160Y-89870485D02*
X143127255Y-89832390D01*
X143127255Y-89832390D02*
X143203445Y-89794295D01*
X143203445Y-89794295D02*
X143393922Y-89794295D01*
X143393922Y-89794295D02*
X143508207Y-89832390D01*
X143851065Y-90175247D02*
X144117731Y-90175247D01*
X144232017Y-90594295D02*
X143851065Y-90594295D01*
X143851065Y-90594295D02*
X143851065Y-89794295D01*
X143851065Y-89794295D02*
X144232017Y-89794295D01*
X145032018Y-90594295D02*
X144765351Y-90213342D01*
X144574875Y-90594295D02*
X144574875Y-89794295D01*
X144574875Y-89794295D02*
X144879637Y-89794295D01*
X144879637Y-89794295D02*
X144955827Y-89832390D01*
X144955827Y-89832390D02*
X144993922Y-89870485D01*
X144993922Y-89870485D02*
X145032018Y-89946676D01*
X145032018Y-89946676D02*
X145032018Y-90060961D01*
X145032018Y-90060961D02*
X144993922Y-90137152D01*
X144993922Y-90137152D02*
X144955827Y-90175247D01*
X144955827Y-90175247D02*
X144879637Y-90213342D01*
X144879637Y-90213342D02*
X144574875Y-90213342D01*
X145374875Y-90594295D02*
X145374875Y-89794295D01*
X145717731Y-90365723D02*
X146098684Y-90365723D01*
X145641541Y-90594295D02*
X145908208Y-89794295D01*
X145908208Y-89794295D02*
X146174874Y-90594295D01*
X146822493Y-90594295D02*
X146441541Y-90594295D01*
X146441541Y-90594295D02*
X146441541Y-89794295D01*
X143889160Y-74594295D02*
X143889160Y-73794295D01*
X144727255Y-74518104D02*
X144689159Y-74556200D01*
X144689159Y-74556200D02*
X144574874Y-74594295D01*
X144574874Y-74594295D02*
X144498683Y-74594295D01*
X144498683Y-74594295D02*
X144384397Y-74556200D01*
X144384397Y-74556200D02*
X144308207Y-74480009D01*
X144308207Y-74480009D02*
X144270112Y-74403819D01*
X144270112Y-74403819D02*
X144232016Y-74251438D01*
X144232016Y-74251438D02*
X144232016Y-74137152D01*
X144232016Y-74137152D02*
X144270112Y-73984771D01*
X144270112Y-73984771D02*
X144308207Y-73908580D01*
X144308207Y-73908580D02*
X144384397Y-73832390D01*
X144384397Y-73832390D02*
X144498683Y-73794295D01*
X144498683Y-73794295D02*
X144574874Y-73794295D01*
X144574874Y-73794295D02*
X144689159Y-73832390D01*
X144689159Y-73832390D02*
X144727255Y-73870485D01*
X145032016Y-74556200D02*
X145146302Y-74594295D01*
X145146302Y-74594295D02*
X145336778Y-74594295D01*
X145336778Y-74594295D02*
X145412969Y-74556200D01*
X145412969Y-74556200D02*
X145451064Y-74518104D01*
X145451064Y-74518104D02*
X145489159Y-74441914D01*
X145489159Y-74441914D02*
X145489159Y-74365723D01*
X145489159Y-74365723D02*
X145451064Y-74289533D01*
X145451064Y-74289533D02*
X145412969Y-74251438D01*
X145412969Y-74251438D02*
X145336778Y-74213342D01*
X145336778Y-74213342D02*
X145184397Y-74175247D01*
X145184397Y-74175247D02*
X145108207Y-74137152D01*
X145108207Y-74137152D02*
X145070112Y-74099057D01*
X145070112Y-74099057D02*
X145032016Y-74022866D01*
X145032016Y-74022866D02*
X145032016Y-73946676D01*
X145032016Y-73946676D02*
X145070112Y-73870485D01*
X145070112Y-73870485D02*
X145108207Y-73832390D01*
X145108207Y-73832390D02*
X145184397Y-73794295D01*
X145184397Y-73794295D02*
X145374874Y-73794295D01*
X145374874Y-73794295D02*
X145489159Y-73832390D01*
X145832017Y-74594295D02*
X145832017Y-73794295D01*
X145832017Y-73794295D02*
X146136779Y-73794295D01*
X146136779Y-73794295D02*
X146212969Y-73832390D01*
X146212969Y-73832390D02*
X146251064Y-73870485D01*
X146251064Y-73870485D02*
X146289160Y-73946676D01*
X146289160Y-73946676D02*
X146289160Y-74060961D01*
X146289160Y-74060961D02*
X146251064Y-74137152D01*
X146251064Y-74137152D02*
X146212969Y-74175247D01*
X146212969Y-74175247D02*
X146136779Y-74213342D01*
X146136779Y-74213342D02*
X145832017Y-74213342D01*
X144908207Y-76532390D02*
X144832017Y-76494295D01*
X144832017Y-76494295D02*
X144717731Y-76494295D01*
X144717731Y-76494295D02*
X144603445Y-76532390D01*
X144603445Y-76532390D02*
X144527255Y-76608580D01*
X144527255Y-76608580D02*
X144489160Y-76684771D01*
X144489160Y-76684771D02*
X144451064Y-76837152D01*
X144451064Y-76837152D02*
X144451064Y-76951438D01*
X144451064Y-76951438D02*
X144489160Y-77103819D01*
X144489160Y-77103819D02*
X144527255Y-77180009D01*
X144527255Y-77180009D02*
X144603445Y-77256200D01*
X144603445Y-77256200D02*
X144717731Y-77294295D01*
X144717731Y-77294295D02*
X144793922Y-77294295D01*
X144793922Y-77294295D02*
X144908207Y-77256200D01*
X144908207Y-77256200D02*
X144946303Y-77218104D01*
X144946303Y-77218104D02*
X144946303Y-76951438D01*
X144946303Y-76951438D02*
X144793922Y-76951438D01*
X145289160Y-77294295D02*
X145289160Y-76494295D01*
X145289160Y-76494295D02*
X145746303Y-77294295D01*
X145746303Y-77294295D02*
X145746303Y-76494295D01*
X146127255Y-77294295D02*
X146127255Y-76494295D01*
X146127255Y-76494295D02*
X146317731Y-76494295D01*
X146317731Y-76494295D02*
X146432017Y-76532390D01*
X146432017Y-76532390D02*
X146508207Y-76608580D01*
X146508207Y-76608580D02*
X146546302Y-76684771D01*
X146546302Y-76684771D02*
X146584398Y-76837152D01*
X146584398Y-76837152D02*
X146584398Y-76951438D01*
X146584398Y-76951438D02*
X146546302Y-77103819D01*
X146546302Y-77103819D02*
X146508207Y-77180009D01*
X146508207Y-77180009D02*
X146432017Y-77256200D01*
X146432017Y-77256200D02*
X146317731Y-77294295D01*
X146317731Y-77294295D02*
X146127255Y-77294295D01*
X144474874Y-79194295D02*
X144741541Y-79994295D01*
X144741541Y-79994295D02*
X145008207Y-79194295D01*
X145732017Y-79918104D02*
X145693921Y-79956200D01*
X145693921Y-79956200D02*
X145579636Y-79994295D01*
X145579636Y-79994295D02*
X145503445Y-79994295D01*
X145503445Y-79994295D02*
X145389159Y-79956200D01*
X145389159Y-79956200D02*
X145312969Y-79880009D01*
X145312969Y-79880009D02*
X145274874Y-79803819D01*
X145274874Y-79803819D02*
X145236778Y-79651438D01*
X145236778Y-79651438D02*
X145236778Y-79537152D01*
X145236778Y-79537152D02*
X145274874Y-79384771D01*
X145274874Y-79384771D02*
X145312969Y-79308580D01*
X145312969Y-79308580D02*
X145389159Y-79232390D01*
X145389159Y-79232390D02*
X145503445Y-79194295D01*
X145503445Y-79194295D02*
X145579636Y-79194295D01*
X145579636Y-79194295D02*
X145693921Y-79232390D01*
X145693921Y-79232390D02*
X145732017Y-79270485D01*
X146532017Y-79918104D02*
X146493921Y-79956200D01*
X146493921Y-79956200D02*
X146379636Y-79994295D01*
X146379636Y-79994295D02*
X146303445Y-79994295D01*
X146303445Y-79994295D02*
X146189159Y-79956200D01*
X146189159Y-79956200D02*
X146112969Y-79880009D01*
X146112969Y-79880009D02*
X146074874Y-79803819D01*
X146074874Y-79803819D02*
X146036778Y-79651438D01*
X146036778Y-79651438D02*
X146036778Y-79537152D01*
X146036778Y-79537152D02*
X146074874Y-79384771D01*
X146074874Y-79384771D02*
X146112969Y-79308580D01*
X146112969Y-79308580D02*
X146189159Y-79232390D01*
X146189159Y-79232390D02*
X146303445Y-79194295D01*
X146303445Y-79194295D02*
X146379636Y-79194295D01*
X146379636Y-79194295D02*
X146493921Y-79232390D01*
X146493921Y-79232390D02*
X146532017Y-79270485D01*
X144551064Y-82256200D02*
X144665350Y-82294295D01*
X144665350Y-82294295D02*
X144855826Y-82294295D01*
X144855826Y-82294295D02*
X144932017Y-82256200D01*
X144932017Y-82256200D02*
X144970112Y-82218104D01*
X144970112Y-82218104D02*
X145008207Y-82141914D01*
X145008207Y-82141914D02*
X145008207Y-82065723D01*
X145008207Y-82065723D02*
X144970112Y-81989533D01*
X144970112Y-81989533D02*
X144932017Y-81951438D01*
X144932017Y-81951438D02*
X144855826Y-81913342D01*
X144855826Y-81913342D02*
X144703445Y-81875247D01*
X144703445Y-81875247D02*
X144627255Y-81837152D01*
X144627255Y-81837152D02*
X144589160Y-81799057D01*
X144589160Y-81799057D02*
X144551064Y-81722866D01*
X144551064Y-81722866D02*
X144551064Y-81646676D01*
X144551064Y-81646676D02*
X144589160Y-81570485D01*
X144589160Y-81570485D02*
X144627255Y-81532390D01*
X144627255Y-81532390D02*
X144703445Y-81494295D01*
X144703445Y-81494295D02*
X144893922Y-81494295D01*
X144893922Y-81494295D02*
X145008207Y-81532390D01*
X145351065Y-82294295D02*
X145351065Y-81494295D01*
X145351065Y-81494295D02*
X145541541Y-81494295D01*
X145541541Y-81494295D02*
X145655827Y-81532390D01*
X145655827Y-81532390D02*
X145732017Y-81608580D01*
X145732017Y-81608580D02*
X145770112Y-81684771D01*
X145770112Y-81684771D02*
X145808208Y-81837152D01*
X145808208Y-81837152D02*
X145808208Y-81951438D01*
X145808208Y-81951438D02*
X145770112Y-82103819D01*
X145770112Y-82103819D02*
X145732017Y-82180009D01*
X145732017Y-82180009D02*
X145655827Y-82256200D01*
X145655827Y-82256200D02*
X145541541Y-82294295D01*
X145541541Y-82294295D02*
X145351065Y-82294295D01*
X146112969Y-82065723D02*
X146493922Y-82065723D01*
X146036779Y-82294295D02*
X146303446Y-81494295D01*
X146303446Y-81494295D02*
X146570112Y-82294295D01*
X144551064Y-85156200D02*
X144665350Y-85194295D01*
X144665350Y-85194295D02*
X144855826Y-85194295D01*
X144855826Y-85194295D02*
X144932017Y-85156200D01*
X144932017Y-85156200D02*
X144970112Y-85118104D01*
X144970112Y-85118104D02*
X145008207Y-85041914D01*
X145008207Y-85041914D02*
X145008207Y-84965723D01*
X145008207Y-84965723D02*
X144970112Y-84889533D01*
X144970112Y-84889533D02*
X144932017Y-84851438D01*
X144932017Y-84851438D02*
X144855826Y-84813342D01*
X144855826Y-84813342D02*
X144703445Y-84775247D01*
X144703445Y-84775247D02*
X144627255Y-84737152D01*
X144627255Y-84737152D02*
X144589160Y-84699057D01*
X144589160Y-84699057D02*
X144551064Y-84622866D01*
X144551064Y-84622866D02*
X144551064Y-84546676D01*
X144551064Y-84546676D02*
X144589160Y-84470485D01*
X144589160Y-84470485D02*
X144627255Y-84432390D01*
X144627255Y-84432390D02*
X144703445Y-84394295D01*
X144703445Y-84394295D02*
X144893922Y-84394295D01*
X144893922Y-84394295D02*
X145008207Y-84432390D01*
X145808208Y-85118104D02*
X145770112Y-85156200D01*
X145770112Y-85156200D02*
X145655827Y-85194295D01*
X145655827Y-85194295D02*
X145579636Y-85194295D01*
X145579636Y-85194295D02*
X145465350Y-85156200D01*
X145465350Y-85156200D02*
X145389160Y-85080009D01*
X145389160Y-85080009D02*
X145351065Y-85003819D01*
X145351065Y-85003819D02*
X145312969Y-84851438D01*
X145312969Y-84851438D02*
X145312969Y-84737152D01*
X145312969Y-84737152D02*
X145351065Y-84584771D01*
X145351065Y-84584771D02*
X145389160Y-84508580D01*
X145389160Y-84508580D02*
X145465350Y-84432390D01*
X145465350Y-84432390D02*
X145579636Y-84394295D01*
X145579636Y-84394295D02*
X145655827Y-84394295D01*
X145655827Y-84394295D02*
X145770112Y-84432390D01*
X145770112Y-84432390D02*
X145808208Y-84470485D01*
X146151065Y-85194295D02*
X146151065Y-84394295D01*
X146608208Y-85194295D02*
X146265350Y-84737152D01*
X146608208Y-84394295D02*
X146151065Y-84851438D01*
X146408207Y-87694295D02*
X145951064Y-87694295D01*
X146179636Y-87694295D02*
X146179636Y-86894295D01*
X146179636Y-86894295D02*
X146103445Y-87008580D01*
X146103445Y-87008580D02*
X146027255Y-87084771D01*
X146027255Y-87084771D02*
X145951064Y-87122866D01*
X146712969Y-86970485D02*
X146751065Y-86932390D01*
X146751065Y-86932390D02*
X146827255Y-86894295D01*
X146827255Y-86894295D02*
X147017731Y-86894295D01*
X147017731Y-86894295D02*
X147093922Y-86932390D01*
X147093922Y-86932390D02*
X147132017Y-86970485D01*
X147132017Y-86970485D02*
X147170112Y-87046676D01*
X147170112Y-87046676D02*
X147170112Y-87122866D01*
X147170112Y-87122866D02*
X147132017Y-87237152D01*
X147132017Y-87237152D02*
X146674874Y-87694295D01*
X146674874Y-87694295D02*
X147170112Y-87694295D01*
X147970113Y-87618104D02*
X147932017Y-87656200D01*
X147932017Y-87656200D02*
X147817732Y-87694295D01*
X147817732Y-87694295D02*
X147741541Y-87694295D01*
X147741541Y-87694295D02*
X147627255Y-87656200D01*
X147627255Y-87656200D02*
X147551065Y-87580009D01*
X147551065Y-87580009D02*
X147512970Y-87503819D01*
X147512970Y-87503819D02*
X147474874Y-87351438D01*
X147474874Y-87351438D02*
X147474874Y-87237152D01*
X147474874Y-87237152D02*
X147512970Y-87084771D01*
X147512970Y-87084771D02*
X147551065Y-87008580D01*
X147551065Y-87008580D02*
X147627255Y-86932390D01*
X147627255Y-86932390D02*
X147741541Y-86894295D01*
X147741541Y-86894295D02*
X147817732Y-86894295D01*
X147817732Y-86894295D02*
X147932017Y-86932390D01*
X147932017Y-86932390D02*
X147970113Y-86970485D01*
X129632390Y-91791792D02*
X129594295Y-91867982D01*
X129594295Y-91867982D02*
X129594295Y-91982268D01*
X129594295Y-91982268D02*
X129632390Y-92096554D01*
X129632390Y-92096554D02*
X129708580Y-92172744D01*
X129708580Y-92172744D02*
X129784771Y-92210839D01*
X129784771Y-92210839D02*
X129937152Y-92248935D01*
X129937152Y-92248935D02*
X130051438Y-92248935D01*
X130051438Y-92248935D02*
X130203819Y-92210839D01*
X130203819Y-92210839D02*
X130280009Y-92172744D01*
X130280009Y-92172744D02*
X130356200Y-92096554D01*
X130356200Y-92096554D02*
X130394295Y-91982268D01*
X130394295Y-91982268D02*
X130394295Y-91906077D01*
X130394295Y-91906077D02*
X130356200Y-91791792D01*
X130356200Y-91791792D02*
X130318104Y-91753696D01*
X130318104Y-91753696D02*
X130051438Y-91753696D01*
X130051438Y-91753696D02*
X130051438Y-91906077D01*
X130394295Y-91410839D02*
X129594295Y-91410839D01*
X129594295Y-91410839D02*
X129594295Y-91106077D01*
X129594295Y-91106077D02*
X129632390Y-91029887D01*
X129632390Y-91029887D02*
X129670485Y-90991792D01*
X129670485Y-90991792D02*
X129746676Y-90953696D01*
X129746676Y-90953696D02*
X129860961Y-90953696D01*
X129860961Y-90953696D02*
X129937152Y-90991792D01*
X129937152Y-90991792D02*
X129975247Y-91029887D01*
X129975247Y-91029887D02*
X130013342Y-91106077D01*
X130013342Y-91106077D02*
X130013342Y-91410839D01*
X130394295Y-90610839D02*
X129594295Y-90610839D01*
X129594295Y-90077506D02*
X129594295Y-89925125D01*
X129594295Y-89925125D02*
X129632390Y-89848935D01*
X129632390Y-89848935D02*
X129708580Y-89772744D01*
X129708580Y-89772744D02*
X129860961Y-89734649D01*
X129860961Y-89734649D02*
X130127628Y-89734649D01*
X130127628Y-89734649D02*
X130280009Y-89772744D01*
X130280009Y-89772744D02*
X130356200Y-89848935D01*
X130356200Y-89848935D02*
X130394295Y-89925125D01*
X130394295Y-89925125D02*
X130394295Y-90077506D01*
X130394295Y-90077506D02*
X130356200Y-90153697D01*
X130356200Y-90153697D02*
X130280009Y-90229887D01*
X130280009Y-90229887D02*
X130127628Y-90267983D01*
X130127628Y-90267983D02*
X129860961Y-90267983D01*
X129860961Y-90267983D02*
X129708580Y-90229887D01*
X129708580Y-90229887D02*
X129632390Y-90153697D01*
X129632390Y-90153697D02*
X129594295Y-90077506D01*
X124623809Y-85528628D02*
X124623809Y-86004819D01*
X124290476Y-85004819D02*
X124623809Y-85528628D01*
X124623809Y-85528628D02*
X124957142Y-85004819D01*
X125242857Y-85100057D02*
X125290476Y-85052438D01*
X125290476Y-85052438D02*
X125385714Y-85004819D01*
X125385714Y-85004819D02*
X125623809Y-85004819D01*
X125623809Y-85004819D02*
X125719047Y-85052438D01*
X125719047Y-85052438D02*
X125766666Y-85100057D01*
X125766666Y-85100057D02*
X125814285Y-85195295D01*
X125814285Y-85195295D02*
X125814285Y-85290533D01*
X125814285Y-85290533D02*
X125766666Y-85433390D01*
X125766666Y-85433390D02*
X125195238Y-86004819D01*
X125195238Y-86004819D02*
X125814285Y-86004819D01*
D11*
X123747618Y-80314895D02*
X123290475Y-80314895D01*
X123519047Y-80314895D02*
X123519047Y-79514895D01*
X123519047Y-79514895D02*
X123442856Y-79629180D01*
X123442856Y-79629180D02*
X123366666Y-79705371D01*
X123366666Y-79705371D02*
X123290475Y-79743466D01*
X124433333Y-79514895D02*
X124280952Y-79514895D01*
X124280952Y-79514895D02*
X124204761Y-79552990D01*
X124204761Y-79552990D02*
X124166666Y-79591085D01*
X124166666Y-79591085D02*
X124090476Y-79705371D01*
X124090476Y-79705371D02*
X124052380Y-79857752D01*
X124052380Y-79857752D02*
X124052380Y-80162514D01*
X124052380Y-80162514D02*
X124090476Y-80238704D01*
X124090476Y-80238704D02*
X124128571Y-80276800D01*
X124128571Y-80276800D02*
X124204761Y-80314895D01*
X124204761Y-80314895D02*
X124357142Y-80314895D01*
X124357142Y-80314895D02*
X124433333Y-80276800D01*
X124433333Y-80276800D02*
X124471428Y-80238704D01*
X124471428Y-80238704D02*
X124509523Y-80162514D01*
X124509523Y-80162514D02*
X124509523Y-79972038D01*
X124509523Y-79972038D02*
X124471428Y-79895847D01*
X124471428Y-79895847D02*
X124433333Y-79857752D01*
X124433333Y-79857752D02*
X124357142Y-79819657D01*
X124357142Y-79819657D02*
X124204761Y-79819657D01*
X124204761Y-79819657D02*
X124128571Y-79857752D01*
X124128571Y-79857752D02*
X124090476Y-79895847D01*
X124090476Y-79895847D02*
X124052380Y-79972038D01*
X124852381Y-80314895D02*
X124852381Y-79514895D01*
X124852381Y-79514895D02*
X125119047Y-80086323D01*
X125119047Y-80086323D02*
X125385714Y-79514895D01*
X125385714Y-79514895D02*
X125385714Y-80314895D01*
X125766667Y-80314895D02*
X125766667Y-79514895D01*
X125766667Y-79895847D02*
X126223810Y-79895847D01*
X126223810Y-80314895D02*
X126223810Y-79514895D01*
X126528571Y-79781561D02*
X126947619Y-79781561D01*
X126947619Y-79781561D02*
X126528571Y-80314895D01*
X126528571Y-80314895D02*
X126947619Y-80314895D01*
D12*
X137736905Y-63054819D02*
X137736905Y-62054819D01*
X137736905Y-62054819D02*
X137975000Y-62054819D01*
X137975000Y-62054819D02*
X138117857Y-62102438D01*
X138117857Y-62102438D02*
X138213095Y-62197676D01*
X138213095Y-62197676D02*
X138260714Y-62292914D01*
X138260714Y-62292914D02*
X138308333Y-62483390D01*
X138308333Y-62483390D02*
X138308333Y-62626247D01*
X138308333Y-62626247D02*
X138260714Y-62816723D01*
X138260714Y-62816723D02*
X138213095Y-62911961D01*
X138213095Y-62911961D02*
X138117857Y-63007200D01*
X138117857Y-63007200D02*
X137975000Y-63054819D01*
X137975000Y-63054819D02*
X137736905Y-63054819D01*
X139260714Y-63054819D02*
X138689286Y-63054819D01*
X138975000Y-63054819D02*
X138975000Y-62054819D01*
X138975000Y-62054819D02*
X138879762Y-62197676D01*
X138879762Y-62197676D02*
X138784524Y-62292914D01*
X138784524Y-62292914D02*
X138689286Y-62340533D01*
D11*
X139885714Y-66264895D02*
X139504762Y-66264895D01*
X139504762Y-66264895D02*
X139504762Y-65464895D01*
X140152381Y-65845847D02*
X140419047Y-65845847D01*
X140533333Y-66264895D02*
X140152381Y-66264895D01*
X140152381Y-66264895D02*
X140152381Y-65464895D01*
X140152381Y-65464895D02*
X140533333Y-65464895D01*
X140876191Y-66264895D02*
X140876191Y-65464895D01*
X140876191Y-65464895D02*
X141066667Y-65464895D01*
X141066667Y-65464895D02*
X141180953Y-65502990D01*
X141180953Y-65502990D02*
X141257143Y-65579180D01*
X141257143Y-65579180D02*
X141295238Y-65655371D01*
X141295238Y-65655371D02*
X141333334Y-65807752D01*
X141333334Y-65807752D02*
X141333334Y-65922038D01*
X141333334Y-65922038D02*
X141295238Y-66074419D01*
X141295238Y-66074419D02*
X141257143Y-66150609D01*
X141257143Y-66150609D02*
X141180953Y-66226800D01*
X141180953Y-66226800D02*
X141066667Y-66264895D01*
X141066667Y-66264895D02*
X140876191Y-66264895D01*
D12*
X109333333Y-89104819D02*
X109000000Y-88628628D01*
X108761905Y-89104819D02*
X108761905Y-88104819D01*
X108761905Y-88104819D02*
X109142857Y-88104819D01*
X109142857Y-88104819D02*
X109238095Y-88152438D01*
X109238095Y-88152438D02*
X109285714Y-88200057D01*
X109285714Y-88200057D02*
X109333333Y-88295295D01*
X109333333Y-88295295D02*
X109333333Y-88438152D01*
X109333333Y-88438152D02*
X109285714Y-88533390D01*
X109285714Y-88533390D02*
X109238095Y-88581009D01*
X109238095Y-88581009D02*
X109142857Y-88628628D01*
X109142857Y-88628628D02*
X108761905Y-88628628D01*
X110285714Y-89104819D02*
X109714286Y-89104819D01*
X110000000Y-89104819D02*
X110000000Y-88104819D01*
X110000000Y-88104819D02*
X109904762Y-88247676D01*
X109904762Y-88247676D02*
X109809524Y-88342914D01*
X109809524Y-88342914D02*
X109714286Y-88390533D01*
D11*
X108947618Y-85714895D02*
X108490475Y-85714895D01*
X108719047Y-85714895D02*
X108719047Y-84914895D01*
X108719047Y-84914895D02*
X108642856Y-85029180D01*
X108642856Y-85029180D02*
X108566666Y-85105371D01*
X108566666Y-85105371D02*
X108490475Y-85143466D01*
X109442857Y-84914895D02*
X109519047Y-84914895D01*
X109519047Y-84914895D02*
X109595238Y-84952990D01*
X109595238Y-84952990D02*
X109633333Y-84991085D01*
X109633333Y-84991085D02*
X109671428Y-85067276D01*
X109671428Y-85067276D02*
X109709523Y-85219657D01*
X109709523Y-85219657D02*
X109709523Y-85410133D01*
X109709523Y-85410133D02*
X109671428Y-85562514D01*
X109671428Y-85562514D02*
X109633333Y-85638704D01*
X109633333Y-85638704D02*
X109595238Y-85676800D01*
X109595238Y-85676800D02*
X109519047Y-85714895D01*
X109519047Y-85714895D02*
X109442857Y-85714895D01*
X109442857Y-85714895D02*
X109366666Y-85676800D01*
X109366666Y-85676800D02*
X109328571Y-85638704D01*
X109328571Y-85638704D02*
X109290476Y-85562514D01*
X109290476Y-85562514D02*
X109252380Y-85410133D01*
X109252380Y-85410133D02*
X109252380Y-85219657D01*
X109252380Y-85219657D02*
X109290476Y-85067276D01*
X109290476Y-85067276D02*
X109328571Y-84991085D01*
X109328571Y-84991085D02*
X109366666Y-84952990D01*
X109366666Y-84952990D02*
X109442857Y-84914895D01*
X110052381Y-85714895D02*
X110052381Y-84914895D01*
X110509524Y-85714895D02*
X110166666Y-85257752D01*
X110509524Y-84914895D02*
X110052381Y-85372038D01*
D12*
X118333333Y-66289580D02*
X118285714Y-66337200D01*
X118285714Y-66337200D02*
X118142857Y-66384819D01*
X118142857Y-66384819D02*
X118047619Y-66384819D01*
X118047619Y-66384819D02*
X117904762Y-66337200D01*
X117904762Y-66337200D02*
X117809524Y-66241961D01*
X117809524Y-66241961D02*
X117761905Y-66146723D01*
X117761905Y-66146723D02*
X117714286Y-65956247D01*
X117714286Y-65956247D02*
X117714286Y-65813390D01*
X117714286Y-65813390D02*
X117761905Y-65622914D01*
X117761905Y-65622914D02*
X117809524Y-65527676D01*
X117809524Y-65527676D02*
X117904762Y-65432438D01*
X117904762Y-65432438D02*
X118047619Y-65384819D01*
X118047619Y-65384819D02*
X118142857Y-65384819D01*
X118142857Y-65384819D02*
X118285714Y-65432438D01*
X118285714Y-65432438D02*
X118333333Y-65480057D01*
X119285714Y-66384819D02*
X118714286Y-66384819D01*
X119000000Y-66384819D02*
X119000000Y-65384819D01*
X119000000Y-65384819D02*
X118904762Y-65527676D01*
X118904762Y-65527676D02*
X118809524Y-65622914D01*
X118809524Y-65622914D02*
X118714286Y-65670533D01*
D11*
X117185714Y-62134895D02*
X117261904Y-62134895D01*
X117261904Y-62134895D02*
X117338095Y-62172990D01*
X117338095Y-62172990D02*
X117376190Y-62211085D01*
X117376190Y-62211085D02*
X117414285Y-62287276D01*
X117414285Y-62287276D02*
X117452380Y-62439657D01*
X117452380Y-62439657D02*
X117452380Y-62630133D01*
X117452380Y-62630133D02*
X117414285Y-62782514D01*
X117414285Y-62782514D02*
X117376190Y-62858704D01*
X117376190Y-62858704D02*
X117338095Y-62896800D01*
X117338095Y-62896800D02*
X117261904Y-62934895D01*
X117261904Y-62934895D02*
X117185714Y-62934895D01*
X117185714Y-62934895D02*
X117109523Y-62896800D01*
X117109523Y-62896800D02*
X117071428Y-62858704D01*
X117071428Y-62858704D02*
X117033333Y-62782514D01*
X117033333Y-62782514D02*
X116995237Y-62630133D01*
X116995237Y-62630133D02*
X116995237Y-62439657D01*
X116995237Y-62439657D02*
X117033333Y-62287276D01*
X117033333Y-62287276D02*
X117071428Y-62211085D01*
X117071428Y-62211085D02*
X117109523Y-62172990D01*
X117109523Y-62172990D02*
X117185714Y-62134895D01*
X117795238Y-62858704D02*
X117833333Y-62896800D01*
X117833333Y-62896800D02*
X117795238Y-62934895D01*
X117795238Y-62934895D02*
X117757142Y-62896800D01*
X117757142Y-62896800D02*
X117795238Y-62858704D01*
X117795238Y-62858704D02*
X117795238Y-62934895D01*
X118595237Y-62934895D02*
X118138094Y-62934895D01*
X118366666Y-62934895D02*
X118366666Y-62134895D01*
X118366666Y-62134895D02*
X118290475Y-62249180D01*
X118290475Y-62249180D02*
X118214285Y-62325371D01*
X118214285Y-62325371D02*
X118138094Y-62363466D01*
X119280952Y-62401561D02*
X119280952Y-62934895D01*
X118938095Y-62401561D02*
X118938095Y-62820609D01*
X118938095Y-62820609D02*
X118976190Y-62896800D01*
X118976190Y-62896800D02*
X119052380Y-62934895D01*
X119052380Y-62934895D02*
X119166666Y-62934895D01*
X119166666Y-62934895D02*
X119242857Y-62896800D01*
X119242857Y-62896800D02*
X119280952Y-62858704D01*
X119928571Y-62515847D02*
X119661905Y-62515847D01*
X119661905Y-62934895D02*
X119661905Y-62134895D01*
X119661905Y-62134895D02*
X120042857Y-62134895D01*
D12*
X117938095Y-78954819D02*
X117938095Y-79764342D01*
X117938095Y-79764342D02*
X117985714Y-79859580D01*
X117985714Y-79859580D02*
X118033333Y-79907200D01*
X118033333Y-79907200D02*
X118128571Y-79954819D01*
X118128571Y-79954819D02*
X118319047Y-79954819D01*
X118319047Y-79954819D02*
X118414285Y-79907200D01*
X118414285Y-79907200D02*
X118461904Y-79859580D01*
X118461904Y-79859580D02*
X118509523Y-79764342D01*
X118509523Y-79764342D02*
X118509523Y-78954819D01*
X119414285Y-79288152D02*
X119414285Y-79954819D01*
X119176190Y-78907200D02*
X118938095Y-79621485D01*
X118938095Y-79621485D02*
X119557142Y-79621485D01*
X143766666Y-91654819D02*
X143766666Y-92369104D01*
X143766666Y-92369104D02*
X143719047Y-92511961D01*
X143719047Y-92511961D02*
X143623809Y-92607200D01*
X143623809Y-92607200D02*
X143480952Y-92654819D01*
X143480952Y-92654819D02*
X143385714Y-92654819D01*
X144147619Y-91654819D02*
X144766666Y-91654819D01*
X144766666Y-91654819D02*
X144433333Y-92035771D01*
X144433333Y-92035771D02*
X144576190Y-92035771D01*
X144576190Y-92035771D02*
X144671428Y-92083390D01*
X144671428Y-92083390D02*
X144719047Y-92131009D01*
X144719047Y-92131009D02*
X144766666Y-92226247D01*
X144766666Y-92226247D02*
X144766666Y-92464342D01*
X144766666Y-92464342D02*
X144719047Y-92559580D01*
X144719047Y-92559580D02*
X144671428Y-92607200D01*
X144671428Y-92607200D02*
X144576190Y-92654819D01*
X144576190Y-92654819D02*
X144290476Y-92654819D01*
X144290476Y-92654819D02*
X144195238Y-92607200D01*
X144195238Y-92607200D02*
X144147619Y-92559580D01*
X132133333Y-82289580D02*
X132085714Y-82337200D01*
X132085714Y-82337200D02*
X131942857Y-82384819D01*
X131942857Y-82384819D02*
X131847619Y-82384819D01*
X131847619Y-82384819D02*
X131704762Y-82337200D01*
X131704762Y-82337200D02*
X131609524Y-82241961D01*
X131609524Y-82241961D02*
X131561905Y-82146723D01*
X131561905Y-82146723D02*
X131514286Y-81956247D01*
X131514286Y-81956247D02*
X131514286Y-81813390D01*
X131514286Y-81813390D02*
X131561905Y-81622914D01*
X131561905Y-81622914D02*
X131609524Y-81527676D01*
X131609524Y-81527676D02*
X131704762Y-81432438D01*
X131704762Y-81432438D02*
X131847619Y-81384819D01*
X131847619Y-81384819D02*
X131942857Y-81384819D01*
X131942857Y-81384819D02*
X132085714Y-81432438D01*
X132085714Y-81432438D02*
X132133333Y-81480057D01*
X132514286Y-81480057D02*
X132561905Y-81432438D01*
X132561905Y-81432438D02*
X132657143Y-81384819D01*
X132657143Y-81384819D02*
X132895238Y-81384819D01*
X132895238Y-81384819D02*
X132990476Y-81432438D01*
X132990476Y-81432438D02*
X133038095Y-81480057D01*
X133038095Y-81480057D02*
X133085714Y-81575295D01*
X133085714Y-81575295D02*
X133085714Y-81670533D01*
X133085714Y-81670533D02*
X133038095Y-81813390D01*
X133038095Y-81813390D02*
X132466667Y-82384819D01*
X132466667Y-82384819D02*
X133085714Y-82384819D01*
D11*
X135985713Y-80441085D02*
X136023809Y-80402990D01*
X136023809Y-80402990D02*
X136099999Y-80364895D01*
X136099999Y-80364895D02*
X136290475Y-80364895D01*
X136290475Y-80364895D02*
X136366666Y-80402990D01*
X136366666Y-80402990D02*
X136404761Y-80441085D01*
X136404761Y-80441085D02*
X136442856Y-80517276D01*
X136442856Y-80517276D02*
X136442856Y-80593466D01*
X136442856Y-80593466D02*
X136404761Y-80707752D01*
X136404761Y-80707752D02*
X135947618Y-81164895D01*
X135947618Y-81164895D02*
X136442856Y-81164895D01*
X136747618Y-80441085D02*
X136785714Y-80402990D01*
X136785714Y-80402990D02*
X136861904Y-80364895D01*
X136861904Y-80364895D02*
X137052380Y-80364895D01*
X137052380Y-80364895D02*
X137128571Y-80402990D01*
X137128571Y-80402990D02*
X137166666Y-80441085D01*
X137166666Y-80441085D02*
X137204761Y-80517276D01*
X137204761Y-80517276D02*
X137204761Y-80593466D01*
X137204761Y-80593466D02*
X137166666Y-80707752D01*
X137166666Y-80707752D02*
X136709523Y-81164895D01*
X136709523Y-81164895D02*
X137204761Y-81164895D01*
X137547619Y-80631561D02*
X137547619Y-81431561D01*
X137547619Y-80669657D02*
X137623809Y-80631561D01*
X137623809Y-80631561D02*
X137776190Y-80631561D01*
X137776190Y-80631561D02*
X137852381Y-80669657D01*
X137852381Y-80669657D02*
X137890476Y-80707752D01*
X137890476Y-80707752D02*
X137928571Y-80783942D01*
X137928571Y-80783942D02*
X137928571Y-81012514D01*
X137928571Y-81012514D02*
X137890476Y-81088704D01*
X137890476Y-81088704D02*
X137852381Y-81126800D01*
X137852381Y-81126800D02*
X137776190Y-81164895D01*
X137776190Y-81164895D02*
X137623809Y-81164895D01*
X137623809Y-81164895D02*
X137547619Y-81126800D01*
X138538095Y-80745847D02*
X138271429Y-80745847D01*
X138271429Y-81164895D02*
X138271429Y-80364895D01*
X138271429Y-80364895D02*
X138652381Y-80364895D01*
D12*
X147396666Y-63824819D02*
X147396666Y-64539104D01*
X147396666Y-64539104D02*
X147349047Y-64681961D01*
X147349047Y-64681961D02*
X147253809Y-64777200D01*
X147253809Y-64777200D02*
X147110952Y-64824819D01*
X147110952Y-64824819D02*
X147015714Y-64824819D01*
X148301428Y-64158152D02*
X148301428Y-64824819D01*
X148063333Y-63777200D02*
X147825238Y-64491485D01*
X147825238Y-64491485D02*
X148444285Y-64491485D01*
X101738095Y-89904819D02*
X101738095Y-88904819D01*
X101738095Y-89381009D02*
X102309523Y-89381009D01*
X102309523Y-89904819D02*
X102309523Y-88904819D01*
X102738095Y-89000057D02*
X102785714Y-88952438D01*
X102785714Y-88952438D02*
X102880952Y-88904819D01*
X102880952Y-88904819D02*
X103119047Y-88904819D01*
X103119047Y-88904819D02*
X103214285Y-88952438D01*
X103214285Y-88952438D02*
X103261904Y-89000057D01*
X103261904Y-89000057D02*
X103309523Y-89095295D01*
X103309523Y-89095295D02*
X103309523Y-89190533D01*
X103309523Y-89190533D02*
X103261904Y-89333390D01*
X103261904Y-89333390D02*
X102690476Y-89904819D01*
X102690476Y-89904819D02*
X103309523Y-89904819D01*
X141133333Y-69954819D02*
X140800000Y-69478628D01*
X140561905Y-69954819D02*
X140561905Y-68954819D01*
X140561905Y-68954819D02*
X140942857Y-68954819D01*
X140942857Y-68954819D02*
X141038095Y-69002438D01*
X141038095Y-69002438D02*
X141085714Y-69050057D01*
X141085714Y-69050057D02*
X141133333Y-69145295D01*
X141133333Y-69145295D02*
X141133333Y-69288152D01*
X141133333Y-69288152D02*
X141085714Y-69383390D01*
X141085714Y-69383390D02*
X141038095Y-69431009D01*
X141038095Y-69431009D02*
X140942857Y-69478628D01*
X140942857Y-69478628D02*
X140561905Y-69478628D01*
X142038095Y-68954819D02*
X141561905Y-68954819D01*
X141561905Y-68954819D02*
X141514286Y-69431009D01*
X141514286Y-69431009D02*
X141561905Y-69383390D01*
X141561905Y-69383390D02*
X141657143Y-69335771D01*
X141657143Y-69335771D02*
X141895238Y-69335771D01*
X141895238Y-69335771D02*
X141990476Y-69383390D01*
X141990476Y-69383390D02*
X142038095Y-69431009D01*
X142038095Y-69431009D02*
X142085714Y-69526247D01*
X142085714Y-69526247D02*
X142085714Y-69764342D01*
X142085714Y-69764342D02*
X142038095Y-69859580D01*
X142038095Y-69859580D02*
X141990476Y-69907200D01*
X141990476Y-69907200D02*
X141895238Y-69954819D01*
X141895238Y-69954819D02*
X141657143Y-69954819D01*
X141657143Y-69954819D02*
X141561905Y-69907200D01*
X141561905Y-69907200D02*
X141514286Y-69859580D01*
D11*
X137406428Y-67164895D02*
X137901666Y-67164895D01*
X137901666Y-67164895D02*
X137635000Y-67469657D01*
X137635000Y-67469657D02*
X137749285Y-67469657D01*
X137749285Y-67469657D02*
X137825476Y-67507752D01*
X137825476Y-67507752D02*
X137863571Y-67545847D01*
X137863571Y-67545847D02*
X137901666Y-67622038D01*
X137901666Y-67622038D02*
X137901666Y-67812514D01*
X137901666Y-67812514D02*
X137863571Y-67888704D01*
X137863571Y-67888704D02*
X137825476Y-67926800D01*
X137825476Y-67926800D02*
X137749285Y-67964895D01*
X137749285Y-67964895D02*
X137520714Y-67964895D01*
X137520714Y-67964895D02*
X137444523Y-67926800D01*
X137444523Y-67926800D02*
X137406428Y-67888704D01*
X138168333Y-67164895D02*
X138663571Y-67164895D01*
X138663571Y-67164895D02*
X138396905Y-67469657D01*
X138396905Y-67469657D02*
X138511190Y-67469657D01*
X138511190Y-67469657D02*
X138587381Y-67507752D01*
X138587381Y-67507752D02*
X138625476Y-67545847D01*
X138625476Y-67545847D02*
X138663571Y-67622038D01*
X138663571Y-67622038D02*
X138663571Y-67812514D01*
X138663571Y-67812514D02*
X138625476Y-67888704D01*
X138625476Y-67888704D02*
X138587381Y-67926800D01*
X138587381Y-67926800D02*
X138511190Y-67964895D01*
X138511190Y-67964895D02*
X138282619Y-67964895D01*
X138282619Y-67964895D02*
X138206428Y-67926800D01*
X138206428Y-67926800D02*
X138168333Y-67888704D01*
X139158810Y-67164895D02*
X139235000Y-67164895D01*
X139235000Y-67164895D02*
X139311191Y-67202990D01*
X139311191Y-67202990D02*
X139349286Y-67241085D01*
X139349286Y-67241085D02*
X139387381Y-67317276D01*
X139387381Y-67317276D02*
X139425476Y-67469657D01*
X139425476Y-67469657D02*
X139425476Y-67660133D01*
X139425476Y-67660133D02*
X139387381Y-67812514D01*
X139387381Y-67812514D02*
X139349286Y-67888704D01*
X139349286Y-67888704D02*
X139311191Y-67926800D01*
X139311191Y-67926800D02*
X139235000Y-67964895D01*
X139235000Y-67964895D02*
X139158810Y-67964895D01*
X139158810Y-67964895D02*
X139082619Y-67926800D01*
X139082619Y-67926800D02*
X139044524Y-67888704D01*
X139044524Y-67888704D02*
X139006429Y-67812514D01*
X139006429Y-67812514D02*
X138968333Y-67660133D01*
X138968333Y-67660133D02*
X138968333Y-67469657D01*
X138968333Y-67469657D02*
X139006429Y-67317276D01*
X139006429Y-67317276D02*
X139044524Y-67241085D01*
X139044524Y-67241085D02*
X139082619Y-67202990D01*
X139082619Y-67202990D02*
X139158810Y-67164895D01*
D12*
X106338095Y-76154819D02*
X106338095Y-76964342D01*
X106338095Y-76964342D02*
X106385714Y-77059580D01*
X106385714Y-77059580D02*
X106433333Y-77107200D01*
X106433333Y-77107200D02*
X106528571Y-77154819D01*
X106528571Y-77154819D02*
X106719047Y-77154819D01*
X106719047Y-77154819D02*
X106814285Y-77107200D01*
X106814285Y-77107200D02*
X106861904Y-77059580D01*
X106861904Y-77059580D02*
X106909523Y-76964342D01*
X106909523Y-76964342D02*
X106909523Y-76154819D01*
X107909523Y-77154819D02*
X107338095Y-77154819D01*
X107623809Y-77154819D02*
X107623809Y-76154819D01*
X107623809Y-76154819D02*
X107528571Y-76297676D01*
X107528571Y-76297676D02*
X107433333Y-76392914D01*
X107433333Y-76392914D02*
X107338095Y-76440533D01*
X113333333Y-89104819D02*
X113000000Y-88628628D01*
X112761905Y-89104819D02*
X112761905Y-88104819D01*
X112761905Y-88104819D02*
X113142857Y-88104819D01*
X113142857Y-88104819D02*
X113238095Y-88152438D01*
X113238095Y-88152438D02*
X113285714Y-88200057D01*
X113285714Y-88200057D02*
X113333333Y-88295295D01*
X113333333Y-88295295D02*
X113333333Y-88438152D01*
X113333333Y-88438152D02*
X113285714Y-88533390D01*
X113285714Y-88533390D02*
X113238095Y-88581009D01*
X113238095Y-88581009D02*
X113142857Y-88628628D01*
X113142857Y-88628628D02*
X112761905Y-88628628D01*
X113714286Y-88200057D02*
X113761905Y-88152438D01*
X113761905Y-88152438D02*
X113857143Y-88104819D01*
X113857143Y-88104819D02*
X114095238Y-88104819D01*
X114095238Y-88104819D02*
X114190476Y-88152438D01*
X114190476Y-88152438D02*
X114238095Y-88200057D01*
X114238095Y-88200057D02*
X114285714Y-88295295D01*
X114285714Y-88295295D02*
X114285714Y-88390533D01*
X114285714Y-88390533D02*
X114238095Y-88533390D01*
X114238095Y-88533390D02*
X113666667Y-89104819D01*
X113666667Y-89104819D02*
X114285714Y-89104819D01*
D11*
X113023809Y-85714895D02*
X112566666Y-85714895D01*
X112795238Y-85714895D02*
X112795238Y-84914895D01*
X112795238Y-84914895D02*
X112719047Y-85029180D01*
X112719047Y-85029180D02*
X112642857Y-85105371D01*
X112642857Y-85105371D02*
X112566666Y-85143466D01*
X113519048Y-84914895D02*
X113595238Y-84914895D01*
X113595238Y-84914895D02*
X113671429Y-84952990D01*
X113671429Y-84952990D02*
X113709524Y-84991085D01*
X113709524Y-84991085D02*
X113747619Y-85067276D01*
X113747619Y-85067276D02*
X113785714Y-85219657D01*
X113785714Y-85219657D02*
X113785714Y-85410133D01*
X113785714Y-85410133D02*
X113747619Y-85562514D01*
X113747619Y-85562514D02*
X113709524Y-85638704D01*
X113709524Y-85638704D02*
X113671429Y-85676800D01*
X113671429Y-85676800D02*
X113595238Y-85714895D01*
X113595238Y-85714895D02*
X113519048Y-85714895D01*
X113519048Y-85714895D02*
X113442857Y-85676800D01*
X113442857Y-85676800D02*
X113404762Y-85638704D01*
X113404762Y-85638704D02*
X113366667Y-85562514D01*
X113366667Y-85562514D02*
X113328571Y-85410133D01*
X113328571Y-85410133D02*
X113328571Y-85219657D01*
X113328571Y-85219657D02*
X113366667Y-85067276D01*
X113366667Y-85067276D02*
X113404762Y-84991085D01*
X113404762Y-84991085D02*
X113442857Y-84952990D01*
X113442857Y-84952990D02*
X113519048Y-84914895D01*
X114128572Y-85714895D02*
X114128572Y-84914895D01*
X114204762Y-85410133D02*
X114433334Y-85714895D01*
X114433334Y-85181561D02*
X114128572Y-85486323D01*
D12*
X148166666Y-74324819D02*
X148166666Y-75039104D01*
X148166666Y-75039104D02*
X148119047Y-75181961D01*
X148119047Y-75181961D02*
X148023809Y-75277200D01*
X148023809Y-75277200D02*
X147880952Y-75324819D01*
X147880952Y-75324819D02*
X147785714Y-75324819D01*
X149166666Y-75324819D02*
X148595238Y-75324819D01*
X148880952Y-75324819D02*
X148880952Y-74324819D01*
X148880952Y-74324819D02*
X148785714Y-74467676D01*
X148785714Y-74467676D02*
X148690476Y-74562914D01*
X148690476Y-74562914D02*
X148595238Y-74610533D01*
X104766666Y-89054819D02*
X104766666Y-89769104D01*
X104766666Y-89769104D02*
X104719047Y-89911961D01*
X104719047Y-89911961D02*
X104623809Y-90007200D01*
X104623809Y-90007200D02*
X104480952Y-90054819D01*
X104480952Y-90054819D02*
X104385714Y-90054819D01*
X105195238Y-89150057D02*
X105242857Y-89102438D01*
X105242857Y-89102438D02*
X105338095Y-89054819D01*
X105338095Y-89054819D02*
X105576190Y-89054819D01*
X105576190Y-89054819D02*
X105671428Y-89102438D01*
X105671428Y-89102438D02*
X105719047Y-89150057D01*
X105719047Y-89150057D02*
X105766666Y-89245295D01*
X105766666Y-89245295D02*
X105766666Y-89340533D01*
X105766666Y-89340533D02*
X105719047Y-89483390D01*
X105719047Y-89483390D02*
X105147619Y-90054819D01*
X105147619Y-90054819D02*
X105766666Y-90054819D01*
X105038095Y-62554819D02*
X105038095Y-61554819D01*
X105038095Y-62031009D02*
X105609523Y-62031009D01*
X105609523Y-62554819D02*
X105609523Y-61554819D01*
X106609523Y-62554819D02*
X106038095Y-62554819D01*
X106323809Y-62554819D02*
X106323809Y-61554819D01*
X106323809Y-61554819D02*
X106228571Y-61697676D01*
X106228571Y-61697676D02*
X106133333Y-61792914D01*
X106133333Y-61792914D02*
X106038095Y-61840533D01*
X131333333Y-85259580D02*
X131285714Y-85307200D01*
X131285714Y-85307200D02*
X131142857Y-85354819D01*
X131142857Y-85354819D02*
X131047619Y-85354819D01*
X131047619Y-85354819D02*
X130904762Y-85307200D01*
X130904762Y-85307200D02*
X130809524Y-85211961D01*
X130809524Y-85211961D02*
X130761905Y-85116723D01*
X130761905Y-85116723D02*
X130714286Y-84926247D01*
X130714286Y-84926247D02*
X130714286Y-84783390D01*
X130714286Y-84783390D02*
X130761905Y-84592914D01*
X130761905Y-84592914D02*
X130809524Y-84497676D01*
X130809524Y-84497676D02*
X130904762Y-84402438D01*
X130904762Y-84402438D02*
X131047619Y-84354819D01*
X131047619Y-84354819D02*
X131142857Y-84354819D01*
X131142857Y-84354819D02*
X131285714Y-84402438D01*
X131285714Y-84402438D02*
X131333333Y-84450057D01*
X132190476Y-84688152D02*
X132190476Y-85354819D01*
X131952381Y-84307200D02*
X131714286Y-85021485D01*
X131714286Y-85021485D02*
X132333333Y-85021485D01*
D11*
X135785714Y-82864895D02*
X135861904Y-82864895D01*
X135861904Y-82864895D02*
X135938095Y-82902990D01*
X135938095Y-82902990D02*
X135976190Y-82941085D01*
X135976190Y-82941085D02*
X136014285Y-83017276D01*
X136014285Y-83017276D02*
X136052380Y-83169657D01*
X136052380Y-83169657D02*
X136052380Y-83360133D01*
X136052380Y-83360133D02*
X136014285Y-83512514D01*
X136014285Y-83512514D02*
X135976190Y-83588704D01*
X135976190Y-83588704D02*
X135938095Y-83626800D01*
X135938095Y-83626800D02*
X135861904Y-83664895D01*
X135861904Y-83664895D02*
X135785714Y-83664895D01*
X135785714Y-83664895D02*
X135709523Y-83626800D01*
X135709523Y-83626800D02*
X135671428Y-83588704D01*
X135671428Y-83588704D02*
X135633333Y-83512514D01*
X135633333Y-83512514D02*
X135595237Y-83360133D01*
X135595237Y-83360133D02*
X135595237Y-83169657D01*
X135595237Y-83169657D02*
X135633333Y-83017276D01*
X135633333Y-83017276D02*
X135671428Y-82941085D01*
X135671428Y-82941085D02*
X135709523Y-82902990D01*
X135709523Y-82902990D02*
X135785714Y-82864895D01*
X136395238Y-83588704D02*
X136433333Y-83626800D01*
X136433333Y-83626800D02*
X136395238Y-83664895D01*
X136395238Y-83664895D02*
X136357142Y-83626800D01*
X136357142Y-83626800D02*
X136395238Y-83588704D01*
X136395238Y-83588704D02*
X136395238Y-83664895D01*
X137195237Y-83664895D02*
X136738094Y-83664895D01*
X136966666Y-83664895D02*
X136966666Y-82864895D01*
X136966666Y-82864895D02*
X136890475Y-82979180D01*
X136890475Y-82979180D02*
X136814285Y-83055371D01*
X136814285Y-83055371D02*
X136738094Y-83093466D01*
X137880952Y-83131561D02*
X137880952Y-83664895D01*
X137538095Y-83131561D02*
X137538095Y-83550609D01*
X137538095Y-83550609D02*
X137576190Y-83626800D01*
X137576190Y-83626800D02*
X137652380Y-83664895D01*
X137652380Y-83664895D02*
X137766666Y-83664895D01*
X137766666Y-83664895D02*
X137842857Y-83626800D01*
X137842857Y-83626800D02*
X137880952Y-83588704D01*
X138528571Y-83245847D02*
X138261905Y-83245847D01*
X138261905Y-83664895D02*
X138261905Y-82864895D01*
X138261905Y-82864895D02*
X138642857Y-82864895D01*
D12*
X125833333Y-62929580D02*
X125785714Y-62977200D01*
X125785714Y-62977200D02*
X125642857Y-63024819D01*
X125642857Y-63024819D02*
X125547619Y-63024819D01*
X125547619Y-63024819D02*
X125404762Y-62977200D01*
X125404762Y-62977200D02*
X125309524Y-62881961D01*
X125309524Y-62881961D02*
X125261905Y-62786723D01*
X125261905Y-62786723D02*
X125214286Y-62596247D01*
X125214286Y-62596247D02*
X125214286Y-62453390D01*
X125214286Y-62453390D02*
X125261905Y-62262914D01*
X125261905Y-62262914D02*
X125309524Y-62167676D01*
X125309524Y-62167676D02*
X125404762Y-62072438D01*
X125404762Y-62072438D02*
X125547619Y-62024819D01*
X125547619Y-62024819D02*
X125642857Y-62024819D01*
X125642857Y-62024819D02*
X125785714Y-62072438D01*
X125785714Y-62072438D02*
X125833333Y-62120057D01*
X126738095Y-62024819D02*
X126261905Y-62024819D01*
X126261905Y-62024819D02*
X126214286Y-62501009D01*
X126214286Y-62501009D02*
X126261905Y-62453390D01*
X126261905Y-62453390D02*
X126357143Y-62405771D01*
X126357143Y-62405771D02*
X126595238Y-62405771D01*
X126595238Y-62405771D02*
X126690476Y-62453390D01*
X126690476Y-62453390D02*
X126738095Y-62501009D01*
X126738095Y-62501009D02*
X126785714Y-62596247D01*
X126785714Y-62596247D02*
X126785714Y-62834342D01*
X126785714Y-62834342D02*
X126738095Y-62929580D01*
X126738095Y-62929580D02*
X126690476Y-62977200D01*
X126690476Y-62977200D02*
X126595238Y-63024819D01*
X126595238Y-63024819D02*
X126357143Y-63024819D01*
X126357143Y-63024819D02*
X126261905Y-62977200D01*
X126261905Y-62977200D02*
X126214286Y-62929580D01*
D11*
X124861904Y-66364895D02*
X124404761Y-66364895D01*
X124633333Y-66364895D02*
X124633333Y-65564895D01*
X124633333Y-65564895D02*
X124557142Y-65679180D01*
X124557142Y-65679180D02*
X124480952Y-65755371D01*
X124480952Y-65755371D02*
X124404761Y-65793466D01*
X125357143Y-65564895D02*
X125433333Y-65564895D01*
X125433333Y-65564895D02*
X125509524Y-65602990D01*
X125509524Y-65602990D02*
X125547619Y-65641085D01*
X125547619Y-65641085D02*
X125585714Y-65717276D01*
X125585714Y-65717276D02*
X125623809Y-65869657D01*
X125623809Y-65869657D02*
X125623809Y-66060133D01*
X125623809Y-66060133D02*
X125585714Y-66212514D01*
X125585714Y-66212514D02*
X125547619Y-66288704D01*
X125547619Y-66288704D02*
X125509524Y-66326800D01*
X125509524Y-66326800D02*
X125433333Y-66364895D01*
X125433333Y-66364895D02*
X125357143Y-66364895D01*
X125357143Y-66364895D02*
X125280952Y-66326800D01*
X125280952Y-66326800D02*
X125242857Y-66288704D01*
X125242857Y-66288704D02*
X125204762Y-66212514D01*
X125204762Y-66212514D02*
X125166666Y-66060133D01*
X125166666Y-66060133D02*
X125166666Y-65869657D01*
X125166666Y-65869657D02*
X125204762Y-65717276D01*
X125204762Y-65717276D02*
X125242857Y-65641085D01*
X125242857Y-65641085D02*
X125280952Y-65602990D01*
X125280952Y-65602990D02*
X125357143Y-65564895D01*
X126119048Y-65564895D02*
X126195238Y-65564895D01*
X126195238Y-65564895D02*
X126271429Y-65602990D01*
X126271429Y-65602990D02*
X126309524Y-65641085D01*
X126309524Y-65641085D02*
X126347619Y-65717276D01*
X126347619Y-65717276D02*
X126385714Y-65869657D01*
X126385714Y-65869657D02*
X126385714Y-66060133D01*
X126385714Y-66060133D02*
X126347619Y-66212514D01*
X126347619Y-66212514D02*
X126309524Y-66288704D01*
X126309524Y-66288704D02*
X126271429Y-66326800D01*
X126271429Y-66326800D02*
X126195238Y-66364895D01*
X126195238Y-66364895D02*
X126119048Y-66364895D01*
X126119048Y-66364895D02*
X126042857Y-66326800D01*
X126042857Y-66326800D02*
X126004762Y-66288704D01*
X126004762Y-66288704D02*
X125966667Y-66212514D01*
X125966667Y-66212514D02*
X125928571Y-66060133D01*
X125928571Y-66060133D02*
X125928571Y-65869657D01*
X125928571Y-65869657D02*
X125966667Y-65717276D01*
X125966667Y-65717276D02*
X126004762Y-65641085D01*
X126004762Y-65641085D02*
X126042857Y-65602990D01*
X126042857Y-65602990D02*
X126119048Y-65564895D01*
X126728572Y-65831561D02*
X126728572Y-66364895D01*
X126728572Y-65907752D02*
X126766667Y-65869657D01*
X126766667Y-65869657D02*
X126842857Y-65831561D01*
X126842857Y-65831561D02*
X126957143Y-65831561D01*
X126957143Y-65831561D02*
X127033334Y-65869657D01*
X127033334Y-65869657D02*
X127071429Y-65945847D01*
X127071429Y-65945847D02*
X127071429Y-66364895D01*
X127719048Y-65945847D02*
X127452382Y-65945847D01*
X127452382Y-66364895D02*
X127452382Y-65564895D01*
X127452382Y-65564895D02*
X127833334Y-65564895D01*
D12*
X144238095Y-63754819D02*
X144238095Y-62754819D01*
X144238095Y-63231009D02*
X144809523Y-63231009D01*
X144809523Y-63754819D02*
X144809523Y-62754819D01*
X145714285Y-63088152D02*
X145714285Y-63754819D01*
X145476190Y-62707200D02*
X145238095Y-63421485D01*
X145238095Y-63421485D02*
X145857142Y-63421485D01*
X122083333Y-62929580D02*
X122035714Y-62977200D01*
X122035714Y-62977200D02*
X121892857Y-63024819D01*
X121892857Y-63024819D02*
X121797619Y-63024819D01*
X121797619Y-63024819D02*
X121654762Y-62977200D01*
X121654762Y-62977200D02*
X121559524Y-62881961D01*
X121559524Y-62881961D02*
X121511905Y-62786723D01*
X121511905Y-62786723D02*
X121464286Y-62596247D01*
X121464286Y-62596247D02*
X121464286Y-62453390D01*
X121464286Y-62453390D02*
X121511905Y-62262914D01*
X121511905Y-62262914D02*
X121559524Y-62167676D01*
X121559524Y-62167676D02*
X121654762Y-62072438D01*
X121654762Y-62072438D02*
X121797619Y-62024819D01*
X121797619Y-62024819D02*
X121892857Y-62024819D01*
X121892857Y-62024819D02*
X122035714Y-62072438D01*
X122035714Y-62072438D02*
X122083333Y-62120057D01*
X122416667Y-62024819D02*
X123035714Y-62024819D01*
X123035714Y-62024819D02*
X122702381Y-62405771D01*
X122702381Y-62405771D02*
X122845238Y-62405771D01*
X122845238Y-62405771D02*
X122940476Y-62453390D01*
X122940476Y-62453390D02*
X122988095Y-62501009D01*
X122988095Y-62501009D02*
X123035714Y-62596247D01*
X123035714Y-62596247D02*
X123035714Y-62834342D01*
X123035714Y-62834342D02*
X122988095Y-62929580D01*
X122988095Y-62929580D02*
X122940476Y-62977200D01*
X122940476Y-62977200D02*
X122845238Y-63024819D01*
X122845238Y-63024819D02*
X122559524Y-63024819D01*
X122559524Y-63024819D02*
X122464286Y-62977200D01*
X122464286Y-62977200D02*
X122416667Y-62929580D01*
D11*
X120935713Y-65571085D02*
X120973809Y-65532990D01*
X120973809Y-65532990D02*
X121049999Y-65494895D01*
X121049999Y-65494895D02*
X121240475Y-65494895D01*
X121240475Y-65494895D02*
X121316666Y-65532990D01*
X121316666Y-65532990D02*
X121354761Y-65571085D01*
X121354761Y-65571085D02*
X121392856Y-65647276D01*
X121392856Y-65647276D02*
X121392856Y-65723466D01*
X121392856Y-65723466D02*
X121354761Y-65837752D01*
X121354761Y-65837752D02*
X120897618Y-66294895D01*
X120897618Y-66294895D02*
X121392856Y-66294895D01*
X121697618Y-65571085D02*
X121735714Y-65532990D01*
X121735714Y-65532990D02*
X121811904Y-65494895D01*
X121811904Y-65494895D02*
X122002380Y-65494895D01*
X122002380Y-65494895D02*
X122078571Y-65532990D01*
X122078571Y-65532990D02*
X122116666Y-65571085D01*
X122116666Y-65571085D02*
X122154761Y-65647276D01*
X122154761Y-65647276D02*
X122154761Y-65723466D01*
X122154761Y-65723466D02*
X122116666Y-65837752D01*
X122116666Y-65837752D02*
X121659523Y-66294895D01*
X121659523Y-66294895D02*
X122154761Y-66294895D01*
X122497619Y-65761561D02*
X122497619Y-66561561D01*
X122497619Y-65799657D02*
X122573809Y-65761561D01*
X122573809Y-65761561D02*
X122726190Y-65761561D01*
X122726190Y-65761561D02*
X122802381Y-65799657D01*
X122802381Y-65799657D02*
X122840476Y-65837752D01*
X122840476Y-65837752D02*
X122878571Y-65913942D01*
X122878571Y-65913942D02*
X122878571Y-66142514D01*
X122878571Y-66142514D02*
X122840476Y-66218704D01*
X122840476Y-66218704D02*
X122802381Y-66256800D01*
X122802381Y-66256800D02*
X122726190Y-66294895D01*
X122726190Y-66294895D02*
X122573809Y-66294895D01*
X122573809Y-66294895D02*
X122497619Y-66256800D01*
X123488095Y-65875847D02*
X123221429Y-65875847D01*
X123221429Y-66294895D02*
X123221429Y-65494895D01*
X123221429Y-65494895D02*
X123602381Y-65494895D01*
D12*
X134333333Y-67654819D02*
X134000000Y-67178628D01*
X133761905Y-67654819D02*
X133761905Y-66654819D01*
X133761905Y-66654819D02*
X134142857Y-66654819D01*
X134142857Y-66654819D02*
X134238095Y-66702438D01*
X134238095Y-66702438D02*
X134285714Y-66750057D01*
X134285714Y-66750057D02*
X134333333Y-66845295D01*
X134333333Y-66845295D02*
X134333333Y-66988152D01*
X134333333Y-66988152D02*
X134285714Y-67083390D01*
X134285714Y-67083390D02*
X134238095Y-67131009D01*
X134238095Y-67131009D02*
X134142857Y-67178628D01*
X134142857Y-67178628D02*
X133761905Y-67178628D01*
X134666667Y-66654819D02*
X135333333Y-66654819D01*
X135333333Y-66654819D02*
X134904762Y-67654819D01*
D11*
X130271428Y-69164895D02*
X130766666Y-69164895D01*
X130766666Y-69164895D02*
X130500000Y-69469657D01*
X130500000Y-69469657D02*
X130614285Y-69469657D01*
X130614285Y-69469657D02*
X130690476Y-69507752D01*
X130690476Y-69507752D02*
X130728571Y-69545847D01*
X130728571Y-69545847D02*
X130766666Y-69622038D01*
X130766666Y-69622038D02*
X130766666Y-69812514D01*
X130766666Y-69812514D02*
X130728571Y-69888704D01*
X130728571Y-69888704D02*
X130690476Y-69926800D01*
X130690476Y-69926800D02*
X130614285Y-69964895D01*
X130614285Y-69964895D02*
X130385714Y-69964895D01*
X130385714Y-69964895D02*
X130309523Y-69926800D01*
X130309523Y-69926800D02*
X130271428Y-69888704D01*
X131033333Y-69164895D02*
X131528571Y-69164895D01*
X131528571Y-69164895D02*
X131261905Y-69469657D01*
X131261905Y-69469657D02*
X131376190Y-69469657D01*
X131376190Y-69469657D02*
X131452381Y-69507752D01*
X131452381Y-69507752D02*
X131490476Y-69545847D01*
X131490476Y-69545847D02*
X131528571Y-69622038D01*
X131528571Y-69622038D02*
X131528571Y-69812514D01*
X131528571Y-69812514D02*
X131490476Y-69888704D01*
X131490476Y-69888704D02*
X131452381Y-69926800D01*
X131452381Y-69926800D02*
X131376190Y-69964895D01*
X131376190Y-69964895D02*
X131147619Y-69964895D01*
X131147619Y-69964895D02*
X131071428Y-69926800D01*
X131071428Y-69926800D02*
X131033333Y-69888704D01*
X132023810Y-69164895D02*
X132100000Y-69164895D01*
X132100000Y-69164895D02*
X132176191Y-69202990D01*
X132176191Y-69202990D02*
X132214286Y-69241085D01*
X132214286Y-69241085D02*
X132252381Y-69317276D01*
X132252381Y-69317276D02*
X132290476Y-69469657D01*
X132290476Y-69469657D02*
X132290476Y-69660133D01*
X132290476Y-69660133D02*
X132252381Y-69812514D01*
X132252381Y-69812514D02*
X132214286Y-69888704D01*
X132214286Y-69888704D02*
X132176191Y-69926800D01*
X132176191Y-69926800D02*
X132100000Y-69964895D01*
X132100000Y-69964895D02*
X132023810Y-69964895D01*
X132023810Y-69964895D02*
X131947619Y-69926800D01*
X131947619Y-69926800D02*
X131909524Y-69888704D01*
X131909524Y-69888704D02*
X131871429Y-69812514D01*
X131871429Y-69812514D02*
X131833333Y-69660133D01*
X131833333Y-69660133D02*
X131833333Y-69469657D01*
X131833333Y-69469657D02*
X131871429Y-69317276D01*
X131871429Y-69317276D02*
X131909524Y-69241085D01*
X131909524Y-69241085D02*
X131947619Y-69202990D01*
X131947619Y-69202990D02*
X132023810Y-69164895D01*
D12*
X110238095Y-62157319D02*
X110238095Y-62966842D01*
X110238095Y-62966842D02*
X110285714Y-63062080D01*
X110285714Y-63062080D02*
X110333333Y-63109700D01*
X110333333Y-63109700D02*
X110428571Y-63157319D01*
X110428571Y-63157319D02*
X110619047Y-63157319D01*
X110619047Y-63157319D02*
X110714285Y-63109700D01*
X110714285Y-63109700D02*
X110761904Y-63062080D01*
X110761904Y-63062080D02*
X110809523Y-62966842D01*
X110809523Y-62966842D02*
X110809523Y-62157319D01*
X111190476Y-62157319D02*
X111809523Y-62157319D01*
X111809523Y-62157319D02*
X111476190Y-62538271D01*
X111476190Y-62538271D02*
X111619047Y-62538271D01*
X111619047Y-62538271D02*
X111714285Y-62585890D01*
X111714285Y-62585890D02*
X111761904Y-62633509D01*
X111761904Y-62633509D02*
X111809523Y-62728747D01*
X111809523Y-62728747D02*
X111809523Y-62966842D01*
X111809523Y-62966842D02*
X111761904Y-63062080D01*
X111761904Y-63062080D02*
X111714285Y-63109700D01*
X111714285Y-63109700D02*
X111619047Y-63157319D01*
X111619047Y-63157319D02*
X111333333Y-63157319D01*
X111333333Y-63157319D02*
X111238095Y-63109700D01*
X111238095Y-63109700D02*
X111190476Y-63062080D01*
X147738095Y-89904819D02*
X147738095Y-88904819D01*
X147738095Y-89381009D02*
X148309523Y-89381009D01*
X148309523Y-89904819D02*
X148309523Y-88904819D01*
X148690476Y-88904819D02*
X149309523Y-88904819D01*
X149309523Y-88904819D02*
X148976190Y-89285771D01*
X148976190Y-89285771D02*
X149119047Y-89285771D01*
X149119047Y-89285771D02*
X149214285Y-89333390D01*
X149214285Y-89333390D02*
X149261904Y-89381009D01*
X149261904Y-89381009D02*
X149309523Y-89476247D01*
X149309523Y-89476247D02*
X149309523Y-89714342D01*
X149309523Y-89714342D02*
X149261904Y-89809580D01*
X149261904Y-89809580D02*
X149214285Y-89857200D01*
X149214285Y-89857200D02*
X149119047Y-89904819D01*
X149119047Y-89904819D02*
X148833333Y-89904819D01*
X148833333Y-89904819D02*
X148738095Y-89857200D01*
X148738095Y-89857200D02*
X148690476Y-89809580D01*
X102214285Y-68551009D02*
X102357142Y-68598628D01*
X102357142Y-68598628D02*
X102404761Y-68646247D01*
X102404761Y-68646247D02*
X102452380Y-68741485D01*
X102452380Y-68741485D02*
X102452380Y-68884342D01*
X102452380Y-68884342D02*
X102404761Y-68979580D01*
X102404761Y-68979580D02*
X102357142Y-69027200D01*
X102357142Y-69027200D02*
X102261904Y-69074819D01*
X102261904Y-69074819D02*
X101880952Y-69074819D01*
X101880952Y-69074819D02*
X101880952Y-68074819D01*
X101880952Y-68074819D02*
X102214285Y-68074819D01*
X102214285Y-68074819D02*
X102309523Y-68122438D01*
X102309523Y-68122438D02*
X102357142Y-68170057D01*
X102357142Y-68170057D02*
X102404761Y-68265295D01*
X102404761Y-68265295D02*
X102404761Y-68360533D01*
X102404761Y-68360533D02*
X102357142Y-68455771D01*
X102357142Y-68455771D02*
X102309523Y-68503390D01*
X102309523Y-68503390D02*
X102214285Y-68551009D01*
X102214285Y-68551009D02*
X101880952Y-68551009D01*
X102738095Y-68074819D02*
X103309523Y-68074819D01*
X103023809Y-69074819D02*
X103023809Y-68074819D01*
X104166666Y-69074819D02*
X103595238Y-69074819D01*
X103880952Y-69074819D02*
X103880952Y-68074819D01*
X103880952Y-68074819D02*
X103785714Y-68217676D01*
X103785714Y-68217676D02*
X103690476Y-68312914D01*
X103690476Y-68312914D02*
X103595238Y-68360533D01*
D11*
X101342856Y-75865847D02*
X101457142Y-75903942D01*
X101457142Y-75903942D02*
X101495237Y-75942038D01*
X101495237Y-75942038D02*
X101533333Y-76018228D01*
X101533333Y-76018228D02*
X101533333Y-76132514D01*
X101533333Y-76132514D02*
X101495237Y-76208704D01*
X101495237Y-76208704D02*
X101457142Y-76246800D01*
X101457142Y-76246800D02*
X101380952Y-76284895D01*
X101380952Y-76284895D02*
X101076190Y-76284895D01*
X101076190Y-76284895D02*
X101076190Y-75484895D01*
X101076190Y-75484895D02*
X101342856Y-75484895D01*
X101342856Y-75484895D02*
X101419047Y-75522990D01*
X101419047Y-75522990D02*
X101457142Y-75561085D01*
X101457142Y-75561085D02*
X101495237Y-75637276D01*
X101495237Y-75637276D02*
X101495237Y-75713466D01*
X101495237Y-75713466D02*
X101457142Y-75789657D01*
X101457142Y-75789657D02*
X101419047Y-75827752D01*
X101419047Y-75827752D02*
X101342856Y-75865847D01*
X101342856Y-75865847D02*
X101076190Y-75865847D01*
X102219047Y-76284895D02*
X102219047Y-75865847D01*
X102219047Y-75865847D02*
X102180952Y-75789657D01*
X102180952Y-75789657D02*
X102104761Y-75751561D01*
X102104761Y-75751561D02*
X101952380Y-75751561D01*
X101952380Y-75751561D02*
X101876190Y-75789657D01*
X102219047Y-76246800D02*
X102142856Y-76284895D01*
X102142856Y-76284895D02*
X101952380Y-76284895D01*
X101952380Y-76284895D02*
X101876190Y-76246800D01*
X101876190Y-76246800D02*
X101838094Y-76170609D01*
X101838094Y-76170609D02*
X101838094Y-76094419D01*
X101838094Y-76094419D02*
X101876190Y-76018228D01*
X101876190Y-76018228D02*
X101952380Y-75980133D01*
X101952380Y-75980133D02*
X102142856Y-75980133D01*
X102142856Y-75980133D02*
X102219047Y-75942038D01*
X102485714Y-75751561D02*
X102790476Y-75751561D01*
X102600000Y-75484895D02*
X102600000Y-76170609D01*
X102600000Y-76170609D02*
X102638095Y-76246800D01*
X102638095Y-76246800D02*
X102714285Y-76284895D01*
X102714285Y-76284895D02*
X102790476Y-76284895D01*
X102942857Y-75751561D02*
X103247619Y-75751561D01*
X103057143Y-75484895D02*
X103057143Y-76170609D01*
X103057143Y-76170609D02*
X103095238Y-76246800D01*
X103095238Y-76246800D02*
X103171428Y-76284895D01*
X103171428Y-76284895D02*
X103247619Y-76284895D01*
X103819048Y-76246800D02*
X103742857Y-76284895D01*
X103742857Y-76284895D02*
X103590476Y-76284895D01*
X103590476Y-76284895D02*
X103514286Y-76246800D01*
X103514286Y-76246800D02*
X103476190Y-76170609D01*
X103476190Y-76170609D02*
X103476190Y-75865847D01*
X103476190Y-75865847D02*
X103514286Y-75789657D01*
X103514286Y-75789657D02*
X103590476Y-75751561D01*
X103590476Y-75751561D02*
X103742857Y-75751561D01*
X103742857Y-75751561D02*
X103819048Y-75789657D01*
X103819048Y-75789657D02*
X103857143Y-75865847D01*
X103857143Y-75865847D02*
X103857143Y-75942038D01*
X103857143Y-75942038D02*
X103476190Y-76018228D01*
X104200000Y-76284895D02*
X104200000Y-75751561D01*
X104200000Y-75903942D02*
X104238095Y-75827752D01*
X104238095Y-75827752D02*
X104276190Y-75789657D01*
X104276190Y-75789657D02*
X104352381Y-75751561D01*
X104352381Y-75751561D02*
X104428571Y-75751561D01*
X104619047Y-75751561D02*
X104809523Y-76284895D01*
X105000000Y-75751561D02*
X104809523Y-76284895D01*
X104809523Y-76284895D02*
X104733333Y-76475371D01*
X104733333Y-76475371D02*
X104695238Y-76513466D01*
X104695238Y-76513466D02*
X104619047Y-76551561D01*
D12*
X114738095Y-83954819D02*
X114738095Y-84764342D01*
X114738095Y-84764342D02*
X114785714Y-84859580D01*
X114785714Y-84859580D02*
X114833333Y-84907200D01*
X114833333Y-84907200D02*
X114928571Y-84954819D01*
X114928571Y-84954819D02*
X115119047Y-84954819D01*
X115119047Y-84954819D02*
X115214285Y-84907200D01*
X115214285Y-84907200D02*
X115261904Y-84859580D01*
X115261904Y-84859580D02*
X115309523Y-84764342D01*
X115309523Y-84764342D02*
X115309523Y-83954819D01*
X115738095Y-84050057D02*
X115785714Y-84002438D01*
X115785714Y-84002438D02*
X115880952Y-83954819D01*
X115880952Y-83954819D02*
X116119047Y-83954819D01*
X116119047Y-83954819D02*
X116214285Y-84002438D01*
X116214285Y-84002438D02*
X116261904Y-84050057D01*
X116261904Y-84050057D02*
X116309523Y-84145295D01*
X116309523Y-84145295D02*
X116309523Y-84240533D01*
X116309523Y-84240533D02*
X116261904Y-84383390D01*
X116261904Y-84383390D02*
X115690476Y-84954819D01*
X115690476Y-84954819D02*
X116309523Y-84954819D01*
X137854819Y-77466666D02*
X137378628Y-77799999D01*
X137854819Y-78038094D02*
X136854819Y-78038094D01*
X136854819Y-78038094D02*
X136854819Y-77657142D01*
X136854819Y-77657142D02*
X136902438Y-77561904D01*
X136902438Y-77561904D02*
X136950057Y-77514285D01*
X136950057Y-77514285D02*
X137045295Y-77466666D01*
X137045295Y-77466666D02*
X137188152Y-77466666D01*
X137188152Y-77466666D02*
X137283390Y-77514285D01*
X137283390Y-77514285D02*
X137331009Y-77561904D01*
X137331009Y-77561904D02*
X137378628Y-77657142D01*
X137378628Y-77657142D02*
X137378628Y-78038094D01*
X136854819Y-77133332D02*
X136854819Y-76514285D01*
X136854819Y-76514285D02*
X137235771Y-76847618D01*
X137235771Y-76847618D02*
X137235771Y-76704761D01*
X137235771Y-76704761D02*
X137283390Y-76609523D01*
X137283390Y-76609523D02*
X137331009Y-76561904D01*
X137331009Y-76561904D02*
X137426247Y-76514285D01*
X137426247Y-76514285D02*
X137664342Y-76514285D01*
X137664342Y-76514285D02*
X137759580Y-76561904D01*
X137759580Y-76561904D02*
X137807200Y-76609523D01*
X137807200Y-76609523D02*
X137854819Y-76704761D01*
X137854819Y-76704761D02*
X137854819Y-76990475D01*
X137854819Y-76990475D02*
X137807200Y-77085713D01*
X137807200Y-77085713D02*
X137759580Y-77133332D01*
D11*
X133203452Y-75681561D02*
X133203452Y-76214895D01*
X133012976Y-75376800D02*
X132822499Y-75948228D01*
X132822499Y-75948228D02*
X133317738Y-75948228D01*
X133622500Y-76138704D02*
X133660595Y-76176800D01*
X133660595Y-76176800D02*
X133622500Y-76214895D01*
X133622500Y-76214895D02*
X133584404Y-76176800D01*
X133584404Y-76176800D02*
X133622500Y-76138704D01*
X133622500Y-76138704D02*
X133622500Y-76214895D01*
X133927261Y-75414895D02*
X134460595Y-75414895D01*
X134460595Y-75414895D02*
X134117737Y-76214895D01*
X134765357Y-76214895D02*
X134765357Y-75414895D01*
X135222500Y-76214895D02*
X134879642Y-75757752D01*
X135222500Y-75414895D02*
X134765357Y-75872038D01*
D12*
X141133333Y-73054819D02*
X140800000Y-72578628D01*
X140561905Y-73054819D02*
X140561905Y-72054819D01*
X140561905Y-72054819D02*
X140942857Y-72054819D01*
X140942857Y-72054819D02*
X141038095Y-72102438D01*
X141038095Y-72102438D02*
X141085714Y-72150057D01*
X141085714Y-72150057D02*
X141133333Y-72245295D01*
X141133333Y-72245295D02*
X141133333Y-72388152D01*
X141133333Y-72388152D02*
X141085714Y-72483390D01*
X141085714Y-72483390D02*
X141038095Y-72531009D01*
X141038095Y-72531009D02*
X140942857Y-72578628D01*
X140942857Y-72578628D02*
X140561905Y-72578628D01*
X141990476Y-72054819D02*
X141800000Y-72054819D01*
X141800000Y-72054819D02*
X141704762Y-72102438D01*
X141704762Y-72102438D02*
X141657143Y-72150057D01*
X141657143Y-72150057D02*
X141561905Y-72292914D01*
X141561905Y-72292914D02*
X141514286Y-72483390D01*
X141514286Y-72483390D02*
X141514286Y-72864342D01*
X141514286Y-72864342D02*
X141561905Y-72959580D01*
X141561905Y-72959580D02*
X141609524Y-73007200D01*
X141609524Y-73007200D02*
X141704762Y-73054819D01*
X141704762Y-73054819D02*
X141895238Y-73054819D01*
X141895238Y-73054819D02*
X141990476Y-73007200D01*
X141990476Y-73007200D02*
X142038095Y-72959580D01*
X142038095Y-72959580D02*
X142085714Y-72864342D01*
X142085714Y-72864342D02*
X142085714Y-72626247D01*
X142085714Y-72626247D02*
X142038095Y-72531009D01*
X142038095Y-72531009D02*
X141990476Y-72483390D01*
X141990476Y-72483390D02*
X141895238Y-72435771D01*
X141895238Y-72435771D02*
X141704762Y-72435771D01*
X141704762Y-72435771D02*
X141609524Y-72483390D01*
X141609524Y-72483390D02*
X141561905Y-72531009D01*
X141561905Y-72531009D02*
X141514286Y-72626247D01*
D11*
X137882618Y-75264895D02*
X137425475Y-75264895D01*
X137654047Y-75264895D02*
X137654047Y-74464895D01*
X137654047Y-74464895D02*
X137577856Y-74579180D01*
X137577856Y-74579180D02*
X137501666Y-74655371D01*
X137501666Y-74655371D02*
X137425475Y-74693466D01*
X138377857Y-74464895D02*
X138454047Y-74464895D01*
X138454047Y-74464895D02*
X138530238Y-74502990D01*
X138530238Y-74502990D02*
X138568333Y-74541085D01*
X138568333Y-74541085D02*
X138606428Y-74617276D01*
X138606428Y-74617276D02*
X138644523Y-74769657D01*
X138644523Y-74769657D02*
X138644523Y-74960133D01*
X138644523Y-74960133D02*
X138606428Y-75112514D01*
X138606428Y-75112514D02*
X138568333Y-75188704D01*
X138568333Y-75188704D02*
X138530238Y-75226800D01*
X138530238Y-75226800D02*
X138454047Y-75264895D01*
X138454047Y-75264895D02*
X138377857Y-75264895D01*
X138377857Y-75264895D02*
X138301666Y-75226800D01*
X138301666Y-75226800D02*
X138263571Y-75188704D01*
X138263571Y-75188704D02*
X138225476Y-75112514D01*
X138225476Y-75112514D02*
X138187380Y-74960133D01*
X138187380Y-74960133D02*
X138187380Y-74769657D01*
X138187380Y-74769657D02*
X138225476Y-74617276D01*
X138225476Y-74617276D02*
X138263571Y-74541085D01*
X138263571Y-74541085D02*
X138301666Y-74502990D01*
X138301666Y-74502990D02*
X138377857Y-74464895D01*
X138987381Y-75264895D02*
X138987381Y-74464895D01*
X139444524Y-75264895D02*
X139101666Y-74807752D01*
X139444524Y-74464895D02*
X138987381Y-74922038D01*
D12*
X101163809Y-86178628D02*
X101163809Y-86654819D01*
X100830476Y-85654819D02*
X101163809Y-86178628D01*
X101163809Y-86178628D02*
X101497142Y-85654819D01*
X102354285Y-86654819D02*
X101782857Y-86654819D01*
X102068571Y-86654819D02*
X102068571Y-85654819D01*
X102068571Y-85654819D02*
X101973333Y-85797676D01*
X101973333Y-85797676D02*
X101878095Y-85892914D01*
X101878095Y-85892914D02*
X101782857Y-85940533D01*
D11*
X105864895Y-85354762D02*
X105864895Y-84859524D01*
X105864895Y-84859524D02*
X106169657Y-85126190D01*
X106169657Y-85126190D02*
X106169657Y-85011905D01*
X106169657Y-85011905D02*
X106207752Y-84935714D01*
X106207752Y-84935714D02*
X106245847Y-84897619D01*
X106245847Y-84897619D02*
X106322038Y-84859524D01*
X106322038Y-84859524D02*
X106512514Y-84859524D01*
X106512514Y-84859524D02*
X106588704Y-84897619D01*
X106588704Y-84897619D02*
X106626800Y-84935714D01*
X106626800Y-84935714D02*
X106664895Y-85011905D01*
X106664895Y-85011905D02*
X106664895Y-85240476D01*
X106664895Y-85240476D02*
X106626800Y-85316667D01*
X106626800Y-85316667D02*
X106588704Y-85354762D01*
X105941085Y-84554762D02*
X105902990Y-84516666D01*
X105902990Y-84516666D02*
X105864895Y-84440476D01*
X105864895Y-84440476D02*
X105864895Y-84250000D01*
X105864895Y-84250000D02*
X105902990Y-84173809D01*
X105902990Y-84173809D02*
X105941085Y-84135714D01*
X105941085Y-84135714D02*
X106017276Y-84097619D01*
X106017276Y-84097619D02*
X106093466Y-84097619D01*
X106093466Y-84097619D02*
X106207752Y-84135714D01*
X106207752Y-84135714D02*
X106664895Y-84592857D01*
X106664895Y-84592857D02*
X106664895Y-84097619D01*
X106588704Y-83754761D02*
X106626800Y-83716666D01*
X106626800Y-83716666D02*
X106664895Y-83754761D01*
X106664895Y-83754761D02*
X106626800Y-83792857D01*
X106626800Y-83792857D02*
X106588704Y-83754761D01*
X106588704Y-83754761D02*
X106664895Y-83754761D01*
X105864895Y-83450000D02*
X105864895Y-82916666D01*
X105864895Y-82916666D02*
X106664895Y-83259524D01*
X105864895Y-82269047D02*
X105864895Y-82421428D01*
X105864895Y-82421428D02*
X105902990Y-82497619D01*
X105902990Y-82497619D02*
X105941085Y-82535714D01*
X105941085Y-82535714D02*
X106055371Y-82611904D01*
X106055371Y-82611904D02*
X106207752Y-82650000D01*
X106207752Y-82650000D02*
X106512514Y-82650000D01*
X106512514Y-82650000D02*
X106588704Y-82611904D01*
X106588704Y-82611904D02*
X106626800Y-82573809D01*
X106626800Y-82573809D02*
X106664895Y-82497619D01*
X106664895Y-82497619D02*
X106664895Y-82345238D01*
X106664895Y-82345238D02*
X106626800Y-82269047D01*
X106626800Y-82269047D02*
X106588704Y-82230952D01*
X106588704Y-82230952D02*
X106512514Y-82192857D01*
X106512514Y-82192857D02*
X106322038Y-82192857D01*
X106322038Y-82192857D02*
X106245847Y-82230952D01*
X106245847Y-82230952D02*
X106207752Y-82269047D01*
X106207752Y-82269047D02*
X106169657Y-82345238D01*
X106169657Y-82345238D02*
X106169657Y-82497619D01*
X106169657Y-82497619D02*
X106207752Y-82573809D01*
X106207752Y-82573809D02*
X106245847Y-82611904D01*
X106245847Y-82611904D02*
X106322038Y-82650000D01*
X106207752Y-81735714D02*
X106169657Y-81811904D01*
X106169657Y-81811904D02*
X106131561Y-81849999D01*
X106131561Y-81849999D02*
X106055371Y-81888095D01*
X106055371Y-81888095D02*
X106017276Y-81888095D01*
X106017276Y-81888095D02*
X105941085Y-81849999D01*
X105941085Y-81849999D02*
X105902990Y-81811904D01*
X105902990Y-81811904D02*
X105864895Y-81735714D01*
X105864895Y-81735714D02*
X105864895Y-81583333D01*
X105864895Y-81583333D02*
X105902990Y-81507142D01*
X105902990Y-81507142D02*
X105941085Y-81469047D01*
X105941085Y-81469047D02*
X106017276Y-81430952D01*
X106017276Y-81430952D02*
X106055371Y-81430952D01*
X106055371Y-81430952D02*
X106131561Y-81469047D01*
X106131561Y-81469047D02*
X106169657Y-81507142D01*
X106169657Y-81507142D02*
X106207752Y-81583333D01*
X106207752Y-81583333D02*
X106207752Y-81735714D01*
X106207752Y-81735714D02*
X106245847Y-81811904D01*
X106245847Y-81811904D02*
X106283942Y-81849999D01*
X106283942Y-81849999D02*
X106360133Y-81888095D01*
X106360133Y-81888095D02*
X106512514Y-81888095D01*
X106512514Y-81888095D02*
X106588704Y-81849999D01*
X106588704Y-81849999D02*
X106626800Y-81811904D01*
X106626800Y-81811904D02*
X106664895Y-81735714D01*
X106664895Y-81735714D02*
X106664895Y-81583333D01*
X106664895Y-81583333D02*
X106626800Y-81507142D01*
X106626800Y-81507142D02*
X106588704Y-81469047D01*
X106588704Y-81469047D02*
X106512514Y-81430952D01*
X106512514Y-81430952D02*
X106360133Y-81430952D01*
X106360133Y-81430952D02*
X106283942Y-81469047D01*
X106283942Y-81469047D02*
X106245847Y-81507142D01*
X106245847Y-81507142D02*
X106207752Y-81583333D01*
X106664895Y-80478570D02*
X105864895Y-80478570D01*
X106664895Y-80021427D02*
X106207752Y-80364285D01*
X105864895Y-80021427D02*
X106322038Y-80478570D01*
X106664895Y-79678570D02*
X105864895Y-79678570D01*
X106245847Y-79678570D02*
X106245847Y-79221427D01*
X106664895Y-79221427D02*
X105864895Y-79221427D01*
D12*
X133324405Y-63054819D02*
X133324405Y-62054819D01*
X133324405Y-62054819D02*
X133562500Y-62054819D01*
X133562500Y-62054819D02*
X133705357Y-62102438D01*
X133705357Y-62102438D02*
X133800595Y-62197676D01*
X133800595Y-62197676D02*
X133848214Y-62292914D01*
X133848214Y-62292914D02*
X133895833Y-62483390D01*
X133895833Y-62483390D02*
X133895833Y-62626247D01*
X133895833Y-62626247D02*
X133848214Y-62816723D01*
X133848214Y-62816723D02*
X133800595Y-62911961D01*
X133800595Y-62911961D02*
X133705357Y-63007200D01*
X133705357Y-63007200D02*
X133562500Y-63054819D01*
X133562500Y-63054819D02*
X133324405Y-63054819D01*
X134276786Y-62150057D02*
X134324405Y-62102438D01*
X134324405Y-62102438D02*
X134419643Y-62054819D01*
X134419643Y-62054819D02*
X134657738Y-62054819D01*
X134657738Y-62054819D02*
X134752976Y-62102438D01*
X134752976Y-62102438D02*
X134800595Y-62150057D01*
X134800595Y-62150057D02*
X134848214Y-62245295D01*
X134848214Y-62245295D02*
X134848214Y-62340533D01*
X134848214Y-62340533D02*
X134800595Y-62483390D01*
X134800595Y-62483390D02*
X134229167Y-63054819D01*
X134229167Y-63054819D02*
X134848214Y-63054819D01*
D11*
X133548214Y-66264895D02*
X133167262Y-66264895D01*
X133167262Y-66264895D02*
X133167262Y-65464895D01*
X133814881Y-65845847D02*
X134081547Y-65845847D01*
X134195833Y-66264895D02*
X133814881Y-66264895D01*
X133814881Y-66264895D02*
X133814881Y-65464895D01*
X133814881Y-65464895D02*
X134195833Y-65464895D01*
X134538691Y-66264895D02*
X134538691Y-65464895D01*
X134538691Y-65464895D02*
X134729167Y-65464895D01*
X134729167Y-65464895D02*
X134843453Y-65502990D01*
X134843453Y-65502990D02*
X134919643Y-65579180D01*
X134919643Y-65579180D02*
X134957738Y-65655371D01*
X134957738Y-65655371D02*
X134995834Y-65807752D01*
X134995834Y-65807752D02*
X134995834Y-65922038D01*
X134995834Y-65922038D02*
X134957738Y-66074419D01*
X134957738Y-66074419D02*
X134919643Y-66150609D01*
X134919643Y-66150609D02*
X134843453Y-66226800D01*
X134843453Y-66226800D02*
X134729167Y-66264895D01*
X134729167Y-66264895D02*
X134538691Y-66264895D01*
D12*
X131433333Y-74054819D02*
X131100000Y-73578628D01*
X130861905Y-74054819D02*
X130861905Y-73054819D01*
X130861905Y-73054819D02*
X131242857Y-73054819D01*
X131242857Y-73054819D02*
X131338095Y-73102438D01*
X131338095Y-73102438D02*
X131385714Y-73150057D01*
X131385714Y-73150057D02*
X131433333Y-73245295D01*
X131433333Y-73245295D02*
X131433333Y-73388152D01*
X131433333Y-73388152D02*
X131385714Y-73483390D01*
X131385714Y-73483390D02*
X131338095Y-73531009D01*
X131338095Y-73531009D02*
X131242857Y-73578628D01*
X131242857Y-73578628D02*
X130861905Y-73578628D01*
X132290476Y-73388152D02*
X132290476Y-74054819D01*
X132052381Y-73007200D02*
X131814286Y-73721485D01*
X131814286Y-73721485D02*
X132433333Y-73721485D01*
D11*
X133203452Y-71431561D02*
X133203452Y-71964895D01*
X133012976Y-71126800D02*
X132822499Y-71698228D01*
X132822499Y-71698228D02*
X133317738Y-71698228D01*
X133622500Y-71888704D02*
X133660595Y-71926800D01*
X133660595Y-71926800D02*
X133622500Y-71964895D01*
X133622500Y-71964895D02*
X133584404Y-71926800D01*
X133584404Y-71926800D02*
X133622500Y-71888704D01*
X133622500Y-71888704D02*
X133622500Y-71964895D01*
X133927261Y-71164895D02*
X134460595Y-71164895D01*
X134460595Y-71164895D02*
X134117737Y-71964895D01*
X134765357Y-71964895D02*
X134765357Y-71164895D01*
X135222500Y-71964895D02*
X134879642Y-71507752D01*
X135222500Y-71164895D02*
X134765357Y-71622038D01*
%TO.C,Y2*%
D13*
X122340000Y-84610000D02*
X129710000Y-84610000D01*
X129710000Y-80890000D02*
X122340000Y-80890000D01*
X129710000Y-84610000D02*
X129710000Y-80890000D01*
%TO.C,D1*%
X136790000Y-63290000D02*
X136790000Y-65210000D01*
X136790000Y-65210000D02*
X139475000Y-65210000D01*
X139475000Y-63290000D02*
X136790000Y-63290000D01*
%TO.C,R1*%
X109727064Y-87735000D02*
X109272936Y-87735000D01*
X109727064Y-86265000D02*
X109272936Y-86265000D01*
%TO.C,C1*%
X118761252Y-63515000D02*
X118238748Y-63515000D01*
X118761252Y-64985000D02*
X118238748Y-64985000D01*
%TO.C,U4*%
D14*
X120420000Y-70250000D02*
X120420000Y-70355000D01*
X120420000Y-70250000D02*
X120525000Y-70250000D01*
X120420000Y-77250000D02*
X120420000Y-77145000D01*
X120420000Y-77250000D02*
X120525000Y-77250000D01*
X127420000Y-70250000D02*
X127315000Y-70250000D01*
X127420000Y-70250000D02*
X127420000Y-70355000D01*
X127420000Y-77250000D02*
X127315000Y-77250000D01*
X127420000Y-77250000D02*
X127420000Y-77145000D01*
D10*
X118180000Y-70950000D02*
G75*
G02*
X117980000Y-70950000I-100000J0D01*
G01*
X117980000Y-70950000D02*
G75*
G02*
X118180000Y-70950000I100000J0D01*
G01*
%TO.C,J3*%
D13*
X132250000Y-93880000D02*
X132250000Y-92500000D01*
X133630000Y-93880000D02*
X132250000Y-93880000D01*
X134900000Y-91120000D02*
X142630000Y-91120000D01*
X134900000Y-93880000D02*
X134900000Y-91120000D01*
X134900000Y-93880000D02*
X142630000Y-93880000D01*
X142630000Y-93880000D02*
X142630000Y-91120000D01*
%TO.C,C2*%
X134303752Y-79515000D02*
X133781248Y-79515000D01*
X134303752Y-80985000D02*
X133781248Y-80985000D01*
%TO.C,J4*%
X145080000Y-65370000D02*
X146460000Y-65370000D01*
X145080000Y-66750000D02*
X145080000Y-65370000D01*
X145080000Y-68020000D02*
X145080000Y-73210000D01*
X145080000Y-68020000D02*
X147730000Y-68020000D01*
X145080000Y-73210000D02*
X150380000Y-73210000D01*
X147730000Y-65370000D02*
X150380000Y-65370000D01*
X147730000Y-68020000D02*
X147730000Y-65370000D01*
X150380000Y-65370000D02*
X150380000Y-73210000D01*
%TO.C,R5*%
X138662064Y-68515000D02*
X138207936Y-68515000D01*
X138662064Y-69985000D02*
X138207936Y-69985000D01*
%TO.C,U1*%
X108490000Y-70240000D02*
X114010000Y-70240000D01*
X108490000Y-70510000D02*
X108490000Y-70240000D01*
X108490000Y-75760000D02*
X108490000Y-75490000D01*
X114010000Y-70240000D02*
X114010000Y-70510000D01*
X114010000Y-75490000D02*
X114010000Y-75760000D01*
X114010000Y-75760000D02*
X108490000Y-75760000D01*
X107660000Y-70500000D02*
X107320000Y-70030000D01*
X108000000Y-70030000D01*
X107660000Y-70500000D01*
G36*
X107660000Y-70500000D02*
G01*
X107320000Y-70030000D01*
X108000000Y-70030000D01*
X107660000Y-70500000D01*
G37*
%TO.C,R2*%
X113727064Y-86265000D02*
X113272936Y-86265000D01*
X113727064Y-87735000D02*
X113272936Y-87735000D01*
%TO.C,J1*%
X147120000Y-75870000D02*
X148500000Y-75870000D01*
X147120000Y-77250000D02*
X147120000Y-75870000D01*
X147120000Y-78520000D02*
X147120000Y-86250000D01*
X147120000Y-78520000D02*
X149880000Y-78520000D01*
X147120000Y-86250000D02*
X149880000Y-86250000D01*
X149880000Y-78520000D02*
X149880000Y-86250000D01*
%TO.C,J2*%
X105830000Y-93880000D02*
X105830000Y-92500000D01*
X107210000Y-93880000D02*
X105830000Y-93880000D01*
X108480000Y-91120000D02*
X128910000Y-91120000D01*
X108480000Y-93880000D02*
X108480000Y-91120000D01*
X108480000Y-93880000D02*
X128910000Y-93880000D01*
X128910000Y-93880000D02*
X128910000Y-91120000D01*
%TO.C,C4*%
X134303752Y-83265000D02*
X133781248Y-83265000D01*
X134303752Y-84735000D02*
X133781248Y-84735000D01*
%TO.C,C5*%
X125738748Y-63515000D02*
X126261252Y-63515000D01*
X125738748Y-64985000D02*
X126261252Y-64985000D01*
%TO.C,C3*%
X121988748Y-63515000D02*
X122511252Y-63515000D01*
X121988748Y-64985000D02*
X122511252Y-64985000D01*
%TO.C,R7*%
X133795436Y-68515000D02*
X134249564Y-68515000D01*
X133795436Y-69985000D02*
X134249564Y-69985000D01*
%TO.C,U3*%
X108240000Y-63542500D02*
X113760000Y-63542500D01*
X108240000Y-63812500D02*
X108240000Y-63542500D01*
X108240000Y-69062500D02*
X108240000Y-68792500D01*
X113760000Y-63542500D02*
X113760000Y-63812500D01*
X113760000Y-68792500D02*
X113760000Y-69062500D01*
X113760000Y-69062500D02*
X108240000Y-69062500D01*
X107410000Y-63802500D02*
X107070000Y-63332500D01*
X107750000Y-63332500D01*
X107410000Y-63802500D01*
G36*
X107410000Y-63802500D02*
G01*
X107070000Y-63332500D01*
X107750000Y-63332500D01*
X107410000Y-63802500D01*
G37*
%TO.C,BT1*%
X101620000Y-69620000D02*
X103000000Y-69620000D01*
X101620000Y-71000000D02*
X101620000Y-69620000D01*
X101620000Y-72270000D02*
X101620000Y-74920000D01*
X101620000Y-72270000D02*
X104380000Y-72270000D01*
X101620000Y-74920000D02*
X104380000Y-74920000D01*
X104380000Y-72270000D02*
X104380000Y-74920000D01*
%TO.C,U2*%
D14*
X109250000Y-78480000D02*
X113250000Y-78480000D01*
X109250000Y-83520000D02*
X113250000Y-83520000D01*
D10*
X106905000Y-78505000D02*
G75*
G02*
X106705000Y-78505000I-100000J0D01*
G01*
X106705000Y-78505000D02*
G75*
G02*
X106905000Y-78505000I100000J0D01*
G01*
%TO.C,R3*%
D13*
X134249564Y-76765000D02*
X133795436Y-76765000D01*
X134249564Y-78235000D02*
X133795436Y-78235000D01*
%TO.C,R6*%
X138207936Y-72515000D02*
X138662064Y-72515000D01*
X138207936Y-73985000D02*
X138662064Y-73985000D01*
%TO.C,Y1*%
X101640000Y-79490000D02*
X101640000Y-85360000D01*
X101640000Y-85360000D02*
X105360000Y-85360000D01*
X105360000Y-85360000D02*
X105360000Y-79490000D01*
%TO.C,D2*%
X132377500Y-63290000D02*
X132377500Y-65210000D01*
X132377500Y-65210000D02*
X135062500Y-65210000D01*
X135062500Y-63290000D02*
X132377500Y-63290000D01*
%TO.C,R4*%
X134249564Y-72515000D02*
X133795436Y-72515000D01*
X134249564Y-73985000D02*
X133795436Y-73985000D01*
%TD*%
M02*
