%TF.GenerationSoftware,KiCad,Pcbnew,10.0.1*%
%TF.CreationDate,2026-05-14T10:50:36-07:00*%
%TF.ProjectId,MCU Datalogger,4d435520-4461-4746-916c-6f676765722e,1*%
%TF.SameCoordinates,Original*%
%TF.FileFunction,Copper,L2,Bot*%
%TF.FilePolarity,Positive*%
%FSLAX46Y46*%
G04 Gerber Fmt 4.6, Leading zero omitted, Abs format (unit mm)*
G04 Created by KiCad (PCBNEW 10.0.1) date 2026-05-14 10:50:36*
%MOMM*%
%LPD*%
G01*
G04 APERTURE LIST*
%TA.AperFunction,ComponentPad*%
%ADD10R,1.700000X1.700000*%
%TD*%
%TA.AperFunction,ComponentPad*%
%ADD11C,1.700000*%
%TD*%
%TA.AperFunction,ViaPad*%
%ADD12C,0.600000*%
%TD*%
%TA.AperFunction,ViaPad*%
%ADD13C,0.800000*%
%TD*%
%TA.AperFunction,Conductor*%
%ADD14C,0.200000*%
%TD*%
%TA.AperFunction,Conductor*%
%ADD15C,0.350000*%
%TD*%
G04 APERTURE END LIST*
D10*
%TO.P,J2,1,Pin_1_1*%
%TO.N,/D2*%
X107210000Y-92500000D03*
D11*
%TO.P,J2,2,Pin_2_2*%
%TO.N,/D3*%
X109750000Y-92500000D03*
%TO.P,J2,3,Pin_3_3*%
%TO.N,/D4*%
X112290000Y-92500000D03*
%TO.P,J2,4,Pin_4_4*%
%TO.N,/D5*%
X114830000Y-92500000D03*
%TO.P,J2,5,Pin_5_5*%
%TO.N,/D6*%
X117370000Y-92500000D03*
%TO.P,J2,6,Pin_6_6*%
%TO.N,/D7*%
X119910000Y-92500000D03*
%TO.P,J2,7,Pin_7_7*%
%TO.N,/D8*%
X122450000Y-92500000D03*
%TO.P,J2,8,Pin_8_8*%
%TO.N,GND*%
X124990000Y-92500000D03*
%TO.P,J2,9,Pin_9_9*%
%TO.N,/Vcc*%
X127530000Y-92500000D03*
%TD*%
%TO.P,J1,4,Pin_4_4*%
%TO.N,/SCK*%
X148500000Y-84870000D03*
%TO.P,J1,3,Pin_3_3*%
%TO.N,/SDA*%
X148500000Y-82330000D03*
%TO.P,J1,2,Pin_2_2*%
%TO.N,/Vcc*%
X148500000Y-79790000D03*
D10*
%TO.P,J1,1,Pin_1_1*%
%TO.N,GND*%
X148500000Y-77250000D03*
%TD*%
D11*
%TO.P,J3,4,Pin_4_4*%
%TO.N,/TX*%
X141250000Y-92500000D03*
%TO.P,J3,3,Pin_3_3*%
%TO.N,/RX*%
X138710000Y-92500000D03*
%TO.P,J3,2,Pin_2_2*%
%TO.N,/Vcc*%
X136170000Y-92500000D03*
D10*
%TO.P,J3,1,Pin_1_1*%
%TO.N,GND*%
X133630000Y-92500000D03*
%TD*%
D11*
%TO.P,BT1,2,-_2*%
%TO.N,GND*%
X103000000Y-73540000D03*
D10*
%TO.P,BT1,1,+_1*%
%TO.N,Net-(BT1-+)*%
X103000000Y-71000000D03*
%TD*%
D11*
%TO.P,J4,6,Pin_6_6*%
%TO.N,GND*%
X149000000Y-71830000D03*
%TO.P,J4,5,Pin_5_5*%
%TO.N,/RESET*%
X146460000Y-71830000D03*
%TO.P,J4,4,Pin_4_4*%
%TO.N,/MOSI*%
X149000000Y-69290000D03*
%TO.P,J4,3,Pin_3_3*%
%TO.N,/SCK*%
X146460000Y-69290000D03*
%TO.P,J4,2,Pin_2_2*%
%TO.N,/Vcc*%
X149000000Y-66750000D03*
D10*
%TO.P,J4,1,Pin_1_1*%
%TO.N,/MISO*%
X146460000Y-66750000D03*
%TD*%
D12*
%TO.N,GND*%
X135460000Y-67767200D03*
%TO.N,Net-(BT1-+)*%
X128016000Y-61010800D03*
X120954800Y-67818000D03*
X123748800Y-75387200D03*
X117703600Y-72085200D03*
X126339600Y-62830000D03*
%TO.N,GND*%
X110642400Y-82448400D03*
X112217200Y-73710800D03*
X129133600Y-66040000D03*
X139039600Y-67005200D03*
X137922000Y-84023200D03*
D13*
%TO.N,/Vcc*%
X147421600Y-74320400D03*
X143002000Y-76504800D03*
X146304000Y-78028800D03*
D12*
%TO.N,Net-(U4-PB7)*%
X130403600Y-76657200D03*
X130911600Y-80060800D03*
%TO.N,Net-(U4-AREF)*%
X131622800Y-84074000D03*
X130860800Y-75387200D03*
%TO.N,/SCK*%
X112318800Y-66548000D03*
X121716800Y-74930000D03*
X111353600Y-61671200D03*
X141427200Y-81584800D03*
X126880927Y-76350000D03*
X142595600Y-72440800D03*
X116451135Y-73423535D03*
X126593600Y-74930000D03*
%TO.N,/SDA*%
X129438400Y-67411600D03*
X139242800Y-80060800D03*
X133146800Y-71069200D03*
X133197600Y-75234800D03*
%TO.N,/D3*%
X118643400Y-71145400D03*
%TO.N,/D2*%
X111252000Y-90119200D03*
X121920000Y-76403200D03*
%TO.N,/D7*%
X123240800Y-85445600D03*
X123120000Y-79654400D03*
%TO.N,/D8*%
X123919945Y-79664000D03*
X125673223Y-86640506D03*
%TO.N,/D5*%
X119075200Y-80568800D03*
X121208800Y-79248000D03*
%TO.N,/D6*%
X121892134Y-79664000D03*
X119735600Y-82753200D03*
%TO.N,/D4*%
X121735456Y-72749186D03*
%TO.N,/RX*%
X123079989Y-71577200D03*
%TO.N,/TX*%
X122555347Y-70888091D03*
%TO.N,/RESET*%
X123698000Y-72085200D03*
X123698000Y-76504800D03*
X140360400Y-80721200D03*
X140411200Y-74320400D03*
X130251200Y-85344000D03*
X128676400Y-80162400D03*
X125222000Y-74574400D03*
X132130800Y-87426800D03*
%TO.N,GND*%
X116992400Y-75387200D03*
%TO.N,/SCK*%
X132525000Y-66192400D03*
D13*
%TO.N,/Vcc*%
X104902000Y-66040000D03*
X104902000Y-69291200D03*
D12*
%TO.N,/SCK*%
X138226800Y-66192400D03*
%TO.N,GND*%
X109677200Y-74777600D03*
%TD*%
%TO.N,/SCK*%
D14*
X138226800Y-66192400D02*
X132525000Y-66192400D01*
%TO.N,/RX*%
X123298000Y-72533729D02*
X123298000Y-73216086D01*
%TO.N,/D3*%
X117952129Y-71485200D02*
X117897200Y-71485200D01*
X117103600Y-72333729D02*
X117455071Y-72685200D01*
%TO.N,/TX*%
X127299329Y-70977200D02*
X141250000Y-84927871D01*
%TO.N,/D3*%
X109750000Y-78768800D02*
X115833600Y-72685200D01*
%TO.N,/RX*%
X130200400Y-83870800D02*
X138710000Y-92380400D01*
%TO.N,/D3*%
X117897200Y-71485200D02*
X118237000Y-71145400D01*
X118237000Y-71145400D02*
X118643400Y-71145400D01*
%TO.N,/RX*%
X123098000Y-72333729D02*
X123298000Y-72533729D01*
%TO.N,/D3*%
X117952129Y-72685200D02*
X118303600Y-72333729D01*
X115833600Y-72685200D02*
X116697200Y-72685200D01*
%TO.N,/RX*%
X123647200Y-73565286D02*
X123647200Y-73964800D01*
X123079989Y-71577200D02*
X122885200Y-71577200D01*
X123098000Y-71836671D02*
X123098000Y-72333729D01*
%TO.N,/D3*%
X117455071Y-72685200D02*
X117952129Y-72685200D01*
%TO.N,/TX*%
X122555347Y-70888091D02*
X122644456Y-70977200D01*
%TO.N,/D3*%
X118303600Y-72333729D02*
X118303600Y-71836671D01*
X118303600Y-71836671D02*
X117952129Y-71485200D01*
%TO.N,/RX*%
X138710000Y-92380400D02*
X138710000Y-92500000D01*
X130200400Y-80518000D02*
X130200400Y-83870800D01*
%TO.N,/TX*%
X122644456Y-70977200D02*
X127299329Y-70977200D01*
%TO.N,/D3*%
X116697200Y-72685200D02*
X117103600Y-72278800D01*
X117103600Y-72278800D02*
X117103600Y-72333729D01*
X109750000Y-92500000D02*
X109750000Y-78768800D01*
%TO.N,/RX*%
X123647200Y-73964800D02*
X130200400Y-80518000D01*
X123298000Y-73216086D02*
X123647200Y-73565286D01*
%TO.N,/TX*%
X141250000Y-84927871D02*
X141250000Y-92500000D01*
%TO.N,/RX*%
X123121336Y-71813336D02*
X123098000Y-71836671D01*
X122885200Y-71577200D02*
X123121336Y-71813336D01*
%TO.N,/D4*%
X122520000Y-85252000D02*
X117246400Y-90525600D01*
X121735456Y-73323056D02*
X122520000Y-74107600D01*
X122520000Y-74107600D02*
X122520000Y-85252000D01*
X117246400Y-90525600D02*
X114264400Y-90525600D01*
X114264400Y-90525600D02*
X112290000Y-92500000D01*
X121735456Y-72749186D02*
X121735456Y-73323056D01*
%TO.N,/Vcc*%
D15*
X104902000Y-69291200D02*
X104902000Y-66040000D01*
X136170000Y-92500000D02*
X137751600Y-94081600D01*
X150275000Y-72358123D02*
X150275000Y-68025000D01*
X147421600Y-74320400D02*
X148312723Y-74320400D01*
X144119600Y-84170400D02*
X148500000Y-79790000D01*
X137751600Y-94081600D02*
X144119600Y-94081600D01*
X144119600Y-94081600D02*
X144119600Y-84170400D01*
X146304000Y-78028800D02*
X144780000Y-76504800D01*
X148312723Y-74320400D02*
X150275000Y-72358123D01*
X148500000Y-80170000D02*
X148500000Y-79790000D01*
X150275000Y-68025000D02*
X149000000Y-66750000D01*
X144780000Y-76504800D02*
X143002000Y-76504800D01*
%TO.N,Net-(U4-PB7)*%
D14*
X130403600Y-76657200D02*
X130403600Y-79552800D01*
X130403600Y-79552800D02*
X130911600Y-80060800D01*
%TO.N,Net-(U4-AREF)*%
X131622800Y-84074000D02*
X131622800Y-76149200D01*
X131622800Y-76149200D02*
X130860800Y-75387200D01*
%TO.N,/SCK*%
X126593600Y-76062673D02*
X126880927Y-76350000D01*
X141427200Y-81584800D02*
X141427200Y-73609200D01*
X111353600Y-65582800D02*
X112318800Y-66548000D01*
X141427200Y-73609200D02*
X142595600Y-72440800D01*
X126593600Y-74930000D02*
X126593600Y-76062673D01*
X117957600Y-74930000D02*
X116451135Y-73423535D01*
X121716800Y-74930000D02*
X117957600Y-74930000D01*
X111353600Y-61671200D02*
X111353600Y-65582800D01*
%TO.N,/SDA*%
X133096000Y-71069200D02*
X129438400Y-67411600D01*
X134416800Y-75234800D02*
X133197600Y-75234800D01*
X133146800Y-71069200D02*
X133096000Y-71069200D01*
X139242800Y-80060800D02*
X134416800Y-75234800D01*
%TO.N,/D2*%
X116687600Y-81635600D02*
X116687600Y-90119200D01*
X116687600Y-90119200D02*
X111252000Y-90119200D01*
X121920000Y-76403200D02*
X116687600Y-81635600D01*
%TO.N,/D7*%
X123240800Y-85445600D02*
X123120000Y-85324800D01*
X123120000Y-85324800D02*
X123120000Y-79654400D01*
%TO.N,/D8*%
X123698000Y-79885945D02*
X123919945Y-79664000D01*
X123850400Y-80873600D02*
X123698000Y-80721200D01*
X125673223Y-82290023D02*
X124256800Y-80873600D01*
X125673223Y-86640506D02*
X125673223Y-82290023D01*
X124256800Y-80873600D02*
X123850400Y-80873600D01*
X123698000Y-80721200D02*
X123698000Y-79885945D01*
%TO.N,/D5*%
X119888000Y-80568800D02*
X121208800Y-79248000D01*
X119075200Y-80568800D02*
X119888000Y-80568800D01*
%TO.N,/D6*%
X119735600Y-81820534D02*
X121892134Y-79664000D01*
X119735600Y-82753200D02*
X119735600Y-81820534D01*
%TO.N,/RESET*%
X123698000Y-73050400D02*
X125222000Y-74574400D01*
X140360400Y-80721200D02*
X140360400Y-74371200D01*
X130251200Y-85344000D02*
X130251200Y-85547200D01*
X128270000Y-79756000D02*
X126949200Y-79756000D01*
X130251200Y-85547200D02*
X132130800Y-87426800D01*
X140360400Y-74371200D02*
X140411200Y-74320400D01*
X126949200Y-79756000D02*
X123698000Y-76504800D01*
X123698000Y-72085200D02*
X123698000Y-73050400D01*
X128676400Y-80162400D02*
X128270000Y-79756000D01*
%TO.N,Net-(BT1-+)*%
X120954800Y-67818000D02*
X120954800Y-69013600D01*
X120253200Y-70418400D02*
X122383600Y-72548800D01*
X128016000Y-61010800D02*
X126339600Y-62687200D01*
X122383600Y-72548800D02*
X122383600Y-73266886D01*
X123748800Y-74632086D02*
X123748800Y-75387200D01*
X119550000Y-70418400D02*
X120253200Y-70418400D01*
X116618400Y-71000000D02*
X117703600Y-72085200D01*
X120954800Y-69013600D02*
X119550000Y-70418400D01*
X103581600Y-70418400D02*
X119550000Y-70418400D01*
X126339600Y-62687200D02*
X126339600Y-62830000D01*
X122383600Y-73266886D02*
X123748800Y-74632086D01*
X103000000Y-71000000D02*
X103581600Y-70418400D01*
X103000000Y-71000000D02*
X116618400Y-71000000D01*
%TD*%
%TA.AperFunction,Conductor*%
%TO.N,GND*%
G36*
X127234011Y-60540385D02*
G01*
X127279766Y-60593189D01*
X127289710Y-60662347D01*
X127281533Y-60692152D01*
X127246264Y-60777298D01*
X127246261Y-60777308D01*
X127215362Y-60932648D01*
X127182977Y-60994559D01*
X127181426Y-60996137D01*
X126142660Y-62034903D01*
X126102432Y-62061783D01*
X125960423Y-62120604D01*
X125960414Y-62120609D01*
X125829311Y-62208210D01*
X125829307Y-62208213D01*
X125717813Y-62319707D01*
X125717810Y-62319711D01*
X125630209Y-62450814D01*
X125630202Y-62450827D01*
X125569864Y-62596498D01*
X125569861Y-62596510D01*
X125539100Y-62751153D01*
X125539100Y-62908846D01*
X125569861Y-63063489D01*
X125569864Y-63063501D01*
X125630202Y-63209172D01*
X125630209Y-63209185D01*
X125717810Y-63340288D01*
X125717813Y-63340292D01*
X125829307Y-63451786D01*
X125829311Y-63451789D01*
X125960414Y-63539390D01*
X125960427Y-63539397D01*
X126106098Y-63599735D01*
X126106103Y-63599737D01*
X126260753Y-63630499D01*
X126260756Y-63630500D01*
X126260758Y-63630500D01*
X126418444Y-63630500D01*
X126418445Y-63630499D01*
X126573097Y-63599737D01*
X126718779Y-63539394D01*
X126849889Y-63451789D01*
X126961389Y-63340289D01*
X127048994Y-63209179D01*
X127109337Y-63063497D01*
X127140100Y-62908842D01*
X127140100Y-62787296D01*
X127159785Y-62720257D01*
X127176419Y-62699615D01*
X127279536Y-62596498D01*
X127478386Y-62397648D01*
X147199500Y-62397648D01*
X147199500Y-62602351D01*
X147231522Y-62804534D01*
X147294781Y-62999223D01*
X147387715Y-63181613D01*
X147508028Y-63347213D01*
X147652786Y-63491971D01*
X147801116Y-63599737D01*
X147818390Y-63612287D01*
X147934607Y-63671503D01*
X148000776Y-63705218D01*
X148000778Y-63705218D01*
X148000781Y-63705220D01*
X148058177Y-63723869D01*
X148195465Y-63768477D01*
X148296557Y-63784488D01*
X148397648Y-63800500D01*
X148397649Y-63800500D01*
X148602351Y-63800500D01*
X148602352Y-63800500D01*
X148804534Y-63768477D01*
X148999219Y-63705220D01*
X149181610Y-63612287D01*
X149281935Y-63539397D01*
X149347213Y-63491971D01*
X149347215Y-63491968D01*
X149347219Y-63491966D01*
X149491966Y-63347219D01*
X149491968Y-63347215D01*
X149491971Y-63347213D01*
X149544732Y-63274590D01*
X149612287Y-63181610D01*
X149705220Y-62999219D01*
X149768477Y-62804534D01*
X149800500Y-62602352D01*
X149800500Y-62397648D01*
X149770496Y-62208211D01*
X149768477Y-62195465D01*
X149705218Y-62000776D01*
X149671503Y-61934607D01*
X149612287Y-61818390D01*
X149584786Y-61780538D01*
X149491971Y-61652786D01*
X149347213Y-61508028D01*
X149181613Y-61387715D01*
X149181612Y-61387714D01*
X149181610Y-61387713D01*
X149124653Y-61358691D01*
X148999223Y-61294781D01*
X148804534Y-61231522D01*
X148629995Y-61203878D01*
X148602352Y-61199500D01*
X148397648Y-61199500D01*
X148373329Y-61203351D01*
X148195465Y-61231522D01*
X148000776Y-61294781D01*
X147818386Y-61387715D01*
X147652786Y-61508028D01*
X147508028Y-61652786D01*
X147387715Y-61818386D01*
X147294781Y-62000776D01*
X147231522Y-62195465D01*
X147199500Y-62397648D01*
X127478386Y-62397648D01*
X128030665Y-61845370D01*
X128091984Y-61811888D01*
X128094151Y-61811437D01*
X128094840Y-61811300D01*
X128094842Y-61811300D01*
X128249497Y-61780537D01*
X128395179Y-61720194D01*
X128526289Y-61632589D01*
X128532878Y-61626000D01*
X130124000Y-61626000D01*
X131626000Y-61626000D01*
X132624000Y-61626000D01*
X134126000Y-61626000D01*
X135124000Y-61626000D01*
X136626000Y-61626000D01*
X137624000Y-61626000D01*
X139126000Y-61626000D01*
X140124000Y-61626000D01*
X141626000Y-61626000D01*
X142624000Y-61626000D01*
X144126000Y-61626000D01*
X145124000Y-61626000D01*
X146369792Y-61626000D01*
X146380228Y-61600800D01*
X146382182Y-61596333D01*
X146394525Y-61569557D01*
X146396651Y-61565173D01*
X146420330Y-61518700D01*
X145124000Y-61518700D01*
X145124000Y-61626000D01*
X144126000Y-61626000D01*
X144126000Y-61518700D01*
X142624000Y-61518700D01*
X142624000Y-61626000D01*
X141626000Y-61626000D01*
X141626000Y-61518700D01*
X140124000Y-61518700D01*
X140124000Y-61626000D01*
X139126000Y-61626000D01*
X139126000Y-61518700D01*
X137624000Y-61518700D01*
X137624000Y-61626000D01*
X136626000Y-61626000D01*
X136626000Y-61518700D01*
X135124000Y-61518700D01*
X135124000Y-61626000D01*
X134126000Y-61626000D01*
X134126000Y-61518700D01*
X132624000Y-61518700D01*
X132624000Y-61626000D01*
X131626000Y-61626000D01*
X131626000Y-61518700D01*
X130124000Y-61518700D01*
X130124000Y-61626000D01*
X128532878Y-61626000D01*
X128637789Y-61521089D01*
X128725394Y-61389979D01*
X128785737Y-61244297D01*
X128816500Y-61089642D01*
X128816500Y-60931958D01*
X128816500Y-60931955D01*
X128816499Y-60931953D01*
X128785738Y-60777310D01*
X128785738Y-60777308D01*
X128785737Y-60777303D01*
X128750467Y-60692152D01*
X128742998Y-60622683D01*
X128774273Y-60560204D01*
X128834363Y-60524552D01*
X128865028Y-60520700D01*
X150353100Y-60520700D01*
X150420139Y-60540385D01*
X150465894Y-60593189D01*
X150477100Y-60644700D01*
X150477100Y-66157743D01*
X150457415Y-66224782D01*
X150404611Y-66270537D01*
X150335453Y-66280481D01*
X150271897Y-66251456D01*
X150242615Y-66214038D01*
X150188686Y-66108196D01*
X150155051Y-66042184D01*
X150155049Y-66042181D01*
X150155048Y-66042179D01*
X150030109Y-65870213D01*
X149879786Y-65719890D01*
X149707820Y-65594951D01*
X149518414Y-65498444D01*
X149518413Y-65498443D01*
X149518412Y-65498443D01*
X149316243Y-65432754D01*
X149316241Y-65432753D01*
X149316240Y-65432753D01*
X149154957Y-65407208D01*
X149106287Y-65399500D01*
X148893713Y-65399500D01*
X148845042Y-65407208D01*
X148683760Y-65432753D01*
X148481585Y-65498444D01*
X148292179Y-65594951D01*
X148120215Y-65719889D01*
X148006673Y-65833431D01*
X147945350Y-65866915D01*
X147875658Y-65861931D01*
X147819725Y-65820059D01*
X147802810Y-65789082D01*
X147753797Y-65657671D01*
X147753793Y-65657664D01*
X147667547Y-65542455D01*
X147667544Y-65542452D01*
X147552335Y-65456206D01*
X147552328Y-65456202D01*
X147417482Y-65405908D01*
X147417483Y-65405908D01*
X147357883Y-65399501D01*
X147357881Y-65399500D01*
X147357873Y-65399500D01*
X147357864Y-65399500D01*
X145562129Y-65399500D01*
X145562123Y-65399501D01*
X145502516Y-65405908D01*
X145367671Y-65456202D01*
X145367664Y-65456206D01*
X145252455Y-65542452D01*
X145252452Y-65542455D01*
X145166206Y-65657664D01*
X145166202Y-65657671D01*
X145115908Y-65792517D01*
X145109501Y-65852116D01*
X145109500Y-65852135D01*
X145109500Y-67647870D01*
X145109501Y-67647876D01*
X145115908Y-67707483D01*
X145166202Y-67842328D01*
X145166206Y-67842335D01*
X145252452Y-67957544D01*
X145252455Y-67957547D01*
X145367664Y-68043793D01*
X145367671Y-68043797D01*
X145499082Y-68092810D01*
X145555016Y-68134681D01*
X145579433Y-68200145D01*
X145564582Y-68268418D01*
X145543431Y-68296673D01*
X145429889Y-68410215D01*
X145304951Y-68582179D01*
X145208444Y-68771585D01*
X145208443Y-68771587D01*
X145208443Y-68771588D01*
X145198827Y-68801184D01*
X145142753Y-68973760D01*
X145109500Y-69183713D01*
X145109500Y-69396286D01*
X145137180Y-69571055D01*
X145142754Y-69606243D01*
X145203258Y-69792455D01*
X145208444Y-69808414D01*
X145304951Y-69997820D01*
X145429890Y-70169786D01*
X145580213Y-70320109D01*
X145752182Y-70445050D01*
X145760946Y-70449516D01*
X145811742Y-70497491D01*
X145828536Y-70565312D01*
X145805998Y-70631447D01*
X145760946Y-70670484D01*
X145752182Y-70674949D01*
X145580213Y-70799890D01*
X145429890Y-70950213D01*
X145304951Y-71122179D01*
X145208444Y-71311585D01*
X145142753Y-71513760D01*
X145109500Y-71723713D01*
X145109500Y-71936286D01*
X145139488Y-72125626D01*
X145142754Y-72146243D01*
X145198789Y-72318701D01*
X145208444Y-72348414D01*
X145304951Y-72537820D01*
X145429890Y-72709786D01*
X145580213Y-72860109D01*
X145752179Y-72985048D01*
X145752181Y-72985049D01*
X145752184Y-72985051D01*
X145941588Y-73081557D01*
X146143757Y-73147246D01*
X146353713Y-73180500D01*
X146353714Y-73180500D01*
X146566286Y-73180500D01*
X146566287Y-73180500D01*
X146776243Y-73147246D01*
X146978412Y-73081557D01*
X147167816Y-72985051D01*
X147214561Y-72951089D01*
X147339786Y-72860109D01*
X147339788Y-72860106D01*
X147339792Y-72860104D01*
X147490104Y-72709792D01*
X147490106Y-72709788D01*
X147490109Y-72709786D01*
X147503940Y-72690748D01*
X147615051Y-72537816D01*
X147663031Y-72443649D01*
X147677159Y-72471377D01*
X147737925Y-72456329D01*
X147804060Y-72478866D01*
X147843101Y-72523920D01*
X147848937Y-72535374D01*
X147887706Y-72588737D01*
X147887707Y-72588737D01*
X148517037Y-71959408D01*
X148534075Y-72022993D01*
X148599901Y-72137007D01*
X148692993Y-72230099D01*
X148807007Y-72295925D01*
X148870589Y-72312962D01*
X148241261Y-72942291D01*
X148294630Y-72981065D01*
X148408953Y-73039316D01*
X148459749Y-73087291D01*
X148476544Y-73155112D01*
X148461115Y-73200385D01*
X148473434Y-73204387D01*
X148278478Y-73399343D01*
X148278477Y-73399343D01*
X148104310Y-73573511D01*
X148042987Y-73606996D01*
X147973295Y-73602012D01*
X147947738Y-73588932D01*
X147848152Y-73522390D01*
X147848140Y-73522383D01*
X147684267Y-73454506D01*
X147684258Y-73454503D01*
X147510294Y-73419900D01*
X147510291Y-73419900D01*
X147332909Y-73419900D01*
X147332906Y-73419900D01*
X147158941Y-73454503D01*
X147158932Y-73454506D01*
X146995059Y-73522383D01*
X146995046Y-73522390D01*
X146847565Y-73620935D01*
X146847561Y-73620938D01*
X146722138Y-73746361D01*
X146722135Y-73746365D01*
X146623590Y-73893846D01*
X146623583Y-73893859D01*
X146555706Y-74057732D01*
X146555703Y-74057741D01*
X146521100Y-74231704D01*
X146521100Y-74409095D01*
X146555703Y-74583058D01*
X146555706Y-74583067D01*
X146623583Y-74746940D01*
X146623590Y-74746953D01*
X146722135Y-74894434D01*
X146722138Y-74894438D01*
X146847561Y-75019861D01*
X146847565Y-75019864D01*
X146995046Y-75118409D01*
X146995059Y-75118416D01*
X147103906Y-75163501D01*
X147158934Y-75186294D01*
X147158936Y-75186294D01*
X147158941Y-75186296D01*
X147332904Y-75220899D01*
X147332907Y-75220900D01*
X147332909Y-75220900D01*
X147510293Y-75220900D01*
X147510294Y-75220899D01*
X147568282Y-75209364D01*
X147684258Y-75186296D01*
X147684261Y-75186294D01*
X147684266Y-75186294D01*
X147848147Y-75118413D01*
X147912436Y-75075456D01*
X148000224Y-75016798D01*
X148066901Y-74995920D01*
X148069115Y-74995900D01*
X148379255Y-74995900D01*
X148379256Y-74995899D01*
X148509759Y-74969941D01*
X148632692Y-74919020D01*
X148743329Y-74845095D01*
X148743328Y-74845095D01*
X148743332Y-74845093D01*
X148743332Y-74845092D01*
X150265419Y-73323005D01*
X150326742Y-73289520D01*
X150396434Y-73294504D01*
X150452367Y-73336376D01*
X150476784Y-73401840D01*
X150477100Y-73410686D01*
X150477100Y-94396900D01*
X150457415Y-94463939D01*
X150404611Y-94509694D01*
X150353100Y-94520900D01*
X144854370Y-94520900D01*
X144787331Y-94501215D01*
X144741576Y-94448411D01*
X144731632Y-94379253D01*
X144739809Y-94349447D01*
X144769140Y-94278636D01*
X144795100Y-94148131D01*
X144795100Y-93522900D01*
X145793100Y-93522900D01*
X146441527Y-93522900D01*
X146396651Y-93434827D01*
X146394525Y-93430443D01*
X146382182Y-93403667D01*
X146380228Y-93399200D01*
X146365230Y-93362984D01*
X146363457Y-93358453D01*
X146353273Y-93330844D01*
X146351680Y-93326250D01*
X146276308Y-93094283D01*
X146274894Y-93089620D01*
X146266891Y-93061241D01*
X146265660Y-93056522D01*
X146256512Y-93018403D01*
X146255470Y-93013652D01*
X146249730Y-92984789D01*
X146248875Y-92980001D01*
X146210723Y-92739125D01*
X146210055Y-92734301D01*
X146206595Y-92705067D01*
X146206119Y-92700230D01*
X146203041Y-92661151D01*
X146202754Y-92656286D01*
X146201596Y-92626834D01*
X146201540Y-92624000D01*
X145793100Y-92624000D01*
X145793100Y-93522900D01*
X144795100Y-93522900D01*
X144795100Y-92397648D01*
X147199500Y-92397648D01*
X147199500Y-92602351D01*
X147231522Y-92804534D01*
X147294781Y-92999223D01*
X147358691Y-93124653D01*
X147373644Y-93153999D01*
X147387715Y-93181613D01*
X147508028Y-93347213D01*
X147652786Y-93491971D01*
X147790928Y-93592335D01*
X147818390Y-93612287D01*
X147902319Y-93655051D01*
X148000776Y-93705218D01*
X148000778Y-93705218D01*
X148000781Y-93705220D01*
X148105137Y-93739127D01*
X148195465Y-93768477D01*
X148296557Y-93784488D01*
X148397648Y-93800500D01*
X148397649Y-93800500D01*
X148602351Y-93800500D01*
X148602352Y-93800500D01*
X148804534Y-93768477D01*
X148999219Y-93705220D01*
X149181610Y-93612287D01*
X149304642Y-93522900D01*
X149347213Y-93491971D01*
X149347215Y-93491968D01*
X149347219Y-93491966D01*
X149491966Y-93347219D01*
X149491968Y-93347215D01*
X149491971Y-93347213D01*
X149551680Y-93265029D01*
X149612287Y-93181610D01*
X149705220Y-92999219D01*
X149768477Y-92804534D01*
X149800500Y-92602352D01*
X149800500Y-92397648D01*
X149786144Y-92307007D01*
X149768477Y-92195465D01*
X149737426Y-92099901D01*
X149705220Y-92000781D01*
X149705218Y-92000778D01*
X149705218Y-92000776D01*
X149653476Y-91899228D01*
X149612287Y-91818390D01*
X149599613Y-91800946D01*
X149491971Y-91652786D01*
X149347213Y-91508028D01*
X149181613Y-91387715D01*
X149181612Y-91387714D01*
X149181610Y-91387713D01*
X149097681Y-91344949D01*
X148999223Y-91294781D01*
X148804534Y-91231522D01*
X148629995Y-91203878D01*
X148602352Y-91199500D01*
X148397648Y-91199500D01*
X148373329Y-91203351D01*
X148195465Y-91231522D01*
X148000776Y-91294781D01*
X147818386Y-91387715D01*
X147652786Y-91508028D01*
X147508028Y-91652786D01*
X147387715Y-91818386D01*
X147294781Y-92000776D01*
X147231522Y-92195465D01*
X147199500Y-92397648D01*
X144795100Y-92397648D01*
X144795100Y-91626000D01*
X145793100Y-91626000D01*
X146369792Y-91626000D01*
X146380228Y-91600800D01*
X146382182Y-91596333D01*
X146394525Y-91569557D01*
X146396651Y-91565173D01*
X146507386Y-91347845D01*
X146509681Y-91343552D01*
X146524071Y-91317856D01*
X146526533Y-91313656D01*
X146547014Y-91280233D01*
X146549639Y-91276131D01*
X146566005Y-91251637D01*
X146568789Y-91247642D01*
X146626000Y-91168896D01*
X146626000Y-90370620D01*
X147624000Y-90370620D01*
X147637016Y-90365230D01*
X147641547Y-90363457D01*
X147669156Y-90353273D01*
X147673750Y-90351680D01*
X147905717Y-90276308D01*
X147910380Y-90274894D01*
X147938759Y-90266891D01*
X147943478Y-90265660D01*
X147981597Y-90256512D01*
X147986348Y-90255470D01*
X148015211Y-90249730D01*
X148019999Y-90248875D01*
X148260875Y-90210723D01*
X148265699Y-90210055D01*
X148294933Y-90206595D01*
X148299770Y-90206119D01*
X148338849Y-90203041D01*
X148343714Y-90202754D01*
X148373166Y-90201596D01*
X148378038Y-90201500D01*
X148621962Y-90201500D01*
X148626834Y-90201596D01*
X148656286Y-90202754D01*
X148661151Y-90203041D01*
X148700230Y-90206119D01*
X148705067Y-90206595D01*
X148734301Y-90210055D01*
X148739125Y-90210723D01*
X148980001Y-90248875D01*
X148984789Y-90249730D01*
X149013652Y-90255470D01*
X149018403Y-90256512D01*
X149056522Y-90265660D01*
X149061241Y-90266891D01*
X149089620Y-90274894D01*
X149094283Y-90276308D01*
X149126000Y-90286613D01*
X149126000Y-90124000D01*
X147624000Y-90124000D01*
X147624000Y-90370620D01*
X146626000Y-90370620D01*
X146626000Y-90124000D01*
X145793100Y-90124000D01*
X145793100Y-91626000D01*
X144795100Y-91626000D01*
X144795100Y-89126000D01*
X145793100Y-89126000D01*
X146626000Y-89126000D01*
X147624000Y-89126000D01*
X149126000Y-89126000D01*
X149126000Y-87624000D01*
X147624000Y-87624000D01*
X147624000Y-89126000D01*
X146626000Y-89126000D01*
X146626000Y-87624000D01*
X145793100Y-87624000D01*
X145793100Y-89126000D01*
X144795100Y-89126000D01*
X144795100Y-86626000D01*
X145793100Y-86626000D01*
X146626000Y-86626000D01*
X146626000Y-86286167D01*
X146526026Y-86148565D01*
X146523240Y-86144568D01*
X146506874Y-86120073D01*
X146504250Y-86115973D01*
X146483769Y-86082550D01*
X146481307Y-86078350D01*
X146466917Y-86052654D01*
X146464622Y-86048361D01*
X146350314Y-85824019D01*
X146348189Y-85819636D01*
X146335846Y-85792861D01*
X146333891Y-85788392D01*
X146318893Y-85752175D01*
X146317121Y-85747647D01*
X146306936Y-85720037D01*
X146305342Y-85715440D01*
X146227545Y-85476007D01*
X146226131Y-85471347D01*
X146218138Y-85443005D01*
X146216911Y-85438300D01*
X146207758Y-85400183D01*
X146206713Y-85395423D01*
X146200964Y-85366523D01*
X146200108Y-85361728D01*
X146162456Y-85124000D01*
X145793100Y-85124000D01*
X145793100Y-86626000D01*
X144795100Y-86626000D01*
X144795100Y-84501562D01*
X144814785Y-84434523D01*
X144831414Y-84413886D01*
X146937819Y-82307480D01*
X146999142Y-82273996D01*
X147068834Y-82278980D01*
X147124767Y-82320852D01*
X147149184Y-82386316D01*
X147149500Y-82395162D01*
X147149500Y-82436287D01*
X147182754Y-82646243D01*
X147243125Y-82832046D01*
X147248444Y-82848414D01*
X147344951Y-83037820D01*
X147469890Y-83209786D01*
X147620213Y-83360109D01*
X147792182Y-83485050D01*
X147800946Y-83489516D01*
X147851742Y-83537491D01*
X147868536Y-83605312D01*
X147845998Y-83671447D01*
X147800946Y-83710484D01*
X147792182Y-83714949D01*
X147620213Y-83839890D01*
X147469890Y-83990213D01*
X147344951Y-84162179D01*
X147248444Y-84351585D01*
X147182753Y-84553760D01*
X147149500Y-84763713D01*
X147149500Y-84976286D01*
X147181227Y-85176606D01*
X147182754Y-85186243D01*
X147241407Y-85366758D01*
X147248444Y-85388414D01*
X147344951Y-85577820D01*
X147469890Y-85749786D01*
X147620213Y-85900109D01*
X147792179Y-86025048D01*
X147792181Y-86025049D01*
X147792184Y-86025051D01*
X147981588Y-86121557D01*
X148183757Y-86187246D01*
X148393713Y-86220500D01*
X148393714Y-86220500D01*
X148606286Y-86220500D01*
X148606287Y-86220500D01*
X148816243Y-86187246D01*
X149018412Y-86121557D01*
X149207816Y-86025051D01*
X149303010Y-85955889D01*
X149379786Y-85900109D01*
X149379788Y-85900106D01*
X149379792Y-85900104D01*
X149530104Y-85749792D01*
X149530106Y-85749788D01*
X149530109Y-85749786D01*
X149655048Y-85577820D01*
X149655047Y-85577820D01*
X149655051Y-85577816D01*
X149751557Y-85388412D01*
X149817246Y-85186243D01*
X149850500Y-84976287D01*
X149850500Y-84763713D01*
X149817246Y-84553757D01*
X149751557Y-84351588D01*
X149655051Y-84162184D01*
X149655049Y-84162181D01*
X149655048Y-84162179D01*
X149530109Y-83990213D01*
X149379786Y-83839890D01*
X149207820Y-83714951D01*
X149207115Y-83714591D01*
X149199054Y-83710485D01*
X149148259Y-83662512D01*
X149131463Y-83594692D01*
X149153999Y-83528556D01*
X149199054Y-83489515D01*
X149207816Y-83485051D01*
X149229789Y-83469086D01*
X149379786Y-83360109D01*
X149379788Y-83360106D01*
X149379792Y-83360104D01*
X149530104Y-83209792D01*
X149530106Y-83209788D01*
X149530109Y-83209786D01*
X149655048Y-83037820D01*
X149655047Y-83037820D01*
X149655051Y-83037816D01*
X149751557Y-82848412D01*
X149817246Y-82646243D01*
X149850500Y-82436287D01*
X149850500Y-82223713D01*
X149817246Y-82013757D01*
X149751557Y-81811588D01*
X149655051Y-81622184D01*
X149655049Y-81622181D01*
X149655048Y-81622179D01*
X149530109Y-81450213D01*
X149379786Y-81299890D01*
X149207820Y-81174951D01*
X149207115Y-81174591D01*
X149199054Y-81170485D01*
X149148259Y-81122512D01*
X149131463Y-81054692D01*
X149153999Y-80988556D01*
X149199054Y-80949515D01*
X149207816Y-80945051D01*
X149288184Y-80886661D01*
X149379786Y-80820109D01*
X149379788Y-80820106D01*
X149379792Y-80820104D01*
X149530104Y-80669792D01*
X149530106Y-80669788D01*
X149530109Y-80669786D01*
X149655048Y-80497820D01*
X149655047Y-80497820D01*
X149655051Y-80497816D01*
X149751557Y-80308412D01*
X149817246Y-80106243D01*
X149850500Y-79896287D01*
X149850500Y-79683713D01*
X149817246Y-79473757D01*
X149751557Y-79271588D01*
X149655051Y-79082184D01*
X149655049Y-79082181D01*
X149655048Y-79082179D01*
X149559825Y-78951115D01*
X149559824Y-78951115D01*
X149530104Y-78910208D01*
X149379792Y-78759896D01*
X149330385Y-78724000D01*
X149383480Y-78724000D01*
X149387680Y-78665270D01*
X149429552Y-78609337D01*
X149460529Y-78592422D01*
X149592086Y-78543354D01*
X149592093Y-78543350D01*
X149707187Y-78457190D01*
X149707190Y-78457187D01*
X149793350Y-78342093D01*
X149793354Y-78342086D01*
X149843596Y-78207379D01*
X149843598Y-78207372D01*
X149849999Y-78147844D01*
X149850000Y-78147827D01*
X149850000Y-77500000D01*
X148933012Y-77500000D01*
X148965925Y-77442993D01*
X149000000Y-77315826D01*
X149000000Y-77184174D01*
X148965925Y-77057007D01*
X148933012Y-77000000D01*
X149850000Y-77000000D01*
X149850000Y-76352172D01*
X149849999Y-76352155D01*
X149843598Y-76292627D01*
X149843596Y-76292620D01*
X149793354Y-76157913D01*
X149793350Y-76157906D01*
X149707190Y-76042812D01*
X149707187Y-76042809D01*
X149592093Y-75956649D01*
X149592086Y-75956645D01*
X149457379Y-75906403D01*
X149457372Y-75906401D01*
X149397844Y-75900000D01*
X148750000Y-75900000D01*
X148750000Y-76816988D01*
X148692993Y-76784075D01*
X148565826Y-76750000D01*
X148434174Y-76750000D01*
X148307007Y-76784075D01*
X148250000Y-76816988D01*
X148250000Y-75900000D01*
X147602155Y-75900000D01*
X147542627Y-75906401D01*
X147542620Y-75906403D01*
X147407913Y-75956645D01*
X147407906Y-75956649D01*
X147292812Y-76042809D01*
X147292809Y-76042812D01*
X147206649Y-76157906D01*
X147206645Y-76157913D01*
X147156403Y-76292620D01*
X147156401Y-76292627D01*
X147150000Y-76352155D01*
X147150000Y-77301938D01*
X147130315Y-77368977D01*
X147077511Y-77414732D01*
X147026000Y-77422138D01*
X147026000Y-77488492D01*
X147003464Y-77454765D01*
X146878035Y-77329336D01*
X146774000Y-77259821D01*
X146774000Y-77259820D01*
X146730553Y-77230790D01*
X146730540Y-77230783D01*
X146566667Y-77162906D01*
X146566659Y-77162904D01*
X146387276Y-77127222D01*
X146325365Y-77094837D01*
X146323787Y-77093286D01*
X145210609Y-75980107D01*
X145210605Y-75980104D01*
X145099975Y-75906183D01*
X145099965Y-75906178D01*
X144977036Y-75855259D01*
X144977028Y-75855257D01*
X144846535Y-75829300D01*
X144846531Y-75829300D01*
X143649515Y-75829300D01*
X143582476Y-75809615D01*
X143580624Y-75808402D01*
X143428553Y-75706790D01*
X143428540Y-75706783D01*
X143264667Y-75638906D01*
X143264658Y-75638903D01*
X143090694Y-75604300D01*
X143090691Y-75604300D01*
X142913309Y-75604300D01*
X142913306Y-75604300D01*
X142739341Y-75638903D01*
X142739332Y-75638906D01*
X142575459Y-75706783D01*
X142575446Y-75706790D01*
X142427965Y-75805335D01*
X142427961Y-75805338D01*
X142302538Y-75930761D01*
X142254802Y-76002203D01*
X142201189Y-76047007D01*
X142131864Y-76055714D01*
X142068837Y-76025559D01*
X142032118Y-75966116D01*
X142027700Y-75933311D01*
X142027700Y-74126000D01*
X143226873Y-74126000D01*
X144126000Y-74126000D01*
X144126000Y-73387610D01*
X144033583Y-73525922D01*
X144030078Y-73530898D01*
X144008145Y-73560471D01*
X144004401Y-73565269D01*
X143973312Y-73603151D01*
X143969338Y-73607758D01*
X143944607Y-73635045D01*
X143940409Y-73639454D01*
X143794254Y-73785609D01*
X143789845Y-73789807D01*
X143762558Y-73814538D01*
X143757951Y-73818512D01*
X143720069Y-73849601D01*
X143715271Y-73853345D01*
X143685698Y-73875278D01*
X143680722Y-73878783D01*
X143508863Y-73993616D01*
X143503718Y-73996874D01*
X143472125Y-74015809D01*
X143466830Y-74018808D01*
X143423609Y-74041909D01*
X143418174Y-74044645D01*
X143384892Y-74060386D01*
X143379328Y-74062852D01*
X143226873Y-74126000D01*
X142027700Y-74126000D01*
X142027700Y-73909297D01*
X142047385Y-73842258D01*
X142064019Y-73821616D01*
X142334974Y-73550661D01*
X142610262Y-73275372D01*
X142671583Y-73241889D01*
X142673750Y-73241438D01*
X142731685Y-73229913D01*
X142829097Y-73210537D01*
X142974779Y-73150194D01*
X143105889Y-73062589D01*
X143217389Y-72951089D01*
X143304994Y-72819979D01*
X143307368Y-72814249D01*
X143325553Y-72770345D01*
X143365337Y-72674297D01*
X143396100Y-72519642D01*
X143396100Y-72361958D01*
X143396100Y-72361955D01*
X143396099Y-72361953D01*
X143393406Y-72348414D01*
X143365337Y-72207303D01*
X143364251Y-72204680D01*
X143304997Y-72061627D01*
X143304990Y-72061614D01*
X143217389Y-71930511D01*
X143217386Y-71930507D01*
X143105892Y-71819013D01*
X143105888Y-71819010D01*
X142974785Y-71731409D01*
X142974772Y-71731402D01*
X142829101Y-71671064D01*
X142829089Y-71671061D01*
X142674445Y-71640300D01*
X142674442Y-71640300D01*
X142516758Y-71640300D01*
X142516755Y-71640300D01*
X142362110Y-71671061D01*
X142362098Y-71671064D01*
X142216427Y-71731402D01*
X142216414Y-71731409D01*
X142085311Y-71819010D01*
X142085307Y-71819013D01*
X141973813Y-71930507D01*
X141973810Y-71930511D01*
X141886209Y-72061614D01*
X141886202Y-72061627D01*
X141825864Y-72207298D01*
X141825861Y-72207308D01*
X141794961Y-72362650D01*
X141762576Y-72424561D01*
X141761025Y-72426139D01*
X140946681Y-73240482D01*
X140946679Y-73240484D01*
X140934179Y-73262136D01*
X140915123Y-73295143D01*
X140899289Y-73322567D01*
X140867623Y-73377413D01*
X140840164Y-73479893D01*
X140803798Y-73539553D01*
X140740951Y-73570082D01*
X140672937Y-73562360D01*
X140644701Y-73550664D01*
X140644689Y-73550661D01*
X140490045Y-73519900D01*
X140490042Y-73519900D01*
X140332358Y-73519900D01*
X140332355Y-73519900D01*
X140177710Y-73550661D01*
X140177698Y-73550664D01*
X140032027Y-73611002D01*
X140032014Y-73611009D01*
X139900911Y-73698610D01*
X139900907Y-73698613D01*
X139789413Y-73810107D01*
X139789410Y-73810111D01*
X139701809Y-73941214D01*
X139701802Y-73941227D01*
X139641464Y-74086898D01*
X139641461Y-74086910D01*
X139610700Y-74241553D01*
X139610700Y-74399246D01*
X139641461Y-74553889D01*
X139641464Y-74553901D01*
X139701803Y-74699574D01*
X139701804Y-74699576D01*
X139701805Y-74699578D01*
X139701806Y-74699579D01*
X139738356Y-74754280D01*
X139739002Y-74755246D01*
X139759880Y-74821923D01*
X139759900Y-74824137D01*
X139759900Y-79222955D01*
X139740215Y-79289994D01*
X139687411Y-79335749D01*
X139618253Y-79345693D01*
X139588448Y-79337516D01*
X139476301Y-79291064D01*
X139476291Y-79291061D01*
X139320951Y-79260162D01*
X139259041Y-79227777D01*
X139257462Y-79226226D01*
X136212615Y-76181380D01*
X137624000Y-76181380D01*
X138068620Y-76626000D01*
X138761900Y-76626000D01*
X138761900Y-75124000D01*
X137624000Y-75124000D01*
X137624000Y-76181380D01*
X136212615Y-76181380D01*
X134904390Y-74873155D01*
X134904388Y-74873152D01*
X134785517Y-74754281D01*
X134785516Y-74754280D01*
X134690770Y-74699579D01*
X134690769Y-74699578D01*
X134658577Y-74680992D01*
X134648585Y-74675223D01*
X134648584Y-74675222D01*
X134648583Y-74675222D01*
X134592681Y-74660243D01*
X134495857Y-74634299D01*
X134337743Y-74634299D01*
X134330147Y-74634299D01*
X134330131Y-74634300D01*
X133777366Y-74634300D01*
X133710327Y-74614615D01*
X133708475Y-74613402D01*
X133576785Y-74525409D01*
X133576772Y-74525402D01*
X133431101Y-74465064D01*
X133431089Y-74465061D01*
X133276445Y-74434300D01*
X133276442Y-74434300D01*
X133118758Y-74434300D01*
X133118755Y-74434300D01*
X132964110Y-74465061D01*
X132964098Y-74465064D01*
X132818427Y-74525402D01*
X132818414Y-74525409D01*
X132687311Y-74613010D01*
X132687307Y-74613013D01*
X132575813Y-74724507D01*
X132575810Y-74724511D01*
X132488209Y-74855614D01*
X132488202Y-74855627D01*
X132425532Y-75006930D01*
X132423867Y-75006240D01*
X132390208Y-75057582D01*
X132326392Y-75086028D01*
X132257326Y-75075456D01*
X132222180Y-75050816D01*
X130968677Y-73797313D01*
X135124000Y-73797313D01*
X135688163Y-74123027D01*
X135690998Y-74126000D01*
X136626000Y-74126000D01*
X137624000Y-74126000D01*
X138619252Y-74126000D01*
X138619906Y-74119361D01*
X138620651Y-74113320D01*
X138626055Y-74076889D01*
X138627096Y-74070892D01*
X138667421Y-73868165D01*
X138668755Y-73862223D01*
X138677705Y-73826497D01*
X138679328Y-73820633D01*
X138693554Y-73773738D01*
X138695463Y-73767960D01*
X138707865Y-73733299D01*
X138710055Y-73727622D01*
X138789148Y-73536672D01*
X138791614Y-73531108D01*
X138807355Y-73497826D01*
X138810091Y-73492391D01*
X138833192Y-73449170D01*
X138836191Y-73443875D01*
X138855126Y-73412282D01*
X138858384Y-73407137D01*
X138973217Y-73235278D01*
X138976722Y-73230302D01*
X138998655Y-73200729D01*
X139002399Y-73195931D01*
X139033488Y-73158049D01*
X139037462Y-73153442D01*
X139062193Y-73126155D01*
X139066391Y-73121746D01*
X139126000Y-73062137D01*
X139126000Y-72624000D01*
X137624000Y-72624000D01*
X137624000Y-74126000D01*
X136626000Y-74126000D01*
X136626000Y-72624000D01*
X135124000Y-72624000D01*
X135124000Y-73797313D01*
X130968677Y-73797313D01*
X129965448Y-72794084D01*
X132624000Y-72794084D01*
X132624000Y-73526634D01*
X132645160Y-73519063D01*
X132650938Y-73517154D01*
X132697833Y-73502928D01*
X132703697Y-73501305D01*
X132739423Y-73492355D01*
X132745365Y-73491021D01*
X132948092Y-73450696D01*
X132954089Y-73449655D01*
X132990520Y-73444251D01*
X132996561Y-73443506D01*
X133045333Y-73438703D01*
X133051403Y-73438255D01*
X133088175Y-73436449D01*
X133094258Y-73436300D01*
X133300942Y-73436300D01*
X133307025Y-73436449D01*
X133343797Y-73438255D01*
X133349867Y-73438703D01*
X133398639Y-73443506D01*
X133404680Y-73444251D01*
X133441111Y-73449655D01*
X133447108Y-73450696D01*
X133649835Y-73491021D01*
X133655777Y-73492355D01*
X133691503Y-73501305D01*
X133697367Y-73502928D01*
X133744262Y-73517154D01*
X133750040Y-73519063D01*
X133784701Y-73531465D01*
X133790378Y-73533655D01*
X133981328Y-73612748D01*
X133986892Y-73615214D01*
X134020174Y-73630955D01*
X134025609Y-73633691D01*
X134030490Y-73636300D01*
X134126000Y-73636300D01*
X134126000Y-72624000D01*
X134056929Y-72624000D01*
X134054918Y-72625274D01*
X134023325Y-72644209D01*
X134018030Y-72647208D01*
X133974809Y-72670309D01*
X133969374Y-72673045D01*
X133936092Y-72688786D01*
X133930528Y-72691252D01*
X133739578Y-72770345D01*
X133733901Y-72772535D01*
X133699240Y-72784937D01*
X133693462Y-72786846D01*
X133646567Y-72801072D01*
X133640703Y-72802695D01*
X133604977Y-72811645D01*
X133599035Y-72812979D01*
X133396308Y-72853304D01*
X133390311Y-72854345D01*
X133353880Y-72859749D01*
X133347839Y-72860494D01*
X133299067Y-72865297D01*
X133292997Y-72865745D01*
X133256225Y-72867551D01*
X133250142Y-72867700D01*
X133043458Y-72867700D01*
X133037375Y-72867551D01*
X133000603Y-72865745D01*
X132994533Y-72865297D01*
X132945761Y-72860494D01*
X132939720Y-72859749D01*
X132903289Y-72854345D01*
X132897292Y-72853304D01*
X132694565Y-72812979D01*
X132688623Y-72811645D01*
X132652897Y-72802695D01*
X132647033Y-72801072D01*
X132624000Y-72794084D01*
X129965448Y-72794084D01*
X128712616Y-71541252D01*
X130124000Y-71541252D01*
X130208748Y-71626000D01*
X131392180Y-71626000D01*
X130124000Y-70357819D01*
X130124000Y-71541252D01*
X128712616Y-71541252D01*
X127786919Y-70615555D01*
X127786917Y-70615552D01*
X127668046Y-70496681D01*
X127668038Y-70496675D01*
X127562955Y-70436006D01*
X127562952Y-70436005D01*
X127531116Y-70417624D01*
X127531115Y-70417623D01*
X127531114Y-70417623D01*
X127378386Y-70376699D01*
X127220272Y-70376699D01*
X127212676Y-70376699D01*
X127212660Y-70376700D01*
X123227396Y-70376700D01*
X123160357Y-70357015D01*
X123139719Y-70340385D01*
X123065636Y-70266302D01*
X123065635Y-70266301D01*
X123065634Y-70266300D01*
X122934532Y-70178700D01*
X122934519Y-70178693D01*
X122788848Y-70118355D01*
X122788836Y-70118352D01*
X122634192Y-70087591D01*
X122634189Y-70087591D01*
X122476505Y-70087591D01*
X122476502Y-70087591D01*
X122321857Y-70118352D01*
X122321845Y-70118355D01*
X122176174Y-70178693D01*
X122176161Y-70178700D01*
X122045058Y-70266301D01*
X122045054Y-70266304D01*
X121933560Y-70377798D01*
X121933557Y-70377802D01*
X121845956Y-70508905D01*
X121845949Y-70508918D01*
X121785611Y-70654589D01*
X121785608Y-70654599D01*
X121756708Y-70799886D01*
X121724323Y-70861797D01*
X121663607Y-70896371D01*
X121593837Y-70892630D01*
X121547410Y-70863375D01*
X121291281Y-70607246D01*
X120838513Y-70154477D01*
X120805030Y-70093157D01*
X120810014Y-70023465D01*
X120838513Y-69979120D01*
X121323513Y-69494121D01*
X121323516Y-69494120D01*
X121435320Y-69382316D01*
X121485439Y-69295504D01*
X121514377Y-69245385D01*
X121555300Y-69092658D01*
X121555300Y-68934543D01*
X121555300Y-68487900D01*
X122624000Y-68487900D01*
X122624000Y-69089591D01*
X122658689Y-69089591D01*
X122664772Y-69089740D01*
X122701544Y-69091546D01*
X122707614Y-69091994D01*
X122756386Y-69096797D01*
X122762427Y-69097542D01*
X122798858Y-69102946D01*
X122804855Y-69103987D01*
X122915522Y-69126000D01*
X124126000Y-69126000D01*
X125124000Y-69126000D01*
X126626000Y-69126000D01*
X127624000Y-69126000D01*
X128882223Y-69126000D01*
X128851299Y-69114935D01*
X128845622Y-69112745D01*
X128654672Y-69033652D01*
X128649108Y-69031186D01*
X128615826Y-69015445D01*
X128610391Y-69012709D01*
X128567170Y-68989608D01*
X128561875Y-68986609D01*
X128530282Y-68967674D01*
X128525137Y-68964416D01*
X128353278Y-68849583D01*
X128348302Y-68846078D01*
X128318729Y-68824145D01*
X128313931Y-68820401D01*
X128276049Y-68789312D01*
X128271442Y-68785338D01*
X128244155Y-68760607D01*
X128239746Y-68756409D01*
X128093591Y-68610254D01*
X128089393Y-68605845D01*
X128064662Y-68578558D01*
X128060688Y-68573951D01*
X128029599Y-68536069D01*
X128025855Y-68531271D01*
X128003922Y-68501698D01*
X128000417Y-68496722D01*
X127885584Y-68324863D01*
X127882326Y-68319718D01*
X127863391Y-68288125D01*
X127860392Y-68282830D01*
X127837291Y-68239609D01*
X127834555Y-68234174D01*
X127818814Y-68200892D01*
X127816348Y-68195328D01*
X127737255Y-68004378D01*
X127735065Y-67998701D01*
X127722663Y-67964040D01*
X127720754Y-67958262D01*
X127706528Y-67911367D01*
X127704905Y-67905503D01*
X127695955Y-67869777D01*
X127694621Y-67863835D01*
X127654296Y-67661108D01*
X127653255Y-67655111D01*
X127648640Y-67624000D01*
X127624000Y-67624000D01*
X127624000Y-69126000D01*
X126626000Y-69126000D01*
X126626000Y-67624000D01*
X125124000Y-67624000D01*
X125124000Y-69126000D01*
X124126000Y-69126000D01*
X124126000Y-67624000D01*
X122746787Y-67624000D01*
X122750897Y-67665733D01*
X122751345Y-67671803D01*
X122753151Y-67708575D01*
X122753300Y-67714658D01*
X122753300Y-67921342D01*
X122753151Y-67927425D01*
X122751345Y-67964197D01*
X122750897Y-67970267D01*
X122746094Y-68019039D01*
X122745349Y-68025080D01*
X122739945Y-68061511D01*
X122738904Y-68067508D01*
X122698579Y-68270235D01*
X122697245Y-68276177D01*
X122688295Y-68311903D01*
X122686672Y-68317767D01*
X122672446Y-68364662D01*
X122670537Y-68370440D01*
X122658135Y-68405101D01*
X122655945Y-68410778D01*
X122624000Y-68487900D01*
X121555300Y-68487900D01*
X121555300Y-68397765D01*
X121574985Y-68330726D01*
X121576198Y-68328874D01*
X121583620Y-68317767D01*
X121664194Y-68197179D01*
X121664405Y-68196671D01*
X121684105Y-68149109D01*
X121724537Y-68051497D01*
X121755300Y-67896842D01*
X121755300Y-67739158D01*
X121755300Y-67739155D01*
X121755299Y-67739153D01*
X121744445Y-67684587D01*
X121724537Y-67584503D01*
X121724535Y-67584498D01*
X121664197Y-67438827D01*
X121664190Y-67438814D01*
X121576589Y-67307711D01*
X121576586Y-67307707D01*
X121465092Y-67196213D01*
X121465088Y-67196210D01*
X121333985Y-67108609D01*
X121333972Y-67108602D01*
X121188301Y-67048264D01*
X121188289Y-67048261D01*
X121033645Y-67017500D01*
X121033642Y-67017500D01*
X120875958Y-67017500D01*
X120875955Y-67017500D01*
X120721310Y-67048261D01*
X120721298Y-67048264D01*
X120575627Y-67108602D01*
X120575614Y-67108609D01*
X120444511Y-67196210D01*
X120444507Y-67196213D01*
X120333013Y-67307707D01*
X120333010Y-67307711D01*
X120245409Y-67438814D01*
X120245402Y-67438827D01*
X120185064Y-67584498D01*
X120185061Y-67584510D01*
X120154300Y-67739153D01*
X120154300Y-67896846D01*
X120185061Y-68051489D01*
X120185064Y-68051501D01*
X120245402Y-68197172D01*
X120245409Y-68197185D01*
X120333402Y-68328874D01*
X120354280Y-68395551D01*
X120354300Y-68397765D01*
X120354300Y-68713503D01*
X120334615Y-68780542D01*
X120317981Y-68801184D01*
X119337584Y-69781581D01*
X119276261Y-69815066D01*
X119249903Y-69817900D01*
X105844107Y-69817900D01*
X105777068Y-69798215D01*
X105731313Y-69745411D01*
X105721369Y-69676253D01*
X105729546Y-69646448D01*
X105760774Y-69571055D01*
X105767894Y-69553866D01*
X105802500Y-69379891D01*
X105802500Y-69202509D01*
X105802500Y-69202506D01*
X105802499Y-69202504D01*
X105767896Y-69028541D01*
X105767893Y-69028532D01*
X105700016Y-68864659D01*
X105700009Y-68864646D01*
X105670111Y-68819900D01*
X107624000Y-68819900D01*
X109126000Y-68819900D01*
X110124000Y-68819900D01*
X111626000Y-68819900D01*
X111626000Y-68321026D01*
X112624000Y-68321026D01*
X112624000Y-68819900D01*
X114126000Y-68819900D01*
X115124000Y-68819900D01*
X116626000Y-68819900D01*
X117624000Y-68819900D01*
X118887881Y-68819900D01*
X119126000Y-68581780D01*
X119126000Y-67624000D01*
X117624000Y-67624000D01*
X117624000Y-68819900D01*
X116626000Y-68819900D01*
X116626000Y-67624000D01*
X115124000Y-67624000D01*
X115124000Y-68819900D01*
X114126000Y-68819900D01*
X114126000Y-67624000D01*
X113762878Y-67624000D01*
X113756783Y-67633122D01*
X113753278Y-67638098D01*
X113731345Y-67667671D01*
X113727601Y-67672469D01*
X113696512Y-67710351D01*
X113692538Y-67714958D01*
X113667807Y-67742245D01*
X113663609Y-67746654D01*
X113517454Y-67892809D01*
X113513045Y-67897007D01*
X113485758Y-67921738D01*
X113481151Y-67925712D01*
X113443269Y-67956801D01*
X113438471Y-67960545D01*
X113408898Y-67982478D01*
X113403922Y-67985983D01*
X113232063Y-68100816D01*
X113226918Y-68104074D01*
X113195325Y-68123009D01*
X113190030Y-68126008D01*
X113146809Y-68149109D01*
X113141374Y-68151845D01*
X113108092Y-68167586D01*
X113102528Y-68170052D01*
X112911578Y-68249145D01*
X112905901Y-68251335D01*
X112871240Y-68263737D01*
X112865462Y-68265646D01*
X112818567Y-68279872D01*
X112812703Y-68281495D01*
X112776977Y-68290445D01*
X112771035Y-68291779D01*
X112624000Y-68321026D01*
X111626000Y-68321026D01*
X111626000Y-68207715D01*
X111535072Y-68170053D01*
X111529508Y-68167586D01*
X111496226Y-68151845D01*
X111490791Y-68149109D01*
X111447570Y-68126008D01*
X111442275Y-68123009D01*
X111410682Y-68104074D01*
X111405537Y-68100816D01*
X111233678Y-67985983D01*
X111228702Y-67982478D01*
X111199129Y-67960545D01*
X111194331Y-67956801D01*
X111156449Y-67925712D01*
X111151842Y-67921738D01*
X111124555Y-67897007D01*
X111120146Y-67892809D01*
X110973991Y-67746654D01*
X110969793Y-67742245D01*
X110945062Y-67714958D01*
X110941088Y-67710351D01*
X110909999Y-67672469D01*
X110906255Y-67667671D01*
X110884322Y-67638098D01*
X110880817Y-67633122D01*
X110874722Y-67624000D01*
X110124000Y-67624000D01*
X110124000Y-68819900D01*
X109126000Y-68819900D01*
X109126000Y-67624000D01*
X107624000Y-67624000D01*
X107624000Y-68819900D01*
X105670111Y-68819900D01*
X105598398Y-68712575D01*
X105577520Y-68645897D01*
X105577500Y-68643684D01*
X105577500Y-66687515D01*
X105595563Y-66626000D01*
X107624000Y-66626000D01*
X109126000Y-66626000D01*
X109126000Y-65124000D01*
X107624000Y-65124000D01*
X107624000Y-66626000D01*
X105595563Y-66626000D01*
X105597185Y-66620476D01*
X105598398Y-66618624D01*
X105700009Y-66466553D01*
X105700009Y-66466552D01*
X105700013Y-66466547D01*
X105767894Y-66302666D01*
X105768553Y-66299357D01*
X105796721Y-66157743D01*
X105802500Y-66128691D01*
X105802500Y-65951309D01*
X105802500Y-65951306D01*
X105802499Y-65951304D01*
X105767896Y-65777341D01*
X105767893Y-65777332D01*
X105762483Y-65764272D01*
X105728450Y-65682107D01*
X105700016Y-65613459D01*
X105700009Y-65613446D01*
X105601464Y-65465965D01*
X105601461Y-65465961D01*
X105476038Y-65340538D01*
X105476034Y-65340535D01*
X105328553Y-65241990D01*
X105328540Y-65241983D01*
X105164667Y-65174106D01*
X105164658Y-65174103D01*
X104990694Y-65139500D01*
X104990691Y-65139500D01*
X104813309Y-65139500D01*
X104813306Y-65139500D01*
X104639341Y-65174103D01*
X104639332Y-65174106D01*
X104475459Y-65241983D01*
X104475446Y-65241990D01*
X104327965Y-65340535D01*
X104327961Y-65340538D01*
X104202538Y-65465961D01*
X104202535Y-65465965D01*
X104103990Y-65613446D01*
X104103983Y-65613459D01*
X104036106Y-65777332D01*
X104036103Y-65777341D01*
X104001500Y-65951304D01*
X104001500Y-66128695D01*
X104036103Y-66302658D01*
X104036106Y-66302667D01*
X104103983Y-66466540D01*
X104103990Y-66466553D01*
X104205602Y-66618624D01*
X104226480Y-66685301D01*
X104226500Y-66687515D01*
X104226500Y-68643684D01*
X104206815Y-68710723D01*
X104205602Y-68712575D01*
X104103990Y-68864646D01*
X104103983Y-68864659D01*
X104036106Y-69028532D01*
X104036103Y-69028541D01*
X104001500Y-69202504D01*
X104001500Y-69379895D01*
X104025681Y-69501463D01*
X104019454Y-69571055D01*
X103976590Y-69626232D01*
X103910701Y-69649476D01*
X103901194Y-69649476D01*
X103901194Y-69649500D01*
X102102129Y-69649500D01*
X102102123Y-69649501D01*
X102042516Y-69655908D01*
X101907671Y-69706202D01*
X101907664Y-69706206D01*
X101792455Y-69792452D01*
X101792452Y-69792455D01*
X101706206Y-69907664D01*
X101706202Y-69907671D01*
X101655908Y-70042517D01*
X101649501Y-70102116D01*
X101649500Y-70102135D01*
X101649500Y-71897870D01*
X101649501Y-71897876D01*
X101655908Y-71957483D01*
X101706202Y-72092328D01*
X101706206Y-72092335D01*
X101792452Y-72207544D01*
X101792454Y-72207546D01*
X101834333Y-72238897D01*
X101849108Y-72249957D01*
X101907669Y-72293796D01*
X102042517Y-72344091D01*
X102102127Y-72350500D01*
X102136565Y-72350499D01*
X102129839Y-72355387D01*
X102180226Y-72370179D01*
X102197738Y-72390385D01*
X102200839Y-72387285D01*
X102870591Y-73057037D01*
X102807007Y-73074075D01*
X102692993Y-73139901D01*
X102599901Y-73232993D01*
X102534075Y-73347007D01*
X102517037Y-73410591D01*
X101887707Y-72781261D01*
X101887706Y-72781261D01*
X101848938Y-72834623D01*
X101752761Y-73023379D01*
X101687301Y-73224844D01*
X101687301Y-73224847D01*
X101654162Y-73434080D01*
X101654162Y-73645919D01*
X101687301Y-73855152D01*
X101687301Y-73855155D01*
X101752761Y-74056620D01*
X101848937Y-74245374D01*
X101887706Y-74298737D01*
X101887707Y-74298737D01*
X102517037Y-73669408D01*
X102534075Y-73732993D01*
X102599901Y-73847007D01*
X102692993Y-73940099D01*
X102807007Y-74005925D01*
X102870591Y-74022962D01*
X102241261Y-74652291D01*
X102294630Y-74691065D01*
X102483379Y-74787238D01*
X102684845Y-74852698D01*
X102894081Y-74885838D01*
X103105919Y-74885838D01*
X103315152Y-74852698D01*
X103315155Y-74852698D01*
X103516620Y-74787238D01*
X103705373Y-74691063D01*
X103758737Y-74652291D01*
X103758738Y-74652291D01*
X103634046Y-74527599D01*
X108919009Y-74527599D01*
X108919009Y-74527600D01*
X109427200Y-74527600D01*
X109927200Y-74527600D01*
X110435391Y-74527600D01*
X110435390Y-74527599D01*
X110382738Y-74400486D01*
X110382733Y-74400476D01*
X110295608Y-74270085D01*
X110295605Y-74270081D01*
X110184718Y-74159194D01*
X110184714Y-74159191D01*
X110054323Y-74072066D01*
X110054313Y-74072061D01*
X109927200Y-74019409D01*
X109927200Y-74527600D01*
X109427200Y-74527600D01*
X109427200Y-74019409D01*
X109427199Y-74019409D01*
X109300086Y-74072061D01*
X109300076Y-74072066D01*
X109169685Y-74159191D01*
X109169681Y-74159194D01*
X109058794Y-74270081D01*
X109058791Y-74270085D01*
X108971666Y-74400476D01*
X108971661Y-74400486D01*
X108919009Y-74527599D01*
X103634046Y-74527599D01*
X103129408Y-74022962D01*
X103192993Y-74005925D01*
X103307007Y-73940099D01*
X103400099Y-73847007D01*
X103465925Y-73732993D01*
X103482962Y-73669408D01*
X104112291Y-74298738D01*
X104112291Y-74298737D01*
X104151063Y-74245373D01*
X104247238Y-74056620D01*
X104312698Y-73855155D01*
X104312698Y-73855152D01*
X104345838Y-73645919D01*
X104345838Y-73434080D01*
X104312698Y-73224847D01*
X104312698Y-73224844D01*
X104247238Y-73023379D01*
X104151065Y-72834630D01*
X104112291Y-72781261D01*
X103482962Y-73410590D01*
X103465925Y-73347007D01*
X103400099Y-73232993D01*
X103307007Y-73139901D01*
X103192993Y-73074075D01*
X103129409Y-73057037D01*
X103562445Y-72624000D01*
X105162037Y-72624000D01*
X105176764Y-72659552D01*
X105178539Y-72664086D01*
X105188738Y-72691730D01*
X105190334Y-72696333D01*
X105267915Y-72935104D01*
X105269330Y-72939768D01*
X105277332Y-72968145D01*
X105278562Y-72972862D01*
X105287710Y-73010980D01*
X105288752Y-73015727D01*
X105294493Y-73044591D01*
X105295348Y-73049383D01*
X105334615Y-73297308D01*
X105335282Y-73302127D01*
X105338743Y-73331360D01*
X105339220Y-73336206D01*
X105342297Y-73375285D01*
X105342584Y-73380146D01*
X105343742Y-73409598D01*
X105343838Y-73414470D01*
X105343838Y-73665530D01*
X105343742Y-73670402D01*
X105342584Y-73699854D01*
X105342297Y-73704715D01*
X105339220Y-73743794D01*
X105338743Y-73748640D01*
X105335282Y-73777873D01*
X105334615Y-73782692D01*
X105295348Y-74030617D01*
X105294493Y-74035409D01*
X105288752Y-74064273D01*
X105287710Y-74069020D01*
X105278562Y-74107138D01*
X105277332Y-74111855D01*
X105273343Y-74126000D01*
X106626000Y-74126000D01*
X107624000Y-74126000D01*
X108005130Y-74126000D01*
X108059007Y-73995930D01*
X108061472Y-73990370D01*
X108075456Y-73960800D01*
X111459009Y-73960800D01*
X111511661Y-74087913D01*
X111511666Y-74087923D01*
X111598791Y-74218314D01*
X111598794Y-74218318D01*
X111709681Y-74329205D01*
X111709689Y-74329211D01*
X111840072Y-74416330D01*
X111840090Y-74416340D01*
X111967199Y-74468990D01*
X111967200Y-74468990D01*
X112467200Y-74468990D01*
X112594309Y-74416340D01*
X112594327Y-74416330D01*
X112724710Y-74329211D01*
X112724718Y-74329205D01*
X112835605Y-74218318D01*
X112835608Y-74218314D01*
X112922733Y-74087923D01*
X112922738Y-74087913D01*
X112975391Y-73960800D01*
X112467200Y-73960800D01*
X112467200Y-74468990D01*
X111967200Y-74468990D01*
X111967200Y-73960800D01*
X111459009Y-73960800D01*
X108075456Y-73960800D01*
X108077211Y-73957090D01*
X108079948Y-73951651D01*
X108103049Y-73908431D01*
X108106049Y-73903136D01*
X108124984Y-73871544D01*
X108128241Y-73866400D01*
X108242598Y-73695253D01*
X108246101Y-73690279D01*
X108268034Y-73660705D01*
X108271780Y-73655905D01*
X108302869Y-73618023D01*
X108306843Y-73613416D01*
X108331574Y-73586129D01*
X108335772Y-73581720D01*
X108456693Y-73460799D01*
X111459009Y-73460799D01*
X111459009Y-73460800D01*
X111967200Y-73460800D01*
X112467200Y-73460800D01*
X112975391Y-73460800D01*
X112975390Y-73460799D01*
X112922738Y-73333686D01*
X112922733Y-73333676D01*
X112835608Y-73203285D01*
X112835605Y-73203281D01*
X112724718Y-73092394D01*
X112724714Y-73092391D01*
X112594323Y-73005266D01*
X112594313Y-73005261D01*
X112467200Y-72952609D01*
X112467200Y-73460800D01*
X111967200Y-73460800D01*
X111967200Y-72952609D01*
X111967199Y-72952609D01*
X111840086Y-73005261D01*
X111840076Y-73005266D01*
X111709685Y-73092391D01*
X111709681Y-73092394D01*
X111598794Y-73203281D01*
X111598791Y-73203285D01*
X111511666Y-73333676D01*
X111511661Y-73333686D01*
X111459009Y-73460799D01*
X108456693Y-73460799D01*
X108481320Y-73436172D01*
X108485729Y-73431974D01*
X108513016Y-73407243D01*
X108517623Y-73403269D01*
X108555505Y-73372180D01*
X108560305Y-73368434D01*
X108589879Y-73346501D01*
X108594853Y-73342998D01*
X108766000Y-73228641D01*
X108771144Y-73225384D01*
X108802736Y-73206449D01*
X108808031Y-73203449D01*
X108851251Y-73180348D01*
X108856690Y-73177611D01*
X108889970Y-73161872D01*
X108895530Y-73159407D01*
X109126000Y-73063942D01*
X109126000Y-73020698D01*
X110124000Y-73020698D01*
X110458870Y-73159407D01*
X110464430Y-73161872D01*
X110496348Y-73176967D01*
X110599007Y-72929130D01*
X110601472Y-72923570D01*
X110617211Y-72890290D01*
X110619948Y-72884851D01*
X110643049Y-72841631D01*
X110646049Y-72836336D01*
X110664984Y-72804744D01*
X110668241Y-72799600D01*
X110782598Y-72628453D01*
X110785734Y-72624000D01*
X110124000Y-72624000D01*
X110124000Y-73020698D01*
X109126000Y-73020698D01*
X109126000Y-72624000D01*
X107624000Y-72624000D01*
X107624000Y-74126000D01*
X106626000Y-74126000D01*
X106626000Y-72624000D01*
X105162037Y-72624000D01*
X103562445Y-72624000D01*
X103799160Y-72387285D01*
X103802458Y-72390583D01*
X103826545Y-72366125D01*
X103869579Y-72354965D01*
X103863432Y-72350499D01*
X103897872Y-72350499D01*
X103957483Y-72344091D01*
X104092331Y-72293796D01*
X104207546Y-72207546D01*
X104293796Y-72092331D01*
X104344091Y-71957483D01*
X104350500Y-71897873D01*
X104350500Y-71724500D01*
X104370185Y-71657461D01*
X104422989Y-71611706D01*
X104474500Y-71600500D01*
X116318303Y-71600500D01*
X116385342Y-71620185D01*
X116405984Y-71636819D01*
X116563483Y-71794318D01*
X116596968Y-71855641D01*
X116591984Y-71925333D01*
X116563484Y-71969679D01*
X116484785Y-72048380D01*
X116423463Y-72081866D01*
X116397103Y-72084700D01*
X115920270Y-72084700D01*
X115920254Y-72084699D01*
X115912658Y-72084699D01*
X115754543Y-72084699D01*
X115695496Y-72100521D01*
X115601814Y-72125623D01*
X115601809Y-72125626D01*
X115464890Y-72204675D01*
X115464882Y-72204681D01*
X109269481Y-78400082D01*
X109269475Y-78400090D01*
X109226030Y-78475341D01*
X109226030Y-78475342D01*
X109190423Y-78537015D01*
X109149499Y-78689743D01*
X109149499Y-78689745D01*
X109149499Y-78857846D01*
X109149500Y-78857859D01*
X109149500Y-91214281D01*
X109129815Y-91281320D01*
X109081795Y-91324765D01*
X109042185Y-91344947D01*
X109042184Y-91344948D01*
X108870215Y-91469889D01*
X108756673Y-91583431D01*
X108695350Y-91616915D01*
X108625658Y-91611931D01*
X108569725Y-91570059D01*
X108552810Y-91539082D01*
X108503797Y-91407671D01*
X108503793Y-91407664D01*
X108417547Y-91292455D01*
X108417544Y-91292452D01*
X108302335Y-91206206D01*
X108302328Y-91206202D01*
X108167482Y-91155908D01*
X108167483Y-91155908D01*
X108107883Y-91149501D01*
X108107881Y-91149500D01*
X108107873Y-91149500D01*
X108107864Y-91149500D01*
X106312129Y-91149500D01*
X106312123Y-91149501D01*
X106252516Y-91155908D01*
X106117671Y-91206202D01*
X106117664Y-91206206D01*
X106002455Y-91292452D01*
X106002452Y-91292455D01*
X105916206Y-91407664D01*
X105916202Y-91407671D01*
X105865908Y-91542517D01*
X105859501Y-91602116D01*
X105859500Y-91602135D01*
X105859500Y-93397870D01*
X105859501Y-93397876D01*
X105865908Y-93457483D01*
X105916202Y-93592328D01*
X105916206Y-93592335D01*
X106002452Y-93707544D01*
X106002455Y-93707547D01*
X106117664Y-93793793D01*
X106117671Y-93793797D01*
X106252517Y-93844091D01*
X106252516Y-93844091D01*
X106259444Y-93844835D01*
X106312127Y-93850500D01*
X108107872Y-93850499D01*
X108167483Y-93844091D01*
X108302331Y-93793796D01*
X108417546Y-93707546D01*
X108503796Y-93592331D01*
X108552810Y-93460916D01*
X108594681Y-93404984D01*
X108660145Y-93380566D01*
X108728418Y-93395417D01*
X108756673Y-93416569D01*
X108870213Y-93530109D01*
X109042179Y-93655048D01*
X109042181Y-93655049D01*
X109042184Y-93655051D01*
X109231588Y-93751557D01*
X109433757Y-93817246D01*
X109643713Y-93850500D01*
X109643714Y-93850500D01*
X109856286Y-93850500D01*
X109856287Y-93850500D01*
X110066243Y-93817246D01*
X110268412Y-93751557D01*
X110457816Y-93655051D01*
X110544138Y-93592335D01*
X110629786Y-93530109D01*
X110629788Y-93530106D01*
X110629792Y-93530104D01*
X110780104Y-93379792D01*
X110780106Y-93379788D01*
X110780109Y-93379786D01*
X110901885Y-93212173D01*
X110905051Y-93207816D01*
X110909514Y-93199054D01*
X110957488Y-93148259D01*
X111025308Y-93131463D01*
X111091444Y-93153999D01*
X111130486Y-93199056D01*
X111134951Y-93207820D01*
X111259890Y-93379786D01*
X111410213Y-93530109D01*
X111582179Y-93655048D01*
X111582181Y-93655049D01*
X111582184Y-93655051D01*
X111771588Y-93751557D01*
X111973757Y-93817246D01*
X112183713Y-93850500D01*
X112183714Y-93850500D01*
X112396286Y-93850500D01*
X112396287Y-93850500D01*
X112606243Y-93817246D01*
X112808412Y-93751557D01*
X112997816Y-93655051D01*
X113084138Y-93592335D01*
X113169786Y-93530109D01*
X113169788Y-93530106D01*
X113169792Y-93530104D01*
X113320104Y-93379792D01*
X113320106Y-93379788D01*
X113320109Y-93379786D01*
X113441885Y-93212173D01*
X113445051Y-93207816D01*
X113449514Y-93199054D01*
X113497488Y-93148259D01*
X113565308Y-93131463D01*
X113631444Y-93153999D01*
X113670486Y-93199056D01*
X113674951Y-93207820D01*
X113799890Y-93379786D01*
X113950213Y-93530109D01*
X114122179Y-93655048D01*
X114122181Y-93655049D01*
X114122184Y-93655051D01*
X114311588Y-93751557D01*
X114513757Y-93817246D01*
X114723713Y-93850500D01*
X114723714Y-93850500D01*
X114936286Y-93850500D01*
X114936287Y-93850500D01*
X115146243Y-93817246D01*
X115348412Y-93751557D01*
X115537816Y-93655051D01*
X115624138Y-93592335D01*
X115709786Y-93530109D01*
X115709788Y-93530106D01*
X115709792Y-93530104D01*
X115860104Y-93379792D01*
X115860106Y-93379788D01*
X115860109Y-93379786D01*
X115981885Y-93212173D01*
X115985051Y-93207816D01*
X115989514Y-93199054D01*
X116037488Y-93148259D01*
X116105308Y-93131463D01*
X116171444Y-93153999D01*
X116210486Y-93199056D01*
X116214951Y-93207820D01*
X116339890Y-93379786D01*
X116490213Y-93530109D01*
X116662179Y-93655048D01*
X116662181Y-93655049D01*
X116662184Y-93655051D01*
X116851588Y-93751557D01*
X117053757Y-93817246D01*
X117263713Y-93850500D01*
X117263714Y-93850500D01*
X117476286Y-93850500D01*
X117476287Y-93850500D01*
X117686243Y-93817246D01*
X117888412Y-93751557D01*
X118077816Y-93655051D01*
X118164138Y-93592335D01*
X118249786Y-93530109D01*
X118249788Y-93530106D01*
X118249792Y-93530104D01*
X118400104Y-93379792D01*
X118400106Y-93379788D01*
X118400109Y-93379786D01*
X118521885Y-93212173D01*
X118525051Y-93207816D01*
X118529514Y-93199054D01*
X118577488Y-93148259D01*
X118645308Y-93131463D01*
X118711444Y-93153999D01*
X118750486Y-93199056D01*
X118754951Y-93207820D01*
X118879890Y-93379786D01*
X119030213Y-93530109D01*
X119202179Y-93655048D01*
X119202181Y-93655049D01*
X119202184Y-93655051D01*
X119391588Y-93751557D01*
X119593757Y-93817246D01*
X119803713Y-93850500D01*
X119803714Y-93850500D01*
X120016286Y-93850500D01*
X120016287Y-93850500D01*
X120226243Y-93817246D01*
X120428412Y-93751557D01*
X120617816Y-93655051D01*
X120704138Y-93592335D01*
X120789786Y-93530109D01*
X120789788Y-93530106D01*
X120789792Y-93530104D01*
X120940104Y-93379792D01*
X120940106Y-93379788D01*
X120940109Y-93379786D01*
X121061885Y-93212173D01*
X121065051Y-93207816D01*
X121069514Y-93199054D01*
X121117488Y-93148259D01*
X121185308Y-93131463D01*
X121251444Y-93153999D01*
X121290486Y-93199056D01*
X121294951Y-93207820D01*
X121419890Y-93379786D01*
X121570213Y-93530109D01*
X121742179Y-93655048D01*
X121742181Y-93655049D01*
X121742184Y-93655051D01*
X121931588Y-93751557D01*
X122133757Y-93817246D01*
X122343713Y-93850500D01*
X122343714Y-93850500D01*
X122556286Y-93850500D01*
X122556287Y-93850500D01*
X122766243Y-93817246D01*
X122968412Y-93751557D01*
X123157816Y-93655051D01*
X123244138Y-93592335D01*
X123329786Y-93530109D01*
X123329788Y-93530106D01*
X123329792Y-93530104D01*
X123480104Y-93379792D01*
X123480106Y-93379788D01*
X123480109Y-93379786D01*
X123493940Y-93360748D01*
X123605051Y-93207816D01*
X123653031Y-93113649D01*
X123667159Y-93141377D01*
X123727925Y-93126329D01*
X123794060Y-93148866D01*
X123833101Y-93193920D01*
X123838937Y-93205374D01*
X123877706Y-93258737D01*
X123877707Y-93258737D01*
X124507037Y-92629408D01*
X124524075Y-92692993D01*
X124589901Y-92807007D01*
X124682993Y-92900099D01*
X124797007Y-92965925D01*
X124860591Y-92982962D01*
X124231261Y-93612291D01*
X124284630Y-93651065D01*
X124473379Y-93747238D01*
X124674845Y-93812698D01*
X124884081Y-93845838D01*
X125095919Y-93845838D01*
X125305152Y-93812698D01*
X125305155Y-93812698D01*
X125506620Y-93747238D01*
X125695373Y-93651063D01*
X125748737Y-93612291D01*
X125748738Y-93612291D01*
X125119408Y-92982962D01*
X125182993Y-92965925D01*
X125297007Y-92900099D01*
X125390099Y-92807007D01*
X125455925Y-92692993D01*
X125472962Y-92629408D01*
X126102291Y-93258738D01*
X126102291Y-93258737D01*
X126141064Y-93205371D01*
X126146898Y-93193923D01*
X126194871Y-93143126D01*
X126262692Y-93126329D01*
X126311954Y-93143115D01*
X126326968Y-93113648D01*
X126374949Y-93207816D01*
X126486058Y-93360746D01*
X126486058Y-93360748D01*
X126499890Y-93379786D01*
X126650213Y-93530109D01*
X126822179Y-93655048D01*
X126822181Y-93655049D01*
X126822184Y-93655051D01*
X127011588Y-93751557D01*
X127213757Y-93817246D01*
X127423713Y-93850500D01*
X127423714Y-93850500D01*
X127636286Y-93850500D01*
X127636287Y-93850500D01*
X127846243Y-93817246D01*
X128048412Y-93751557D01*
X128237816Y-93655051D01*
X128324138Y-93592335D01*
X128409786Y-93530109D01*
X128409788Y-93530106D01*
X128409792Y-93530104D01*
X128416996Y-93522900D01*
X130124000Y-93522900D01*
X131289696Y-93522900D01*
X131286289Y-93491217D01*
X131285977Y-93487905D01*
X131284364Y-93467856D01*
X131284142Y-93464542D01*
X131282713Y-93437855D01*
X131282580Y-93434539D01*
X131282044Y-93414491D01*
X131282000Y-93411177D01*
X131282000Y-92624000D01*
X130124000Y-92624000D01*
X130124000Y-93522900D01*
X128416996Y-93522900D01*
X128560104Y-93379792D01*
X128560106Y-93379788D01*
X128560109Y-93379786D01*
X128681885Y-93212173D01*
X128685051Y-93207816D01*
X128781557Y-93018412D01*
X128847246Y-92816243D01*
X128880500Y-92606287D01*
X128880500Y-92393713D01*
X128847246Y-92183757D01*
X128781557Y-91981588D01*
X128685051Y-91792184D01*
X128685049Y-91792181D01*
X128685048Y-91792179D01*
X128564313Y-91626000D01*
X130124000Y-91626000D01*
X131282000Y-91626000D01*
X131282000Y-91588823D01*
X131282044Y-91585509D01*
X131282580Y-91565461D01*
X131282713Y-91562145D01*
X131284142Y-91535458D01*
X131284364Y-91532144D01*
X131285977Y-91512095D01*
X131286289Y-91508783D01*
X131297455Y-91404931D01*
X131298522Y-91397262D01*
X131306428Y-91351084D01*
X131307972Y-91343499D01*
X131322315Y-91282788D01*
X131324332Y-91275305D01*
X131337942Y-91230436D01*
X131340421Y-91223096D01*
X131414030Y-91025739D01*
X131417419Y-91017559D01*
X131439677Y-90968823D01*
X131443638Y-90960909D01*
X131477815Y-90898319D01*
X131482333Y-90890705D01*
X131511297Y-90845638D01*
X131516345Y-90838368D01*
X131626000Y-90691889D01*
X131626000Y-90157878D01*
X132624000Y-90157878D01*
X132638783Y-90156289D01*
X132642095Y-90155977D01*
X132662144Y-90154364D01*
X132665458Y-90154142D01*
X132692145Y-90152713D01*
X132695461Y-90152580D01*
X132715509Y-90152044D01*
X132718823Y-90152000D01*
X133580546Y-90152000D01*
X133627998Y-90161439D01*
X133630000Y-90162268D01*
X133632002Y-90161439D01*
X133679454Y-90152000D01*
X134126000Y-90152000D01*
X134126000Y-90124000D01*
X132624000Y-90124000D01*
X132624000Y-90157878D01*
X131626000Y-90157878D01*
X131626000Y-90124000D01*
X130124000Y-90124000D01*
X130124000Y-91626000D01*
X128564313Y-91626000D01*
X128560109Y-91620213D01*
X128409786Y-91469890D01*
X128237820Y-91344951D01*
X128048414Y-91248444D01*
X128048413Y-91248443D01*
X128048412Y-91248443D01*
X127846243Y-91182754D01*
X127846241Y-91182753D01*
X127846240Y-91182753D01*
X127684957Y-91157208D01*
X127636287Y-91149500D01*
X127423713Y-91149500D01*
X127375042Y-91157208D01*
X127213760Y-91182753D01*
X127011585Y-91248444D01*
X126822179Y-91344951D01*
X126650213Y-91469890D01*
X126499890Y-91620213D01*
X126486058Y-91639250D01*
X126486059Y-91639252D01*
X126374949Y-91792184D01*
X126326968Y-91886350D01*
X126312840Y-91858622D01*
X126252072Y-91873670D01*
X126185937Y-91851132D01*
X126146899Y-91806079D01*
X126141065Y-91794630D01*
X126102291Y-91741261D01*
X125472962Y-92370590D01*
X125455925Y-92307007D01*
X125390099Y-92192993D01*
X125297007Y-92099901D01*
X125182993Y-92034075D01*
X125119409Y-92017037D01*
X125748737Y-91387707D01*
X125748737Y-91387706D01*
X125695374Y-91348937D01*
X125506620Y-91252761D01*
X125305154Y-91187301D01*
X125095919Y-91154162D01*
X124884081Y-91154162D01*
X124674847Y-91187301D01*
X124674844Y-91187301D01*
X124473379Y-91252761D01*
X124284623Y-91348938D01*
X124231261Y-91387706D01*
X124231261Y-91387707D01*
X124860591Y-92017037D01*
X124797007Y-92034075D01*
X124682993Y-92099901D01*
X124589901Y-92192993D01*
X124524075Y-92307007D01*
X124507037Y-92370591D01*
X123877707Y-91741261D01*
X123877706Y-91741261D01*
X123838936Y-91794626D01*
X123833099Y-91806082D01*
X123785123Y-91856877D01*
X123717302Y-91873670D01*
X123668046Y-91856883D01*
X123653031Y-91886350D01*
X123605051Y-91792184D01*
X123493939Y-91639250D01*
X123493940Y-91639250D01*
X123480109Y-91620213D01*
X123329786Y-91469890D01*
X123157820Y-91344951D01*
X122968414Y-91248444D01*
X122968413Y-91248443D01*
X122968412Y-91248443D01*
X122766243Y-91182754D01*
X122766241Y-91182753D01*
X122766240Y-91182753D01*
X122604957Y-91157208D01*
X122556287Y-91149500D01*
X122343713Y-91149500D01*
X122295042Y-91157208D01*
X122133760Y-91182753D01*
X121931585Y-91248444D01*
X121742179Y-91344951D01*
X121570213Y-91469890D01*
X121419890Y-91620213D01*
X121294949Y-91792182D01*
X121290484Y-91800946D01*
X121242509Y-91851742D01*
X121174688Y-91868536D01*
X121108553Y-91845998D01*
X121069516Y-91800946D01*
X121065050Y-91792182D01*
X120940109Y-91620213D01*
X120789786Y-91469890D01*
X120617820Y-91344951D01*
X120428414Y-91248444D01*
X120428413Y-91248443D01*
X120428412Y-91248443D01*
X120226243Y-91182754D01*
X120226241Y-91182753D01*
X120226240Y-91182753D01*
X120064957Y-91157208D01*
X120016287Y-91149500D01*
X119803713Y-91149500D01*
X119755042Y-91157208D01*
X119593760Y-91182753D01*
X119391585Y-91248444D01*
X119202179Y-91344951D01*
X119030213Y-91469890D01*
X118879890Y-91620213D01*
X118754949Y-91792182D01*
X118750484Y-91800946D01*
X118702509Y-91851742D01*
X118634688Y-91868536D01*
X118568553Y-91845998D01*
X118529516Y-91800946D01*
X118525050Y-91792182D01*
X118400109Y-91620213D01*
X118249786Y-91469890D01*
X118077820Y-91344951D01*
X117888416Y-91248444D01*
X117728521Y-91196491D01*
X117691686Y-91184522D01*
X117634012Y-91145085D01*
X117606814Y-91080726D01*
X117618729Y-91011880D01*
X117642325Y-90978911D01*
X117675051Y-90946185D01*
X117726920Y-90894316D01*
X117726920Y-90894314D01*
X117737124Y-90884111D01*
X117737128Y-90884106D01*
X118464047Y-90157187D01*
X120124000Y-90157187D01*
X120148236Y-90160056D01*
X120153059Y-90160723D01*
X120401728Y-90200108D01*
X120406523Y-90200964D01*
X120435423Y-90206713D01*
X120440183Y-90207758D01*
X120478300Y-90216911D01*
X120483005Y-90218138D01*
X120511347Y-90226131D01*
X120516007Y-90227545D01*
X120755440Y-90305342D01*
X120760037Y-90306936D01*
X120787647Y-90317121D01*
X120792175Y-90318893D01*
X120828392Y-90333891D01*
X120832861Y-90335846D01*
X120859636Y-90348189D01*
X120864019Y-90350314D01*
X121088361Y-90464622D01*
X121092654Y-90466917D01*
X121118350Y-90481307D01*
X121122550Y-90483769D01*
X121155973Y-90504250D01*
X121160073Y-90506874D01*
X121180000Y-90520187D01*
X121199927Y-90506874D01*
X121204027Y-90504250D01*
X121237450Y-90483769D01*
X121241650Y-90481307D01*
X121267346Y-90466917D01*
X121271639Y-90464622D01*
X121495981Y-90350314D01*
X121500364Y-90348189D01*
X121527139Y-90335846D01*
X121531608Y-90333891D01*
X121567825Y-90318893D01*
X121572353Y-90317121D01*
X121599963Y-90306936D01*
X121604559Y-90305342D01*
X121626000Y-90298375D01*
X121626000Y-90153743D01*
X122624000Y-90153743D01*
X122654165Y-90156119D01*
X122659003Y-90156596D01*
X122688236Y-90160056D01*
X122693059Y-90160723D01*
X122941728Y-90200108D01*
X122946523Y-90200964D01*
X122975423Y-90206713D01*
X122980183Y-90207758D01*
X123018300Y-90216911D01*
X123023005Y-90218138D01*
X123051347Y-90226131D01*
X123056007Y-90227545D01*
X123295440Y-90305342D01*
X123300037Y-90306936D01*
X123327647Y-90317121D01*
X123332175Y-90318893D01*
X123368392Y-90333891D01*
X123372861Y-90335846D01*
X123399636Y-90348189D01*
X123404019Y-90350314D01*
X123628361Y-90464622D01*
X123632654Y-90466917D01*
X123658350Y-90481307D01*
X123662550Y-90483769D01*
X123695973Y-90504250D01*
X123700073Y-90506874D01*
X123724205Y-90522997D01*
X123742390Y-90510848D01*
X123746495Y-90508221D01*
X123779915Y-90487744D01*
X123784108Y-90485286D01*
X123809792Y-90470902D01*
X123814087Y-90468606D01*
X124037752Y-90354643D01*
X124042130Y-90352520D01*
X124068874Y-90340190D01*
X124073336Y-90338238D01*
X124109552Y-90323236D01*
X124114086Y-90321461D01*
X124126000Y-90317065D01*
X124126000Y-90156399D01*
X125124000Y-90156399D01*
X125149854Y-90157416D01*
X125154715Y-90157703D01*
X125193794Y-90160780D01*
X125198640Y-90161257D01*
X125227873Y-90164718D01*
X125232692Y-90165385D01*
X125480617Y-90204652D01*
X125485409Y-90205507D01*
X125514273Y-90211248D01*
X125519020Y-90212290D01*
X125557138Y-90221438D01*
X125561855Y-90222668D01*
X125590232Y-90230670D01*
X125594896Y-90232085D01*
X125833667Y-90309666D01*
X125838270Y-90311262D01*
X125865914Y-90321461D01*
X125870448Y-90323236D01*
X125906664Y-90338238D01*
X125911126Y-90340190D01*
X125937870Y-90352520D01*
X125942248Y-90354643D01*
X126165918Y-90468609D01*
X126170212Y-90470905D01*
X126195907Y-90485295D01*
X126200107Y-90487756D01*
X126233528Y-90508236D01*
X126237627Y-90510860D01*
X126255794Y-90522998D01*
X126279927Y-90506874D01*
X126284027Y-90504250D01*
X126317450Y-90483769D01*
X126321650Y-90481307D01*
X126347346Y-90466917D01*
X126351639Y-90464622D01*
X126575981Y-90350314D01*
X126580364Y-90348189D01*
X126607139Y-90335846D01*
X126611608Y-90333891D01*
X126626000Y-90327931D01*
X126626000Y-90151500D01*
X127624000Y-90151500D01*
X127655897Y-90151500D01*
X127660769Y-90151596D01*
X127690221Y-90152754D01*
X127695086Y-90153041D01*
X127734165Y-90156119D01*
X127739003Y-90156596D01*
X127768236Y-90160056D01*
X127773059Y-90160723D01*
X128021728Y-90200108D01*
X128026523Y-90200964D01*
X128055423Y-90206713D01*
X128060183Y-90207758D01*
X128098300Y-90216911D01*
X128103005Y-90218138D01*
X128131347Y-90226131D01*
X128136007Y-90227545D01*
X128375440Y-90305342D01*
X128380037Y-90306936D01*
X128407647Y-90317121D01*
X128412175Y-90318893D01*
X128448392Y-90333891D01*
X128452861Y-90335846D01*
X128479636Y-90348189D01*
X128484019Y-90350314D01*
X128708361Y-90464622D01*
X128712654Y-90466917D01*
X128738350Y-90481307D01*
X128742550Y-90483769D01*
X128775973Y-90504250D01*
X128780073Y-90506874D01*
X128804568Y-90523240D01*
X128808565Y-90526026D01*
X129012269Y-90674025D01*
X129016157Y-90676968D01*
X129039316Y-90695227D01*
X129043081Y-90698317D01*
X129072888Y-90723778D01*
X129076527Y-90727012D01*
X129098132Y-90746986D01*
X129101636Y-90750356D01*
X129126000Y-90774720D01*
X129126000Y-90124000D01*
X127624000Y-90124000D01*
X127624000Y-90151500D01*
X126626000Y-90151500D01*
X126626000Y-90124000D01*
X125124000Y-90124000D01*
X125124000Y-90156399D01*
X124126000Y-90156399D01*
X124126000Y-90124000D01*
X122624000Y-90124000D01*
X122624000Y-90153743D01*
X121626000Y-90153743D01*
X121626000Y-90124000D01*
X120124000Y-90124000D01*
X120124000Y-90157187D01*
X118464047Y-90157187D01*
X119495234Y-89126000D01*
X120906616Y-89126000D01*
X121626000Y-89126000D01*
X122624000Y-89126000D01*
X124126000Y-89126000D01*
X124126000Y-88357305D01*
X125124000Y-88357305D01*
X125124000Y-89126000D01*
X126626000Y-89126000D01*
X127624000Y-89126000D01*
X129126000Y-89126000D01*
X130124000Y-89126000D01*
X131533326Y-89126000D01*
X131347072Y-89048852D01*
X131341508Y-89046386D01*
X131308226Y-89030645D01*
X131302791Y-89027909D01*
X131259570Y-89004808D01*
X131254275Y-89001809D01*
X131222682Y-88982874D01*
X131217537Y-88979616D01*
X131045678Y-88864783D01*
X131040702Y-88861278D01*
X131011129Y-88839345D01*
X131006331Y-88835601D01*
X130968449Y-88804512D01*
X130963842Y-88800538D01*
X130936555Y-88775807D01*
X130932146Y-88771609D01*
X130785991Y-88625454D01*
X130781793Y-88621045D01*
X130757062Y-88593758D01*
X130753088Y-88589151D01*
X130721999Y-88551269D01*
X130718255Y-88546471D01*
X130696322Y-88516898D01*
X130692817Y-88511922D01*
X130577984Y-88340063D01*
X130574726Y-88334918D01*
X130555791Y-88303325D01*
X130552792Y-88298030D01*
X130529691Y-88254809D01*
X130526955Y-88249374D01*
X130511214Y-88216092D01*
X130508748Y-88210528D01*
X130429655Y-88019578D01*
X130427465Y-88013901D01*
X130415063Y-87979240D01*
X130413154Y-87973463D01*
X130411547Y-87968166D01*
X130124000Y-87680619D01*
X130124000Y-89126000D01*
X129126000Y-89126000D01*
X129126000Y-87624000D01*
X127624000Y-87624000D01*
X127624000Y-89126000D01*
X126626000Y-89126000D01*
X126626000Y-88166919D01*
X126586486Y-88193322D01*
X126581341Y-88196580D01*
X126549748Y-88215515D01*
X126544453Y-88218514D01*
X126501232Y-88241615D01*
X126495797Y-88244351D01*
X126462515Y-88260092D01*
X126456951Y-88262558D01*
X126266001Y-88341651D01*
X126260324Y-88343841D01*
X126225663Y-88356243D01*
X126219885Y-88358152D01*
X126172990Y-88372378D01*
X126167126Y-88374001D01*
X126131400Y-88382951D01*
X126125458Y-88384285D01*
X125922731Y-88424610D01*
X125916734Y-88425651D01*
X125880303Y-88431055D01*
X125874262Y-88431800D01*
X125825490Y-88436603D01*
X125819420Y-88437051D01*
X125782648Y-88438857D01*
X125776565Y-88439006D01*
X125569881Y-88439006D01*
X125563798Y-88438857D01*
X125527026Y-88437051D01*
X125520956Y-88436603D01*
X125472184Y-88431800D01*
X125466143Y-88431055D01*
X125429712Y-88425651D01*
X125423715Y-88424610D01*
X125220988Y-88384285D01*
X125215046Y-88382951D01*
X125179320Y-88374001D01*
X125173456Y-88372378D01*
X125126561Y-88358152D01*
X125124000Y-88357305D01*
X124126000Y-88357305D01*
X124126000Y-87624000D01*
X122624000Y-87624000D01*
X122624000Y-89126000D01*
X121626000Y-89126000D01*
X121626000Y-88406616D01*
X120906616Y-89126000D01*
X119495234Y-89126000D01*
X122554498Y-86066735D01*
X122615819Y-86033252D01*
X122685511Y-86038236D01*
X122725475Y-86063920D01*
X122725801Y-86063524D01*
X122729203Y-86066316D01*
X122729858Y-86066737D01*
X122730507Y-86067386D01*
X122730511Y-86067389D01*
X122861614Y-86154990D01*
X122861627Y-86154997D01*
X123007045Y-86215230D01*
X123007303Y-86215337D01*
X123161953Y-86246099D01*
X123161956Y-86246100D01*
X123161958Y-86246100D01*
X123319644Y-86246100D01*
X123319645Y-86246099D01*
X123474297Y-86215337D01*
X123619979Y-86154994D01*
X123751089Y-86067389D01*
X123862589Y-85955889D01*
X123950194Y-85824779D01*
X124010537Y-85679097D01*
X124041300Y-85524442D01*
X124041300Y-85366758D01*
X124041300Y-85366755D01*
X124041299Y-85366753D01*
X124015007Y-85234575D01*
X124010537Y-85212103D01*
X123980711Y-85140095D01*
X123950197Y-85066427D01*
X123950190Y-85066414D01*
X123862589Y-84935311D01*
X123862586Y-84935307D01*
X123756819Y-84829540D01*
X123723334Y-84768217D01*
X123720500Y-84741859D01*
X123720500Y-81598100D01*
X123740185Y-81531061D01*
X123792989Y-81485306D01*
X123844500Y-81474100D01*
X123956703Y-81474100D01*
X124023742Y-81493785D01*
X124044384Y-81510419D01*
X125036404Y-82502439D01*
X125069889Y-82563762D01*
X125072723Y-82590120D01*
X125072723Y-86060740D01*
X125053038Y-86127779D01*
X125051825Y-86129631D01*
X124963832Y-86261320D01*
X124963825Y-86261333D01*
X124903487Y-86407004D01*
X124903484Y-86407016D01*
X124872723Y-86561659D01*
X124872723Y-86719352D01*
X124903484Y-86873995D01*
X124903487Y-86874007D01*
X124963825Y-87019678D01*
X124963832Y-87019691D01*
X125051433Y-87150794D01*
X125051436Y-87150798D01*
X125162930Y-87262292D01*
X125162934Y-87262295D01*
X125294037Y-87349896D01*
X125294050Y-87349903D01*
X125439721Y-87410241D01*
X125439726Y-87410243D01*
X125594376Y-87441005D01*
X125594379Y-87441006D01*
X125594381Y-87441006D01*
X125752067Y-87441006D01*
X125752068Y-87441005D01*
X125906720Y-87410243D01*
X126052402Y-87349900D01*
X126183512Y-87262295D01*
X126295012Y-87150795D01*
X126382617Y-87019685D01*
X126442960Y-86874003D01*
X126473723Y-86719348D01*
X126473723Y-86626000D01*
X127624000Y-86626000D01*
X128989737Y-86626000D01*
X128906391Y-86542654D01*
X128902193Y-86538245D01*
X128877462Y-86510958D01*
X128873488Y-86506351D01*
X128842399Y-86468469D01*
X128838655Y-86463671D01*
X128816722Y-86434098D01*
X128813217Y-86429122D01*
X128698384Y-86257263D01*
X128695126Y-86252118D01*
X128676191Y-86220525D01*
X128673192Y-86215230D01*
X128650091Y-86172009D01*
X128647355Y-86166574D01*
X128631614Y-86133292D01*
X128629148Y-86127728D01*
X128550055Y-85936778D01*
X128547865Y-85931101D01*
X128535463Y-85896440D01*
X128533554Y-85890662D01*
X128519328Y-85843767D01*
X128517705Y-85837903D01*
X128508755Y-85802177D01*
X128507421Y-85796235D01*
X128467096Y-85593508D01*
X128466055Y-85587511D01*
X128460651Y-85551080D01*
X128459906Y-85545039D01*
X128455103Y-85496267D01*
X128454655Y-85490197D01*
X128452849Y-85453425D01*
X128452700Y-85447342D01*
X128452700Y-85240658D01*
X128452849Y-85234575D01*
X128454655Y-85197803D01*
X128455103Y-85191733D01*
X128459906Y-85142961D01*
X128460651Y-85136920D01*
X128462567Y-85124000D01*
X127624000Y-85124000D01*
X127624000Y-86626000D01*
X126473723Y-86626000D01*
X126473723Y-86561664D01*
X126473723Y-86561661D01*
X126473722Y-86561659D01*
X126448348Y-86434098D01*
X126442960Y-86407009D01*
X126392906Y-86286167D01*
X126382620Y-86261333D01*
X126382613Y-86261320D01*
X126294621Y-86129631D01*
X126273743Y-86062953D01*
X126273723Y-86060740D01*
X126273723Y-84126000D01*
X127624000Y-84126000D01*
X128617113Y-84126000D01*
X128616028Y-84120543D01*
X128614706Y-84112541D01*
X128606173Y-84047741D01*
X128605378Y-84039664D01*
X128602165Y-83990654D01*
X128601899Y-83982542D01*
X128601899Y-83763385D01*
X128601900Y-83763346D01*
X128601900Y-82624000D01*
X127624000Y-82624000D01*
X127624000Y-84126000D01*
X126273723Y-84126000D01*
X126273723Y-82379083D01*
X126273724Y-82379070D01*
X126273724Y-82210967D01*
X126270357Y-82198400D01*
X126232800Y-82058239D01*
X126178383Y-81963985D01*
X126153747Y-81921313D01*
X126153741Y-81921305D01*
X124744390Y-80511955D01*
X124744388Y-80511952D01*
X124625517Y-80393081D01*
X124625512Y-80393077D01*
X124573408Y-80362995D01*
X124525192Y-80312428D01*
X124511969Y-80243821D01*
X124537937Y-80178956D01*
X124539563Y-80176933D01*
X124541724Y-80174298D01*
X124541734Y-80174289D01*
X124629339Y-80043179D01*
X124689682Y-79897497D01*
X124720445Y-79742842D01*
X124720445Y-79585158D01*
X124720445Y-79585155D01*
X124720444Y-79585153D01*
X124689683Y-79430510D01*
X124689682Y-79430503D01*
X124689680Y-79430498D01*
X124629342Y-79284827D01*
X124629335Y-79284814D01*
X124541734Y-79153711D01*
X124541731Y-79153707D01*
X124430237Y-79042213D01*
X124430233Y-79042210D01*
X124299130Y-78954609D01*
X124299117Y-78954602D01*
X124153446Y-78894264D01*
X124153434Y-78894261D01*
X123998790Y-78863500D01*
X123998787Y-78863500D01*
X123841103Y-78863500D01*
X123841100Y-78863500D01*
X123686455Y-78894261D01*
X123686452Y-78894261D01*
X123579012Y-78938764D01*
X123509542Y-78946232D01*
X123484108Y-78938763D01*
X123353501Y-78884664D01*
X123353491Y-78884661D01*
X123220308Y-78858169D01*
X123158397Y-78825784D01*
X123123823Y-78765068D01*
X123120500Y-78736552D01*
X123120500Y-77313668D01*
X123140185Y-77246629D01*
X123192989Y-77200874D01*
X123262147Y-77190930D01*
X123313394Y-77210568D01*
X123318816Y-77214191D01*
X123318827Y-77214197D01*
X123464498Y-77274535D01*
X123464503Y-77274537D01*
X123529147Y-77287395D01*
X123619849Y-77305438D01*
X123681760Y-77337823D01*
X123683339Y-77339374D01*
X126464339Y-80120374D01*
X126464349Y-80120385D01*
X126468679Y-80124715D01*
X126468680Y-80124716D01*
X126580484Y-80236520D01*
X126655623Y-80279901D01*
X126655624Y-80279902D01*
X126717409Y-80315574D01*
X126717410Y-80315574D01*
X126717415Y-80315577D01*
X126870143Y-80356500D01*
X127028257Y-80356500D01*
X127807490Y-80356500D01*
X127874529Y-80376185D01*
X127920284Y-80428989D01*
X127922051Y-80433048D01*
X127967002Y-80541572D01*
X127967009Y-80541585D01*
X128054610Y-80672688D01*
X128054613Y-80672692D01*
X128166107Y-80784186D01*
X128166111Y-80784189D01*
X128297214Y-80871790D01*
X128297227Y-80871797D01*
X128363967Y-80899441D01*
X128442903Y-80932137D01*
X128597553Y-80962899D01*
X128597556Y-80962900D01*
X128597558Y-80962900D01*
X128755244Y-80962900D01*
X128755245Y-80962899D01*
X128909897Y-80932137D01*
X129022566Y-80885467D01*
X129055572Y-80871797D01*
X129055572Y-80871796D01*
X129055579Y-80871794D01*
X129186689Y-80784189D01*
X129298189Y-80672689D01*
X129298192Y-80672683D01*
X129302049Y-80667985D01*
X129303248Y-80668969D01*
X129351017Y-80629035D01*
X129420341Y-80620316D01*
X129483373Y-80650461D01*
X129488207Y-80655042D01*
X129563581Y-80730416D01*
X129597066Y-80791739D01*
X129599900Y-80818097D01*
X129599900Y-83784130D01*
X129599899Y-83784148D01*
X129599899Y-83949854D01*
X129599898Y-83949854D01*
X129619551Y-84023199D01*
X129640823Y-84102585D01*
X129661310Y-84138069D01*
X129675230Y-84162179D01*
X129719879Y-84239514D01*
X129719881Y-84239517D01*
X129838749Y-84358385D01*
X129838755Y-84358390D01*
X129912588Y-84432223D01*
X129946073Y-84493546D01*
X129941089Y-84563238D01*
X129899217Y-84619171D01*
X129877335Y-84631632D01*
X129877391Y-84631736D01*
X129873515Y-84633807D01*
X129872366Y-84634462D01*
X129872031Y-84634600D01*
X129872014Y-84634609D01*
X129740911Y-84722210D01*
X129740907Y-84722213D01*
X129629413Y-84833707D01*
X129629412Y-84833709D01*
X129541809Y-84964814D01*
X129541802Y-84964827D01*
X129481464Y-85110498D01*
X129481461Y-85110510D01*
X129450700Y-85265153D01*
X129450700Y-85422846D01*
X129481461Y-85577489D01*
X129481464Y-85577501D01*
X129541802Y-85723172D01*
X129541809Y-85723185D01*
X129629410Y-85854288D01*
X129629413Y-85854292D01*
X129740907Y-85965786D01*
X129740911Y-85965789D01*
X129872017Y-86053392D01*
X129872019Y-86053392D01*
X129872021Y-86053394D01*
X129903218Y-86066316D01*
X129910924Y-86069508D01*
X129951153Y-86096388D01*
X131296225Y-87441460D01*
X131329710Y-87502783D01*
X131330161Y-87504949D01*
X131361061Y-87660291D01*
X131361064Y-87660301D01*
X131421402Y-87805972D01*
X131421409Y-87805985D01*
X131509010Y-87937088D01*
X131509013Y-87937092D01*
X131620507Y-88048586D01*
X131620511Y-88048589D01*
X131751614Y-88136190D01*
X131751627Y-88136197D01*
X131825798Y-88166919D01*
X131897303Y-88196537D01*
X132051953Y-88227299D01*
X132051956Y-88227300D01*
X132051958Y-88227300D01*
X132209644Y-88227300D01*
X132209645Y-88227299D01*
X132364297Y-88196537D01*
X132509979Y-88136194D01*
X132641089Y-88048589D01*
X132752589Y-87937089D01*
X132840194Y-87805979D01*
X132840197Y-87805972D01*
X132899850Y-87661956D01*
X132943690Y-87607552D01*
X133009985Y-87585487D01*
X133077684Y-87602766D01*
X133102092Y-87621727D01*
X136426549Y-90946185D01*
X136460034Y-91007508D01*
X136455050Y-91077200D01*
X136413178Y-91133133D01*
X136347714Y-91157550D01*
X136319473Y-91156340D01*
X136276287Y-91149500D01*
X136063713Y-91149500D01*
X136015042Y-91157208D01*
X135853760Y-91182753D01*
X135651585Y-91248444D01*
X135462179Y-91344951D01*
X135331115Y-91440173D01*
X135331115Y-91440175D01*
X135290208Y-91469896D01*
X135139896Y-91620208D01*
X135104000Y-91669614D01*
X135104000Y-91616519D01*
X135045270Y-91612319D01*
X134989337Y-91570447D01*
X134972422Y-91539470D01*
X134923354Y-91407913D01*
X134923350Y-91407906D01*
X134837190Y-91292812D01*
X134837187Y-91292809D01*
X134722093Y-91206649D01*
X134722086Y-91206645D01*
X134587379Y-91156403D01*
X134587372Y-91156401D01*
X134527844Y-91150000D01*
X133880000Y-91150000D01*
X133880000Y-92066988D01*
X133822993Y-92034075D01*
X133695826Y-92000000D01*
X133564174Y-92000000D01*
X133437007Y-92034075D01*
X133380000Y-92066988D01*
X133380000Y-91150000D01*
X132732155Y-91150000D01*
X132672627Y-91156401D01*
X132672620Y-91156403D01*
X132537913Y-91206645D01*
X132537906Y-91206649D01*
X132422812Y-91292809D01*
X132422809Y-91292812D01*
X132336649Y-91407906D01*
X132336645Y-91407913D01*
X132286403Y-91542620D01*
X132286401Y-91542627D01*
X132280000Y-91602155D01*
X132280000Y-92250000D01*
X133196988Y-92250000D01*
X133164075Y-92307007D01*
X133130000Y-92434174D01*
X133130000Y-92565826D01*
X133164075Y-92692993D01*
X133196988Y-92750000D01*
X132280000Y-92750000D01*
X132280000Y-93397844D01*
X132286401Y-93457372D01*
X132286403Y-93457379D01*
X132336645Y-93592086D01*
X132336649Y-93592093D01*
X132422809Y-93707187D01*
X132422812Y-93707190D01*
X132537906Y-93793350D01*
X132537913Y-93793354D01*
X132672620Y-93843596D01*
X132672627Y-93843598D01*
X132732155Y-93849999D01*
X132732172Y-93850000D01*
X133380000Y-93850000D01*
X133380000Y-92933012D01*
X133437007Y-92965925D01*
X133564174Y-93000000D01*
X133695826Y-93000000D01*
X133822993Y-92965925D01*
X133880000Y-92933012D01*
X133880000Y-93850000D01*
X134527828Y-93850000D01*
X134527844Y-93849999D01*
X134587372Y-93843598D01*
X134587379Y-93843596D01*
X134722086Y-93793354D01*
X134722093Y-93793350D01*
X134837187Y-93707190D01*
X134837190Y-93707187D01*
X134923350Y-93592093D01*
X134923354Y-93592086D01*
X134972422Y-93460529D01*
X135014293Y-93404595D01*
X135079757Y-93380178D01*
X135104000Y-93385451D01*
X135104000Y-93330385D01*
X135139896Y-93379792D01*
X135290208Y-93530104D01*
X135331115Y-93559824D01*
X135331115Y-93559825D01*
X135462179Y-93655048D01*
X135462181Y-93655049D01*
X135462184Y-93655051D01*
X135651588Y-93751557D01*
X135853757Y-93817246D01*
X136063713Y-93850500D01*
X136063714Y-93850500D01*
X136276286Y-93850500D01*
X136276287Y-93850500D01*
X136463293Y-93820881D01*
X136532587Y-93829836D01*
X136570372Y-93855673D01*
X137023918Y-94309219D01*
X137057403Y-94370542D01*
X137052419Y-94440234D01*
X137010547Y-94496167D01*
X136945083Y-94520584D01*
X136936237Y-94520900D01*
X100624300Y-94520900D01*
X100557261Y-94501215D01*
X100511506Y-94448411D01*
X100500300Y-94396900D01*
X100500300Y-92397648D01*
X101199500Y-92397648D01*
X101199500Y-92602351D01*
X101231522Y-92804534D01*
X101294781Y-92999223D01*
X101358691Y-93124653D01*
X101373644Y-93153999D01*
X101387715Y-93181613D01*
X101508028Y-93347213D01*
X101652786Y-93491971D01*
X101790928Y-93592335D01*
X101818390Y-93612287D01*
X101902319Y-93655051D01*
X102000776Y-93705218D01*
X102000778Y-93705218D01*
X102000781Y-93705220D01*
X102105137Y-93739127D01*
X102195465Y-93768477D01*
X102296557Y-93784488D01*
X102397648Y-93800500D01*
X102397649Y-93800500D01*
X102602351Y-93800500D01*
X102602352Y-93800500D01*
X102804534Y-93768477D01*
X102999219Y-93705220D01*
X103181610Y-93612287D01*
X103304642Y-93522900D01*
X103347213Y-93491971D01*
X103347215Y-93491968D01*
X103347219Y-93491966D01*
X103491966Y-93347219D01*
X103491968Y-93347215D01*
X103491971Y-93347213D01*
X103551680Y-93265029D01*
X103612287Y-93181610D01*
X103705220Y-92999219D01*
X103768477Y-92804534D01*
X103800500Y-92602352D01*
X103800500Y-92397648D01*
X103786144Y-92307007D01*
X103768477Y-92195465D01*
X103737426Y-92099901D01*
X103705220Y-92000781D01*
X103705218Y-92000778D01*
X103705218Y-92000776D01*
X103653476Y-91899228D01*
X103612287Y-91818390D01*
X103599613Y-91800946D01*
X103491971Y-91652786D01*
X103347213Y-91508028D01*
X103181613Y-91387715D01*
X103181612Y-91387714D01*
X103181610Y-91387713D01*
X103097681Y-91344949D01*
X102999223Y-91294781D01*
X102804534Y-91231522D01*
X102629995Y-91203878D01*
X102602352Y-91199500D01*
X102397648Y-91199500D01*
X102373329Y-91203351D01*
X102195465Y-91231522D01*
X102000776Y-91294781D01*
X101818386Y-91387715D01*
X101652786Y-91508028D01*
X101508028Y-91652786D01*
X101387715Y-91818386D01*
X101294781Y-92000776D01*
X101231522Y-92195465D01*
X101199500Y-92397648D01*
X100500300Y-92397648D01*
X100500300Y-90201540D01*
X102624000Y-90201540D01*
X102626834Y-90201596D01*
X102656286Y-90202754D01*
X102661151Y-90203041D01*
X102700230Y-90206119D01*
X102705067Y-90206595D01*
X102734301Y-90210055D01*
X102739125Y-90210723D01*
X102980001Y-90248875D01*
X102984789Y-90249730D01*
X103013652Y-90255470D01*
X103018403Y-90256512D01*
X103056522Y-90265660D01*
X103061241Y-90266891D01*
X103089620Y-90274894D01*
X103094283Y-90276308D01*
X103326250Y-90351680D01*
X103330844Y-90353273D01*
X103358453Y-90363457D01*
X103362984Y-90365230D01*
X103399200Y-90380228D01*
X103403667Y-90382182D01*
X103430443Y-90394525D01*
X103434827Y-90396651D01*
X103652155Y-90507386D01*
X103656448Y-90509681D01*
X103682144Y-90524071D01*
X103686344Y-90526533D01*
X103719767Y-90547014D01*
X103723869Y-90549639D01*
X103748363Y-90566005D01*
X103752358Y-90568790D01*
X103949696Y-90712163D01*
X103953584Y-90715106D01*
X103976743Y-90733365D01*
X103980508Y-90736455D01*
X104010315Y-90761916D01*
X104013954Y-90765150D01*
X104035559Y-90785124D01*
X104039063Y-90788494D01*
X104126000Y-90875431D01*
X104126000Y-90800592D01*
X105124000Y-90800592D01*
X105224886Y-90665827D01*
X105230439Y-90658936D01*
X105265519Y-90618451D01*
X105271551Y-90611972D01*
X105321972Y-90561551D01*
X105328451Y-90555519D01*
X105368936Y-90520439D01*
X105375827Y-90514886D01*
X105548126Y-90385902D01*
X105555396Y-90380854D01*
X105600463Y-90351890D01*
X105608077Y-90347372D01*
X105670667Y-90313195D01*
X105678581Y-90309233D01*
X105727318Y-90286975D01*
X105735498Y-90283587D01*
X105932982Y-90209931D01*
X105940321Y-90207452D01*
X105985172Y-90193847D01*
X105992648Y-90191832D01*
X106053363Y-90177484D01*
X106060955Y-90175939D01*
X106107160Y-90168028D01*
X106114833Y-90166959D01*
X106218755Y-90155788D01*
X106222064Y-90155477D01*
X106242101Y-90153865D01*
X106245413Y-90153643D01*
X106272095Y-90152214D01*
X106275413Y-90152081D01*
X106295464Y-90151545D01*
X106298778Y-90151501D01*
X106626000Y-90151500D01*
X106626000Y-90124000D01*
X105124000Y-90124000D01*
X105124000Y-90800592D01*
X104126000Y-90800592D01*
X104126000Y-90124000D01*
X102624000Y-90124000D01*
X102624000Y-90201540D01*
X100500300Y-90201540D01*
X100500300Y-89126000D01*
X101498300Y-89126000D01*
X101626000Y-89126000D01*
X102624000Y-89126000D01*
X104126000Y-89126000D01*
X105124000Y-89126000D01*
X106626000Y-89126000D01*
X107624000Y-89126000D01*
X108151500Y-89126000D01*
X108151500Y-87624000D01*
X107624000Y-87624000D01*
X107624000Y-89126000D01*
X106626000Y-89126000D01*
X106626000Y-87624000D01*
X105124000Y-87624000D01*
X105124000Y-89126000D01*
X104126000Y-89126000D01*
X104126000Y-87624000D01*
X102624000Y-87624000D01*
X102624000Y-89126000D01*
X101626000Y-89126000D01*
X101626000Y-87624000D01*
X101498300Y-87624000D01*
X101498300Y-89126000D01*
X100500300Y-89126000D01*
X100500300Y-86626000D01*
X101498300Y-86626000D01*
X101626000Y-86626000D01*
X102624000Y-86626000D01*
X104126000Y-86626000D01*
X105124000Y-86626000D01*
X106626000Y-86626000D01*
X107624000Y-86626000D01*
X108151500Y-86626000D01*
X108151500Y-85124000D01*
X107624000Y-85124000D01*
X107624000Y-86626000D01*
X106626000Y-86626000D01*
X106626000Y-85124000D01*
X105124000Y-85124000D01*
X105124000Y-86626000D01*
X104126000Y-86626000D01*
X104126000Y-85124000D01*
X102624000Y-85124000D01*
X102624000Y-86626000D01*
X101626000Y-86626000D01*
X101626000Y-85124000D01*
X101498300Y-85124000D01*
X101498300Y-86626000D01*
X100500300Y-86626000D01*
X100500300Y-84126000D01*
X101498300Y-84126000D01*
X101626000Y-84126000D01*
X102624000Y-84126000D01*
X104126000Y-84126000D01*
X105124000Y-84126000D01*
X106626000Y-84126000D01*
X107624000Y-84126000D01*
X108151500Y-84126000D01*
X108151500Y-82624000D01*
X107624000Y-82624000D01*
X107624000Y-84126000D01*
X106626000Y-84126000D01*
X106626000Y-82624000D01*
X105124000Y-82624000D01*
X105124000Y-84126000D01*
X104126000Y-84126000D01*
X104126000Y-82624000D01*
X102624000Y-82624000D01*
X102624000Y-84126000D01*
X101626000Y-84126000D01*
X101626000Y-82624000D01*
X101498300Y-82624000D01*
X101498300Y-84126000D01*
X100500300Y-84126000D01*
X100500300Y-81626000D01*
X101498300Y-81626000D01*
X101626000Y-81626000D01*
X102624000Y-81626000D01*
X104126000Y-81626000D01*
X105124000Y-81626000D01*
X106626000Y-81626000D01*
X107624000Y-81626000D01*
X108151500Y-81626000D01*
X108151500Y-80124000D01*
X107624000Y-80124000D01*
X107624000Y-81626000D01*
X106626000Y-81626000D01*
X106626000Y-80124000D01*
X105124000Y-80124000D01*
X105124000Y-81626000D01*
X104126000Y-81626000D01*
X104126000Y-80124000D01*
X102624000Y-80124000D01*
X102624000Y-81626000D01*
X101626000Y-81626000D01*
X101626000Y-80124000D01*
X101498300Y-80124000D01*
X101498300Y-81626000D01*
X100500300Y-81626000D01*
X100500300Y-79126000D01*
X101498300Y-79126000D01*
X101626000Y-79126000D01*
X102624000Y-79126000D01*
X104126000Y-79126000D01*
X105124000Y-79126000D01*
X106626000Y-79126000D01*
X107624000Y-79126000D01*
X108151500Y-79126000D01*
X108151500Y-78888860D01*
X108151499Y-78888836D01*
X108151499Y-78657058D01*
X108151765Y-78648946D01*
X108154978Y-78599936D01*
X108155773Y-78591859D01*
X108164306Y-78527059D01*
X108165628Y-78519055D01*
X108175207Y-78470902D01*
X108177049Y-78463001D01*
X108234886Y-78247152D01*
X108237241Y-78239389D01*
X108253020Y-78192904D01*
X108255877Y-78185313D01*
X108280887Y-78124927D01*
X108284236Y-78117534D01*
X108305961Y-78073477D01*
X108309789Y-78066317D01*
X108361739Y-77976338D01*
X108421526Y-77872782D01*
X108425812Y-77865890D01*
X108453100Y-77825051D01*
X108457829Y-77818452D01*
X108497620Y-77766599D01*
X108502766Y-77760329D01*
X108535137Y-77723418D01*
X108540683Y-77717497D01*
X108634180Y-77624000D01*
X107624000Y-77624000D01*
X107624000Y-79126000D01*
X106626000Y-79126000D01*
X106626000Y-77624000D01*
X105124000Y-77624000D01*
X105124000Y-79126000D01*
X104126000Y-79126000D01*
X104126000Y-77624000D01*
X102624000Y-77624000D01*
X102624000Y-79126000D01*
X101626000Y-79126000D01*
X101626000Y-77624000D01*
X101498300Y-77624000D01*
X101498300Y-79126000D01*
X100500300Y-79126000D01*
X100500300Y-76626000D01*
X101498300Y-76626000D01*
X101626000Y-76626000D01*
X101626000Y-75853501D01*
X102624000Y-75853501D01*
X102624000Y-76626000D01*
X104126000Y-76626000D01*
X105124000Y-76626000D01*
X106626000Y-76626000D01*
X107624000Y-76626000D01*
X109126000Y-76626000D01*
X109126000Y-76491255D01*
X108895534Y-76395794D01*
X108889971Y-76393329D01*
X108856690Y-76377589D01*
X108851255Y-76374853D01*
X108808035Y-76351753D01*
X108802736Y-76348751D01*
X108771145Y-76329816D01*
X108766004Y-76326561D01*
X108594855Y-76212204D01*
X108589880Y-76208700D01*
X108560306Y-76186767D01*
X108555506Y-76183021D01*
X108517623Y-76151931D01*
X108513016Y-76147957D01*
X108485729Y-76123226D01*
X108481320Y-76119028D01*
X108335772Y-75973480D01*
X108331574Y-75969071D01*
X108306843Y-75941784D01*
X108302869Y-75937177D01*
X108271780Y-75899295D01*
X108268034Y-75894495D01*
X108246101Y-75864921D01*
X108242598Y-75859947D01*
X108128241Y-75688800D01*
X108124984Y-75683656D01*
X108106049Y-75652064D01*
X108103049Y-75646769D01*
X108079948Y-75603549D01*
X108077211Y-75598110D01*
X108061472Y-75564830D01*
X108059007Y-75559270D01*
X107899720Y-75174720D01*
X107892196Y-75124000D01*
X107624000Y-75124000D01*
X107624000Y-76626000D01*
X106626000Y-76626000D01*
X106626000Y-75124000D01*
X105124000Y-75124000D01*
X105124000Y-76626000D01*
X104126000Y-76626000D01*
X104126000Y-75596825D01*
X103952247Y-75685358D01*
X103947867Y-75687482D01*
X103921124Y-75699811D01*
X103916664Y-75701762D01*
X103880448Y-75716764D01*
X103875914Y-75718539D01*
X103848270Y-75728738D01*
X103843667Y-75730334D01*
X103604896Y-75807915D01*
X103600232Y-75809330D01*
X103571855Y-75817332D01*
X103567138Y-75818562D01*
X103529020Y-75827710D01*
X103524273Y-75828752D01*
X103495409Y-75834493D01*
X103490617Y-75835348D01*
X103242692Y-75874615D01*
X103237873Y-75875282D01*
X103208640Y-75878743D01*
X103203794Y-75879220D01*
X103164715Y-75882297D01*
X103159854Y-75882584D01*
X103130402Y-75883742D01*
X103125530Y-75883838D01*
X102874470Y-75883838D01*
X102869598Y-75883742D01*
X102840146Y-75882584D01*
X102835285Y-75882297D01*
X102796206Y-75879220D01*
X102791360Y-75878743D01*
X102762127Y-75875282D01*
X102757308Y-75874615D01*
X102624000Y-75853501D01*
X101626000Y-75853501D01*
X101626000Y-75438873D01*
X101498300Y-75346096D01*
X101498300Y-76626000D01*
X100500300Y-76626000D01*
X100500300Y-75027600D01*
X108919009Y-75027600D01*
X108971661Y-75154713D01*
X108971666Y-75154723D01*
X109058791Y-75285114D01*
X109058794Y-75285118D01*
X109169681Y-75396005D01*
X109169689Y-75396011D01*
X109300072Y-75483130D01*
X109300090Y-75483140D01*
X109427199Y-75535790D01*
X109427200Y-75535790D01*
X109927200Y-75535790D01*
X110054309Y-75483140D01*
X110054327Y-75483130D01*
X110184710Y-75396011D01*
X110184718Y-75396005D01*
X110295605Y-75285118D01*
X110295608Y-75285114D01*
X110382733Y-75154723D01*
X110382738Y-75154713D01*
X110435391Y-75027600D01*
X109927200Y-75027600D01*
X109927200Y-75535790D01*
X109427200Y-75535790D01*
X109427200Y-75027600D01*
X108919009Y-75027600D01*
X100500300Y-75027600D01*
X100500300Y-68795660D01*
X101498300Y-68795660D01*
X101517318Y-68786975D01*
X101525498Y-68783587D01*
X101626000Y-68746102D01*
X101626000Y-68651500D01*
X102624000Y-68651500D01*
X103112052Y-68651500D01*
X103191329Y-68460105D01*
X103193794Y-68454544D01*
X103209534Y-68421262D01*
X103212271Y-68415823D01*
X103228500Y-68385459D01*
X103228500Y-67624000D01*
X102624000Y-67624000D01*
X102624000Y-68651500D01*
X101626000Y-68651500D01*
X101626000Y-67624000D01*
X101498300Y-67624000D01*
X101498300Y-68795660D01*
X100500300Y-68795660D01*
X100500300Y-66626000D01*
X101498300Y-66626000D01*
X101626000Y-66626000D01*
X102624000Y-66626000D01*
X103091677Y-66626000D01*
X103090110Y-66621620D01*
X103088202Y-66615845D01*
X103073975Y-66568952D01*
X103072351Y-66563084D01*
X103063399Y-66527349D01*
X103062065Y-66521408D01*
X103017896Y-66299357D01*
X103016855Y-66293360D01*
X103011451Y-66256929D01*
X103010706Y-66250888D01*
X103005903Y-66202116D01*
X103005455Y-66196046D01*
X103003649Y-66159274D01*
X103003500Y-66153191D01*
X103003500Y-65926809D01*
X103003649Y-65920726D01*
X103005455Y-65883954D01*
X103005903Y-65877884D01*
X103010706Y-65829112D01*
X103011451Y-65823071D01*
X103016855Y-65786640D01*
X103017896Y-65780643D01*
X103062065Y-65558592D01*
X103063399Y-65552651D01*
X103072351Y-65516916D01*
X103073975Y-65511048D01*
X103088202Y-65464155D01*
X103090110Y-65458380D01*
X103102509Y-65423728D01*
X103104699Y-65418051D01*
X103191329Y-65208905D01*
X103193794Y-65203344D01*
X103209534Y-65170062D01*
X103212271Y-65164623D01*
X103233984Y-65124000D01*
X102624000Y-65124000D01*
X102624000Y-66626000D01*
X101626000Y-66626000D01*
X101626000Y-65124000D01*
X101498300Y-65124000D01*
X101498300Y-66626000D01*
X100500300Y-66626000D01*
X100500300Y-64126000D01*
X105124000Y-64126000D01*
X106626000Y-64126000D01*
X107624000Y-64126000D01*
X109126000Y-64126000D01*
X109126000Y-62624000D01*
X107624000Y-62624000D01*
X107624000Y-64126000D01*
X106626000Y-64126000D01*
X106626000Y-62624000D01*
X105124000Y-62624000D01*
X105124000Y-64126000D01*
X100500300Y-64126000D01*
X100500300Y-62397648D01*
X101199500Y-62397648D01*
X101199500Y-62602351D01*
X101231522Y-62804534D01*
X101294781Y-62999223D01*
X101387715Y-63181613D01*
X101508028Y-63347213D01*
X101652786Y-63491971D01*
X101801116Y-63599737D01*
X101818390Y-63612287D01*
X101934607Y-63671503D01*
X102000776Y-63705218D01*
X102000778Y-63705218D01*
X102000781Y-63705220D01*
X102058177Y-63723869D01*
X102195465Y-63768477D01*
X102296557Y-63784488D01*
X102397648Y-63800500D01*
X102397649Y-63800500D01*
X102602351Y-63800500D01*
X102602352Y-63800500D01*
X102804534Y-63768477D01*
X102999219Y-63705220D01*
X103181610Y-63612287D01*
X103281935Y-63539397D01*
X103347213Y-63491971D01*
X103347215Y-63491968D01*
X103347219Y-63491966D01*
X103491966Y-63347219D01*
X103491968Y-63347215D01*
X103491971Y-63347213D01*
X103544732Y-63274590D01*
X103612287Y-63181610D01*
X103705220Y-62999219D01*
X103768477Y-62804534D01*
X103800500Y-62602352D01*
X103800500Y-62397648D01*
X103770496Y-62208211D01*
X103768477Y-62195465D01*
X103705218Y-62000776D01*
X103671503Y-61934607D01*
X103612287Y-61818390D01*
X103584786Y-61780538D01*
X103491971Y-61652786D01*
X103465185Y-61626000D01*
X105124000Y-61626000D01*
X106626000Y-61626000D01*
X107624000Y-61626000D01*
X109126000Y-61626000D01*
X109126000Y-61592353D01*
X110553100Y-61592353D01*
X110553100Y-61750046D01*
X110583861Y-61904689D01*
X110583864Y-61904701D01*
X110644202Y-62050372D01*
X110644209Y-62050385D01*
X110732202Y-62182074D01*
X110753080Y-62248751D01*
X110753100Y-62250965D01*
X110753100Y-65496130D01*
X110753099Y-65496148D01*
X110753099Y-65661854D01*
X110753098Y-65661854D01*
X110753099Y-65661857D01*
X110794023Y-65814585D01*
X110794024Y-65814587D01*
X110794023Y-65814587D01*
X110806198Y-65835673D01*
X110806199Y-65835675D01*
X110873075Y-65951509D01*
X110873081Y-65951517D01*
X110991949Y-66070385D01*
X110991955Y-66070390D01*
X111484225Y-66562660D01*
X111517710Y-66623983D01*
X111518161Y-66626149D01*
X111549061Y-66781491D01*
X111549064Y-66781501D01*
X111609402Y-66927172D01*
X111609409Y-66927185D01*
X111697010Y-67058288D01*
X111697013Y-67058292D01*
X111808507Y-67169786D01*
X111808511Y-67169789D01*
X111939614Y-67257390D01*
X111939627Y-67257397D01*
X112061088Y-67307707D01*
X112085303Y-67317737D01*
X112239953Y-67348499D01*
X112239956Y-67348500D01*
X112239958Y-67348500D01*
X112397644Y-67348500D01*
X112397645Y-67348499D01*
X112552297Y-67317737D01*
X112697979Y-67257394D01*
X112829089Y-67169789D01*
X112940589Y-67058289D01*
X113028194Y-66927179D01*
X113038708Y-66901797D01*
X113061383Y-66847052D01*
X113088537Y-66781497D01*
X113119300Y-66626842D01*
X113119300Y-66469158D01*
X113119300Y-66469155D01*
X113119299Y-66469153D01*
X113112258Y-66433757D01*
X113088537Y-66314503D01*
X113084389Y-66304489D01*
X113028197Y-66168827D01*
X113028190Y-66168814D01*
X112940589Y-66037711D01*
X112940586Y-66037707D01*
X112829092Y-65926213D01*
X112829088Y-65926210D01*
X112697985Y-65838609D01*
X112697972Y-65838602D01*
X112552301Y-65778264D01*
X112552291Y-65778261D01*
X112396949Y-65747361D01*
X112335038Y-65714976D01*
X112333460Y-65713425D01*
X111990419Y-65370384D01*
X111956934Y-65309061D01*
X111954100Y-65282703D01*
X111954100Y-65124000D01*
X113423026Y-65124000D01*
X113438471Y-65135455D01*
X113443269Y-65139199D01*
X113481151Y-65170288D01*
X113485758Y-65174262D01*
X113513045Y-65198993D01*
X113517454Y-65203191D01*
X113663609Y-65349346D01*
X113667807Y-65353755D01*
X113692538Y-65381042D01*
X113696512Y-65385649D01*
X113727601Y-65423531D01*
X113731345Y-65428329D01*
X113753278Y-65457902D01*
X113756783Y-65462878D01*
X113871616Y-65634737D01*
X113874874Y-65639882D01*
X113893809Y-65671475D01*
X113896808Y-65676770D01*
X113919909Y-65719991D01*
X113922645Y-65725426D01*
X113938386Y-65758708D01*
X113940852Y-65764272D01*
X114019945Y-65955222D01*
X114022135Y-65960899D01*
X114034537Y-65995560D01*
X114036446Y-66001338D01*
X114050672Y-66048233D01*
X114052295Y-66054097D01*
X114061245Y-66089823D01*
X114062579Y-66095765D01*
X114102904Y-66298492D01*
X114103945Y-66304489D01*
X114109349Y-66340920D01*
X114110094Y-66346961D01*
X114114897Y-66395733D01*
X114115345Y-66401803D01*
X114117151Y-66438575D01*
X114117300Y-66444658D01*
X114117300Y-66626000D01*
X114126000Y-66626000D01*
X115124000Y-66626000D01*
X116626000Y-66626000D01*
X117624000Y-66626000D01*
X119126000Y-66626000D01*
X122624000Y-66626000D01*
X124126000Y-66626000D01*
X125124000Y-66626000D01*
X126626000Y-66626000D01*
X126626000Y-66290000D01*
X128375409Y-66290000D01*
X128428061Y-66417113D01*
X128428066Y-66417123D01*
X128515191Y-66547514D01*
X128515194Y-66547518D01*
X128626081Y-66658405D01*
X128626085Y-66658408D01*
X128756484Y-66745538D01*
X128756820Y-66745718D01*
X128756962Y-66745858D01*
X128761548Y-66748922D01*
X128760967Y-66749791D01*
X128806665Y-66794679D01*
X128822127Y-66862817D01*
X128809050Y-66901527D01*
X128814858Y-66903933D01*
X128729006Y-67032421D01*
X128687884Y-67131697D01*
X128687883Y-67131697D01*
X128668664Y-67178098D01*
X128668661Y-67178110D01*
X128637900Y-67332753D01*
X128637900Y-67490446D01*
X128668661Y-67645089D01*
X128668664Y-67645101D01*
X128729002Y-67790772D01*
X128729009Y-67790785D01*
X128816610Y-67921888D01*
X128816613Y-67921892D01*
X128928107Y-68033386D01*
X128928111Y-68033389D01*
X129059214Y-68120990D01*
X129059227Y-68120997D01*
X129204898Y-68181335D01*
X129204903Y-68181337D01*
X129269547Y-68194195D01*
X129360249Y-68212238D01*
X129422160Y-68244623D01*
X129423739Y-68246174D01*
X132324840Y-71147276D01*
X132358325Y-71208599D01*
X132358776Y-71210765D01*
X132377061Y-71302691D01*
X132377064Y-71302701D01*
X132437402Y-71448372D01*
X132437409Y-71448385D01*
X132525010Y-71579488D01*
X132525013Y-71579492D01*
X132636507Y-71690986D01*
X132636511Y-71690989D01*
X132767614Y-71778590D01*
X132767627Y-71778597D01*
X132891727Y-71830000D01*
X132913303Y-71838937D01*
X133067953Y-71869699D01*
X133067956Y-71869700D01*
X133067958Y-71869700D01*
X133225644Y-71869700D01*
X133225645Y-71869699D01*
X133380297Y-71838937D01*
X133525979Y-71778594D01*
X133657089Y-71690989D01*
X133722078Y-71626000D01*
X135124000Y-71626000D01*
X136626000Y-71626000D01*
X137624000Y-71626000D01*
X139126000Y-71626000D01*
X140124000Y-71626000D01*
X140988078Y-71626000D01*
X140991755Y-71618226D01*
X140994491Y-71612791D01*
X141017592Y-71569570D01*
X141020591Y-71564275D01*
X141039526Y-71532682D01*
X141042784Y-71527537D01*
X141157617Y-71355678D01*
X141161122Y-71350702D01*
X141183055Y-71321129D01*
X141186799Y-71316331D01*
X141217888Y-71278449D01*
X141221862Y-71273842D01*
X141246593Y-71246555D01*
X141250791Y-71242146D01*
X141396946Y-71095991D01*
X141401355Y-71091793D01*
X141428642Y-71067062D01*
X141433249Y-71063088D01*
X141471131Y-71031999D01*
X141475929Y-71028255D01*
X141505502Y-71006322D01*
X141510478Y-71002817D01*
X141626000Y-70925626D01*
X141626000Y-70642300D01*
X142624000Y-70642300D01*
X142698942Y-70642300D01*
X142705025Y-70642449D01*
X142741797Y-70644255D01*
X142747867Y-70644703D01*
X142796639Y-70649506D01*
X142802680Y-70650251D01*
X142839111Y-70655655D01*
X142845108Y-70656696D01*
X143047835Y-70697021D01*
X143053777Y-70698355D01*
X143089503Y-70707305D01*
X143095367Y-70708928D01*
X143142262Y-70723154D01*
X143148040Y-70725063D01*
X143182701Y-70737465D01*
X143188378Y-70739655D01*
X143379328Y-70818748D01*
X143384892Y-70821214D01*
X143418174Y-70836955D01*
X143423609Y-70839691D01*
X143466830Y-70862792D01*
X143472125Y-70865791D01*
X143503718Y-70884726D01*
X143508863Y-70887984D01*
X143680722Y-71002817D01*
X143685698Y-71006322D01*
X143715271Y-71028255D01*
X143720069Y-71031999D01*
X143757951Y-71063088D01*
X143762558Y-71067062D01*
X143789845Y-71091793D01*
X143794254Y-71095991D01*
X143940409Y-71242146D01*
X143944607Y-71246555D01*
X143969338Y-71273842D01*
X143973312Y-71278449D01*
X144004401Y-71316331D01*
X144008145Y-71321129D01*
X144030078Y-71350702D01*
X144033583Y-71355678D01*
X144126000Y-71493989D01*
X144126000Y-70124000D01*
X142624000Y-70124000D01*
X142624000Y-70642300D01*
X141626000Y-70642300D01*
X141626000Y-70124000D01*
X140124000Y-70124000D01*
X140124000Y-71626000D01*
X139126000Y-71626000D01*
X139126000Y-70124000D01*
X137624000Y-70124000D01*
X137624000Y-71626000D01*
X136626000Y-71626000D01*
X136626000Y-70124000D01*
X135124000Y-70124000D01*
X135124000Y-71626000D01*
X133722078Y-71626000D01*
X133768589Y-71579489D01*
X133856194Y-71448379D01*
X133916537Y-71302697D01*
X133947300Y-71148042D01*
X133947300Y-70990358D01*
X133947300Y-70990355D01*
X133947299Y-70990353D01*
X133934424Y-70925626D01*
X133916537Y-70835703D01*
X133909514Y-70818748D01*
X133856197Y-70690027D01*
X133856190Y-70690014D01*
X133768589Y-70558911D01*
X133768586Y-70558907D01*
X133657092Y-70447413D01*
X133657088Y-70447410D01*
X133525985Y-70359809D01*
X133525972Y-70359802D01*
X133380301Y-70299464D01*
X133380289Y-70299461D01*
X133225645Y-70268700D01*
X133225642Y-70268700D01*
X133196098Y-70268700D01*
X133129059Y-70249015D01*
X133108417Y-70232381D01*
X130866936Y-67990900D01*
X132624000Y-67990900D01*
X132624000Y-68336580D01*
X133413420Y-69126000D01*
X134126000Y-69126000D01*
X137624000Y-69126000D01*
X139126000Y-69126000D01*
X139126000Y-68766787D01*
X139039600Y-68758278D01*
X138702092Y-68791521D01*
X138642485Y-68782679D01*
X138257934Y-68623394D01*
X138252371Y-68620929D01*
X138219090Y-68605189D01*
X138213655Y-68602453D01*
X138170435Y-68579353D01*
X138165136Y-68576351D01*
X138133545Y-68557416D01*
X138128404Y-68554161D01*
X137957255Y-68439804D01*
X137955199Y-68438356D01*
X140124000Y-68438356D01*
X140124000Y-69126000D01*
X141626000Y-69126000D01*
X142624000Y-69126000D01*
X144112977Y-69126000D01*
X144113041Y-69124914D01*
X144116119Y-69085835D01*
X144116596Y-69080997D01*
X144120056Y-69051764D01*
X144120723Y-69046942D01*
X144126000Y-69013623D01*
X144126000Y-67836245D01*
X144115788Y-67741245D01*
X144115477Y-67737936D01*
X144113865Y-67717899D01*
X144113643Y-67714587D01*
X144112214Y-67687905D01*
X144112081Y-67684587D01*
X144111545Y-67664536D01*
X144111501Y-67661222D01*
X144111501Y-67624000D01*
X142624000Y-67624000D01*
X142624000Y-69126000D01*
X141626000Y-69126000D01*
X141626000Y-67624000D01*
X140725256Y-67624000D01*
X140657793Y-67786870D01*
X140655328Y-67792430D01*
X140639589Y-67825710D01*
X140636852Y-67831149D01*
X140613751Y-67874369D01*
X140610751Y-67879664D01*
X140591816Y-67911256D01*
X140588559Y-67916400D01*
X140474202Y-68087547D01*
X140470699Y-68092521D01*
X140448766Y-68122095D01*
X140445020Y-68126895D01*
X140413931Y-68164777D01*
X140409957Y-68169384D01*
X140385226Y-68196671D01*
X140381028Y-68201080D01*
X140235480Y-68346628D01*
X140231071Y-68350826D01*
X140203784Y-68375557D01*
X140199177Y-68379531D01*
X140161294Y-68410621D01*
X140156494Y-68414367D01*
X140126920Y-68436300D01*
X140124000Y-68438356D01*
X137955199Y-68438356D01*
X137952280Y-68436300D01*
X137922706Y-68414367D01*
X137917906Y-68410621D01*
X137880023Y-68379531D01*
X137875416Y-68375557D01*
X137848129Y-68350826D01*
X137843720Y-68346628D01*
X137698172Y-68201080D01*
X137693974Y-68196671D01*
X137669243Y-68169384D01*
X137665269Y-68164777D01*
X137634180Y-68126895D01*
X137630434Y-68122095D01*
X137624000Y-68113419D01*
X137624000Y-69126000D01*
X134126000Y-69126000D01*
X134126000Y-68970508D01*
X134118572Y-68963080D01*
X134114374Y-68958671D01*
X134089643Y-68931384D01*
X134085669Y-68926777D01*
X134054580Y-68888895D01*
X134050834Y-68884095D01*
X134028901Y-68854521D01*
X134025398Y-68849547D01*
X133911041Y-68678400D01*
X133907784Y-68673256D01*
X133888849Y-68641664D01*
X133885849Y-68636369D01*
X133862748Y-68593149D01*
X133860011Y-68587710D01*
X133844272Y-68554430D01*
X133841807Y-68548870D01*
X133682520Y-68164320D01*
X133673678Y-68104713D01*
X133682297Y-68017200D01*
X134701809Y-68017200D01*
X134754461Y-68144313D01*
X134754466Y-68144323D01*
X134841591Y-68274714D01*
X134841594Y-68274718D01*
X134952481Y-68385605D01*
X134952489Y-68385611D01*
X135082872Y-68472730D01*
X135082890Y-68472740D01*
X135209999Y-68525390D01*
X135210000Y-68525390D01*
X135710000Y-68525390D01*
X135837109Y-68472740D01*
X135837127Y-68472730D01*
X135967510Y-68385611D01*
X135967518Y-68385605D01*
X136078405Y-68274718D01*
X136078408Y-68274714D01*
X136165533Y-68144323D01*
X136165538Y-68144313D01*
X136218191Y-68017200D01*
X135710000Y-68017200D01*
X135710000Y-68525390D01*
X135210000Y-68525390D01*
X135210000Y-68017200D01*
X134701809Y-68017200D01*
X133682297Y-68017200D01*
X133704586Y-67790900D01*
X133357890Y-67790900D01*
X133353009Y-67793509D01*
X133347574Y-67796245D01*
X133314292Y-67811986D01*
X133308728Y-67814452D01*
X133117778Y-67893545D01*
X133112101Y-67895735D01*
X133077440Y-67908137D01*
X133071662Y-67910046D01*
X133024767Y-67924272D01*
X133018903Y-67925895D01*
X132983177Y-67934845D01*
X132977235Y-67936179D01*
X132774508Y-67976504D01*
X132768511Y-67977545D01*
X132732080Y-67982949D01*
X132726039Y-67983694D01*
X132677267Y-67988497D01*
X132671197Y-67988945D01*
X132634425Y-67990751D01*
X132628342Y-67990900D01*
X132624000Y-67990900D01*
X130866936Y-67990900D01*
X130393235Y-67517199D01*
X134701809Y-67517199D01*
X134701809Y-67517200D01*
X136218191Y-67517200D01*
X136218190Y-67517199D01*
X136165538Y-67390086D01*
X136165533Y-67390076D01*
X136078408Y-67259685D01*
X136078405Y-67259681D01*
X136073924Y-67255200D01*
X138281409Y-67255200D01*
X138334061Y-67382313D01*
X138334066Y-67382323D01*
X138421191Y-67512714D01*
X138421194Y-67512718D01*
X138532081Y-67623605D01*
X138532089Y-67623611D01*
X138662472Y-67710730D01*
X138662490Y-67710740D01*
X138789599Y-67763390D01*
X138789600Y-67763390D01*
X139289600Y-67763390D01*
X139416709Y-67710740D01*
X139416727Y-67710730D01*
X139547110Y-67623611D01*
X139547118Y-67623605D01*
X139658005Y-67512718D01*
X139658008Y-67512714D01*
X139745133Y-67382323D01*
X139745138Y-67382313D01*
X139797791Y-67255200D01*
X139289600Y-67255200D01*
X139289600Y-67763390D01*
X138789600Y-67763390D01*
X138789600Y-67255200D01*
X138281409Y-67255200D01*
X136073924Y-67255200D01*
X135967518Y-67148794D01*
X135967514Y-67148791D01*
X135837123Y-67061666D01*
X135837114Y-67061661D01*
X135764203Y-67031461D01*
X135709800Y-66987620D01*
X135687735Y-66921326D01*
X135699151Y-66876595D01*
X135556631Y-66848246D01*
X135544506Y-66847052D01*
X135375494Y-66847052D01*
X135363369Y-66848246D01*
X135222696Y-66876228D01*
X135231082Y-66934547D01*
X135202057Y-66998103D01*
X135155797Y-67031461D01*
X135082885Y-67061661D01*
X135082876Y-67061666D01*
X134952485Y-67148791D01*
X134952481Y-67148794D01*
X134841594Y-67259681D01*
X134841591Y-67259685D01*
X134754466Y-67390076D01*
X134754461Y-67390086D01*
X134701809Y-67517199D01*
X130393235Y-67517199D01*
X130272973Y-67396937D01*
X130239488Y-67335614D01*
X130239037Y-67333447D01*
X130224364Y-67259681D01*
X130208137Y-67178103D01*
X130188915Y-67131697D01*
X130147797Y-67032427D01*
X130147790Y-67032414D01*
X130060189Y-66901311D01*
X130060186Y-66901307D01*
X129997797Y-66838918D01*
X129997796Y-66838918D01*
X129948689Y-66789811D01*
X129817579Y-66702206D01*
X129785829Y-66689055D01*
X129794066Y-66680819D01*
X129763920Y-66651209D01*
X129748455Y-66583072D01*
X129769112Y-66521915D01*
X129839136Y-66417117D01*
X129839138Y-66417113D01*
X129891791Y-66290000D01*
X128375409Y-66290000D01*
X126626000Y-66290000D01*
X126626000Y-66113553D01*
X131724500Y-66113553D01*
X131724500Y-66271246D01*
X131755261Y-66425889D01*
X131755264Y-66425901D01*
X131815602Y-66571572D01*
X131815609Y-66571585D01*
X131903210Y-66702688D01*
X131903213Y-66702692D01*
X132014707Y-66814186D01*
X132014711Y-66814189D01*
X132145814Y-66901790D01*
X132145827Y-66901797D01*
X132283818Y-66958954D01*
X132291503Y-66962137D01*
X132419614Y-66987620D01*
X132446153Y-66992899D01*
X132446156Y-66992900D01*
X132446158Y-66992900D01*
X132603844Y-66992900D01*
X132603845Y-66992899D01*
X132758497Y-66962137D01*
X132871166Y-66915467D01*
X132904172Y-66901797D01*
X132904172Y-66901796D01*
X132904179Y-66901794D01*
X132942441Y-66876228D01*
X133035875Y-66813798D01*
X133102553Y-66792920D01*
X133104766Y-66792900D01*
X137647034Y-66792900D01*
X137714073Y-66812585D01*
X137715925Y-66813798D01*
X137847614Y-66901790D01*
X137847627Y-66901797D01*
X137864228Y-66908673D01*
X137864228Y-66908672D01*
X137993303Y-66962137D01*
X138147953Y-66992899D01*
X138147956Y-66992900D01*
X138147958Y-66992900D01*
X138305644Y-66992900D01*
X138305645Y-66992899D01*
X138460297Y-66962137D01*
X138572966Y-66915467D01*
X138605972Y-66901797D01*
X138605972Y-66901796D01*
X138605979Y-66901794D01*
X138737089Y-66814189D01*
X138796078Y-66755200D01*
X139289600Y-66755200D01*
X139797791Y-66755200D01*
X139797790Y-66755199D01*
X139745138Y-66628086D01*
X139745133Y-66628076D01*
X139658008Y-66497685D01*
X139658005Y-66497681D01*
X139547118Y-66386794D01*
X139547114Y-66386791D01*
X139416723Y-66299666D01*
X139416713Y-66299661D01*
X139289600Y-66247009D01*
X139289600Y-66755200D01*
X138796078Y-66755200D01*
X138848589Y-66702689D01*
X138936194Y-66571579D01*
X138996537Y-66425897D01*
X139027300Y-66271242D01*
X139027300Y-66113558D01*
X139027300Y-66113555D01*
X139027299Y-66113553D01*
X139021630Y-66085052D01*
X138996537Y-65958903D01*
X138940274Y-65823071D01*
X138936197Y-65813227D01*
X138936190Y-65813214D01*
X138848589Y-65682111D01*
X138848586Y-65682107D01*
X138738522Y-65572043D01*
X140124000Y-65572043D01*
X140126921Y-65574101D01*
X140156495Y-65596034D01*
X140161295Y-65599780D01*
X140199177Y-65630869D01*
X140203784Y-65634843D01*
X140231071Y-65659574D01*
X140235480Y-65663772D01*
X140381028Y-65809320D01*
X140385226Y-65813729D01*
X140409957Y-65841016D01*
X140413931Y-65845623D01*
X140445020Y-65883505D01*
X140448766Y-65888305D01*
X140470699Y-65917879D01*
X140474202Y-65922853D01*
X140588559Y-66094000D01*
X140591816Y-66099144D01*
X140610751Y-66130736D01*
X140613751Y-66136031D01*
X140636852Y-66179251D01*
X140639589Y-66184690D01*
X140655328Y-66217970D01*
X140657793Y-66223530D01*
X140817080Y-66608080D01*
X140819738Y-66626000D01*
X141626000Y-66626000D01*
X142624000Y-66626000D01*
X144111501Y-66626000D01*
X144111500Y-65838752D01*
X144111545Y-65835428D01*
X144112084Y-65815327D01*
X144112217Y-65812007D01*
X144113649Y-65785320D01*
X144113871Y-65782011D01*
X144115481Y-65762018D01*
X144115792Y-65758715D01*
X144126000Y-65663771D01*
X144126000Y-65124000D01*
X142624000Y-65124000D01*
X142624000Y-66626000D01*
X141626000Y-66626000D01*
X141626000Y-65124000D01*
X140124000Y-65124000D01*
X140124000Y-65572043D01*
X138738522Y-65572043D01*
X138737092Y-65570613D01*
X138737088Y-65570610D01*
X138605985Y-65483009D01*
X138605972Y-65483002D01*
X138460301Y-65422664D01*
X138460289Y-65422661D01*
X138305645Y-65391900D01*
X138305642Y-65391900D01*
X138147958Y-65391900D01*
X138147955Y-65391900D01*
X137993310Y-65422661D01*
X137993298Y-65422664D01*
X137847627Y-65483002D01*
X137847614Y-65483009D01*
X137715925Y-65571002D01*
X137649247Y-65591880D01*
X137647034Y-65591900D01*
X133104766Y-65591900D01*
X133037727Y-65572215D01*
X133035875Y-65571002D01*
X132904185Y-65483009D01*
X132904172Y-65483002D01*
X132758501Y-65422664D01*
X132758489Y-65422661D01*
X132603845Y-65391900D01*
X132603842Y-65391900D01*
X132446158Y-65391900D01*
X132446155Y-65391900D01*
X132291510Y-65422661D01*
X132291498Y-65422664D01*
X132145827Y-65483002D01*
X132145814Y-65483009D01*
X132014711Y-65570610D01*
X132014707Y-65570613D01*
X131903213Y-65682107D01*
X131903210Y-65682111D01*
X131815609Y-65813214D01*
X131815602Y-65813227D01*
X131755264Y-65958898D01*
X131755261Y-65958910D01*
X131724500Y-66113553D01*
X126626000Y-66113553D01*
X126626000Y-65789999D01*
X128375409Y-65789999D01*
X128375409Y-65790000D01*
X128883600Y-65790000D01*
X129383600Y-65790000D01*
X129891791Y-65790000D01*
X129891790Y-65789999D01*
X129839138Y-65662886D01*
X129839133Y-65662876D01*
X129752008Y-65532485D01*
X129752005Y-65532481D01*
X129641118Y-65421594D01*
X129641114Y-65421591D01*
X129510723Y-65334466D01*
X129510713Y-65334461D01*
X129383600Y-65281809D01*
X129383600Y-65790000D01*
X128883600Y-65790000D01*
X128883600Y-65281809D01*
X128883599Y-65281809D01*
X128756486Y-65334461D01*
X128756476Y-65334466D01*
X128626085Y-65421591D01*
X128626081Y-65421594D01*
X128515194Y-65532481D01*
X128515191Y-65532485D01*
X128428066Y-65662876D01*
X128428061Y-65662886D01*
X128375409Y-65789999D01*
X126626000Y-65789999D01*
X126626000Y-65124000D01*
X125124000Y-65124000D01*
X125124000Y-66626000D01*
X124126000Y-66626000D01*
X124126000Y-65124000D01*
X122624000Y-65124000D01*
X122624000Y-66626000D01*
X119126000Y-66626000D01*
X119126000Y-66218382D01*
X120124000Y-66218382D01*
X120126791Y-66216891D01*
X120132226Y-66214155D01*
X120165508Y-66198414D01*
X120171072Y-66195948D01*
X120362022Y-66116855D01*
X120367699Y-66114665D01*
X120402360Y-66102263D01*
X120408138Y-66100354D01*
X120455033Y-66086128D01*
X120460897Y-66084505D01*
X120496623Y-66075555D01*
X120502565Y-66074221D01*
X120705292Y-66033896D01*
X120711289Y-66032855D01*
X120747720Y-66027451D01*
X120753761Y-66026706D01*
X120802533Y-66021903D01*
X120808603Y-66021455D01*
X120845375Y-66019649D01*
X120851458Y-66019500D01*
X121058142Y-66019500D01*
X121064225Y-66019649D01*
X121100997Y-66021455D01*
X121107067Y-66021903D01*
X121155839Y-66026706D01*
X121161880Y-66027451D01*
X121198311Y-66032855D01*
X121204308Y-66033896D01*
X121407035Y-66074221D01*
X121412977Y-66075555D01*
X121448703Y-66084505D01*
X121454567Y-66086128D01*
X121501462Y-66100354D01*
X121507240Y-66102263D01*
X121541901Y-66114665D01*
X121547578Y-66116855D01*
X121626000Y-66149338D01*
X121626000Y-65124000D01*
X120124000Y-65124000D01*
X120124000Y-66218382D01*
X119126000Y-66218382D01*
X119126000Y-65124000D01*
X117624000Y-65124000D01*
X117624000Y-66626000D01*
X116626000Y-66626000D01*
X116626000Y-65124000D01*
X115124000Y-65124000D01*
X115124000Y-66626000D01*
X114126000Y-66626000D01*
X114126000Y-65124000D01*
X113423026Y-65124000D01*
X111954100Y-65124000D01*
X111954100Y-64126000D01*
X112952100Y-64126000D01*
X114126000Y-64126000D01*
X115124000Y-64126000D01*
X116626000Y-64126000D01*
X117624000Y-64126000D01*
X119126000Y-64126000D01*
X120124000Y-64126000D01*
X121626000Y-64126000D01*
X122624000Y-64126000D01*
X124126000Y-64126000D01*
X124126000Y-64089063D01*
X127624000Y-64089063D01*
X127624000Y-64126000D01*
X129126000Y-64126000D01*
X130124000Y-64126000D01*
X131626000Y-64126000D01*
X132624000Y-64126000D01*
X134126000Y-64126000D01*
X135124000Y-64126000D01*
X136626000Y-64126000D01*
X137624000Y-64126000D01*
X139126000Y-64126000D01*
X140124000Y-64126000D01*
X141626000Y-64126000D01*
X142624000Y-64126000D01*
X144126000Y-64126000D01*
X145124000Y-64126000D01*
X146626000Y-64126000D01*
X146626000Y-63831101D01*
X146568790Y-63752358D01*
X146566005Y-63748363D01*
X146549639Y-63723869D01*
X146547014Y-63719767D01*
X146526533Y-63686344D01*
X146524071Y-63682144D01*
X146509681Y-63656448D01*
X146507386Y-63652155D01*
X146396651Y-63434827D01*
X146394525Y-63430443D01*
X146382182Y-63403667D01*
X146380228Y-63399200D01*
X146365230Y-63362984D01*
X146363457Y-63358453D01*
X146353273Y-63330844D01*
X146351680Y-63326250D01*
X146276308Y-63094283D01*
X146274894Y-63089620D01*
X146266891Y-63061241D01*
X146265660Y-63056522D01*
X146256512Y-63018403D01*
X146255470Y-63013652D01*
X146249730Y-62984789D01*
X146248875Y-62980001D01*
X146210723Y-62739125D01*
X146210055Y-62734301D01*
X146206595Y-62705067D01*
X146206119Y-62700230D01*
X146203041Y-62661151D01*
X146202754Y-62656286D01*
X146201596Y-62626834D01*
X146201540Y-62624000D01*
X145124000Y-62624000D01*
X145124000Y-64126000D01*
X144126000Y-64126000D01*
X144126000Y-62624000D01*
X142624000Y-62624000D01*
X142624000Y-64126000D01*
X141626000Y-64126000D01*
X141626000Y-62624000D01*
X140124000Y-62624000D01*
X140124000Y-64126000D01*
X139126000Y-64126000D01*
X139126000Y-62624000D01*
X137624000Y-62624000D01*
X137624000Y-64126000D01*
X136626000Y-64126000D01*
X136626000Y-62624000D01*
X135124000Y-62624000D01*
X135124000Y-64126000D01*
X134126000Y-64126000D01*
X134126000Y-62624000D01*
X132624000Y-62624000D01*
X132624000Y-64126000D01*
X131626000Y-64126000D01*
X131626000Y-62624000D01*
X130124000Y-62624000D01*
X130124000Y-64126000D01*
X129126000Y-64126000D01*
X129126000Y-62624000D01*
X128818794Y-62624000D01*
X128805292Y-62630386D01*
X128799728Y-62632852D01*
X128608778Y-62711945D01*
X128603101Y-62714135D01*
X128568440Y-62726537D01*
X128562661Y-62728447D01*
X128557362Y-62730054D01*
X128102794Y-63184622D01*
X128083379Y-63282235D01*
X128082045Y-63288177D01*
X128073095Y-63323903D01*
X128071472Y-63329767D01*
X128057246Y-63376662D01*
X128055337Y-63382440D01*
X128042935Y-63417101D01*
X128040745Y-63422778D01*
X127961652Y-63613728D01*
X127959186Y-63619292D01*
X127943445Y-63652574D01*
X127940709Y-63658009D01*
X127917608Y-63701230D01*
X127914609Y-63706525D01*
X127895674Y-63738118D01*
X127892416Y-63743263D01*
X127777583Y-63915122D01*
X127774078Y-63920098D01*
X127752145Y-63949671D01*
X127748401Y-63954469D01*
X127717312Y-63992351D01*
X127713338Y-63996958D01*
X127688607Y-64024245D01*
X127684409Y-64028654D01*
X127624000Y-64089063D01*
X124126000Y-64089063D01*
X124126000Y-62624000D01*
X122624000Y-62624000D01*
X122624000Y-64126000D01*
X121626000Y-64126000D01*
X121626000Y-62624000D01*
X120124000Y-62624000D01*
X120124000Y-64126000D01*
X119126000Y-64126000D01*
X119126000Y-62624000D01*
X117624000Y-62624000D01*
X117624000Y-64126000D01*
X116626000Y-64126000D01*
X116626000Y-62624000D01*
X115124000Y-62624000D01*
X115124000Y-64126000D01*
X114126000Y-64126000D01*
X114126000Y-62624000D01*
X112952100Y-62624000D01*
X112952100Y-64126000D01*
X111954100Y-64126000D01*
X111954100Y-62250965D01*
X111973785Y-62183926D01*
X111974998Y-62182074D01*
X112062990Y-62050385D01*
X112062990Y-62050384D01*
X112062994Y-62050379D01*
X112123337Y-61904697D01*
X112154100Y-61750042D01*
X112154100Y-61626000D01*
X115124000Y-61626000D01*
X116626000Y-61626000D01*
X117624000Y-61626000D01*
X119126000Y-61626000D01*
X120124000Y-61626000D01*
X121626000Y-61626000D01*
X122624000Y-61626000D01*
X124126000Y-61626000D01*
X124126000Y-61518700D01*
X122624000Y-61518700D01*
X122624000Y-61626000D01*
X121626000Y-61626000D01*
X121626000Y-61518700D01*
X120124000Y-61518700D01*
X120124000Y-61626000D01*
X119126000Y-61626000D01*
X119126000Y-61518700D01*
X117624000Y-61518700D01*
X117624000Y-61626000D01*
X116626000Y-61626000D01*
X116626000Y-61518700D01*
X115124000Y-61518700D01*
X115124000Y-61626000D01*
X112154100Y-61626000D01*
X112154100Y-61592358D01*
X112154100Y-61592355D01*
X112154099Y-61592353D01*
X112149565Y-61569557D01*
X112123337Y-61437703D01*
X112103569Y-61389979D01*
X112062997Y-61292027D01*
X112062990Y-61292014D01*
X111975389Y-61160911D01*
X111975386Y-61160907D01*
X111863892Y-61049413D01*
X111863888Y-61049410D01*
X111732785Y-60961809D01*
X111732772Y-60961802D01*
X111587101Y-60901464D01*
X111587089Y-60901461D01*
X111432445Y-60870700D01*
X111432442Y-60870700D01*
X111274758Y-60870700D01*
X111274755Y-60870700D01*
X111120110Y-60901461D01*
X111120098Y-60901464D01*
X110974427Y-60961802D01*
X110974414Y-60961809D01*
X110843311Y-61049410D01*
X110843307Y-61049413D01*
X110731813Y-61160907D01*
X110731810Y-61160911D01*
X110644209Y-61292014D01*
X110644202Y-61292027D01*
X110583864Y-61437698D01*
X110583861Y-61437710D01*
X110553100Y-61592353D01*
X109126000Y-61592353D01*
X109126000Y-61518700D01*
X107624000Y-61518700D01*
X107624000Y-61626000D01*
X106626000Y-61626000D01*
X106626000Y-61518700D01*
X105124000Y-61518700D01*
X105124000Y-61626000D01*
X103465185Y-61626000D01*
X103347213Y-61508028D01*
X103181613Y-61387715D01*
X103181612Y-61387714D01*
X103181610Y-61387713D01*
X103124653Y-61358691D01*
X102999223Y-61294781D01*
X102804534Y-61231522D01*
X102629995Y-61203878D01*
X102602352Y-61199500D01*
X102397648Y-61199500D01*
X102373329Y-61203351D01*
X102195465Y-61231522D01*
X102000776Y-61294781D01*
X101818386Y-61387715D01*
X101652786Y-61508028D01*
X101508028Y-61652786D01*
X101387715Y-61818386D01*
X101294781Y-62000776D01*
X101231522Y-62195465D01*
X101199500Y-62397648D01*
X100500300Y-62397648D01*
X100500300Y-60644700D01*
X100519985Y-60577661D01*
X100572789Y-60531906D01*
X100624300Y-60520700D01*
X127166972Y-60520700D01*
X127234011Y-60540385D01*
G37*
%TD.AperFunction*%
%TA.AperFunction,Conductor*%
G36*
X132428503Y-76956055D02*
G01*
X132434981Y-76962087D01*
X138977742Y-83504848D01*
X140613181Y-85140287D01*
X140646666Y-85201610D01*
X140649500Y-85227968D01*
X140649500Y-91214281D01*
X140629815Y-91281320D01*
X140581795Y-91324765D01*
X140542185Y-91344947D01*
X140542184Y-91344948D01*
X140370213Y-91469890D01*
X140219890Y-91620213D01*
X140094949Y-91792182D01*
X140090484Y-91800946D01*
X140042509Y-91851742D01*
X139974688Y-91868536D01*
X139908553Y-91845998D01*
X139869516Y-91800946D01*
X139865050Y-91792182D01*
X139740109Y-91620213D01*
X139589786Y-91469890D01*
X139417820Y-91344951D01*
X139228414Y-91248444D01*
X139228413Y-91248443D01*
X139228412Y-91248443D01*
X139026243Y-91182754D01*
X139026241Y-91182753D01*
X139026240Y-91182753D01*
X138864957Y-91157208D01*
X138816287Y-91149500D01*
X138603713Y-91149500D01*
X138560527Y-91156340D01*
X138428391Y-91177268D01*
X138359097Y-91168313D01*
X138321312Y-91142476D01*
X136212616Y-89033780D01*
X137624000Y-89033780D01*
X137716220Y-89126000D01*
X139126000Y-89126000D01*
X139126000Y-87624000D01*
X137624000Y-87624000D01*
X137624000Y-89033780D01*
X136212616Y-89033780D01*
X135227422Y-88048586D01*
X133712615Y-86533779D01*
X135124000Y-86533779D01*
X135216220Y-86626000D01*
X136626000Y-86626000D01*
X136626000Y-85805629D01*
X137624000Y-85805629D01*
X137624000Y-86626000D01*
X139126000Y-86626000D01*
X139126000Y-85356508D01*
X139117880Y-85364628D01*
X139113471Y-85368826D01*
X139086184Y-85393557D01*
X139081577Y-85397531D01*
X139043694Y-85428621D01*
X139038894Y-85432367D01*
X139009320Y-85454300D01*
X139004345Y-85457804D01*
X138833196Y-85572161D01*
X138828055Y-85575416D01*
X138796464Y-85594351D01*
X138791165Y-85597353D01*
X138747945Y-85620453D01*
X138742510Y-85623189D01*
X138709229Y-85638929D01*
X138703666Y-85641394D01*
X138319115Y-85800679D01*
X138259508Y-85809521D01*
X137922000Y-85776278D01*
X137624000Y-85805629D01*
X136626000Y-85805629D01*
X136626000Y-85264508D01*
X136580572Y-85219080D01*
X136576374Y-85214671D01*
X136551643Y-85187384D01*
X136547669Y-85182777D01*
X136516580Y-85144895D01*
X136512834Y-85140095D01*
X136500897Y-85124000D01*
X135124000Y-85124000D01*
X135124000Y-86533779D01*
X133712615Y-86533779D01*
X132084989Y-84906154D01*
X132051505Y-84844832D01*
X132056489Y-84775140D01*
X132098361Y-84719207D01*
X132103748Y-84715393D01*
X132133089Y-84695789D01*
X132244589Y-84584289D01*
X132332194Y-84453179D01*
X132392537Y-84307497D01*
X132399359Y-84273200D01*
X137163809Y-84273200D01*
X137216461Y-84400313D01*
X137216466Y-84400323D01*
X137303591Y-84530714D01*
X137303594Y-84530718D01*
X137414481Y-84641605D01*
X137414489Y-84641611D01*
X137544872Y-84728730D01*
X137544890Y-84728740D01*
X137671999Y-84781390D01*
X137672000Y-84781390D01*
X138172000Y-84781390D01*
X138299109Y-84728740D01*
X138299127Y-84728730D01*
X138429510Y-84641611D01*
X138429518Y-84641605D01*
X138540405Y-84530718D01*
X138540408Y-84530714D01*
X138627533Y-84400323D01*
X138627538Y-84400313D01*
X138680191Y-84273200D01*
X138172000Y-84273200D01*
X138172000Y-84781390D01*
X137672000Y-84781390D01*
X137672000Y-84273200D01*
X137163809Y-84273200D01*
X132399359Y-84273200D01*
X132423300Y-84152842D01*
X132423300Y-83995158D01*
X132423300Y-83995155D01*
X132423299Y-83995153D01*
X132422315Y-83990208D01*
X132392537Y-83840503D01*
X132372340Y-83791743D01*
X132332197Y-83694827D01*
X132332190Y-83694814D01*
X132244198Y-83563125D01*
X132223320Y-83496447D01*
X132223300Y-83494234D01*
X132223300Y-83241108D01*
X133221300Y-83241108D01*
X133223910Y-83245992D01*
X133226645Y-83251426D01*
X133242386Y-83284708D01*
X133244852Y-83290272D01*
X133323945Y-83481222D01*
X133326135Y-83486899D01*
X133338537Y-83521560D01*
X133340446Y-83527338D01*
X133354672Y-83574233D01*
X133356295Y-83580097D01*
X133365245Y-83615823D01*
X133366579Y-83621765D01*
X133406904Y-83824492D01*
X133407945Y-83830489D01*
X133413349Y-83866920D01*
X133414094Y-83872961D01*
X133418897Y-83921733D01*
X133419345Y-83927803D01*
X133421151Y-83964575D01*
X133421300Y-83970658D01*
X133421300Y-84126000D01*
X134126000Y-84126000D01*
X135124000Y-84126000D01*
X136158795Y-84126000D01*
X136168919Y-84023199D01*
X136144297Y-83773199D01*
X137163809Y-83773199D01*
X137163809Y-83773200D01*
X137672000Y-83773200D01*
X138172000Y-83773200D01*
X138680191Y-83773200D01*
X138680190Y-83773199D01*
X138627538Y-83646086D01*
X138627533Y-83646076D01*
X138540408Y-83515685D01*
X138540405Y-83515681D01*
X138429518Y-83404794D01*
X138429514Y-83404791D01*
X138299123Y-83317666D01*
X138299113Y-83317661D01*
X138172000Y-83265009D01*
X138172000Y-83773200D01*
X137672000Y-83773200D01*
X137672000Y-83265009D01*
X137671999Y-83265009D01*
X137544886Y-83317661D01*
X137544876Y-83317666D01*
X137414485Y-83404791D01*
X137414481Y-83404794D01*
X137303594Y-83515681D01*
X137303591Y-83515685D01*
X137216466Y-83646076D01*
X137216461Y-83646086D01*
X137163809Y-83773199D01*
X136144297Y-83773199D01*
X136135678Y-83685687D01*
X136144520Y-83626080D01*
X136303807Y-83241530D01*
X136306272Y-83235970D01*
X136322011Y-83202690D01*
X136324748Y-83197251D01*
X136347849Y-83154031D01*
X136350849Y-83148736D01*
X136369784Y-83117144D01*
X136373041Y-83112000D01*
X136487398Y-82940853D01*
X136490901Y-82935879D01*
X136512834Y-82906305D01*
X136516580Y-82901505D01*
X136547669Y-82863623D01*
X136551643Y-82859016D01*
X136576374Y-82831729D01*
X136580572Y-82827320D01*
X136626000Y-82781892D01*
X136626000Y-82624000D01*
X135124000Y-82624000D01*
X135124000Y-84126000D01*
X134126000Y-84126000D01*
X134126000Y-82624000D01*
X133221300Y-82624000D01*
X133221300Y-83241108D01*
X132223300Y-83241108D01*
X132223300Y-81626000D01*
X133221300Y-81626000D01*
X134126000Y-81626000D01*
X135124000Y-81626000D01*
X135687510Y-81626000D01*
X135124000Y-81062490D01*
X135124000Y-81626000D01*
X134126000Y-81626000D01*
X134126000Y-80124000D01*
X133221300Y-80124000D01*
X133221300Y-81626000D01*
X132223300Y-81626000D01*
X132223300Y-77049768D01*
X132242985Y-76982729D01*
X132295789Y-76936974D01*
X132364947Y-76927030D01*
X132428503Y-76956055D01*
G37*
%TD.AperFunction*%
%TA.AperFunction,Conductor*%
G36*
X115695251Y-73775297D02*
G01*
X115751184Y-73817169D01*
X115755019Y-73822588D01*
X115829345Y-73933823D01*
X115829348Y-73933827D01*
X115940842Y-74045321D01*
X115940846Y-74045324D01*
X116071949Y-74132925D01*
X116071962Y-74132932D01*
X116217633Y-74193270D01*
X116217638Y-74193272D01*
X116282282Y-74206130D01*
X116372984Y-74224173D01*
X116434895Y-74256558D01*
X116436474Y-74258109D01*
X116497746Y-74319381D01*
X116693437Y-74515072D01*
X116679992Y-74520642D01*
X116690604Y-74540077D01*
X116685620Y-74609769D01*
X116643748Y-74665702D01*
X116616901Y-74680992D01*
X116615289Y-74681659D01*
X116615276Y-74681666D01*
X116484885Y-74768791D01*
X116484881Y-74768794D01*
X116373994Y-74879681D01*
X116373991Y-74879685D01*
X116286866Y-75010076D01*
X116286861Y-75010086D01*
X116234209Y-75137199D01*
X116234209Y-75137200D01*
X116868400Y-75137200D01*
X116935439Y-75156885D01*
X116981194Y-75209689D01*
X116992400Y-75261200D01*
X116992400Y-75387200D01*
X117118400Y-75387200D01*
X117185439Y-75406885D01*
X117231194Y-75459689D01*
X117242400Y-75511200D01*
X117242400Y-76145390D01*
X117369509Y-76092740D01*
X117369527Y-76092730D01*
X117499910Y-76005611D01*
X117499918Y-76005605D01*
X117610805Y-75894718D01*
X117610808Y-75894714D01*
X117697933Y-75764323D01*
X117697938Y-75764314D01*
X117757954Y-75619421D01*
X117758235Y-75618497D01*
X117758513Y-75618072D01*
X117760283Y-75613800D01*
X117761093Y-75614135D01*
X117796536Y-75560061D01*
X117860350Y-75531608D01*
X117876893Y-75530500D01*
X117878542Y-75530500D01*
X117878543Y-75530500D01*
X121137034Y-75530500D01*
X121204073Y-75550185D01*
X121205925Y-75551398D01*
X121340337Y-75641210D01*
X121385142Y-75694822D01*
X121393849Y-75764147D01*
X121363694Y-75827175D01*
X121359128Y-75831993D01*
X121298210Y-75892911D01*
X121210609Y-76024014D01*
X121210602Y-76024027D01*
X121150264Y-76169698D01*
X121150261Y-76169708D01*
X121119361Y-76325050D01*
X121086976Y-76386961D01*
X121085425Y-76388539D01*
X116207081Y-81266882D01*
X116207079Y-81266885D01*
X116190904Y-81294902D01*
X116170929Y-81329500D01*
X116128023Y-81403815D01*
X116087099Y-81556543D01*
X116087099Y-81556545D01*
X116087099Y-81724646D01*
X116087100Y-81724659D01*
X116087100Y-89394700D01*
X116067415Y-89461739D01*
X116014611Y-89507494D01*
X115963100Y-89518700D01*
X111831766Y-89518700D01*
X111764727Y-89499015D01*
X111762875Y-89497802D01*
X111631185Y-89409809D01*
X111631172Y-89409802D01*
X111485501Y-89349464D01*
X111485489Y-89349461D01*
X111330845Y-89318700D01*
X111330842Y-89318700D01*
X111173158Y-89318700D01*
X111173155Y-89318700D01*
X111018510Y-89349461D01*
X111018498Y-89349464D01*
X110872827Y-89409802D01*
X110872814Y-89409809D01*
X110741711Y-89497410D01*
X110741707Y-89497413D01*
X110630213Y-89608907D01*
X110630210Y-89608911D01*
X110577602Y-89687645D01*
X110523990Y-89732450D01*
X110454665Y-89741157D01*
X110391637Y-89711002D01*
X110354918Y-89651559D01*
X110350500Y-89618754D01*
X110350500Y-88520700D01*
X112624000Y-88520700D01*
X114126000Y-88520700D01*
X114126000Y-87624000D01*
X112624000Y-87624000D01*
X112624000Y-88520700D01*
X110350500Y-88520700D01*
X110350500Y-88320700D01*
X111348500Y-88320700D01*
X111355342Y-88320700D01*
X111361425Y-88320849D01*
X111398197Y-88322655D01*
X111404267Y-88323103D01*
X111453039Y-88327906D01*
X111459080Y-88328651D01*
X111495511Y-88334055D01*
X111501508Y-88335096D01*
X111626000Y-88359859D01*
X111626000Y-87624000D01*
X111348500Y-87624000D01*
X111348500Y-88320700D01*
X110350500Y-88320700D01*
X110350500Y-86626000D01*
X111348500Y-86626000D01*
X111626000Y-86626000D01*
X112624000Y-86626000D01*
X114126000Y-86626000D01*
X114126000Y-85124000D01*
X112624000Y-85124000D01*
X112624000Y-86626000D01*
X111626000Y-86626000D01*
X111626000Y-85124000D01*
X111348500Y-85124000D01*
X111348500Y-86626000D01*
X110350500Y-86626000D01*
X110350500Y-84126000D01*
X112624000Y-84126000D01*
X114126000Y-84126000D01*
X114126000Y-82624000D01*
X112624000Y-82624000D01*
X112624000Y-84126000D01*
X110350500Y-84126000D01*
X110350500Y-83590075D01*
X110350500Y-83323451D01*
X110350500Y-83300866D01*
X110370185Y-83233827D01*
X110392400Y-83211211D01*
X110392400Y-83206590D01*
X110892400Y-83206590D01*
X111019509Y-83153940D01*
X111019527Y-83153930D01*
X111149910Y-83066811D01*
X111149918Y-83066805D01*
X111260805Y-82955918D01*
X111260808Y-82955914D01*
X111347933Y-82825523D01*
X111347938Y-82825513D01*
X111400591Y-82698400D01*
X110892400Y-82698400D01*
X110892400Y-83206590D01*
X110392400Y-83206590D01*
X110392400Y-82198400D01*
X110892400Y-82198400D01*
X111400591Y-82198400D01*
X111400590Y-82198399D01*
X111347938Y-82071286D01*
X111347933Y-82071276D01*
X111260808Y-81940885D01*
X111260805Y-81940881D01*
X111149918Y-81829994D01*
X111149914Y-81829991D01*
X111019523Y-81742866D01*
X111019513Y-81742861D01*
X110892400Y-81690209D01*
X110892400Y-82198400D01*
X110392400Y-82198400D01*
X110392400Y-81683229D01*
X110360803Y-81645420D01*
X110356760Y-81626000D01*
X112624000Y-81626000D01*
X114126000Y-81626000D01*
X114126000Y-81294902D01*
X115124000Y-81294902D01*
X115172486Y-81113952D01*
X115174841Y-81106189D01*
X115190620Y-81059704D01*
X115193477Y-81052113D01*
X115218487Y-80991727D01*
X115221836Y-80984334D01*
X115243561Y-80940277D01*
X115247389Y-80933117D01*
X115306638Y-80830496D01*
X115359125Y-80739583D01*
X115363412Y-80732689D01*
X115390701Y-80691850D01*
X115395428Y-80685254D01*
X115435219Y-80633400D01*
X115440366Y-80627129D01*
X115472737Y-80590218D01*
X115478283Y-80584297D01*
X115938580Y-80124000D01*
X115124000Y-80124000D01*
X115124000Y-81294902D01*
X114126000Y-81294902D01*
X114126000Y-80124000D01*
X112624000Y-80124000D01*
X112624000Y-81626000D01*
X110356760Y-81626000D01*
X110350500Y-81595932D01*
X110350500Y-81573348D01*
X110350500Y-80798904D01*
X111348500Y-80798904D01*
X111424070Y-80830207D01*
X111429630Y-80832672D01*
X111462910Y-80848411D01*
X111468349Y-80851148D01*
X111511569Y-80874249D01*
X111516864Y-80877249D01*
X111548456Y-80896184D01*
X111553600Y-80899441D01*
X111626000Y-80947817D01*
X111626000Y-80124000D01*
X111348500Y-80124000D01*
X111348500Y-80798904D01*
X110350500Y-80798904D01*
X110350500Y-79068897D01*
X110370185Y-79001858D01*
X110386819Y-78981216D01*
X111212618Y-78155417D01*
X112624000Y-78155417D01*
X112624000Y-79126000D01*
X114126000Y-79126000D01*
X115124000Y-79126000D01*
X116626000Y-79126000D01*
X116626000Y-78438580D01*
X117624000Y-78438580D01*
X118438580Y-77624000D01*
X117624000Y-77624000D01*
X117624000Y-78438580D01*
X116626000Y-78438580D01*
X116626000Y-77624000D01*
X115124000Y-77624000D01*
X115124000Y-79126000D01*
X114126000Y-79126000D01*
X114126000Y-77624000D01*
X113155418Y-77624000D01*
X112624000Y-78155417D01*
X111212618Y-78155417D01*
X112974706Y-76393329D01*
X113712618Y-75655417D01*
X115124000Y-75655417D01*
X115124000Y-76626000D01*
X115693892Y-76626000D01*
X115650972Y-76583080D01*
X115646774Y-76578671D01*
X115622043Y-76551384D01*
X115618069Y-76546777D01*
X115586980Y-76508895D01*
X115583234Y-76504095D01*
X115561301Y-76474521D01*
X115557798Y-76469547D01*
X115443441Y-76298400D01*
X115440184Y-76293256D01*
X115421249Y-76261664D01*
X115418249Y-76256369D01*
X115395148Y-76213149D01*
X115392411Y-76207710D01*
X115376672Y-76174430D01*
X115374207Y-76168870D01*
X115214920Y-75784320D01*
X115206078Y-75724713D01*
X115214697Y-75637200D01*
X116234209Y-75637200D01*
X116286861Y-75764313D01*
X116286866Y-75764323D01*
X116373991Y-75894714D01*
X116373994Y-75894718D01*
X116484881Y-76005605D01*
X116484889Y-76005611D01*
X116615272Y-76092730D01*
X116615290Y-76092740D01*
X116742399Y-76145390D01*
X116742400Y-76145390D01*
X116742400Y-75637200D01*
X116234209Y-75637200D01*
X115214697Y-75637200D01*
X115222615Y-75556801D01*
X115124000Y-75655417D01*
X113712618Y-75655417D01*
X115564238Y-73803796D01*
X115625559Y-73770313D01*
X115695251Y-73775297D01*
G37*
%TD.AperFunction*%
%TA.AperFunction,Conductor*%
G36*
X147801444Y-69943999D02*
G01*
X147840486Y-69989056D01*
X147844951Y-69997820D01*
X147969890Y-70169786D01*
X148120213Y-70320109D01*
X148139250Y-70333940D01*
X148139250Y-70333939D01*
X148292184Y-70445051D01*
X148386350Y-70493031D01*
X148358622Y-70507159D01*
X148373670Y-70567928D01*
X148351132Y-70634063D01*
X148306082Y-70673099D01*
X148294626Y-70678936D01*
X148241261Y-70717706D01*
X148241261Y-70717707D01*
X148870591Y-71347037D01*
X148807007Y-71364075D01*
X148692993Y-71429901D01*
X148599901Y-71522993D01*
X148534075Y-71637007D01*
X148517037Y-71700591D01*
X147887707Y-71071261D01*
X147887706Y-71071261D01*
X147848936Y-71124626D01*
X147843099Y-71136082D01*
X147795123Y-71186877D01*
X147727302Y-71203670D01*
X147678046Y-71186883D01*
X147663031Y-71216350D01*
X147615051Y-71122184D01*
X147503939Y-70969250D01*
X147503940Y-70969250D01*
X147490109Y-70950213D01*
X147339786Y-70799890D01*
X147167820Y-70674951D01*
X147164185Y-70673099D01*
X147159054Y-70670485D01*
X147108259Y-70622512D01*
X147091463Y-70554692D01*
X147113999Y-70488556D01*
X147159054Y-70449515D01*
X147167816Y-70445051D01*
X147260377Y-70377802D01*
X147339786Y-70320109D01*
X147339788Y-70320106D01*
X147339792Y-70320104D01*
X147490104Y-70169792D01*
X147490106Y-70169788D01*
X147490109Y-70169786D01*
X147615048Y-69997820D01*
X147615047Y-69997820D01*
X147615051Y-69997816D01*
X147619514Y-69989054D01*
X147667488Y-69938259D01*
X147735308Y-69921463D01*
X147801444Y-69943999D01*
G37*
%TD.AperFunction*%
%TD*%
M02*
