%TF.GenerationSoftware,KiCad,Pcbnew,10.0.1*%
%TF.CreationDate,2026-05-14T10:50:36-07:00*%
%TF.ProjectId,MCU Datalogger,4d435520-4461-4746-916c-6f676765722e,1*%
%TF.SameCoordinates,Original*%
%TF.FileFunction,Copper,L1,Top*%
%TF.FilePolarity,Positive*%
%FSLAX46Y46*%
G04 Gerber Fmt 4.6, Leading zero omitted, Abs format (unit mm)*
G04 Created by KiCad (PCBNEW 10.0.1) date 2026-05-14 10:50:36*
%MOMM*%
%LPD*%
G01*
G04 APERTURE LIST*
G04 Aperture macros list*
%AMRoundRect*
0 Rectangle with rounded corners*
0 $1 Rounding radius*
0 $2 $3 $4 $5 $6 $7 $8 $9 X,Y pos of 4 corners*
0 Add a 4 corners polygon primitive as box body*
4,1,4,$2,$3,$4,$5,$6,$7,$8,$9,$2,$3,0*
0 Add four circle primitives for the rounded corners*
1,1,$1+$1,$2,$3*
1,1,$1+$1,$4,$5*
1,1,$1+$1,$6,$7*
1,1,$1+$1,$8,$9*
0 Add four rect primitives between the rounded corners*
20,1,$1+$1,$2,$3,$4,$5,0*
20,1,$1+$1,$4,$5,$6,$7,0*
20,1,$1+$1,$6,$7,$8,$9,0*
20,1,$1+$1,$8,$9,$2,$3,0*%
G04 Aperture macros list end*
%TA.AperFunction,ComponentPad*%
%ADD10R,1.700000X1.700000*%
%TD*%
%TA.AperFunction,ComponentPad*%
%ADD11C,1.700000*%
%TD*%
%TA.AperFunction,SMDPad,CuDef*%
%ADD12RoundRect,0.250000X0.950000X-0.750000X0.950000X0.750000X-0.950000X0.750000X-0.950000X-0.750000X0*%
%TD*%
%TA.AperFunction,SMDPad,CuDef*%
%ADD13RoundRect,0.250001X1.499999X0.949999X-1.499999X0.949999X-1.499999X-0.949999X1.499999X-0.949999X0*%
%TD*%
%TA.AperFunction,SMDPad,CuDef*%
%ADD14RoundRect,0.250000X0.262500X0.450000X-0.262500X0.450000X-0.262500X-0.450000X0.262500X-0.450000X0*%
%TD*%
%TA.AperFunction,SMDPad,CuDef*%
%ADD15RoundRect,0.162500X-0.650000X-0.162500X0.650000X-0.162500X0.650000X0.162500X-0.650000X0.162500X0*%
%TD*%
%TA.AperFunction,SMDPad,CuDef*%
%ADD16RoundRect,0.250000X0.250000X0.475000X-0.250000X0.475000X-0.250000X-0.475000X0.250000X-0.475000X0*%
%TD*%
%TA.AperFunction,SMDPad,CuDef*%
%ADD17RoundRect,0.068750X-0.666250X-0.206250X0.666250X-0.206250X0.666250X0.206250X-0.666250X0.206250X0*%
%TD*%
%TA.AperFunction,SMDPad,CuDef*%
%ADD18RoundRect,0.068750X-0.206250X-0.666250X0.206250X-0.666250X0.206250X0.666250X-0.206250X0.666250X0*%
%TD*%
%TA.AperFunction,SMDPad,CuDef*%
%ADD19RoundRect,0.243750X-0.243750X-0.456250X0.243750X-0.456250X0.243750X0.456250X-0.243750X0.456250X0*%
%TD*%
%TA.AperFunction,SMDPad,CuDef*%
%ADD20RoundRect,0.250000X-0.262500X-0.450000X0.262500X-0.450000X0.262500X0.450000X-0.262500X0.450000X0*%
%TD*%
%TA.AperFunction,SMDPad,CuDef*%
%ADD21RoundRect,0.073750X-0.911250X-0.221250X0.911250X-0.221250X0.911250X0.221250X-0.911250X0.221250X0*%
%TD*%
%TA.AperFunction,SMDPad,CuDef*%
%ADD22RoundRect,0.250000X-0.250000X-0.475000X0.250000X-0.475000X0.250000X0.475000X-0.250000X0.475000X0*%
%TD*%
%TA.AperFunction,ViaPad*%
%ADD23C,0.600000*%
%TD*%
%TA.AperFunction,ViaPad*%
%ADD24C,0.800000*%
%TD*%
%TA.AperFunction,Conductor*%
%ADD25C,0.350000*%
%TD*%
%TA.AperFunction,Conductor*%
%ADD26C,0.200000*%
%TD*%
G04 APERTURE END LIST*
D10*
%TO.P,J2,1,Pin_1_1*%
%TO.N,/D2*%
X107210000Y-92500000D03*
D11*
%TO.P,J2,2,Pin_2_2*%
%TO.N,/D3*%
X109750000Y-92500000D03*
%TO.P,J2,3,Pin_3_3*%
%TO.N,/D4*%
X112290000Y-92500000D03*
%TO.P,J2,4,Pin_4_4*%
%TO.N,/D5*%
X114830000Y-92500000D03*
%TO.P,J2,5,Pin_5_5*%
%TO.N,/D6*%
X117370000Y-92500000D03*
%TO.P,J2,6,Pin_6_6*%
%TO.N,/D7*%
X119910000Y-92500000D03*
%TO.P,J2,7,Pin_7_7*%
%TO.N,/D8*%
X122450000Y-92500000D03*
%TO.P,J2,8,Pin_8_8*%
%TO.N,GND*%
X124990000Y-92500000D03*
%TO.P,J2,9,Pin_9_9*%
%TO.N,/Vcc*%
X127530000Y-92500000D03*
%TD*%
D12*
%TO.P,Y1,1,1_1*%
%TO.N,Net-(U2-X2)*%
X103500000Y-84100000D03*
%TO.P,Y1,2,2_2*%
%TO.N,Net-(U2-X1)*%
X103500000Y-80400000D03*
%TD*%
D13*
%TO.P,Y2,1,1_1*%
%TO.N,Net-(U4-PB7)*%
X127700000Y-82750000D03*
%TO.P,Y2,2,2_2*%
%TO.N,Net-(U4-PB6)*%
X122500000Y-82750000D03*
%TD*%
D14*
%TO.P,R5,2*%
%TO.N,Net-(D1-K)*%
X137522500Y-69250000D03*
%TO.P,R5,1*%
%TO.N,GND*%
X139347500Y-69250000D03*
%TD*%
D11*
%TO.P,J1,4,Pin_4_4*%
%TO.N,/SCK*%
X148500000Y-84870000D03*
%TO.P,J1,3,Pin_3_3*%
%TO.N,/SDA*%
X148500000Y-82330000D03*
%TO.P,J1,2,Pin_2_2*%
%TO.N,/Vcc*%
X148500000Y-79790000D03*
D10*
%TO.P,J1,1,Pin_1_1*%
%TO.N,GND*%
X148500000Y-77250000D03*
%TD*%
D15*
%TO.P,U1,8,VCC_8*%
%TO.N,/Vcc*%
X114837500Y-71095000D03*
%TO.P,U1,7,WP_7*%
%TO.N,GND*%
X114837500Y-72365000D03*
%TO.P,U1,6,SCL_6*%
%TO.N,/SCK*%
X114837500Y-73635000D03*
%TO.P,U1,5,SDA_5*%
%TO.N,/SDA*%
X114837500Y-74905000D03*
%TO.P,U1,4,GND_4*%
%TO.N,GND*%
X107662500Y-74905000D03*
%TO.P,U1,3,A2_3*%
%TO.N,/Vcc*%
X107662500Y-73635000D03*
%TO.P,U1,2,A1_2*%
X107662500Y-72365000D03*
%TO.P,U1,1,A0_1*%
X107662500Y-71095000D03*
%TD*%
D14*
%TO.P,R2,2*%
%TO.N,Net-(U2-SQW{slash}~INT)*%
X112587500Y-87000000D03*
%TO.P,R2,1*%
%TO.N,/Vcc*%
X114412500Y-87000000D03*
%TD*%
D11*
%TO.P,J3,4,Pin_4_4*%
%TO.N,/TX*%
X141250000Y-92500000D03*
%TO.P,J3,3,Pin_3_3*%
%TO.N,/RX*%
X138710000Y-92500000D03*
%TO.P,J3,2,Pin_2_2*%
%TO.N,/Vcc*%
X136170000Y-92500000D03*
D10*
%TO.P,J3,1,Pin_1_1*%
%TO.N,GND*%
X133630000Y-92500000D03*
%TD*%
D16*
%TO.P,C1,2*%
%TO.N,/Vcc*%
X117550000Y-64250000D03*
%TO.P,C1,1*%
%TO.N,GND*%
X119450000Y-64250000D03*
%TD*%
D17*
%TO.P,U4,1,PD3_1*%
%TO.N,/D3*%
X119750000Y-70950000D03*
%TO.P,U4,2,PD4_2*%
%TO.N,/D4*%
X119750000Y-71750000D03*
%TO.P,U4,3,GND_3*%
%TO.N,GND*%
X119750000Y-72550000D03*
%TO.P,U4,4,VCC_4*%
%TO.N,Net-(BT1-+)*%
X119750000Y-73350000D03*
%TO.P,U4,5,GND_5*%
%TO.N,GND*%
X119750000Y-74150000D03*
%TO.P,U4,6,VCC_6*%
%TO.N,unconnected-(U4-VCC-Pad6)*%
X119750000Y-74950000D03*
%TO.P,U4,7,PB6_7*%
%TO.N,Net-(U4-PB6)*%
X119750000Y-75750000D03*
%TO.P,U4,8,PB7_8*%
%TO.N,Net-(U4-PB7)*%
X119750000Y-76550000D03*
D18*
%TO.P,U4,9,PD5_9*%
%TO.N,/D5*%
X121120000Y-77920000D03*
%TO.P,U4,10,PD6_10*%
%TO.N,/D6*%
X121920000Y-77920000D03*
%TO.P,U4,11,PD7_11*%
%TO.N,/D7*%
X122720000Y-77920000D03*
%TO.P,U4,12,PB0_12*%
%TO.N,/D8*%
X123520000Y-77920000D03*
%TO.P,U4,13,PB1_13*%
%TO.N,unconnected-(U4-PB1-Pad13)*%
X124320000Y-77920000D03*
%TO.P,U4,14,PB2_14*%
%TO.N,unconnected-(U4-PB2-Pad14)*%
X125120000Y-77920000D03*
%TO.P,U4,15,PB3_15*%
%TO.N,/MOSI*%
X125920000Y-77920000D03*
%TO.P,U4,16,PB4_16*%
%TO.N,/MISO*%
X126720000Y-77920000D03*
D17*
%TO.P,U4,17,PB5_17*%
%TO.N,/SCK*%
X128090000Y-76550000D03*
%TO.P,U4,18,AVCC_18*%
%TO.N,Net-(BT1-+)*%
X128090000Y-75750000D03*
%TO.P,U4,19,ADC6_19*%
%TO.N,unconnected-(U4-ADC6-Pad19)*%
X128090000Y-74950000D03*
%TO.P,U4,20,AREF_20*%
%TO.N,Net-(U4-AREF)*%
X128090000Y-74150000D03*
%TO.P,U4,21,GND_21*%
%TO.N,GND*%
X128090000Y-73350000D03*
%TO.P,U4,22,ADC7_22*%
%TO.N,unconnected-(U4-ADC7-Pad22)*%
X128090000Y-72550000D03*
%TO.P,U4,23,PC0_23*%
%TO.N,unconnected-(U4-PC0-Pad23)*%
X128090000Y-71750000D03*
%TO.P,U4,24,PC1_24*%
%TO.N,unconnected-(U4-PC1-Pad24)*%
X128090000Y-70950000D03*
D18*
%TO.P,U4,25,PC2_25*%
%TO.N,unconnected-(U4-PC2-Pad25)*%
X126720000Y-69580000D03*
%TO.P,U4,26,PC3_26*%
%TO.N,unconnected-(U4-PC3-Pad26)*%
X125920000Y-69580000D03*
%TO.P,U4,27,PC4_27*%
%TO.N,/SDA*%
X125120000Y-69580000D03*
%TO.P,U4,28,PC5_28*%
%TO.N,/SCK*%
X124320000Y-69580000D03*
%TO.P,U4,29,PC6/~{RESET}_29*%
%TO.N,/RESET*%
X123520000Y-69580000D03*
%TO.P,U4,30,PD0_30*%
%TO.N,/RX*%
X122720000Y-69580000D03*
%TO.P,U4,31,PD1_31*%
%TO.N,/TX*%
X121920000Y-69580000D03*
%TO.P,U4,32,PD2_32*%
%TO.N,/D2*%
X121120000Y-69580000D03*
%TD*%
D19*
%TO.P,D1,2,A_2*%
%TO.N,/SCK*%
X139412500Y-64250000D03*
%TO.P,D1,1,K_1*%
%TO.N,Net-(D1-K)*%
X137537500Y-64250000D03*
%TD*%
D20*
%TO.P,R1,2*%
%TO.N,/Vcc*%
X110412500Y-87000000D03*
%TO.P,R1,1*%
%TO.N,Net-(U2-~{INTA})*%
X108587500Y-87000000D03*
%TD*%
D16*
%TO.P,C2,2*%
%TO.N,Net-(U4-PB6)*%
X133092500Y-80250000D03*
%TO.P,C2,1*%
%TO.N,GND*%
X134992500Y-80250000D03*
%TD*%
D21*
%TO.P,U2,8,VCC_8*%
%TO.N,/Vcc*%
X113725000Y-79095000D03*
%TO.P,U2,7,SQW/~INT_7*%
%TO.N,Net-(U2-SQW{slash}~INT)*%
X113725000Y-80365000D03*
%TO.P,U2,6,SCL_6*%
%TO.N,/SCK*%
X113725000Y-81635000D03*
%TO.P,U2,5,SDA_5*%
%TO.N,/SDA*%
X113725000Y-82905000D03*
%TO.P,U2,4,GND_4*%
%TO.N,GND*%
X108775000Y-82905000D03*
%TO.P,U2,3,~{INTA}_3*%
%TO.N,Net-(U2-~{INTA})*%
X108775000Y-81635000D03*
%TO.P,U2,2,X2_2*%
%TO.N,Net-(U2-X2)*%
X108775000Y-80365000D03*
%TO.P,U2,1,X1_1*%
%TO.N,Net-(U2-X1)*%
X108775000Y-79095000D03*
%TD*%
D11*
%TO.P,BT1,2,-_2*%
%TO.N,GND*%
X103000000Y-73540000D03*
D10*
%TO.P,BT1,1,+_1*%
%TO.N,Net-(BT1-+)*%
X103000000Y-71000000D03*
%TD*%
D15*
%TO.P,U3,8,VCC_8*%
%TO.N,/Vcc*%
X114587500Y-64397500D03*
%TO.P,U3,7,WP_7*%
%TO.N,GND*%
X114587500Y-65667500D03*
%TO.P,U3,6,SCL_6*%
%TO.N,/SCK*%
X114587500Y-66937500D03*
%TO.P,U3,5,SDA_5*%
%TO.N,/SDA*%
X114587500Y-68207500D03*
%TO.P,U3,4,GND_4*%
%TO.N,GND*%
X107412500Y-68207500D03*
%TO.P,U3,3,A2_3*%
%TO.N,/Vcc*%
X107412500Y-66937500D03*
%TO.P,U3,2,A1_2*%
%TO.N,GND*%
X107412500Y-65667500D03*
%TO.P,U3,1,A0_1*%
%TO.N,/Vcc*%
X107412500Y-64397500D03*
%TD*%
D20*
%TO.P,R7,2*%
%TO.N,GND*%
X134935000Y-69250000D03*
%TO.P,R7,1*%
%TO.N,Net-(D2-K)*%
X133110000Y-69250000D03*
%TD*%
%TO.P,R6,2*%
%TO.N,/RESET*%
X139347500Y-73250000D03*
%TO.P,R6,1*%
%TO.N,/Vcc*%
X137522500Y-73250000D03*
%TD*%
D22*
%TO.P,C3,2*%
%TO.N,Net-(U4-PB7)*%
X123200000Y-64250000D03*
%TO.P,C3,1*%
%TO.N,GND*%
X121300000Y-64250000D03*
%TD*%
D14*
%TO.P,R3,2*%
%TO.N,/SCK*%
X133110000Y-77500000D03*
%TO.P,R3,1*%
%TO.N,/Vcc*%
X134935000Y-77500000D03*
%TD*%
D19*
%TO.P,D2,2,A_2*%
%TO.N,Net-(BT1-+)*%
X135000000Y-64250000D03*
%TO.P,D2,1,K_1*%
%TO.N,Net-(D2-K)*%
X133125000Y-64250000D03*
%TD*%
D14*
%TO.P,R4,2*%
%TO.N,/SDA*%
X133110000Y-73250000D03*
%TO.P,R4,1*%
%TO.N,/Vcc*%
X134935000Y-73250000D03*
%TD*%
D22*
%TO.P,C5,2*%
%TO.N,GND*%
X126950000Y-64250000D03*
%TO.P,C5,1*%
%TO.N,Net-(BT1-+)*%
X125050000Y-64250000D03*
%TD*%
D16*
%TO.P,C4,2*%
%TO.N,Net-(U4-AREF)*%
X133092500Y-84000000D03*
%TO.P,C4,1*%
%TO.N,GND*%
X134992500Y-84000000D03*
%TD*%
D11*
%TO.P,J4,6,Pin_6_6*%
%TO.N,GND*%
X149000000Y-71830000D03*
%TO.P,J4,5,Pin_5_5*%
%TO.N,/RESET*%
X146460000Y-71830000D03*
%TO.P,J4,4,Pin_4_4*%
%TO.N,/MOSI*%
X149000000Y-69290000D03*
%TO.P,J4,3,Pin_3_3*%
%TO.N,/SCK*%
X146460000Y-69290000D03*
%TO.P,J4,2,Pin_2_2*%
%TO.N,/Vcc*%
X149000000Y-66750000D03*
D10*
%TO.P,J4,1,Pin_1_1*%
%TO.N,/MISO*%
X146460000Y-66750000D03*
%TD*%
D23*
%TO.N,GND*%
X135460000Y-67767200D03*
%TO.N,Net-(BT1-+)*%
X128016000Y-61010800D03*
X120954800Y-67818000D03*
X123748800Y-75387200D03*
X117703600Y-72085200D03*
X126339600Y-62830000D03*
%TO.N,GND*%
X110642400Y-82448400D03*
X112217200Y-73710800D03*
X129133600Y-66040000D03*
X139039600Y-67005200D03*
X137922000Y-84023200D03*
D24*
%TO.N,/Vcc*%
X147421600Y-74320400D03*
X143002000Y-76504800D03*
X146304000Y-78028800D03*
D23*
%TO.N,Net-(U4-PB7)*%
X130403600Y-76657200D03*
X130911600Y-80060800D03*
%TO.N,Net-(U4-AREF)*%
X131622800Y-84074000D03*
X130860800Y-75387200D03*
%TO.N,/SCK*%
X112318800Y-66548000D03*
X121716800Y-74930000D03*
X111353600Y-61671200D03*
X141427200Y-81584800D03*
X126880927Y-76350000D03*
X142595600Y-72440800D03*
X116451135Y-73423535D03*
X126593600Y-74930000D03*
%TO.N,/SDA*%
X129438400Y-67411600D03*
X139242800Y-80060800D03*
X133146800Y-71069200D03*
X133197600Y-75234800D03*
%TO.N,/D3*%
X118643400Y-71145400D03*
%TO.N,/D2*%
X111252000Y-90119200D03*
X121920000Y-76403200D03*
%TO.N,/D7*%
X123240800Y-85445600D03*
X123120000Y-79654400D03*
%TO.N,/D8*%
X123919945Y-79664000D03*
X125673223Y-86640506D03*
%TO.N,/D5*%
X119075200Y-80568800D03*
X121208800Y-79248000D03*
%TO.N,/D6*%
X121892134Y-79664000D03*
X119735600Y-82753200D03*
%TO.N,/D4*%
X121735456Y-72749186D03*
%TO.N,/RX*%
X123079989Y-71577200D03*
%TO.N,/TX*%
X122555347Y-70888091D03*
%TO.N,/RESET*%
X123698000Y-72085200D03*
X123698000Y-76504800D03*
X140360400Y-80721200D03*
X140411200Y-74320400D03*
X130251200Y-85344000D03*
X128676400Y-80162400D03*
X125222000Y-74574400D03*
X132130800Y-87426800D03*
%TO.N,GND*%
X116992400Y-75387200D03*
%TO.N,/SCK*%
X132525000Y-66192400D03*
D24*
%TO.N,/Vcc*%
X104902000Y-66040000D03*
X104902000Y-69291200D03*
D23*
%TO.N,/SCK*%
X138226800Y-66192400D03*
%TO.N,GND*%
X109677200Y-74777600D03*
%TD*%
%TO.N,/Vcc*%
D25*
X114412500Y-87000000D02*
X113287500Y-85875000D01*
X113287500Y-85875000D02*
X112038478Y-85875000D01*
X112038478Y-85875000D02*
X111556800Y-86356678D01*
X107289600Y-89357200D02*
X105460800Y-91186000D01*
X105460800Y-91186000D02*
X105460800Y-93300800D01*
X111556800Y-86356678D02*
X111556800Y-89357200D01*
X127530000Y-93765600D02*
X127530000Y-92500000D01*
X111556800Y-89357200D02*
X107289600Y-89357200D01*
X105460800Y-93300800D02*
X106506400Y-94346400D01*
X106506400Y-94346400D02*
X126949200Y-94346400D01*
X126949200Y-94346400D02*
X127530000Y-93765600D01*
%TO.N,/MISO*%
D26*
X127350000Y-78550000D02*
X133727956Y-78550000D01*
X136434538Y-60892200D02*
X144839257Y-60892200D01*
X133727956Y-78550000D02*
X134072500Y-78205456D01*
X144839257Y-60892200D02*
X149497057Y-65550000D01*
X134112000Y-76755044D02*
X134112000Y-73994956D01*
X134112000Y-73994956D02*
X134072500Y-73955456D01*
X147660000Y-67950000D02*
X146460000Y-66750000D01*
X134072500Y-78205456D02*
X134072500Y-76794544D01*
X134072500Y-76794544D02*
X134112000Y-76755044D01*
X134072500Y-72544544D02*
X136060000Y-70557044D01*
X134072500Y-73955456D02*
X134072500Y-72544544D01*
X126720000Y-77920000D02*
X127350000Y-78550000D01*
X149497057Y-67950000D02*
X148502943Y-67950000D01*
X136060000Y-70557044D02*
X136060000Y-61266738D01*
X136060000Y-61266738D02*
X136434538Y-60892200D01*
X149497057Y-65550000D02*
X150200000Y-66252943D01*
X150200000Y-66252943D02*
X150200000Y-67247057D01*
X150200000Y-67247057D02*
X149497057Y-67950000D01*
X148502943Y-67950000D02*
X147660000Y-67950000D01*
%TO.N,GND*%
X134935000Y-68292200D02*
X135460000Y-67767200D01*
X134935000Y-69250000D02*
X134935000Y-68292200D01*
X118229600Y-74150000D02*
X116992400Y-75387200D01*
%TO.N,/SCK*%
X139412500Y-65006700D02*
X138226800Y-66192400D01*
X131937800Y-66192400D02*
X131870400Y-66125000D01*
%TO.N,/RESET*%
X123920000Y-71863200D02*
X123698000Y-72085200D01*
%TO.N,/SCK*%
X131870400Y-76260400D02*
X131870400Y-66125000D01*
%TO.N,/RX*%
X122945000Y-69805000D02*
X122720000Y-69580000D01*
%TO.N,GND*%
X119750000Y-74150000D02*
X118229600Y-74150000D01*
%TO.N,/SCK*%
X132525000Y-66192400D02*
X131937800Y-66192400D01*
%TO.N,/Vcc*%
D25*
X110685000Y-72365000D02*
X110787500Y-72262500D01*
%TO.N,/RESET*%
D26*
X123520000Y-69580000D02*
X123745000Y-69805000D01*
X123745000Y-70400896D02*
X123920000Y-70575896D01*
%TO.N,GND*%
X110642400Y-77884900D02*
X110642400Y-82448400D01*
%TO.N,/RX*%
X123159104Y-70615000D02*
X122945000Y-70400896D01*
%TO.N,/Vcc*%
D25*
X106175000Y-66075000D02*
X106175000Y-66512499D01*
%TO.N,/RX*%
D26*
X123079989Y-71179211D02*
X123518809Y-70740391D01*
X123079989Y-71577200D02*
X123079989Y-71179211D01*
%TO.N,/SCK*%
X139412500Y-64250000D02*
X139412500Y-65006700D01*
%TO.N,/RESET*%
X123920000Y-70575896D02*
X123920000Y-71863200D01*
%TO.N,GND*%
X107662500Y-74905000D02*
X110642400Y-77884900D01*
%TO.N,/RX*%
X123518809Y-70740391D02*
X123393419Y-70615000D01*
X122945000Y-70400896D02*
X122945000Y-69805000D01*
%TO.N,/RESET*%
X123745000Y-69805000D02*
X123745000Y-70400896D01*
%TO.N,/RX*%
X123393419Y-70615000D02*
X123159104Y-70615000D01*
%TO.N,/Vcc*%
D25*
X107662500Y-72365000D02*
X110685000Y-72365000D01*
X107034646Y-64397500D02*
X106175000Y-65257146D01*
X106175000Y-66512499D02*
X106600001Y-66937500D01*
X107662500Y-71095000D02*
X109620000Y-71095000D01*
X109620000Y-71095000D02*
X110787500Y-72262500D01*
X107412500Y-64397500D02*
X107034646Y-64397500D01*
X106600001Y-66937500D02*
X107412500Y-66937500D01*
%TO.N,/SCK*%
D26*
X131477285Y-61671200D02*
X131870400Y-62064315D01*
%TO.N,/Vcc*%
D25*
X133908800Y-89052400D02*
X134061200Y-88900000D01*
X127530000Y-91570400D02*
X130048000Y-89052400D01*
X130048000Y-89052400D02*
X133908800Y-89052400D01*
X127530000Y-92500000D02*
X127530000Y-91570400D01*
%TO.N,GND*%
D26*
X108775000Y-82905000D02*
X110185800Y-82905000D01*
%TO.N,/Vcc*%
D25*
X134061200Y-90391200D02*
X136170000Y-92500000D01*
%TO.N,GND*%
D26*
X110185800Y-82905000D02*
X110642400Y-82448400D01*
%TO.N,/Vcc*%
D25*
X134061200Y-88900000D02*
X134061200Y-90391200D01*
%TO.N,/TX*%
D26*
X122030891Y-70888091D02*
X121869200Y-70726400D01*
%TO.N,GND*%
X112217200Y-73710800D02*
X113563000Y-72365000D01*
X113563000Y-72365000D02*
X114837500Y-72365000D01*
X107662500Y-74905000D02*
X107789900Y-74777600D01*
%TO.N,/TX*%
X121869200Y-69630800D02*
X121920000Y-69580000D01*
%TO.N,GND*%
X107789900Y-74777600D02*
X109677200Y-74777600D01*
%TO.N,/D3*%
X118643400Y-71145400D02*
X119554600Y-71145400D01*
X119554600Y-71145400D02*
X119750000Y-70950000D01*
%TO.N,/TX*%
X122555347Y-70888091D02*
X122030891Y-70888091D01*
X121869200Y-70726400D02*
X121869200Y-69630800D01*
%TO.N,/D2*%
X123098000Y-72177200D02*
X123098000Y-72333729D01*
X121116800Y-75178529D02*
X121468271Y-75530000D01*
X123422692Y-72658422D02*
X121751114Y-74330000D01*
X121468271Y-75530000D02*
X121869200Y-75530000D01*
X121120000Y-69580000D02*
X121345000Y-69805000D01*
X123098000Y-72333729D02*
X123422692Y-72658422D01*
X121751114Y-74330000D02*
X121468271Y-74330000D01*
X122479989Y-71618400D02*
X122479989Y-71825729D01*
X121269200Y-71266929D02*
X121620671Y-71618400D01*
X121116800Y-74681471D02*
X121116800Y-75178529D01*
X121620671Y-71618400D02*
X122479989Y-71618400D01*
X122831460Y-72177200D02*
X123098000Y-72177200D01*
X122479989Y-71825729D02*
X122831460Y-72177200D01*
X121345000Y-69805000D02*
X121345000Y-70400896D01*
X121468271Y-74330000D02*
X121116800Y-74681471D01*
X121469200Y-70525096D02*
X121469200Y-70569871D01*
X121345000Y-70400896D02*
X121469200Y-70525096D01*
X121469200Y-70569871D02*
X121269200Y-70769871D01*
X121869200Y-76352400D02*
X121920000Y-76403200D01*
X121269200Y-70769871D02*
X121269200Y-71266929D01*
X121869200Y-75530000D02*
X121869200Y-76352400D01*
%TO.N,/D4*%
X121513864Y-72749186D02*
X121238478Y-72473800D01*
X121238478Y-71801893D02*
X121186585Y-71750000D01*
X121238478Y-72473800D02*
X121238478Y-71801893D01*
X121186585Y-71750000D02*
X119750000Y-71750000D01*
X121735456Y-72749186D02*
X121513864Y-72749186D01*
%TO.N,/SCK*%
X139412500Y-65865700D02*
X143600000Y-70053200D01*
X143459200Y-70053200D02*
X143600000Y-70053200D01*
X139412500Y-64250000D02*
X139412500Y-65865700D01*
%TO.N,GND*%
X128090000Y-73350000D02*
X128685896Y-73350000D01*
X130038400Y-66944800D02*
X129133600Y-66040000D01*
X128685896Y-73350000D02*
X130038400Y-71997496D01*
X130038400Y-71997496D02*
X130038400Y-66944800D01*
X134992500Y-85276300D02*
X134992500Y-84000000D01*
X134772400Y-85496400D02*
X134992500Y-85276300D01*
X131841200Y-85648800D02*
X134772400Y-85648800D01*
X129047200Y-88442800D02*
X131841200Y-85648800D01*
X134772400Y-85648800D02*
X134772400Y-85496400D01*
X129946400Y-88442800D02*
X129047200Y-88442800D01*
X129997200Y-88392000D02*
X129946400Y-88442800D01*
X134830000Y-93700000D02*
X136667057Y-93700000D01*
X136667057Y-93700000D02*
X137370000Y-92997057D01*
X133214600Y-88375000D02*
X133197600Y-88392000D01*
X133630000Y-92500000D02*
X134830000Y-93700000D01*
X137370000Y-91466338D02*
X134278662Y-88375000D01*
X137370000Y-92997057D02*
X137370000Y-91466338D01*
X134278662Y-88375000D02*
X133214600Y-88375000D01*
X129047200Y-88442800D02*
X124990000Y-92500000D01*
X133197600Y-88392000D02*
X129997200Y-88392000D01*
X121302585Y-73164844D02*
X121302585Y-73930000D01*
X121082586Y-74150000D02*
X119750000Y-74150000D01*
X120687741Y-72550000D02*
X121302585Y-73164844D01*
X121302585Y-73930000D02*
X121082586Y-74150000D01*
X119750000Y-72550000D02*
X120687741Y-72550000D01*
%TO.N,/Vcc*%
D25*
X107662500Y-73635000D02*
X110565800Y-73635000D01*
X104902000Y-66040000D02*
X106140000Y-66040000D01*
X104902000Y-69604500D02*
X104902000Y-69291200D01*
X107662500Y-72365000D02*
X104902000Y-69604500D01*
X107412500Y-64397500D02*
X114587500Y-64397500D01*
X106140000Y-66040000D02*
X106175000Y-66075000D01*
X106175000Y-65257146D02*
X106175000Y-66075000D01*
%TO.N,GND*%
D26*
X139039600Y-67005200D02*
X139347500Y-67313100D01*
X134992500Y-84000000D02*
X137898800Y-84000000D01*
X137898800Y-84000000D02*
X137922000Y-84023200D01*
X139347500Y-67313100D02*
X139347500Y-69250000D01*
%TO.N,/Vcc*%
D25*
X136585000Y-61484200D02*
X136652000Y-61417200D01*
X117402500Y-64397500D02*
X117550000Y-64250000D01*
X134935000Y-75400000D02*
X134935000Y-75175000D01*
X146567000Y-75175000D02*
X147421600Y-74320400D01*
X136585000Y-71600000D02*
X136585000Y-61484200D01*
X111362900Y-72837900D02*
X110565800Y-73635000D01*
%TO.N,Net-(U4-PB6)*%
D26*
X125805200Y-86055200D02*
X130860800Y-86055200D01*
X117906800Y-75946000D02*
X118102800Y-75750000D01*
X117906800Y-78156800D02*
X117906800Y-75946000D01*
X122500000Y-82750000D02*
X117906800Y-78156800D01*
X130860800Y-82481700D02*
X133092500Y-80250000D01*
X130860800Y-86055200D02*
X130860800Y-82481700D01*
X118102800Y-75750000D02*
X119750000Y-75750000D01*
X122500000Y-82750000D02*
X125805200Y-86055200D01*
%TO.N,Net-(U4-PB7)*%
X119750000Y-76550000D02*
X119750000Y-76846000D01*
X127700000Y-81827600D02*
X127700000Y-82750000D01*
X130454400Y-76657200D02*
X130403600Y-76657200D01*
X131470400Y-75641200D02*
X130454400Y-76657200D01*
X125220000Y-62230000D02*
X131470400Y-62230000D01*
X119735600Y-78790800D02*
X119750000Y-78776400D01*
X127396800Y-79562400D02*
X126949200Y-80010000D01*
X126949200Y-80010000D02*
X126949200Y-81076800D01*
X125214000Y-80264000D02*
X121208800Y-80264000D01*
X130911600Y-80060800D02*
X130413200Y-79562400D01*
X121208800Y-80264000D02*
X119735600Y-78790800D01*
X131470400Y-62230000D02*
X131470400Y-75641200D01*
X127700000Y-82750000D02*
X125214000Y-80264000D01*
X126949200Y-81076800D02*
X127700000Y-81827600D01*
X119750000Y-78776400D02*
X119750000Y-76550000D01*
X130413200Y-79562400D02*
X127396800Y-79562400D01*
X123200000Y-64250000D02*
X125220000Y-62230000D01*
%TO.N,Net-(U4-AREF)*%
X133092500Y-84000000D02*
X131696800Y-84000000D01*
X130860800Y-75387200D02*
X129623600Y-74150000D01*
X129623600Y-74150000D02*
X128090000Y-74150000D01*
X131696800Y-84000000D02*
X131622800Y-84074000D01*
%TO.N,Net-(D1-K)*%
X137537500Y-69235000D02*
X137522500Y-69250000D01*
X137537500Y-64250000D02*
X137537500Y-69235000D01*
%TO.N,Net-(D2-K)*%
X133125000Y-64250000D02*
X133125000Y-69235000D01*
X133125000Y-69235000D02*
X133110000Y-69250000D01*
%TO.N,/SCK*%
X112708300Y-66937500D02*
X114587500Y-66937500D01*
X115316000Y-76962000D02*
X113030000Y-74676000D01*
X142443200Y-71069200D02*
X142443200Y-72288400D01*
X131477285Y-61671200D02*
X111353600Y-61671200D01*
X113030000Y-74676000D02*
X113030000Y-73761600D01*
X113030000Y-73761600D02*
X112979200Y-73710800D01*
X124320000Y-72326800D02*
X121716800Y-74930000D01*
X114710000Y-81635000D02*
X116027200Y-80317800D01*
X145214800Y-81584800D02*
X148500000Y-84870000D01*
X116000000Y-73284999D02*
X115649999Y-73635000D01*
X115649999Y-73635000D02*
X114837500Y-73635000D01*
X115704288Y-70420000D02*
X116000000Y-70715712D01*
X127254000Y-76555600D02*
X127259600Y-76550000D01*
X133110000Y-77500000D02*
X129040000Y-77500000D01*
X116027200Y-80317800D02*
X116027200Y-76962000D01*
X124320000Y-72656400D02*
X126593600Y-74930000D01*
X127259600Y-76550000D02*
X128090000Y-76550000D01*
X141427200Y-81584800D02*
X145214800Y-81584800D01*
X112979200Y-73710800D02*
X113055000Y-73635000D01*
X113475000Y-67237501D02*
X113475000Y-68566076D01*
X113055000Y-73635000D02*
X114837500Y-73635000D01*
X113775001Y-66937500D02*
X113475000Y-67237501D01*
X126880927Y-76350000D02*
X127048400Y-76350000D01*
X143600000Y-70053200D02*
X145696800Y-70053200D01*
X143459200Y-70053200D02*
X142443200Y-71069200D01*
X127048400Y-76350000D02*
X127254000Y-76555600D01*
X112318800Y-66548000D02*
X112708300Y-66937500D01*
X124320000Y-69580000D02*
X124320000Y-72326800D01*
X145696800Y-70053200D02*
X146460000Y-69290000D01*
X116000000Y-70715712D02*
X116000000Y-73284999D01*
X131870400Y-66125000D02*
X131870400Y-62064315D01*
X113725000Y-81635000D02*
X114710000Y-81635000D01*
X115048965Y-73423535D02*
X114837500Y-73635000D01*
X116451135Y-73423535D02*
X115048965Y-73423535D01*
X133110000Y-77500000D02*
X131870400Y-76260400D01*
X115328924Y-70420000D02*
X115704288Y-70420000D01*
X113475000Y-68566076D02*
X115328924Y-70420000D01*
X116027200Y-76962000D02*
X115316000Y-76962000D01*
X124320000Y-69580000D02*
X124320000Y-72656400D01*
X114587500Y-66937500D02*
X113775001Y-66937500D01*
X129040000Y-77500000D02*
X128090000Y-76550000D01*
X142443200Y-72288400D02*
X142595600Y-72440800D01*
%TO.N,/SDA*%
X125933200Y-67411600D02*
X125120000Y-68224800D01*
X148500000Y-82330000D02*
X146230800Y-80060800D01*
X129438400Y-67411600D02*
X125933200Y-67411600D01*
X146230800Y-80060800D02*
X139242800Y-80060800D01*
X125120000Y-69580000D02*
X125120000Y-68659800D01*
X115818200Y-74905000D02*
X117103600Y-73619600D01*
X116535200Y-81079800D02*
X116535200Y-76602700D01*
X133110000Y-75147200D02*
X133110000Y-73250000D01*
X113725000Y-82905000D02*
X114710000Y-82905000D01*
X133197600Y-75234800D02*
X133110000Y-75147200D01*
X125120000Y-68659800D02*
X125005200Y-68545000D01*
X117212500Y-68207500D02*
X117246400Y-68173600D01*
X125120000Y-68224800D02*
X125120000Y-69580000D01*
X133110000Y-73250000D02*
X133146800Y-73213200D01*
X117103600Y-71836671D02*
X118807635Y-70132635D01*
X116535200Y-76602700D02*
X114837500Y-74905000D01*
X114837500Y-74905000D02*
X115818200Y-74905000D01*
X120395271Y-68545000D02*
X125005200Y-68545000D01*
X118807635Y-70132635D02*
X120395271Y-68545000D01*
X114710000Y-82905000D02*
X116535200Y-81079800D01*
X133146800Y-73213200D02*
X133146800Y-71069200D01*
X114587500Y-68207500D02*
X117212500Y-68207500D01*
X117246400Y-68173600D02*
X117246400Y-68571400D01*
X117246400Y-68571400D02*
X118807635Y-70132635D01*
X117103600Y-73619600D02*
X117103600Y-71836671D01*
%TO.N,/D2*%
X109590800Y-90119200D02*
X107210000Y-92500000D01*
X111252000Y-90119200D02*
X109590800Y-90119200D01*
%TO.N,/D7*%
X122720000Y-79254400D02*
X122720000Y-77920000D01*
X123240800Y-89169200D02*
X123240800Y-85445600D01*
X123120000Y-79654400D02*
X122720000Y-79254400D01*
X119910000Y-92500000D02*
X123240800Y-89169200D01*
%TO.N,/D8*%
X122450000Y-92500000D02*
X125673223Y-89276777D01*
X123919945Y-79571545D02*
X123520000Y-79171600D01*
X123919945Y-79664000D02*
X123919945Y-79571545D01*
X125673223Y-89276777D02*
X125673223Y-86640506D01*
X123520000Y-79171600D02*
X123520000Y-77920000D01*
%TO.N,/D5*%
X121208800Y-79248000D02*
X121208800Y-78008800D01*
X119075200Y-88254800D02*
X119075200Y-80568800D01*
X121208800Y-78008800D02*
X121120000Y-77920000D01*
X114830000Y-92500000D02*
X119075200Y-88254800D01*
%TO.N,/D6*%
X121892134Y-79664000D02*
X121892134Y-77947866D01*
X117370000Y-92500000D02*
X119735600Y-90134400D01*
X121892134Y-77947866D02*
X121920000Y-77920000D01*
X119735600Y-90134400D02*
X119735600Y-82753200D01*
%TO.N,/MOSI*%
X147732261Y-73570400D02*
X148171600Y-74009739D01*
X148171600Y-74631061D02*
X143847661Y-78955000D01*
X143847661Y-78955000D02*
X126316400Y-78955000D01*
X148171600Y-74009739D02*
X148171600Y-74631061D01*
X125920000Y-78558600D02*
X125920000Y-77920000D01*
X147732261Y-70557739D02*
X147732261Y-73570400D01*
X126316400Y-78955000D02*
X125920000Y-78558600D01*
X149000000Y-69290000D02*
X147732261Y-70557739D01*
%TO.N,/RESET*%
X123148800Y-75955600D02*
X123698000Y-76504800D01*
X139347500Y-73250000D02*
X143005600Y-73250000D01*
X143005600Y-73250000D02*
X144425600Y-71830000D01*
X123148800Y-75138671D02*
X123148800Y-75955600D01*
X130251200Y-82066456D02*
X130251200Y-85344000D01*
X144425600Y-71830000D02*
X146460000Y-71830000D01*
X128676400Y-80491656D02*
X130251200Y-82066456D01*
X123713071Y-74574400D02*
X123148800Y-75138671D01*
X140360400Y-82499200D02*
X140360400Y-80721200D01*
X125222000Y-74574400D02*
X123713071Y-74574400D01*
X135432800Y-87426800D02*
X140360400Y-82499200D01*
X128676400Y-80162400D02*
X128676400Y-80491656D01*
X140411200Y-74313700D02*
X139347500Y-73250000D01*
X140411200Y-74320400D02*
X140411200Y-74313700D01*
X132130800Y-87426800D02*
X135432800Y-87426800D01*
%TO.N,Net-(U2-~{INTA})*%
X107790000Y-81635000D02*
X107238800Y-82186200D01*
X107238800Y-87071200D02*
X107310000Y-87000000D01*
X107238800Y-82186200D02*
X107238800Y-87071200D01*
X107310000Y-87000000D02*
X108587500Y-87000000D01*
X108775000Y-81635000D02*
X107790000Y-81635000D01*
%TO.N,Net-(U2-SQW{slash}~INT)*%
X113284000Y-88646000D02*
X112587500Y-87949500D01*
X112440000Y-80665000D02*
X112440000Y-83484000D01*
X113603062Y-83701400D02*
X115275000Y-85373338D01*
X112587500Y-87949500D02*
X112587500Y-87000000D01*
X115275000Y-88026600D02*
X114655600Y-88646000D01*
X113725000Y-80365000D02*
X112740000Y-80365000D01*
X112740000Y-80365000D02*
X112440000Y-80665000D01*
X114655600Y-88646000D02*
X113284000Y-88646000D01*
X112440000Y-83484000D02*
X112657400Y-83701400D01*
X115275000Y-85373338D02*
X115275000Y-88026600D01*
X112657400Y-83701400D02*
X113603062Y-83701400D01*
%TO.N,Net-(U2-X1)*%
X105731200Y-80400000D02*
X107036200Y-79095000D01*
X107036200Y-79095000D02*
X108775000Y-79095000D01*
X103500000Y-80400000D02*
X105731200Y-80400000D01*
%TO.N,Net-(U2-X2)*%
X106527600Y-81072400D02*
X106527600Y-80467200D01*
X106629800Y-80365000D02*
X108775000Y-80365000D01*
X106527600Y-80467200D02*
X106629800Y-80365000D01*
X103500000Y-84100000D02*
X106527600Y-81072400D01*
%TO.N,/Vcc*%
D25*
X114735000Y-64250000D02*
X114587500Y-64397500D01*
X117550000Y-64250000D02*
X114735000Y-64250000D01*
%TO.N,Net-(BT1-+)*%
D26*
X118262400Y-73406000D02*
X118318400Y-73350000D01*
X118318400Y-73350000D02*
X119750000Y-73350000D01*
X125050000Y-64250000D02*
X121482000Y-67818000D01*
X117703600Y-72085200D02*
X117703600Y-72847200D01*
X126339600Y-62960400D02*
X125050000Y-64250000D01*
X117703600Y-72847200D02*
X118262400Y-73406000D01*
X124111600Y-75750000D02*
X128090000Y-75750000D01*
%TO.N,GND*%
X100787200Y-68681600D02*
X101261300Y-68207500D01*
%TO.N,/Vcc*%
D25*
X136652000Y-61417200D02*
X143667200Y-61417200D01*
X113385600Y-84226400D02*
X111875000Y-84226400D01*
X111913000Y-79095000D02*
X111658400Y-79349600D01*
X113935523Y-71619123D02*
X113939646Y-71615000D01*
X114554000Y-71378500D02*
X114837500Y-71095000D01*
X114412500Y-85253300D02*
X113385600Y-84226400D01*
X143667200Y-61417200D02*
X149000000Y-66750000D01*
X114554000Y-71615000D02*
X114554000Y-71378500D01*
X111362900Y-72837900D02*
X112581677Y-71619123D01*
X143002000Y-75273000D02*
X143100000Y-75175000D01*
X137522500Y-73250000D02*
X134935000Y-73250000D01*
X134935000Y-73250000D02*
X136585000Y-71600000D01*
X110412500Y-87000000D02*
X110412500Y-85688900D01*
X143100000Y-75175000D02*
X146567000Y-75175000D01*
X112581677Y-71619123D02*
X113935523Y-71619123D01*
X114412500Y-87000000D02*
X114412500Y-85253300D01*
X113939646Y-71615000D02*
X114554000Y-71615000D01*
X111362900Y-76732900D02*
X111362900Y-72837900D01*
X113725000Y-79095000D02*
X111913000Y-79095000D01*
X110412500Y-85688900D02*
X111875000Y-84226400D01*
X134935000Y-75175000D02*
X143100000Y-75175000D01*
X134935000Y-77500000D02*
X134935000Y-75400000D01*
X148065200Y-79790000D02*
X146304000Y-78028800D01*
X134935000Y-75175000D02*
X134935000Y-73250000D01*
X110787500Y-72262500D02*
X111362900Y-72837900D01*
X143002000Y-76504800D02*
X143002000Y-75273000D01*
X148500000Y-79790000D02*
X148065200Y-79790000D01*
X111658400Y-79349600D02*
X111658400Y-84226400D01*
%TO.N,GND*%
D26*
X107412500Y-68207500D02*
X108285000Y-68207500D01*
%TO.N,/Vcc*%
D25*
X111658400Y-84226400D02*
X111875000Y-84226400D01*
%TO.N,GND*%
D26*
X108285000Y-68207500D02*
X110825000Y-65667500D01*
%TO.N,/Vcc*%
D25*
X113725000Y-79095000D02*
X111362900Y-76732900D01*
%TO.N,GND*%
D26*
X128740000Y-66040000D02*
X129133600Y-66040000D01*
X103000000Y-73540000D02*
X100736400Y-71276400D01*
X107412500Y-65667500D02*
X110825000Y-65667500D01*
X126950000Y-64250000D02*
X128740000Y-66040000D01*
X114587500Y-65667500D02*
X118032500Y-65667500D01*
X110825000Y-65667500D02*
X114587500Y-65667500D01*
X101261300Y-68207500D02*
X107412500Y-68207500D01*
X100736400Y-71276400D02*
X100736400Y-68681600D01*
X134992500Y-84000000D02*
X134992500Y-80250000D01*
X100736400Y-68681600D02*
X100787200Y-68681600D01*
X119450000Y-64250000D02*
X121300000Y-64250000D01*
%TO.N,Net-(BT1-+)*%
X131760800Y-61010800D02*
X128016000Y-61010800D01*
X123748800Y-75387200D02*
X124111600Y-75750000D01*
X126339600Y-62830000D02*
X126339600Y-62960400D01*
X135000000Y-64250000D02*
X131760800Y-61010800D01*
X121482000Y-67818000D02*
X120954800Y-67818000D01*
%TO.N,GND*%
X118032500Y-65667500D02*
X119450000Y-64250000D01*
%TD*%
M02*
