%TF.GenerationSoftware,KiCad,Pcbnew,10.0.1*%
%TF.CreationDate,2026-05-14T10:50:37-07:00*%
%TF.ProjectId,MCU Datalogger,4d435520-4461-4746-916c-6f676765722e,1*%
%TF.SameCoordinates,Original*%
%TF.FileFunction,Soldermask,Top*%
%TF.FilePolarity,Negative*%
%FSLAX46Y46*%
G04 Gerber Fmt 4.6, Leading zero omitted, Abs format (unit mm)*
G04 Created by KiCad (PCBNEW 10.0.1) date 2026-05-14 10:50:37*
%MOMM*%
%LPD*%
G01*
G04 APERTURE LIST*
G04 Aperture macros list*
%AMRoundRect*
0 Rectangle with rounded corners*
0 $1 Rounding radius*
0 $2 $3 $4 $5 $6 $7 $8 $9 X,Y pos of 4 corners*
0 Add a 4 corners polygon primitive as box body*
4,1,4,$2,$3,$4,$5,$6,$7,$8,$9,$2,$3,0*
0 Add four circle primitives for the rounded corners*
1,1,$1+$1,$2,$3*
1,1,$1+$1,$4,$5*
1,1,$1+$1,$6,$7*
1,1,$1+$1,$8,$9*
0 Add four rect primitives between the rounded corners*
20,1,$1+$1,$2,$3,$4,$5,0*
20,1,$1+$1,$4,$5,$6,$7,0*
20,1,$1+$1,$6,$7,$8,$9,0*
20,1,$1+$1,$8,$9,$2,$3,0*%
G04 Aperture macros list end*
%ADD10R,1.700000X1.700000*%
%ADD11C,1.700000*%
%ADD12RoundRect,0.250000X0.950000X-0.750000X0.950000X0.750000X-0.950000X0.750000X-0.950000X-0.750000X0*%
%ADD13RoundRect,0.250001X1.499999X0.949999X-1.499999X0.949999X-1.499999X-0.949999X1.499999X-0.949999X0*%
%ADD14RoundRect,0.250000X0.262500X0.450000X-0.262500X0.450000X-0.262500X-0.450000X0.262500X-0.450000X0*%
%ADD15RoundRect,0.162500X-0.650000X-0.162500X0.650000X-0.162500X0.650000X0.162500X-0.650000X0.162500X0*%
%ADD16C,2.100000*%
%ADD17RoundRect,0.250000X0.250000X0.475000X-0.250000X0.475000X-0.250000X-0.475000X0.250000X-0.475000X0*%
%ADD18RoundRect,0.094250X-0.742750X-0.282750X0.742750X-0.282750X0.742750X0.282750X-0.742750X0.282750X0*%
%ADD19RoundRect,0.094250X-0.282750X-0.742750X0.282750X-0.742750X0.282750X0.742750X-0.282750X0.742750X0*%
%ADD20RoundRect,0.243750X-0.243750X-0.456250X0.243750X-0.456250X0.243750X0.456250X-0.243750X0.456250X0*%
%ADD21RoundRect,0.250000X-0.262500X-0.450000X0.262500X-0.450000X0.262500X0.450000X-0.262500X0.450000X0*%
%ADD22RoundRect,0.099250X-0.987750X-0.297750X0.987750X-0.297750X0.987750X0.297750X-0.987750X0.297750X0*%
%ADD23RoundRect,0.250000X-0.250000X-0.475000X0.250000X-0.475000X0.250000X0.475000X-0.250000X0.475000X0*%
G04 APERTURE END LIST*
D10*
%TO.C,J2*%
X107210000Y-92500000D03*
D11*
X109750000Y-92500000D03*
X112290000Y-92500000D03*
X114830000Y-92500000D03*
X117370000Y-92500000D03*
X119910000Y-92500000D03*
X122450000Y-92500000D03*
X124990000Y-92500000D03*
X127530000Y-92500000D03*
%TD*%
D12*
%TO.C,Y1*%
X103500000Y-84100000D03*
X103500000Y-80400000D03*
%TD*%
D13*
%TO.C,Y2*%
X127700000Y-82750000D03*
X122500000Y-82750000D03*
%TD*%
D14*
%TO.C,R5*%
X137522500Y-69250000D03*
X139347500Y-69250000D03*
%TD*%
D11*
%TO.C,J1*%
X148500000Y-84870000D03*
X148500000Y-82330000D03*
X148500000Y-79790000D03*
D10*
X148500000Y-77250000D03*
%TD*%
D15*
%TO.C,U1*%
X114837500Y-71095000D03*
X114837500Y-72365000D03*
X114837500Y-73635000D03*
X114837500Y-74905000D03*
X107662500Y-74905000D03*
X107662500Y-73635000D03*
X107662500Y-72365000D03*
X107662500Y-71095000D03*
%TD*%
D14*
%TO.C,R2*%
X112587500Y-87000000D03*
X114412500Y-87000000D03*
%TD*%
D16*
%TO.C,H2*%
X102500000Y-92500000D03*
%TD*%
D11*
%TO.C,J3*%
X141250000Y-92500000D03*
X138710000Y-92500000D03*
X136170000Y-92500000D03*
D10*
X133630000Y-92500000D03*
%TD*%
D17*
%TO.C,C1*%
X117550000Y-64250000D03*
X119450000Y-64250000D03*
%TD*%
D18*
%TO.C,U4*%
X119750000Y-70950000D03*
X119750000Y-71750000D03*
X119750000Y-72550000D03*
X119750000Y-73350000D03*
X119750000Y-74150000D03*
X119750000Y-74950000D03*
X119750000Y-75750000D03*
X119750000Y-76550000D03*
D19*
X121120000Y-77920000D03*
X121920000Y-77920000D03*
X122720000Y-77920000D03*
X123520000Y-77920000D03*
X124320000Y-77920000D03*
X125120000Y-77920000D03*
X125920000Y-77920000D03*
X126720000Y-77920000D03*
D18*
X128090000Y-76550000D03*
X128090000Y-75750000D03*
X128090000Y-74950000D03*
X128090000Y-74150000D03*
X128090000Y-73350000D03*
X128090000Y-72550000D03*
X128090000Y-71750000D03*
X128090000Y-70950000D03*
D19*
X126720000Y-69580000D03*
X125920000Y-69580000D03*
X125120000Y-69580000D03*
X124320000Y-69580000D03*
X123520000Y-69580000D03*
X122720000Y-69580000D03*
X121920000Y-69580000D03*
X121120000Y-69580000D03*
%TD*%
D20*
%TO.C,D1*%
X139412500Y-64250000D03*
X137537500Y-64250000D03*
%TD*%
D21*
%TO.C,R1*%
X110412500Y-87000000D03*
X108587500Y-87000000D03*
%TD*%
D16*
%TO.C,H1*%
X102500000Y-62500000D03*
%TD*%
D17*
%TO.C,C2*%
X133092500Y-80250000D03*
X134992500Y-80250000D03*
%TD*%
D22*
%TO.C,U2*%
X113725000Y-79095000D03*
X113725000Y-80365000D03*
X113725000Y-81635000D03*
X113725000Y-82905000D03*
X108775000Y-82905000D03*
X108775000Y-81635000D03*
X108775000Y-80365000D03*
X108775000Y-79095000D03*
%TD*%
D11*
%TO.C,BT1*%
X103000000Y-73540000D03*
D10*
X103000000Y-71000000D03*
%TD*%
D15*
%TO.C,U3*%
X114587500Y-64397500D03*
X114587500Y-65667500D03*
X114587500Y-66937500D03*
X114587500Y-68207500D03*
X107412500Y-68207500D03*
X107412500Y-66937500D03*
X107412500Y-65667500D03*
X107412500Y-64397500D03*
%TD*%
D21*
%TO.C,R7*%
X134935000Y-69250000D03*
X133110000Y-69250000D03*
%TD*%
%TO.C,R6*%
X139347500Y-73250000D03*
X137522500Y-73250000D03*
%TD*%
D23*
%TO.C,C3*%
X123200000Y-64250000D03*
X121300000Y-64250000D03*
%TD*%
D16*
%TO.C,H3*%
X148500000Y-92500000D03*
%TD*%
D14*
%TO.C,R3*%
X133110000Y-77500000D03*
X134935000Y-77500000D03*
%TD*%
D20*
%TO.C,D2*%
X135000000Y-64250000D03*
X133125000Y-64250000D03*
%TD*%
D14*
%TO.C,R4*%
X133110000Y-73250000D03*
X134935000Y-73250000D03*
%TD*%
D23*
%TO.C,C5*%
X126950000Y-64250000D03*
X125050000Y-64250000D03*
%TD*%
D17*
%TO.C,C4*%
X133092500Y-84000000D03*
X134992500Y-84000000D03*
%TD*%
D16*
%TO.C,H4*%
X148500000Y-62500000D03*
%TD*%
D11*
%TO.C,J4*%
X149000000Y-71830000D03*
X146460000Y-71830000D03*
X149000000Y-69290000D03*
X146460000Y-69290000D03*
X149000000Y-66750000D03*
D10*
X146460000Y-66750000D03*
%TD*%
M02*
